#VRML V2.0 utf8
# 3D model generated by easyeda2kicad.py (https://github.com/uPesy/easyeda2kicad.py)

Shape{
    appearance Appearance {
        material  Material 	{
            diffuseColor 0.25098039215686274 0.25098039215686274 0.25098039215686274
            specularColor 0.12549019607843137 0.12549019607843137 0.12549019607843137
            ambientIntensity 0.251
            transparency 0.0
            shininess 0.5
        }
    }
    geometry IndexedFaceSet {
        ccw TRUE
        solid FALSE
        coord DEF co Coordinate {
            point [
                -0.2005 0.2558 0.748, -0.2005 0.3096 0.748, -0.4297 0.3096 0.748, -0.1441 -0.2558 0.748, -0.1441 -0.4358 0.748, 0.5116 -0.4722 0.748, -0.5116 -0.4722 0.748, -0.4717 -0.4358 0.748, -0.5116 0.4722 0.748, -0.2257 -0.0224 0.748, -0.295 -0.0224 0.748, -0.295 -0.0959 0.748, -0.4108 0.0224 0.748, -0.3414 0.0224 0.748, -0.3414 0.0959 0.748, -0.3414 -0.0959 0.748, -0.3414 -0.0224 0.748, -0.4297 -0.3096 0.748, -0.4108 -0.0224 0.748, -0.1441 0.2558 0.748, -0.295 0.0959 0.748, -0.295 0.0224 0.748, -0.2005 -0.3096 0.748, -0.2005 -0.2558 0.748, -0.2257 0.0224 0.748, 0.5116 0.4722 0.748, -0.4717 0.4358 0.748, -0.1441 0.4358 0.748, -0.0524 -0.4887 0.0394, -0.2919 -0.4887 0.0394, -0.2919 -0.0399 0.0394, -0.0524 0.4887 0.0394, -0.0447 -0.0307 0.0394, -0.0524 -0.0399 0.0394, -0.0447 -0.0394 0.0394, -0.0025 -0.0394 0.0394, -0.0428 0.0307 0.0394, -0.013 0.0307 0.0394, -0.013 0.0048 0.0394, 0.0129 -0.0353 0.0394, 0.0129 -0.0267 0.0394, -0.0025 0.0394 0.0394, 0.0213 -0.0388 0.0394, 0.0293 -0.0399 0.0394, -0.013 -0.0039 0.0394, -0.013 -0.0307 0.0394, -0.0409 -0.0039 0.0394, -0.0409 0.0048 0.0394, 0.0519 -0.0367 0.0394, 0.0782 -0.0394 0.0394, 0.0443 -0.0393 0.0394, 0.0392 -0.0399 0.0394, -0.0428 0.0394 0.0394, 0.0673 0.0186 0.0394, 0.0627 0.026 0.0394, 0.108 0.0394 0.0394, 0.0391 0.0308 0.0394, 0.045 0.0287 0.0394, 0.0143 -0.0274 0.0394, 0.0504 0.025 0.0394, 0.0552 0.0198 0.0394, 0.0609 -0.0009 0.0394, 0.0601 -0.0094 0.0394, 0.058 -0.0162 0.0394, 0.0405 -0.0309 0.0394, 0.0331 -0.0317 0.0394, 0.0462 -0.0288 0.0394, 0.051 -0.0255 0.0394, 0.0547 -0.0216 0.0394, 0.0227 -0.0305 0.0394, 0.0584 0.0137 0.0394, 0.0605 0.0053 0.0394, 0.0556 0.0328 0.0394, 0.1185 0.0394 0.0394, 0.2919 0.4887 0.0394, 0.1185 -0.0394 0.0394, 0.2919 -0.0399 0.0394, 0.0582 -0.0327 0.0394, 0.0642 -0.0264 0.0394, 0.0782 -0.0307 0.0394, 0.0684 -0.019 0.0394, 0.108 -0.0307 0.0394, 0.0707 -0.0106 0.0394, 0.0715 -0.0015 0.0394, 0.0704 0.0097 0.0394, 0.0481 0.0371 0.0394, 0.0393 0.0397 0.0394, 0.0314 0.0403 0.0394, 0.022 0.0397 0.0394, 0.0129 0.0372 0.0394, 0.0129 0.0266 0.0394, 0.0218 0.0304 0.0394, 0.0313 0.0317 0.0394, 0.0324 -0.0403 0.0394, 0.2919 -0.4887 0.0394, 0.0346 -0.0403 0.0394, -0.1292 -0.0394 0.0394, -0.1195 -0.0178 0.0394, -0.115 -0.0248 0.0394, -0.2003 -0.0394 0.0394, -0.1695 0.0394 0.0394, -0.2919 0.4887 0.0394, -0.159 0.0394 0.0394, -0.1887 -0.0394 0.0394, -0.1085 -0.0311 0.0394, -0.1003 -0.0358 0.0394, -0.0912 -0.0385 0.0394, -0.0815 -0.0394 0.0394, -0.0601 -0.0394 0.0394, -0.0601 0.0394 0.0394, -0.0823 0.0394 0.0394, -0.1115 0.0291 0.0394, -0.1171 0.0229 0.0394, -0.1208 0.0161 0.0394, -0.0937 0.0381 0.0394, -0.1029 0.0349 0.0394, -0.1114 0.0292 0.0394, -0.1407 -0.0394 0.0394, -0.1482 -0.0173 0.0394, -0.1808 -0.0173 0.0394, -0.1229 0.0084 0.0394, -0.1234 0.001 0.0394, -0.1223 -0.0096 0.0394, 0.5752 0.3788 0.3068, 0.5385 0.4797 0.0984, 0.5906 0.5318 0.3937, 0.5385 -0.4797 0.0984, 0.5752 -0.3788 0.3068, 0.5906 -0.5318 0.3937, 0.5903 -0.3355 0.3921, 0.5903 0.3355 0.3921
            ]
        }
        coordIndex [
            0,1,2,-1,3,4,5,-1,5,4,6,-1,6,4,7,-1,6,7,8,-1,9,10,11,-1,12,13,14,-1,15,16,17,-1,17,16,18,-1,17,18,2,-1,2,18,12,-1,2,12,0,-1,0,12,14,-1,0,14,19,-1,19,14,20,-1,19,20,21,-1,17,22,15,-1,15,22,23,-1,15,23,11,-1,11,23,3,-1,11,3,9,-1,9,3,5,-1,9,5,24,-1,24,5,25,-1,7,26,8,-1,8,26,27,-1,8,27,25,-1,25,27,19,-1,25,19,24,-1,24,19,21,-1,28,29,30,-1,31,32,33,-1,33,32,34,-1,33,34,35,-1,36,37,38,-1,39,35,40,-1,40,35,41,-1,39,42,35,-1,35,42,43,-1,35,43,33,-1,44,45,46,-1,46,45,32,-1,46,32,47,-1,48,49,50,-1,50,49,51,-1,38,47,36,-1,36,47,32,-1,36,32,52,-1,52,32,31,-1,52,31,41,-1,53,54,55,-1,56,57,58,-1,58,57,59,-1,58,59,60,-1,61,62,58,-1,58,62,63,-1,64,65,66,-1,66,65,67,-1,63,68,58,-1,58,68,67,-1,58,67,69,-1,69,67,65,-1,60,70,58,-1,58,70,71,-1,58,71,61,-1,54,72,55,-1,55,72,31,-1,55,31,73,-1,73,31,74,-1,73,74,75,-1,75,74,76,-1,48,77,49,-1,49,77,78,-1,49,78,79,-1,79,78,80,-1,79,80,81,-1,80,82,81,-1,81,82,83,-1,81,83,55,-1,55,83,84,-1,55,84,53,-1,72,85,31,-1,31,85,86,-1,31,86,87,-1,87,88,31,-1,31,88,89,-1,31,89,41,-1,41,89,90,-1,41,90,40,-1,40,90,91,-1,40,91,58,-1,58,91,92,-1,58,92,56,-1,28,93,94,-1,94,93,95,-1,94,95,76,-1,76,95,51,-1,76,51,75,-1,75,51,49,-1,96,97,98,-1,99,30,100,-1,100,30,101,-1,100,101,102,-1,102,101,31,-1,99,103,30,-1,30,103,33,-1,30,33,28,-1,28,33,43,-1,28,43,93,-1,98,104,96,-1,96,104,105,-1,96,105,106,-1,107,108,33,-1,33,108,109,-1,33,109,31,-1,31,109,110,-1,111,112,102,-1,102,112,113,-1,110,114,31,-1,31,114,115,-1,31,115,102,-1,102,115,116,-1,102,116,111,-1,106,107,96,-1,96,107,33,-1,96,33,117,-1,117,33,103,-1,117,103,118,-1,118,103,119,-1,113,120,102,-1,102,120,121,-1,102,121,96,-1,96,121,122,-1,96,122,97,-1,123,124,125,-1,124,123,126,-1,126,123,127,-1,126,127,128,-1,128,127,129,-1,128,129,125,-1,125,129,130,-1,125,130,123,-1,
        ]
    }
}
Shape{
    appearance Appearance {
        material  Material 	{
            diffuseColor 1.0 1.0 1.0
            specularColor 0.5019607843137255 0.5019607843137255 0.5019607843137255
            ambientIntensity 1.0
            transparency 0.0
            shininess 0.5
        }
    }
    geometry IndexedFaceSet {
        ccw TRUE
        solid FALSE
        coord DEF co Coordinate {
            point [
                -0.689 -0.3843 0.2756, -0.689 0.3843 0.2756, -0.689 -0.4331 0.1765, -0.689 0.4331 0.1765, -0.689 -0.4331 0.1181, -0.689 0.4331 0.1181, -0.5903 -0.3355 0.3921, -0.5903 0.3355 0.3921, -0.6168 0.3369 0.3844, -0.6168 -0.3369 0.3844, -0.6408 0.3416 0.3708, -0.6408 -0.3416 0.3708, -0.661 0.3491 0.3519, -0.661 -0.3491 0.3519, -0.6762 0.3591 0.3289, -0.6762 -0.3591 0.3289, -0.6857 0.371 0.303, -0.6857 -0.371 0.303, -0.6024 -0.3918 0.2756, -0.6024 0.3918 0.2756, -0.6015 0.3882 0.283, -0.6015 -0.3882 0.283, -0.5988 0.385 0.2901, -0.5988 -0.385 0.2901, -0.5946 0.3823 0.2963, -0.5946 -0.3823 0.2963, -0.5891 0.3803 0.3013, -0.5891 -0.3803 0.3013, -0.5825 0.3791 0.3049, -0.5825 -0.3791 0.3049, -0.5789 0.3788 0.306, -0.5752 0.3788 0.3068, -0.5752 -0.3788 0.3068, -0.5789 -0.3788 0.306, -0.6024 -0.4331 0.1181, -0.6024 0.4331 0.1181, -0.6024 0.4331 0.1917, -0.6024 -0.4331 0.1917, -0.374 0.4331 0.0866, -0.374 0.4331 0.0, -0.5709 0.4331 0.0866, -0.5709 0.4331 0.0, -0.579 0.4331 0.0877, -0.6014 0.4331 0.004, -0.5866 0.4331 0.0908, -0.6299 0.4331 0.0158, -0.5931 0.4331 0.0958, -0.6544 0.4331 0.0346, -0.5981 0.4331 0.1024, -0.6732 0.4331 0.0591, -0.6013 0.4331 0.11, -0.685 0.4331 0.0875, -0.6013 -0.4331 0.11, -0.685 -0.4331 0.0875, -0.5981 -0.4331 0.1024, -0.6732 -0.4331 0.0591, -0.5931 -0.4331 0.0958, -0.6544 -0.4331 0.0346, -0.5866 -0.4331 0.0908, -0.6299 -0.4331 0.0158, -0.579 -0.4331 0.0877, -0.6014 -0.4331 0.004, -0.5709 -0.4331 0.0866, -0.5709 -0.4331 0.0, -0.374 -0.4331 0.0866, -0.374 -0.4331 0.0
            ]
        }
        coordIndex [
            0,1,2,-1,2,1,3,-1,2,3,4,-1,4,3,5,-1,6,7,8,-1,6,8,9,-1,9,8,10,-1,9,10,11,-1,11,10,12,-1,11,12,13,-1,13,12,14,-1,13,14,15,-1,15,14,16,-1,15,16,17,-1,17,16,1,-1,17,1,0,-1,18,19,20,-1,18,20,21,-1,21,20,22,-1,21,22,23,-1,23,22,24,-1,23,24,25,-1,25,24,26,-1,25,26,27,-1,27,26,28,-1,27,28,29,-1,30,31,32,-1,30,32,28,-1,28,32,33,-1,28,33,29,-1,34,35,36,-1,34,36,37,-1,37,36,19,-1,37,19,18,-1,38,39,40,-1,40,39,41,-1,40,41,42,-1,42,41,43,-1,42,43,44,-1,44,43,45,-1,44,45,46,-1,46,45,47,-1,46,47,48,-1,48,47,49,-1,48,49,50,-1,50,49,51,-1,50,51,35,-1,35,51,5,-1,35,5,36,-1,36,5,3,-1,37,2,34,-1,34,2,4,-1,34,4,52,-1,52,4,53,-1,52,53,54,-1,54,53,55,-1,54,55,56,-1,56,55,57,-1,56,57,58,-1,58,57,59,-1,58,59,60,-1,60,59,61,-1,60,61,62,-1,62,61,63,-1,62,63,64,-1,64,63,65,-1,
        ]
    }
}
Shape{
    appearance Appearance {
        material  Material 	{
            diffuseColor 0.25098039215686274 0.25098039215686274 0.25098039215686274
            specularColor 0.12549019607843137 0.12549019607843137 0.12549019607843137
            ambientIntensity 0.251
            transparency 0.0
            shininess 0.5
        }
    }
    geometry IndexedFaceSet {
        ccw TRUE
        solid FALSE
        coord DEF co Coordinate {
            point [
                -0.5752 -0.3788 0.3068, -0.5385 -0.4797 0.0984, -0.5906 -0.5318 0.3937, -0.5385 0.4797 0.0984, -0.5752 0.3788 0.3068, -0.5906 0.5318 0.3937, -0.5903 0.3355 0.3921, -0.5903 -0.3355 0.3921, 0.2919 -0.4991 0.0984, 0.5191 -0.4991 0.0984, 0.5712 -0.5512 0.3937, -0.2919 -0.4991 0.0984, -0.2919 -0.4887 0.0394, -0.0524 -0.4887 0.0394, -0.5712 -0.5512 0.3937, -0.5191 -0.4991 0.0984, 0.2919 -0.4887 0.0394, 0.5712 0.5512 0.3937, 0.5191 0.4991 0.0984, -0.5712 0.5512 0.3937, 0.2919 0.4991 0.0984, -0.0524 0.4887 0.0394, -0.2919 0.4887 0.0394, -0.2919 0.4991 0.0984, -0.5191 0.4991 0.0984, 0.2919 0.4887 0.0394, 0.5906 -0.5318 0.3937, 0.5906 0.5318 0.3937, 0.5309 -0.4722 0.7318, 0.5309 0.4722 0.7318, -0.5116 0.4916 0.7318, 0.5116 0.4916 0.7318, -0.5309 0.4722 0.7318, -0.5309 -0.4722 0.7318, -0.5116 -0.4916 0.7318, 0.5116 -0.4916 0.7318, -0.2919 -0.0399 0.0394, -0.5359 -0.4895 0.0984, -0.537 -0.4872 0.0984, -0.5266 -0.4977 0.0984, -0.5242 -0.4985 0.0984, -0.5378 -0.4848 0.0984, -0.5378 0.4848 0.0984, -0.537 0.4872 0.0984, -0.5288 -0.4965 0.0984, -0.5309 -0.4951 0.0984, -0.5345 -0.4916 0.0984, -0.5328 -0.4935 0.0984, -0.5328 0.4935 0.0984, -0.5309 0.4951 0.0984, -0.5345 0.4916 0.0984, -0.5288 0.4965 0.0984, -0.5359 0.4895 0.0984, -0.5266 0.4977 0.0984, -0.5242 0.4985 0.0984, 0.2919 -0.0399 0.0394, 0.5385 -0.4797 0.0984, 0.5385 0.4797 0.0984, 0.5378 -0.4848 0.0984, 0.5266 -0.4977 0.0984, 0.5242 -0.4985 0.0984, 0.537 -0.4872 0.0984, 0.5359 -0.4895 0.0984, 0.5288 -0.4965 0.0984, 0.5242 0.4985 0.0984, 0.537 0.4872 0.0984, 0.5378 0.4848 0.0984, 0.5309 -0.4951 0.0984, 0.5345 -0.4916 0.0984, 0.5328 -0.4935 0.0984, 0.5266 0.4977 0.0984, 0.5288 0.4965 0.0984, 0.5359 0.4895 0.0984, 0.5309 0.4951 0.0984, 0.5345 0.4916 0.0984, 0.5328 0.4935 0.0984
            ]
        }
        coordIndex [
            0,1,2,-1,1,0,3,-1,3,0,4,-1,3,4,5,-1,5,4,6,-1,5,6,2,-1,2,6,7,-1,2,7,0,-1,8,9,10,-1,11,12,13,-1,14,15,10,-1,10,15,11,-1,10,11,8,-1,8,11,13,-1,8,13,16,-1,17,18,19,-1,19,18,20,-1,21,22,23,-1,24,19,23,-1,23,19,20,-1,23,20,21,-1,21,20,25,-1,26,27,28,-1,28,27,29,-1,30,31,19,-1,19,31,17,-1,5,2,32,-1,32,2,33,-1,14,10,34,-1,34,10,35,-1,12,11,36,-1,36,11,23,-1,36,23,22,-1,1,11,15,-1,37,38,39,-1,15,40,1,-1,1,40,39,-1,1,39,41,-1,41,39,38,-1,11,1,23,-1,23,1,3,-1,23,3,24,-1,24,3,42,-1,24,42,43,-1,39,44,37,-1,37,44,45,-1,37,45,46,-1,46,45,47,-1,48,49,50,-1,50,49,51,-1,50,51,52,-1,52,51,53,-1,52,53,43,-1,43,53,54,-1,43,54,24,-1,25,20,55,-1,55,20,8,-1,55,8,16,-1,9,8,56,-1,8,20,56,-1,56,20,18,-1,56,18,57,-1,58,59,56,-1,56,59,60,-1,56,60,9,-1,58,61,59,-1,59,61,62,-1,59,62,63,-1,64,65,18,-1,18,65,66,-1,18,66,57,-1,63,62,67,-1,67,62,68,-1,67,68,69,-1,64,70,65,-1,65,70,71,-1,65,71,72,-1,72,71,73,-1,72,73,74,-1,74,73,75,-1,
        ]
    }
}
Shape{
    appearance Appearance {
        material  Material 	{
            diffuseColor 1.0 1.0 1.0
            specularColor 0.5019607843137255 0.5019607843137255 0.5019607843137255
            ambientIntensity 1.0
            transparency 0.0
            shininess 0.5
        }
    }
    geometry IndexedFaceSet {
        ccw TRUE
        solid FALSE
        coord DEF co Coordinate {
            point [
                -0.374 0.4331 0.0866, -0.5709 0.4331 0.0866, -0.374 -0.4331 0.0866, -0.5709 -0.4331 0.0866, -0.374 0.4331 0.0, -0.374 -0.4331 0.0, -0.5709 0.4331 0.0, -0.5709 -0.4331 0.0, -0.6014 -0.4331 0.004, -0.6014 0.4331 0.004, -0.6299 -0.4331 0.0158, -0.6299 0.4331 0.0158, -0.6544 -0.4331 0.0346, -0.6544 0.4331 0.0346, -0.6732 -0.4331 0.0591, -0.6732 0.4331 0.0591, -0.685 -0.4331 0.0875, -0.685 0.4331 0.0875, -0.689 -0.4331 0.1181, -0.689 0.4331 0.1181, -0.6024 0.4331 0.1181, -0.6024 -0.4331 0.1181, -0.6013 0.4331 0.11, -0.6013 -0.4331 0.11, -0.5981 0.4331 0.1024, -0.5981 -0.4331 0.1024, -0.5931 0.4331 0.0958, -0.5931 -0.4331 0.0958, -0.5866 0.4331 0.0908, -0.5866 -0.4331 0.0908, -0.579 0.4331 0.0877, -0.579 -0.4331 0.0877, -0.689 -0.4331 0.1765, -0.6024 -0.4331 0.1917, -0.689 -0.3843 0.2756, -0.6024 -0.3918 0.2756, -0.6857 -0.371 0.303, -0.6015 -0.3882 0.283, -0.6762 -0.3591 0.3289, -0.5988 -0.385 0.2901, -0.661 -0.3491 0.3519, -0.5946 -0.3823 0.2963, -0.6408 -0.3416 0.3708, -0.5891 -0.3803 0.3013, -0.6168 -0.3369 0.3844, -0.5825 -0.3791 0.3049, -0.5903 -0.3355 0.3921, -0.5789 -0.3788 0.306, -0.5752 -0.3788 0.3068, -0.6024 0.4331 0.1917, -0.689 0.4331 0.1765, -0.6024 0.3918 0.2756, -0.689 0.3843 0.2756, -0.6015 0.3882 0.283, -0.6857 0.371 0.303, -0.5988 0.385 0.2901, -0.6762 0.3591 0.3289, -0.5946 0.3823 0.2963, -0.661 0.3491 0.3519, -0.5891 0.3803 0.3013, -0.6408 0.3416 0.3708, -0.5825 0.3791 0.3049, -0.6168 0.3369 0.3844, -0.5789 0.3788 0.306, -0.5903 0.3355 0.3921, -0.5752 0.3788 0.3068, 0.5709 0.4331 0.0866, 0.374 0.4331 0.0866, 0.5709 -0.4331 0.0866, 0.374 -0.4331 0.0866, 0.579 0.4331 0.0877, 0.579 -0.4331 0.0877, 0.5866 0.4331 0.0908, 0.5866 -0.4331 0.0908, 0.5931 0.4331 0.0958, 0.5931 -0.4331 0.0958, 0.5981 0.4331 0.1024, 0.5981 -0.4331 0.1024, 0.6013 0.4331 0.11, 0.6013 -0.4331 0.11, 0.6024 0.4331 0.1181, 0.6024 -0.4331 0.1181, 0.6024 -0.3918 0.2756, 0.6024 0.3918 0.2756, 0.6024 -0.4331 0.1917, 0.6024 0.4331 0.1917, 0.5789 0.3788 0.306, 0.5825 -0.3791 0.3049, 0.5752 0.3788 0.3068, 0.5789 -0.3788 0.306, 0.5752 -0.3788 0.3068, 0.5825 0.3791 0.3049, 0.5891 0.3803 0.3013, 0.5891 -0.3803 0.3013, 0.5946 0.3823 0.2963, 0.5946 -0.3823 0.2963, 0.5988 0.385 0.2901, 0.5988 -0.385 0.2901, 0.6015 0.3882 0.283, 0.6015 -0.3882 0.283, 0.689 -0.3843 0.2756, 0.689 0.3843 0.2756, 0.6857 0.371 0.303, 0.6857 -0.371 0.303, 0.6762 0.3591 0.3289, 0.6762 -0.3591 0.3289, 0.661 0.3491 0.3519, 0.661 -0.3491 0.3519, 0.6408 0.3416 0.3708, 0.6408 -0.3416 0.3708, 0.6168 0.3369 0.3844, 0.6168 -0.3369 0.3844, 0.5903 0.3355 0.3921, 0.5903 -0.3355 0.3921, 0.689 -0.4331 0.1181, 0.689 0.4331 0.1181, 0.689 0.4331 0.1765, 0.689 -0.4331 0.1765, 0.685 -0.4331 0.0875, 0.685 0.4331 0.0875, 0.6732 -0.4331 0.0591, 0.6732 0.4331 0.0591, 0.6544 -0.4331 0.0346, 0.6544 0.4331 0.0346, 0.6299 -0.4331 0.0158, 0.6299 0.4331 0.0158, 0.6014 -0.4331 0.004, 0.6014 0.4331 0.004, 0.5709 -0.4331 0.0, 0.5709 0.4331 0.0, 0.374 0.4331 0.0, 0.374 -0.4331 0.0
            ]
        }
        coordIndex [
            0,1,2,-1,2,1,3,-1,4,0,5,-1,5,0,2,-1,6,4,7,-1,7,4,5,-1,6,7,8,-1,6,8,9,-1,9,8,10,-1,9,10,11,-1,11,10,12,-1,11,12,13,-1,13,12,14,-1,13,14,15,-1,15,14,16,-1,15,16,17,-1,17,16,18,-1,17,18,19,-1,20,21,22,-1,22,21,23,-1,22,23,24,-1,24,23,25,-1,24,25,26,-1,26,25,27,-1,26,27,28,-1,28,27,29,-1,28,29,30,-1,30,29,31,-1,30,31,1,-1,1,31,3,-1,32,33,34,-1,34,33,35,-1,34,35,36,-1,36,35,37,-1,36,37,38,-1,38,37,39,-1,38,39,40,-1,40,39,41,-1,40,41,42,-1,42,41,43,-1,42,43,44,-1,44,43,45,-1,44,45,46,-1,46,45,47,-1,46,47,48,-1,49,50,51,-1,51,50,52,-1,51,52,53,-1,53,52,54,-1,53,54,55,-1,55,54,56,-1,55,56,57,-1,57,56,58,-1,57,58,59,-1,59,58,60,-1,59,60,61,-1,61,60,62,-1,61,62,63,-1,63,62,64,-1,63,64,65,-1,66,67,68,-1,68,67,69,-1,66,68,70,-1,70,68,71,-1,70,71,72,-1,72,71,73,-1,72,73,74,-1,74,73,75,-1,74,75,76,-1,76,75,77,-1,76,77,78,-1,78,77,79,-1,78,79,80,-1,80,79,81,-1,82,83,84,-1,84,83,85,-1,84,85,81,-1,81,85,80,-1,86,87,88,-1,88,87,89,-1,88,89,90,-1,86,91,87,-1,87,91,92,-1,87,92,93,-1,93,92,94,-1,93,94,95,-1,95,94,96,-1,95,96,97,-1,97,96,98,-1,97,98,99,-1,99,98,83,-1,99,83,82,-1,100,101,102,-1,100,102,103,-1,103,102,104,-1,103,104,105,-1,105,104,106,-1,105,106,107,-1,107,106,108,-1,107,108,109,-1,109,108,110,-1,109,110,111,-1,111,110,112,-1,111,112,113,-1,114,115,116,-1,114,116,117,-1,117,116,101,-1,117,101,100,-1,115,114,118,-1,115,118,119,-1,119,118,120,-1,119,120,121,-1,121,120,122,-1,121,122,123,-1,123,122,124,-1,123,124,125,-1,125,124,126,-1,125,126,127,-1,127,126,128,-1,127,128,129,-1,130,129,131,-1,131,129,128,-1,67,130,69,-1,69,130,131,-1,85,116,80,-1,80,116,115,-1,80,115,78,-1,78,115,119,-1,78,119,76,-1,76,119,121,-1,76,121,74,-1,74,121,123,-1,74,123,72,-1,72,123,125,-1,72,125,70,-1,70,125,127,-1,70,127,66,-1,66,127,129,-1,66,129,67,-1,67,129,130,-1,69,131,68,-1,68,131,128,-1,68,128,71,-1,71,128,126,-1,71,126,73,-1,73,126,124,-1,73,124,75,-1,75,124,122,-1,75,122,77,-1,77,122,120,-1,77,120,79,-1,79,120,118,-1,79,118,81,-1,81,118,114,-1,81,114,84,-1,84,114,117,-1,84,117,82,-1,82,117,100,-1,82,100,99,-1,99,100,103,-1,99,103,97,-1,97,103,105,-1,97,105,95,-1,95,105,107,-1,95,107,93,-1,93,107,109,-1,93,109,87,-1,87,109,111,-1,87,111,89,-1,89,111,113,-1,89,113,90,-1,116,85,101,-1,101,85,83,-1,101,83,102,-1,102,83,98,-1,102,98,104,-1,104,98,96,-1,104,96,106,-1,106,96,94,-1,106,94,108,-1,108,94,92,-1,108,92,110,-1,110,92,91,-1,110,91,112,-1,112,91,86,-1,112,86,88,-1,
        ]
    }
}
Shape{
    appearance Appearance {
        material  Material 	{
            diffuseColor 0.7529411764705882 0.7529411764705882 0.7529411764705882
            specularColor 0.3764705882352941 0.3764705882352941 0.3764705882352941
            ambientIntensity 0.7529
            transparency 0.0
            shininess 0.5
        }
    }
    geometry IndexedFaceSet {
        ccw TRUE
        solid FALSE
        coord DEF co Coordinate {
            point [
                -0.1695 0.0394 0.0398, -0.2003 -0.0394 0.0398, -0.1695 0.0394 0.0394, -0.2003 -0.0394 0.0394, -0.1887 -0.0394 0.0398, -0.1887 -0.0394 0.0394, -0.1808 -0.0173 0.0398, -0.1808 -0.0173 0.0394, -0.1482 -0.0173 0.0398, -0.1482 -0.0173 0.0394, -0.1407 -0.0394 0.0398, -0.1407 -0.0394 0.0394, -0.1292 -0.0394 0.0398, -0.1292 -0.0394 0.0394, -0.159 0.0394 0.0398, -0.159 0.0394 0.0394, -0.1509 -0.0087 0.0398, -0.1772 -0.0087 0.0398, -0.1627 0.0242 0.0398, -0.1634 0.027 0.0398, -0.1639 0.0298 0.0398, -0.1642 0.0298 0.0398, -0.1647 0.027 0.0398, -0.1654 0.0242 0.0398, -0.1509 -0.0087 0.0394, -0.1772 -0.0087 0.0394, -0.1627 0.0242 0.0394, -0.1634 0.027 0.0394, -0.1639 0.0298 0.0394, -0.1642 0.0298 0.0394, -0.1647 0.027 0.0394, -0.1654 0.0242 0.0394, -0.0815 -0.0394 0.0398, -0.0601 -0.0394 0.0398, -0.0815 -0.0394 0.0394, -0.0601 -0.0394 0.0394, -0.0601 0.0394 0.0398, -0.0601 0.0394 0.0394, -0.0823 0.0394 0.0398, -0.0823 0.0394 0.0394, -0.1234 0.001 0.0398, -0.1234 0.001 0.0394, -0.1229 0.0084 0.0394, -0.1229 0.0084 0.0398, -0.1208 0.0161 0.0394, -0.1208 0.0161 0.0398, -0.1171 0.0229 0.0394, -0.1171 0.0229 0.0398, -0.1115 0.0291 0.0394, -0.1115 0.0291 0.0398, -0.1114 0.0292 0.0394, -0.1114 0.0292 0.0398, -0.1029 0.0349 0.0394, -0.1029 0.0349 0.0398, -0.0937 0.0381 0.0394, -0.0937 0.0381 0.0398, -0.0912 -0.0385 0.0394, -0.0912 -0.0385 0.0398, -0.1003 -0.0358 0.0394, -0.1003 -0.0358 0.0398, -0.1085 -0.0311 0.0394, -0.1085 -0.0311 0.0398, -0.115 -0.0248 0.0394, -0.115 -0.0248 0.0398, -0.1195 -0.0178 0.0394, -0.1195 -0.0178 0.0398, -0.1223 -0.0096 0.0394, -0.1223 -0.0096 0.0398, -0.1076 0.0197 0.0398, -0.1038 0.0237 0.0398, -0.0981 0.0274 0.0398, -0.0916 0.0297 0.0398, -0.0822 0.0307 0.0398, -0.0706 0.0307 0.0398, -0.0706 -0.0307 0.0398, -0.0818 -0.0307 0.0398, -0.0901 -0.03 0.0398, -0.0967 -0.0279 0.0398, -0.1021 -0.0247 0.0398, -0.1065 -0.0204 0.0398, -0.1099 -0.0149 0.0398, -0.1122 -0.0075 0.0398, -0.1129 0.0007 0.0398, -0.1122 0.0086 0.0398, -0.1104 0.0148 0.0398, -0.0822 0.0307 0.0394, -0.0706 0.0307 0.0394, -0.0916 0.0297 0.0394, -0.0981 0.0274 0.0394, -0.1038 0.0237 0.0394, -0.1076 0.0197 0.0394, -0.1104 0.0148 0.0394, -0.1122 0.0086 0.0394, -0.1129 0.0007 0.0394, -0.1122 -0.0075 0.0394, -0.1099 -0.0149 0.0394, -0.1065 -0.0204 0.0394, -0.1021 -0.0247 0.0394, -0.0967 -0.0279 0.0394, -0.0901 -0.03 0.0394, -0.0818 -0.0307 0.0394, -0.0706 -0.0307 0.0394, -0.0447 -0.0307 0.0398, -0.0447 -0.0394 0.0398, -0.0447 -0.0307 0.0394, -0.0447 -0.0394 0.0394, -0.0025 -0.0394 0.0398, -0.0025 -0.0394 0.0394, -0.0025 0.0394 0.0398, -0.0025 0.0394 0.0394, -0.0428 0.0394 0.0398, -0.0428 0.0394 0.0394, -0.0428 0.0307 0.0398, -0.0428 0.0307 0.0394, -0.013 0.0307 0.0398, -0.013 0.0307 0.0394, -0.013 0.0048 0.0398, -0.013 0.0048 0.0394, -0.0409 0.0048 0.0398, -0.0409 0.0048 0.0394, -0.0409 -0.0039 0.0398, -0.0409 -0.0039 0.0394, -0.013 -0.0039 0.0398, -0.013 -0.0039 0.0394, -0.013 -0.0307 0.0398, -0.013 -0.0307 0.0394, 0.0129 -0.0267 0.0398, 0.0129 -0.0353 0.0398, 0.0129 -0.0267 0.0394, 0.0129 -0.0353 0.0394, 0.0213 -0.0388 0.0398, 0.0346 -0.0403 0.0398, 0.0346 -0.0403 0.0394, 0.0324 -0.0403 0.0394, 0.0324 -0.0403 0.0398, 0.0293 -0.0399 0.0394, 0.0213 -0.0388 0.0394, 0.0392 -0.0399 0.0394, 0.0443 -0.0393 0.0398, 0.0443 -0.0393 0.0394, 0.0519 -0.0367 0.0398, 0.0519 -0.0367 0.0394, 0.0582 -0.0327 0.0398, 0.0582 -0.0327 0.0394, 0.0642 -0.0264 0.0398, 0.0642 -0.0264 0.0394, 0.0684 -0.019 0.0398, 0.0684 -0.019 0.0394, 0.0707 -0.0106 0.0398, 0.0707 -0.0106 0.0394, 0.0715 -0.0015 0.0398, 0.0715 -0.0015 0.0394, 0.0314 0.0403 0.0398, 0.0314 0.0403 0.0394, 0.0393 0.0397 0.0394, 0.0393 0.0397 0.0398, 0.0481 0.0371 0.0394, 0.0481 0.0371 0.0398, 0.0556 0.0328 0.0394, 0.0556 0.0328 0.0398, 0.0627 0.026 0.0394, 0.0627 0.026 0.0398, 0.0673 0.0186 0.0394, 0.0673 0.0186 0.0398, 0.0704 0.0097 0.0394, 0.0704 0.0097 0.0398, 0.0129 0.0372 0.0398, 0.0129 0.0372 0.0394, 0.022 0.0397 0.0394, 0.022 0.0397 0.0398, 0.0129 0.0266 0.0398, 0.0129 0.0266 0.0394, 0.0313 0.0317 0.0398, 0.0313 0.0317 0.0394, 0.0218 0.0304 0.0394, 0.0218 0.0304 0.0398, 0.0609 -0.0009 0.0398, 0.0609 -0.0009 0.0394, 0.0605 0.0053 0.0394, 0.0605 0.0053 0.0398, 0.0584 0.0137 0.0394, 0.0584 0.0137 0.0398, 0.0552 0.0198 0.0394, 0.0552 0.0198 0.0398, 0.0504 0.025 0.0394, 0.0504 0.025 0.0398, 0.045 0.0287 0.0394, 0.045 0.0287 0.0398, 0.0391 0.0308 0.0394, 0.0391 0.0308 0.0398, 0.0331 -0.0317 0.0398, 0.0331 -0.0317 0.0394, 0.0405 -0.0309 0.0394, 0.0405 -0.0309 0.0398, 0.0462 -0.0288 0.0394, 0.0462 -0.0288 0.0398, 0.051 -0.0255 0.0394, 0.051 -0.0255 0.0398, 0.0547 -0.0216 0.0394, 0.0547 -0.0216 0.0398, 0.058 -0.0162 0.0394, 0.058 -0.0162 0.0398, 0.0601 -0.0094 0.0394, 0.0601 -0.0094 0.0398, 0.0143 -0.0274 0.0394, 0.0143 -0.0274 0.0398, 0.0227 -0.0305 0.0394, 0.0227 -0.0305 0.0398, 0.0782 -0.0307 0.0398, 0.0782 -0.0394 0.0398, 0.0782 -0.0307 0.0394, 0.0782 -0.0394 0.0394, 0.1185 -0.0394 0.0398, 0.1185 -0.0394 0.0394, 0.1185 0.0394 0.0398, 0.1185 0.0394 0.0394, 0.108 0.0394 0.0398, 0.108 0.0394 0.0394, 0.108 -0.0307 0.0398, 0.108 -0.0307 0.0394
            ]
        }
        coordIndex [
            0,1,2,-1,2,1,3,-1,1,4,3,-1,3,4,5,-1,4,6,5,-1,5,6,7,-1,6,8,7,-1,7,8,9,-1,8,10,9,-1,9,10,11,-1,10,12,11,-1,11,12,13,-1,12,14,13,-1,13,14,15,-1,14,0,15,-1,15,0,2,-1,16,8,17,-1,17,8,6,-1,18,14,16,-1,16,14,12,-1,16,12,8,-1,8,12,10,-1,18,19,14,-1,14,19,20,-1,14,20,0,-1,0,20,21,-1,0,21,22,-1,22,23,0,-1,0,23,17,-1,0,17,1,-1,1,17,6,-1,1,6,4,-1,16,17,24,-1,24,17,25,-1,18,16,26,-1,26,16,24,-1,18,26,27,-1,18,27,19,-1,19,27,28,-1,19,28,20,-1,21,20,29,-1,29,20,28,-1,21,29,30,-1,21,30,22,-1,22,30,31,-1,22,31,23,-1,17,23,25,-1,25,23,31,-1,32,33,34,-1,34,33,35,-1,33,36,35,-1,35,36,37,-1,36,38,37,-1,37,38,39,-1,40,41,42,-1,40,42,43,-1,43,42,44,-1,43,44,45,-1,45,44,46,-1,45,46,47,-1,47,46,48,-1,47,48,49,-1,49,48,50,-1,49,50,51,-1,51,50,52,-1,51,52,53,-1,53,52,54,-1,53,54,55,-1,55,54,39,-1,55,39,38,-1,32,34,56,-1,32,56,57,-1,57,56,58,-1,57,58,59,-1,59,58,60,-1,59,60,61,-1,61,60,62,-1,61,62,63,-1,63,62,64,-1,63,64,65,-1,65,64,66,-1,65,66,67,-1,67,66,41,-1,67,41,40,-1,45,47,68,-1,68,47,49,-1,68,49,69,-1,69,49,51,-1,69,51,70,-1,70,51,53,-1,70,53,71,-1,71,53,55,-1,71,55,72,-1,72,55,38,-1,72,38,73,-1,73,38,36,-1,73,36,74,-1,74,36,33,-1,74,33,75,-1,75,33,32,-1,75,32,76,-1,76,32,57,-1,76,57,77,-1,77,57,59,-1,77,59,78,-1,78,59,61,-1,78,61,79,-1,79,61,63,-1,79,63,80,-1,80,63,65,-1,80,65,81,-1,81,65,67,-1,81,67,82,-1,82,67,40,-1,82,40,83,-1,83,40,43,-1,83,43,84,-1,84,43,45,-1,84,45,68,-1,72,73,85,-1,85,73,86,-1,72,85,87,-1,72,87,71,-1,71,87,88,-1,71,88,70,-1,70,88,89,-1,70,89,69,-1,69,89,90,-1,69,90,68,-1,68,90,91,-1,68,91,84,-1,84,91,92,-1,84,92,83,-1,83,92,93,-1,83,93,82,-1,82,93,94,-1,82,94,81,-1,81,94,95,-1,81,95,80,-1,80,95,96,-1,80,96,79,-1,79,96,97,-1,79,97,78,-1,78,97,98,-1,78,98,77,-1,77,98,99,-1,77,99,76,-1,76,99,100,-1,76,100,75,-1,74,75,101,-1,101,75,100,-1,73,74,86,-1,86,74,101,-1,102,103,104,-1,104,103,105,-1,103,106,105,-1,105,106,107,-1,106,108,107,-1,107,108,109,-1,108,110,109,-1,109,110,111,-1,110,112,111,-1,111,112,113,-1,112,114,113,-1,113,114,115,-1,114,116,115,-1,115,116,117,-1,116,118,117,-1,117,118,119,-1,118,120,119,-1,119,120,121,-1,120,122,121,-1,121,122,123,-1,122,124,123,-1,123,124,125,-1,124,102,125,-1,125,102,104,-1,106,103,102,-1,102,124,106,-1,106,124,122,-1,106,122,108,-1,112,110,114,-1,114,110,108,-1,114,108,116,-1,116,108,122,-1,116,122,118,-1,118,122,120,-1,126,127,128,-1,128,127,129,-1,129,127,130,-1,131,132,133,-1,131,133,134,-1,134,133,135,-1,134,135,130,-1,130,135,136,-1,130,136,129,-1,132,131,137,-1,137,131,138,-1,137,138,139,-1,139,138,140,-1,139,140,141,-1,141,140,142,-1,141,142,143,-1,143,142,144,-1,143,144,145,-1,145,144,146,-1,145,146,147,-1,147,146,148,-1,147,148,149,-1,149,148,150,-1,149,150,151,-1,152,153,154,-1,152,154,155,-1,155,154,156,-1,155,156,157,-1,157,156,158,-1,157,158,159,-1,159,158,160,-1,159,160,161,-1,161,160,162,-1,161,162,163,-1,163,162,164,-1,163,164,165,-1,165,164,151,-1,165,151,150,-1,166,167,168,-1,166,168,169,-1,169,168,153,-1,169,153,152,-1,166,170,167,-1,167,170,171,-1,172,173,174,-1,172,174,175,-1,175,174,171,-1,175,171,170,-1,176,177,178,-1,176,178,179,-1,179,178,180,-1,179,180,181,-1,181,180,182,-1,181,182,183,-1,183,182,184,-1,183,184,185,-1,185,184,186,-1,185,186,187,-1,187,186,188,-1,187,188,189,-1,189,188,173,-1,189,173,172,-1,190,191,192,-1,190,192,193,-1,193,192,194,-1,193,194,195,-1,195,194,196,-1,195,196,197,-1,197,196,198,-1,197,198,199,-1,199,198,200,-1,199,200,201,-1,201,200,202,-1,201,202,203,-1,203,202,177,-1,203,177,176,-1,126,128,204,-1,126,204,205,-1,205,204,206,-1,205,206,207,-1,207,206,191,-1,207,191,190,-1,193,131,190,-1,190,131,134,-1,190,134,207,-1,207,134,130,-1,207,130,205,-1,205,130,127,-1,205,127,126,-1,170,166,175,-1,175,166,169,-1,175,169,172,-1,172,169,152,-1,172,152,189,-1,189,152,155,-1,189,155,187,-1,187,155,157,-1,187,157,185,-1,185,157,159,-1,185,159,183,-1,183,159,161,-1,183,161,181,-1,181,161,163,-1,181,163,179,-1,179,163,165,-1,179,165,176,-1,176,165,150,-1,176,150,203,-1,203,150,148,-1,203,148,201,-1,201,148,146,-1,201,146,199,-1,199,146,144,-1,199,144,197,-1,197,144,142,-1,197,142,195,-1,195,142,140,-1,195,140,193,-1,193,140,138,-1,193,138,131,-1,208,209,210,-1,210,209,211,-1,209,212,211,-1,211,212,213,-1,212,214,213,-1,213,214,215,-1,214,216,215,-1,215,216,217,-1,216,218,217,-1,217,218,219,-1,218,208,219,-1,219,208,210,-1,216,214,218,-1,218,214,212,-1,218,212,208,-1,208,212,209,-1,
        ]
    }
}
Shape{
    appearance Appearance {
        material  Material 	{
            diffuseColor 0.25098039215686274 0.25098039215686274 0.25098039215686274
            specularColor 0.12549019607843137 0.12549019607843137 0.12549019607843137
            ambientIntensity 0.251
            transparency 0.0
            shininess 0.5
        }
    }
    geometry IndexedFaceSet {
        ccw TRUE
        solid FALSE
        coord DEF co Coordinate {
            point [
                -0.1509 -0.0087 0.0394, -0.1772 -0.0087 0.0394, -0.1627 0.0242 0.0394, -0.1654 0.0242 0.0394, -0.1634 0.027 0.0394, -0.1647 0.027 0.0394, -0.1639 0.0298 0.0394, -0.1642 0.0298 0.0394, -0.0706 0.0307 0.0394, -0.0706 -0.0307 0.0394, -0.0822 0.0307 0.0394, -0.0818 -0.0307 0.0394, -0.0901 -0.03 0.0394, -0.1129 0.0007 0.0394, -0.1122 0.0086 0.0394, -0.1104 0.0148 0.0394, -0.0916 0.0297 0.0394, -0.0967 -0.0279 0.0394, -0.1021 -0.0247 0.0394, -0.1065 -0.0204 0.0394, -0.1099 -0.0149 0.0394, -0.1122 -0.0075 0.0394, -0.1076 0.0197 0.0394, -0.1038 0.0237 0.0394, -0.0981 0.0274 0.0394, 0.5712 -0.5512 0.3937, 0.5191 -0.4991 0.0984, 0.5242 -0.4985 0.0984, 0.5762 -0.5505 0.3937, 0.5266 -0.4977 0.0984, 0.5786 -0.5497 0.3937, 0.5288 -0.4965 0.0984, 0.5809 -0.5486 0.3937, 0.5309 -0.4951 0.0984, 0.583 -0.5472 0.3937, 0.5328 -0.4935 0.0984, 0.5849 -0.5455 0.3937, 0.5866 -0.5436 0.3937, 0.5345 -0.4916 0.0984, 0.588 -0.5415 0.3937, 0.5359 -0.4895 0.0984, 0.5891 -0.5393 0.3937, 0.537 -0.4872 0.0984, 0.5899 -0.5368 0.3937, 0.5378 -0.4848 0.0984, 0.5385 -0.4797 0.0984, 0.5906 -0.5318 0.3937, 0.5309 -0.4722 0.7318, 0.5303 -0.4765 0.7324, 0.5302 -0.4771 0.7325, 0.5287 -0.4804 0.7328, 0.5282 -0.4817 0.733, 0.5264 -0.484 0.733, 0.5251 -0.4857 0.7331, 0.5234 -0.487 0.733, 0.5211 -0.4888 0.733, 0.5198 -0.4893 0.7328, 0.5165 -0.4908 0.7325, 0.5158 -0.4909 0.7324, 0.5116 -0.4916 0.7318, 0.5906 0.5318 0.3937, 0.5385 0.4797 0.0984, 0.5378 0.4848 0.0984, 0.5899 0.5368 0.3937, 0.537 0.4872 0.0984, 0.5891 0.5393 0.3937, 0.5359 0.4895 0.0984, 0.588 0.5415 0.3937, 0.5345 0.4916 0.0984, 0.5866 0.5436 0.3937, 0.5328 0.4935 0.0984, 0.5849 0.5455 0.3937, 0.583 0.5472 0.3937, 0.5309 0.4951 0.0984, 0.5809 0.5486 0.3937, 0.5288 0.4965 0.0984, 0.5786 0.5497 0.3937, 0.5266 0.4977 0.0984, 0.5762 0.5505 0.3937, 0.5242 0.4985 0.0984, 0.5191 0.4991 0.0984, 0.5712 0.5512 0.3937, 0.5296 -0.4722 0.7361, 0.5274 -0.4722 0.74, 0.527 -0.4757 0.74, 0.5273 -0.4722 0.7401, 0.5243 -0.4722 0.7434, 0.524 -0.475 0.7434, 0.5202 -0.4742 0.7459, 0.516 -0.4732 0.7475, 0.5157 -0.4742 0.7475, 0.5116 -0.4722 0.748, 0.5135 -0.4763 0.7475, 0.5144 -0.4758 0.7475, 0.5126 -0.4766 0.7475, 0.5161 -0.4722 0.7475, 0.5292 -0.4762 0.736, 0.5279 -0.4801 0.736, 0.5257 -0.4835 0.736, 0.5229 -0.4864 0.736, 0.5194 -0.4885 0.736, 0.5156 -0.4899 0.736, 0.5116 -0.4903 0.736, 0.5116 -0.4767 0.7475, 0.5242 -0.4722 0.7434, 0.5204 -0.4722 0.7459, 0.5204 -0.4722 0.7459, 0.5161 -0.4722 0.7475, 0.5185 -0.4777 0.7459, 0.5171 -0.4791 0.7459, 0.5154 -0.4802 0.7459, 0.5135 -0.4808 0.7459, 0.5196 -0.476 0.7459, 0.5151 -0.475 0.7475, 0.5116 -0.4768 0.7475, 0.5116 -0.481 0.7459, 0.5116 -0.4811 0.7459, 0.5116 -0.4848 0.7434, 0.523 -0.4777 0.7434, 0.5215 -0.4801 0.7434, 0.5195 -0.4821 0.7434, 0.5171 -0.4836 0.7434, 0.5144 -0.4846 0.7434, 0.5258 -0.4791 0.74, 0.524 -0.4821 0.74, 0.5214 -0.4846 0.74, 0.5184 -0.4865 0.74, 0.5151 -0.4876 0.74, 0.5297 -0.4722 0.736, 0.5116 -0.4849 0.7434, 0.5116 -0.488 0.7401, 0.5116 -0.488 0.74, 0.5116 -0.4902 0.7361, -0.5906 -0.5318 0.3937, -0.5385 -0.4797 0.0984, -0.5378 -0.4848 0.0984, -0.5899 -0.5368 0.3937, -0.537 -0.4872 0.0984, -0.5891 -0.5393 0.3937, -0.5359 -0.4895 0.0984, -0.588 -0.5415 0.3937, -0.5345 -0.4916 0.0984, -0.5866 -0.5436 0.3937, -0.5328 -0.4935 0.0984, -0.5849 -0.5455 0.3937, -0.583 -0.5472 0.3937, -0.5309 -0.4951 0.0984, -0.5809 -0.5486 0.3937, -0.5288 -0.4965 0.0984, -0.5786 -0.5497 0.3937, -0.5266 -0.4977 0.0984, -0.5762 -0.5505 0.3937, -0.5242 -0.4985 0.0984, -0.5191 -0.4991 0.0984, -0.5712 -0.5512 0.3937, 0.5116 0.4916 0.7318, 0.5165 0.4908 0.7325, 0.5165 0.4908 0.7325, 0.5211 0.4888 0.733, 0.5211 0.4888 0.733, 0.5251 0.4857 0.7331, 0.5281 0.4818 0.733, 0.5282 0.4817 0.733, 0.5301 0.4772 0.7325, 0.5302 0.4771 0.7325, 0.5309 0.4722 0.7318, 0.5297 0.4722 0.736, 0.5296 0.4722 0.7361, 0.5274 0.4722 0.74, 0.5273 0.4722 0.7401, 0.5243 0.4722 0.7434, 0.5242 0.4722 0.7434, 0.5204 0.4722 0.7459, 0.5204 0.4722 0.7459, 0.5161 0.4722 0.7475, 0.5161 0.4722 0.7475, 0.5116 0.4722 0.748, -0.5116 -0.4916 0.7318, -0.5116 -0.4903 0.736, -0.5116 -0.4902 0.7361, -0.5116 -0.488 0.74, -0.5116 -0.488 0.7401, -0.5116 -0.4849 0.7434, -0.5116 -0.4848 0.7434, -0.5116 -0.4811 0.7459, -0.5116 -0.481 0.7459, -0.5116 -0.4768 0.7475, -0.5116 -0.4767 0.7475, -0.5116 -0.4722 0.748, -0.5165 -0.4908 0.7325, -0.5165 -0.4908 0.7325, -0.5211 -0.4888 0.733, -0.5211 -0.4888 0.733, -0.5251 -0.4857 0.7331, -0.5281 -0.4818 0.733, -0.5282 -0.4817 0.733, -0.5301 -0.4772 0.7325, -0.5302 -0.4771 0.7325, -0.5309 -0.4722 0.7318, 0.5116 0.488 0.7401, 0.5116 0.4849 0.7434, 0.5148 0.4845 0.7434, 0.5139 0.4808 0.7459, 0.5127 0.4766 0.7475, 0.5138 0.4761 0.7475, 0.5155 0.4745 0.7475, 0.5148 0.4754 0.7475, 0.516 0.4734 0.7475, 0.5116 0.4767 0.7475, 0.5162 0.4897 0.736, 0.5206 0.4879 0.736, 0.5244 0.485 0.736, 0.5273 0.4813 0.736, 0.5291 0.4769 0.736, 0.5116 0.4848 0.7434, 0.5116 0.4811 0.7459, 0.5116 0.481 0.7459, 0.5116 0.4768 0.7475, 0.516 0.4799 0.7459, 0.5178 0.4785 0.7459, 0.5192 0.4766 0.7459, 0.5201 0.4745 0.7459, 0.5179 0.4832 0.7434, 0.5205 0.4812 0.7434, 0.5226 0.4785 0.7434, 0.5238 0.4755 0.7434, 0.5116 0.4902 0.7361, 0.5116 0.488 0.74, 0.5157 0.4875 0.74, 0.5195 0.4859 0.74, 0.5228 0.4834 0.74, 0.5253 0.4801 0.74, 0.5269 0.4763 0.74, 0.5116 0.4903 0.736, -0.5148 -0.4845 0.7434, -0.5139 -0.4808 0.7459, -0.5127 -0.4766 0.7475, -0.5138 -0.4761 0.7475, -0.5155 -0.4745 0.7475, -0.5148 -0.4754 0.7475, -0.516 -0.4734 0.7475, -0.5162 -0.4897 0.736, -0.5206 -0.4879 0.736, -0.5244 -0.485 0.736, -0.5273 -0.4813 0.736, -0.5291 -0.4769 0.736, -0.5297 -0.4722 0.736, -0.5161 -0.4722 0.7475, -0.516 -0.4799 0.7459, -0.5178 -0.4785 0.7459, -0.5192 -0.4766 0.7459, -0.5201 -0.4745 0.7459, -0.5161 -0.4722 0.7475, -0.5204 -0.4722 0.7459, -0.5204 -0.4722 0.7459, -0.5242 -0.4722 0.7434, -0.5179 -0.4832 0.7434, -0.5205 -0.4812 0.7434, -0.5226 -0.4785 0.7434, -0.5238 -0.4755 0.7434, -0.5157 -0.4875 0.74, -0.5195 -0.4859 0.74, -0.5228 -0.4834 0.74, -0.5253 -0.4801 0.74, -0.5269 -0.4763 0.74, -0.5243 -0.4722 0.7434, -0.5273 -0.4722 0.7401, -0.5274 -0.4722 0.74, -0.5296 -0.4722 0.7361, -0.5116 0.4916 0.7318, -0.5116 0.4903 0.736, -0.5116 0.4902 0.7361, -0.5116 0.488 0.74, -0.5116 0.488 0.7401, -0.5116 0.4849 0.7434, -0.5116 0.4848 0.7434, -0.5116 0.4811 0.7459, -0.5116 0.481 0.7459, -0.5116 0.4768 0.7475, -0.5116 0.4767 0.7475, -0.5116 0.4722 0.748, -0.5309 0.4722 0.7318, -0.5297 0.4722 0.736, -0.5296 0.4722 0.7361, -0.5274 0.4722 0.74, -0.5273 0.4722 0.7401, -0.5243 0.4722 0.7434, -0.5242 0.4722 0.7434, -0.5204 0.4722 0.7459, -0.5204 0.4722 0.7459, -0.5161 0.4722 0.7475, -0.5161 0.4722 0.7475, -0.5238 0.4755 0.7434, -0.5201 0.4745 0.7459, -0.516 0.4734 0.7475, -0.5155 0.4745 0.7475, -0.5138 0.4761 0.7475, -0.5148 0.4754 0.7475, -0.5127 0.4766 0.7475, -0.5291 0.4769 0.736, -0.5301 0.4772 0.7325, -0.5302 0.4771 0.7325, -0.5282 0.4817 0.733, -0.5273 0.4813 0.736, -0.5281 0.4818 0.733, -0.5244 0.485 0.736, -0.5251 0.4857 0.7331, -0.5206 0.4879 0.736, -0.5211 0.4888 0.733, -0.5211 0.4888 0.733, -0.5162 0.4897 0.736, -0.5165 0.4908 0.7325, -0.5165 0.4908 0.7325, -0.5192 0.4766 0.7459, -0.5178 0.4785 0.7459, -0.516 0.4799 0.7459, -0.5139 0.4808 0.7459, -0.5226 0.4785 0.7434, -0.5205 0.4812 0.7434, -0.5179 0.4832 0.7434, -0.5148 0.4845 0.7434, -0.5269 0.4763 0.74, -0.5253 0.4801 0.74, -0.5228 0.4834 0.74, -0.5195 0.4859 0.74, -0.5157 0.4875 0.74, -0.5906 0.5318 0.3937, -0.5899 0.5368 0.3937, -0.5891 0.5393 0.3937, -0.588 0.5415 0.3937, -0.5866 0.5436 0.3937, -0.5849 0.5455 0.3937, -0.583 0.5472 0.3937, -0.5809 0.5486 0.3937, -0.5786 0.5497 0.3937, -0.5762 0.5505 0.3937, -0.5712 0.5512 0.3937, -0.5191 0.4991 0.0984, -0.5242 0.4985 0.0984, -0.5266 0.4977 0.0984, -0.5288 0.4965 0.0984, -0.5309 0.4951 0.0984, -0.5328 0.4935 0.0984, -0.5345 0.4916 0.0984, -0.5359 0.4895 0.0984, -0.537 0.4872 0.0984, -0.5378 0.4848 0.0984, -0.5385 0.4797 0.0984
            ]
        }
        coordIndex [
            0,1,2,-1,2,1,3,-1,2,3,4,-1,4,3,5,-1,4,5,6,-1,6,5,7,-1,8,9,10,-1,10,9,11,-1,10,11,12,-1,13,14,10,-1,10,14,15,-1,10,15,16,-1,12,17,10,-1,10,17,18,-1,10,18,19,-1,19,20,10,-1,10,20,21,-1,10,21,13,-1,22,23,15,-1,15,23,24,-1,15,24,16,-1,25,26,27,-1,25,27,28,-1,28,27,29,-1,28,29,30,-1,30,29,31,-1,30,31,32,-1,32,31,33,-1,32,33,34,-1,34,33,35,-1,34,35,36,-1,36,35,37,-1,37,35,38,-1,37,38,39,-1,39,38,40,-1,39,40,41,-1,41,40,42,-1,41,42,43,-1,42,44,43,-1,43,44,45,-1,43,45,46,-1,46,47,48,-1,46,48,43,-1,43,48,49,-1,43,49,41,-1,41,49,50,-1,41,50,39,-1,39,50,51,-1,39,51,37,-1,37,51,52,-1,37,52,36,-1,36,52,53,-1,36,53,34,-1,34,53,54,-1,34,54,32,-1,32,54,55,-1,32,55,30,-1,30,55,56,-1,30,56,28,-1,28,56,57,-1,28,57,25,-1,25,57,58,-1,25,58,59,-1,60,61,62,-1,60,62,63,-1,63,62,64,-1,63,64,65,-1,65,64,66,-1,65,66,67,-1,67,66,68,-1,67,68,69,-1,69,68,70,-1,69,70,71,-1,71,70,72,-1,72,70,73,-1,72,73,74,-1,74,73,75,-1,74,75,76,-1,76,75,77,-1,76,77,78,-1,77,79,78,-1,78,79,80,-1,78,80,81,-1,82,83,84,-1,85,86,87,-1,88,89,90,-1,91,92,93,-1,94,92,91,-1,90,89,91,-1,95,91,89,-1,48,96,49,-1,49,96,97,-1,49,97,50,-1,50,97,51,-1,51,97,98,-1,51,98,52,-1,52,98,53,-1,53,98,99,-1,53,99,54,-1,54,99,55,-1,55,99,100,-1,55,100,56,-1,56,100,57,-1,57,100,101,-1,57,101,58,-1,58,101,102,-1,58,102,59,-1,103,94,91,-1,104,105,88,-1,88,105,106,-1,88,106,89,-1,89,106,107,-1,89,107,95,-1,108,93,109,-1,109,93,92,-1,109,92,110,-1,110,92,94,-1,110,94,111,-1,86,104,87,-1,87,104,88,-1,87,88,112,-1,112,88,90,-1,112,90,113,-1,113,90,91,-1,103,114,94,-1,94,114,115,-1,94,115,111,-1,111,115,116,-1,111,116,117,-1,118,108,119,-1,119,108,109,-1,119,109,120,-1,120,109,110,-1,120,110,121,-1,121,110,111,-1,121,111,122,-1,122,111,117,-1,84,118,123,-1,123,118,119,-1,123,119,124,-1,124,119,120,-1,124,120,125,-1,125,120,121,-1,125,121,126,-1,126,121,122,-1,126,122,127,-1,83,85,84,-1,84,85,87,-1,84,87,118,-1,118,87,112,-1,118,112,108,-1,108,112,113,-1,108,113,93,-1,93,113,91,-1,48,47,96,-1,96,47,128,-1,96,128,82,-1,117,129,122,-1,122,129,130,-1,122,130,127,-1,127,130,131,-1,127,131,132,-1,82,84,96,-1,96,84,123,-1,96,123,97,-1,97,123,124,-1,97,124,98,-1,98,124,125,-1,98,125,99,-1,99,125,126,-1,99,126,100,-1,100,126,127,-1,100,127,101,-1,101,127,132,-1,101,132,102,-1,133,134,135,-1,133,135,136,-1,136,135,137,-1,136,137,138,-1,138,137,139,-1,138,139,140,-1,140,139,141,-1,140,141,142,-1,142,141,143,-1,142,143,144,-1,144,143,145,-1,145,143,146,-1,145,146,147,-1,147,146,148,-1,147,148,149,-1,149,148,150,-1,149,150,151,-1,150,152,151,-1,151,152,153,-1,151,153,154,-1,155,156,81,-1,81,156,78,-1,78,156,76,-1,76,156,157,-1,76,157,74,-1,74,157,158,-1,74,158,72,-1,72,158,159,-1,72,159,71,-1,71,159,160,-1,71,160,69,-1,69,160,161,-1,69,161,67,-1,67,161,162,-1,67,162,65,-1,65,162,163,-1,65,163,63,-1,163,164,63,-1,63,164,165,-1,63,165,60,-1,47,165,128,-1,128,165,166,-1,128,166,82,-1,82,166,167,-1,82,167,83,-1,83,167,168,-1,83,168,85,-1,85,168,169,-1,85,169,86,-1,86,169,170,-1,86,170,104,-1,104,170,171,-1,104,171,105,-1,105,171,172,-1,105,172,106,-1,106,172,173,-1,106,173,107,-1,107,173,174,-1,107,174,95,-1,174,175,95,-1,95,175,176,-1,95,176,91,-1,177,59,178,-1,178,59,102,-1,178,102,179,-1,179,102,132,-1,179,132,180,-1,180,132,131,-1,180,131,181,-1,181,131,130,-1,181,130,182,-1,182,130,129,-1,182,129,183,-1,183,129,117,-1,183,117,184,-1,184,117,116,-1,184,116,185,-1,185,116,115,-1,185,115,186,-1,186,115,114,-1,186,114,187,-1,114,103,187,-1,187,103,91,-1,187,91,188,-1,177,189,154,-1,154,189,151,-1,151,189,149,-1,149,189,190,-1,149,190,147,-1,147,190,191,-1,147,191,145,-1,145,191,192,-1,145,192,144,-1,144,192,193,-1,144,193,142,-1,142,193,194,-1,142,194,140,-1,140,194,195,-1,140,195,138,-1,138,195,196,-1,138,196,136,-1,196,197,136,-1,136,197,198,-1,136,198,133,-1,199,200,201,-1,202,203,204,-1,176,205,206,-1,207,205,176,-1,204,203,176,-1,208,176,203,-1,209,157,156,-1,157,209,158,-1,158,209,210,-1,158,210,159,-1,159,210,211,-1,159,211,160,-1,160,211,212,-1,160,212,161,-1,161,212,162,-1,162,212,213,-1,162,213,163,-1,163,213,164,-1,164,213,166,-1,164,166,165,-1,175,207,176,-1,214,215,202,-1,202,215,216,-1,202,216,203,-1,203,216,217,-1,203,217,208,-1,218,206,219,-1,219,206,205,-1,219,205,220,-1,220,205,207,-1,220,207,221,-1,175,174,207,-1,207,174,173,-1,207,173,221,-1,221,173,172,-1,221,172,171,-1,201,218,222,-1,222,218,219,-1,222,219,223,-1,223,219,220,-1,223,220,224,-1,224,220,221,-1,224,221,225,-1,225,221,171,-1,226,227,228,-1,228,227,199,-1,199,201,228,-1,228,201,222,-1,228,222,229,-1,229,222,223,-1,229,223,230,-1,230,223,224,-1,230,224,231,-1,231,224,225,-1,231,225,232,-1,200,214,201,-1,201,214,202,-1,201,202,218,-1,218,202,204,-1,218,204,206,-1,206,204,176,-1,226,209,233,-1,233,209,156,-1,233,156,155,-1,171,170,225,-1,225,170,169,-1,225,169,232,-1,232,169,168,-1,232,168,167,-1,226,228,209,-1,209,228,229,-1,209,229,210,-1,210,229,230,-1,210,230,211,-1,211,230,231,-1,211,231,212,-1,212,231,232,-1,212,232,213,-1,213,232,167,-1,213,167,166,-1,181,182,234,-1,235,236,237,-1,188,238,239,-1,240,238,188,-1,237,236,188,-1,187,188,236,-1,241,190,189,-1,190,241,191,-1,191,241,242,-1,191,242,192,-1,192,242,243,-1,192,243,193,-1,193,243,244,-1,193,244,194,-1,194,244,195,-1,195,244,245,-1,195,245,196,-1,196,245,197,-1,197,245,246,-1,197,246,198,-1,247,240,188,-1,183,184,235,-1,235,184,185,-1,235,185,236,-1,236,185,186,-1,236,186,187,-1,248,239,249,-1,249,239,238,-1,249,238,250,-1,250,238,240,-1,250,240,251,-1,247,252,240,-1,240,252,253,-1,240,253,251,-1,251,253,254,-1,251,254,255,-1,234,248,256,-1,256,248,249,-1,256,249,257,-1,257,249,250,-1,257,250,258,-1,258,250,251,-1,258,251,259,-1,259,251,255,-1,179,180,260,-1,260,180,181,-1,181,234,260,-1,260,234,256,-1,260,256,261,-1,261,256,257,-1,261,257,262,-1,262,257,258,-1,262,258,263,-1,263,258,259,-1,263,259,264,-1,182,183,234,-1,234,183,235,-1,234,235,248,-1,248,235,237,-1,248,237,239,-1,239,237,188,-1,179,241,178,-1,178,241,189,-1,178,189,177,-1,255,265,259,-1,259,265,266,-1,259,266,264,-1,264,266,267,-1,264,267,268,-1,179,260,241,-1,241,260,261,-1,241,261,242,-1,242,261,262,-1,242,262,243,-1,243,262,263,-1,243,263,244,-1,244,263,264,-1,244,264,245,-1,245,264,268,-1,245,268,246,-1,155,269,233,-1,233,269,270,-1,233,270,226,-1,226,270,271,-1,226,271,227,-1,227,271,272,-1,227,272,199,-1,199,272,273,-1,199,273,200,-1,200,273,274,-1,200,274,214,-1,214,274,275,-1,214,275,215,-1,215,275,276,-1,215,276,216,-1,216,276,277,-1,216,277,217,-1,217,277,278,-1,217,278,208,-1,278,279,208,-1,208,279,280,-1,208,280,176,-1,281,198,282,-1,282,198,246,-1,282,246,283,-1,283,246,268,-1,283,268,284,-1,284,268,267,-1,284,267,285,-1,285,267,266,-1,285,266,286,-1,286,266,265,-1,286,265,287,-1,287,265,255,-1,287,255,288,-1,288,255,254,-1,288,254,289,-1,289,254,253,-1,289,253,290,-1,290,253,252,-1,290,252,291,-1,252,247,291,-1,291,247,188,-1,291,188,280,-1,285,286,292,-1,293,294,295,-1,280,296,297,-1,298,296,280,-1,295,294,280,-1,291,280,294,-1,299,300,301,-1,300,299,302,-1,302,299,303,-1,302,303,304,-1,304,303,305,-1,304,305,306,-1,306,305,307,-1,306,307,308,-1,308,307,309,-1,309,307,310,-1,309,310,311,-1,311,310,312,-1,312,310,270,-1,312,270,269,-1,279,298,280,-1,287,288,293,-1,293,288,289,-1,293,289,294,-1,294,289,290,-1,294,290,291,-1,313,297,314,-1,314,297,296,-1,314,296,315,-1,315,296,298,-1,315,298,316,-1,279,278,298,-1,298,278,277,-1,298,277,316,-1,316,277,276,-1,316,276,275,-1,292,313,317,-1,317,313,314,-1,317,314,318,-1,318,314,315,-1,318,315,319,-1,319,315,316,-1,319,316,320,-1,320,316,275,-1,283,284,321,-1,321,284,285,-1,285,292,321,-1,321,292,317,-1,321,317,322,-1,322,317,318,-1,322,318,323,-1,323,318,319,-1,323,319,324,-1,324,319,320,-1,324,320,325,-1,286,287,292,-1,292,287,293,-1,292,293,313,-1,313,293,295,-1,313,295,297,-1,297,295,280,-1,283,299,282,-1,282,299,301,-1,282,301,281,-1,275,274,320,-1,320,274,273,-1,320,273,325,-1,325,273,272,-1,325,272,271,-1,283,321,299,-1,299,321,322,-1,299,322,303,-1,303,322,323,-1,303,323,305,-1,305,323,324,-1,305,324,307,-1,307,324,325,-1,307,325,310,-1,310,325,271,-1,310,271,270,-1,281,301,326,-1,326,301,327,-1,327,301,328,-1,328,301,300,-1,328,300,329,-1,329,300,302,-1,329,302,330,-1,330,302,304,-1,330,304,331,-1,331,304,306,-1,331,306,332,-1,332,306,308,-1,332,308,333,-1,333,308,309,-1,333,309,334,-1,334,309,311,-1,334,311,335,-1,311,312,335,-1,335,312,269,-1,335,269,336,-1,336,337,338,-1,336,338,335,-1,335,338,339,-1,335,339,334,-1,334,339,340,-1,334,340,333,-1,333,340,341,-1,333,341,332,-1,332,341,342,-1,332,342,331,-1,331,342,330,-1,330,342,343,-1,330,343,329,-1,329,343,344,-1,329,344,328,-1,328,344,345,-1,328,345,327,-1,345,346,327,-1,327,346,347,-1,327,347,326,-1,
        ]
    }
}
Shape{
    appearance Appearance {
        material  Material 	{
            diffuseColor 0.7529411764705882 0.7529411764705882 0.7529411764705882
            specularColor 0.3764705882352941 0.3764705882352941 0.3764705882352941
            ambientIntensity 0.7529
            transparency 0.0
            shininess 0.5
        }
    }
    geometry IndexedFaceSet {
        ccw TRUE
        solid FALSE
        coord DEF co Coordinate {
            point [
                -0.1441 0.2558 0.7484, -0.2005 0.2558 0.7484, -0.1441 0.2558 0.748, -0.2005 0.2558 0.748, -0.1441 0.4358 0.7484, -0.1441 0.4358 0.748, -0.4717 0.4358 0.7484, -0.4717 0.4358 0.748, -0.4717 -0.4358 0.7484, -0.4717 -0.4358 0.748, -0.1441 -0.4358 0.7484, -0.1441 -0.4358 0.748, -0.1441 -0.2558 0.7484, -0.1441 -0.2558 0.748, -0.2005 -0.2558 0.7484, -0.2005 -0.2558 0.748, -0.2005 -0.3096 0.7484, -0.2005 -0.3096 0.748, -0.4297 -0.3096 0.7484, -0.4297 -0.3096 0.748, -0.4297 0.3096 0.7484, -0.4297 0.3096 0.748, -0.2005 0.3096 0.7484, -0.2005 0.3096 0.748, -0.2257 -0.0224 0.7484, -0.295 -0.0224 0.7484, -0.2257 -0.0224 0.748, -0.295 -0.0224 0.748, -0.2257 0.0224 0.7484, -0.2257 0.0224 0.748, -0.295 0.0224 0.7484, -0.295 0.0224 0.748, -0.295 0.0959 0.7484, -0.295 0.0959 0.748, -0.3414 0.0959 0.7484, -0.3414 0.0959 0.748, -0.3414 0.0224 0.7484, -0.3414 0.0224 0.748, -0.4108 0.0224 0.7484, -0.4108 0.0224 0.748, -0.4108 -0.0224 0.7484, -0.4108 -0.0224 0.748, -0.3414 -0.0224 0.7484, -0.3414 -0.0224 0.748, -0.3414 -0.0959 0.7484, -0.3414 -0.0959 0.748, -0.295 -0.0959 0.7484, -0.295 -0.0959 0.748
            ]
        }
        coordIndex [
            0,1,2,-1,2,1,3,-1,4,0,5,-1,5,0,2,-1,6,4,7,-1,7,4,5,-1,8,6,9,-1,9,6,7,-1,10,8,11,-1,11,8,9,-1,12,10,13,-1,13,10,11,-1,14,12,15,-1,15,12,13,-1,16,14,17,-1,17,14,15,-1,18,16,19,-1,19,16,17,-1,20,18,21,-1,21,18,19,-1,22,20,23,-1,23,20,21,-1,1,22,3,-1,3,22,23,-1,1,0,22,-1,22,0,4,-1,22,4,20,-1,20,4,6,-1,20,6,18,-1,18,6,8,-1,18,8,16,-1,16,8,10,-1,16,10,14,-1,14,10,12,-1,24,25,26,-1,26,25,27,-1,28,24,29,-1,29,24,26,-1,30,28,31,-1,31,28,29,-1,32,30,33,-1,33,30,31,-1,34,32,35,-1,35,32,33,-1,36,34,37,-1,37,34,35,-1,38,36,39,-1,39,36,37,-1,40,38,41,-1,41,38,39,-1,42,40,43,-1,43,40,41,-1,44,42,45,-1,45,42,43,-1,46,44,47,-1,47,44,45,-1,25,46,27,-1,27,46,47,-1,38,40,36,-1,36,40,42,-1,24,28,25,-1,25,28,30,-1,32,34,30,-1,30,34,36,-1,30,36,25,-1,25,36,42,-1,25,42,46,-1,46,42,44,-1,
        ]
    }
}