#VRML V2.0 utf8
# 3D model generated by easyeda2kicad.py (https://github.com/uPesy/easyeda2kicad.py)

Shape{
    appearance Appearance {
        material  Material 	{
            diffuseColor 0.8509803921568627 0.8509803921568627 0.8509803921568627
            specularColor 0.4235294117647059 0.4235294117647059 0.4235294117647059
            ambientIntensity 0.851
            transparency 0.0
            shininess 0.5
        }
    }
    geometry IndexedFaceSet {
        ccw TRUE
        solid FALSE
        coord DEF co Coordinate {
            point [
                0.0674 0.0355 0.0, 0.0752 0.0347 0.0, 0.0504 -0.0236 0.0, 0.1546 -0.0355 0.0, 0.0753 -0.036 0.0, 0.1143 -0.0355 0.0, 0.0803 -0.0355 0.0, 0.088 -0.0328 0.0, 0.1034 0.0225 0.0, 0.0988 0.0299 0.0, 0.144 0.0432 0.0, 0.0578 0.0343 0.0, 0.049 -0.0228 0.0, 0.049 0.0305 0.0, 0.0413 0.1969 0.0, 0.049 0.0411 0.0, 0.0811 0.0325 0.0, 0.0865 0.0289 0.0, 0.0913 0.0236 0.0, 0.097 0.003 0.0, 0.0962 -0.0055 0.0, 0.094 -0.0123 0.0, 0.0765 -0.027 0.0, 0.0692 -0.0278 0.0, 0.0823 -0.0249 0.0, 0.0871 -0.0216 0.0, 0.0908 -0.0177 0.0, 0.0587 -0.0267 0.0, 0.0945 0.0176 0.0, 0.0966 0.0091 0.0, 0.0943 -0.0288 0.0, 0.1002 -0.0226 0.0, 0.1143 -0.0269 0.0, 0.1044 -0.0151 0.0, 0.144 -0.0269 0.0, 0.0916 0.0367 0.0, 0.0842 0.041 0.0, 0.0754 0.0435 0.0, 0.1068 -0.0068 0.0, 0.1075 0.0024 0.0, 0.1064 0.0136 0.0, 0.0675 0.0442 0.0, 0.0581 0.0435 0.0, 0.049 -0.0314 0.0, 0.0574 -0.0349 0.0, 0.0413 -0.036 0.0, 0.0653 -0.036 0.0, 0.0413 -0.1969 0.0, 0.0685 -0.0364 0.0, 0.0706 -0.0365 0.0, 0.1546 0.0432 0.0, 0.315 0.1969 0.0, 0.315 -0.036 0.0, 0.315 -0.1969 0.0, -0.024 -0.0355 0.0, -0.0086 -0.0269 0.0, -0.0086 -0.0355 0.0, 0.0336 -0.0355 0.0, 0.0336 0.0432 0.0, -0.0067 0.0432 0.0, -0.315 0.1969 0.0, -0.0931 -0.0355 0.0, -0.0835 -0.0139 0.0, -0.0789 -0.021 0.0, -0.1642 -0.0355 0.0, -0.315 -0.036 0.0, -0.1335 0.0432 0.0, -0.1229 0.0432 0.0, 0.023 0.0346 0.0, 0.023 0.0087 0.0, -0.0067 0.0346 0.0, -0.0048 0.0087 0.0, -0.0048 0.0 0.0, 0.023 0.0 0.0, 0.023 -0.0269 0.0, -0.0725 -0.0272 0.0, -0.0642 -0.032 0.0, -0.0552 -0.0347 0.0, -0.024 0.0432 0.0, -0.0576 0.042 0.0, -0.0668 0.0388 0.0, -0.0754 0.033 0.0, -0.0462 0.0432 0.0, -0.0755 0.0329 0.0, -0.0811 0.0268 0.0, -0.0847 0.02 0.0, -0.0868 0.0122 0.0, -0.0874 0.0048 0.0, -0.0863 -0.0057 0.0, -0.0454 -0.0355 0.0, -0.1447 -0.0134 0.0, -0.1122 -0.0134 0.0, -0.1527 -0.0355 0.0, -0.1047 -0.0355 0.0, -0.315 -0.1969 0.0
            ]
        }
        coordIndex [
            0,1,2,-1,3,4,5,-1,5,4,6,-1,5,6,7,-1,8,9,10,-1,0,2,11,-1,11,2,12,-1,11,12,13,-1,13,12,14,-1,13,14,15,-1,1,16,2,-1,2,16,17,-1,2,17,18,-1,19,20,2,-1,2,20,21,-1,22,23,24,-1,24,23,25,-1,21,26,2,-1,2,26,25,-1,2,25,27,-1,27,25,23,-1,18,28,2,-1,2,28,29,-1,2,29,19,-1,7,30,5,-1,5,30,31,-1,5,31,32,-1,32,31,33,-1,32,33,34,-1,35,36,14,-1,14,36,37,-1,33,38,34,-1,34,38,39,-1,34,39,10,-1,10,39,40,-1,10,40,8,-1,37,41,14,-1,14,41,42,-1,14,42,15,-1,43,44,45,-1,45,44,46,-1,45,46,47,-1,46,48,47,-1,47,48,49,-1,47,49,4,-1,9,35,10,-1,10,35,14,-1,10,14,50,-1,50,14,51,-1,50,51,3,-1,3,51,52,-1,3,52,4,-1,4,52,53,-1,4,53,47,-1,54,55,56,-1,45,57,58,-1,59,60,58,-1,58,60,14,-1,58,14,45,-1,45,14,12,-1,45,12,43,-1,61,62,63,-1,64,65,66,-1,66,65,60,-1,66,60,67,-1,68,69,70,-1,70,69,71,-1,72,73,74,-1,63,75,61,-1,61,75,76,-1,61,76,77,-1,74,55,72,-1,72,55,54,-1,72,54,71,-1,71,54,78,-1,71,78,70,-1,79,80,67,-1,67,80,81,-1,79,67,82,-1,82,67,60,-1,82,60,78,-1,78,60,59,-1,78,59,70,-1,81,83,67,-1,67,83,84,-1,67,84,85,-1,85,86,67,-1,67,86,87,-1,67,87,61,-1,61,87,88,-1,61,88,62,-1,89,54,45,-1,45,54,56,-1,45,56,57,-1,90,91,92,-1,92,91,93,-1,92,93,45,-1,45,93,61,-1,45,61,89,-1,89,61,77,-1,64,92,65,-1,65,92,45,-1,65,45,94,-1,94,45,47,-1,
        ]
    }
}
Shape{
    appearance Appearance {
        material  Material 	{
            diffuseColor 0.25098039215686274 0.25098039215686274 0.25098039215686274
            specularColor 0.12549019607843137 0.12549019607843137 0.12549019607843137
            ambientIntensity 0.251
            transparency 0.0
            shininess 0.5
        }
    }
    geometry IndexedFaceSet {
        ccw TRUE
        solid FALSE
        coord DEF co Coordinate {
            point [
                0.315 0.3189 0.0039, 0.315 0.3937 0.0039, 0.3937 0.3937 0.0039, 0.3937 -0.3937 0.0039, 0.315 -0.1969 0.0039, 0.315 0.1969 0.0039, -0.0153 -0.2619 0.0039, -0.0295 -0.2678 0.0039, -0.1989 -0.3036 0.0039, -0.0418 -0.2771 0.0039, -0.0511 -0.2894 0.0039, -0.0591 -0.3189 0.0039, -0.0591 -0.3937 0.0039, -0.1969 -0.3937 0.0039, 0.2854 -0.2678 0.0039, 0.2712 -0.2619 0.0039, -0.307 -0.2894 0.0039, -0.3129 -0.3036 0.0039, -0.3937 -0.3937 0.0039, -0.315 -0.3189 0.0039, -0.315 -0.3937 0.0039, 0.0295 0.2678 0.0039, 0.0418 0.2771 0.0039, -0.057 -0.3036 0.0039, -0.1969 -0.3189 0.0039, 0.2977 -0.2771 0.0039, -0.2977 -0.2771 0.0039, -0.315 -0.1969 0.0039, -0.2854 -0.2678 0.0039, -0.2712 -0.2619 0.0039, -0.3129 0.3036 0.0039, -0.307 0.2894 0.0039, -0.315 0.1969 0.0039, -0.2977 0.2771 0.0039, -0.2854 0.2678 0.0039, -0.2712 0.2619 0.0039, -0.0511 0.2894 0.0039, -0.0418 0.2771 0.0039, -0.1989 0.3036 0.0039, 0.2048 0.2894 0.0039, 0.2141 0.2771 0.0039, 0.057 0.3036 0.0039, 0.2406 0.2619 0.0039, 0.2559 0.2598 0.0039, 0.2712 0.2619 0.0039, 0.2854 0.2678 0.0039, 0.1989 -0.3036 0.0039, 0.0511 -0.2894 0.0039, 0.0418 -0.2771 0.0039, -0.2559 0.2598 0.0039, -0.2406 0.2619 0.0039, -0.2264 0.2678 0.0039, -0.0153 0.2619 0.0039, 0.0 0.2598 0.0039, 0.0153 0.2619 0.0039, 0.2977 0.2771 0.0039, 0.307 0.2894 0.0039, 0.3129 0.3036 0.0039, 0.315 -0.3937 0.0039, 0.315 -0.3189 0.0039, 0.3129 -0.3036 0.0039, 0.307 -0.2894 0.0039, -0.3937 0.3937 0.0039, -0.315 0.3937 0.0039, -0.315 0.3189 0.0039, -0.1969 0.3937 0.0039, -0.0591 0.3937 0.0039, -0.1969 0.3189 0.0039, -0.0591 0.3189 0.0039, -0.057 0.3036 0.0039, 0.2264 0.2678 0.0039, 0.0511 0.2894 0.0039, 0.2559 -0.2598 0.0039, 0.2406 -0.2619 0.0039, 0.2264 -0.2678 0.0039, -0.0295 0.2678 0.0039, -0.2048 0.2894 0.0039, -0.2141 0.2771 0.0039, 0.0153 -0.2619 0.0039, 0.0 -0.2598 0.0039, 0.1969 -0.3937 0.0039, 0.0591 -0.3937 0.0039, 0.1969 -0.3189 0.0039, 0.0591 -0.3189 0.0039, 0.057 -0.3036 0.0039, -0.2048 -0.2894 0.0039, -0.2141 -0.2771 0.0039, -0.2264 -0.2678 0.0039, -0.2406 -0.2619 0.0039, -0.2559 -0.2598 0.0039, 0.0295 -0.2678 0.0039, 0.2048 -0.2894 0.0039, 0.2141 -0.2771 0.0039, 0.0591 0.3937 0.0039, 0.1969 0.3937 0.0039, 0.0591 0.3189 0.0039, 0.1969 0.3189 0.0039, 0.1989 0.3036 0.0039, -0.3937 -0.3937 0.2205, -0.1969 -0.3937 0.0787, -0.0591 -0.3937 0.0787, -0.315 -0.3937 0.0787, 0.3937 -0.3937 0.2205, 0.0591 -0.3937 0.0787, 0.315 -0.3937 0.0787, 0.1969 -0.3937 0.0787, 0.2714 -0.3937 0.2205, 0.3937 -0.3691 0.2205, -0.0435 -0.0253 0.2205, -0.0713 -0.0253 0.2205, -0.0713 -0.1555 0.2205, -0.003 -0.0253 0.2205, -0.0191 -0.0253 0.2205, -0.0191 -0.1555 0.2205, -0.0 0.0342 0.2205, 0.0028 0.0345 0.2205, -0.0191 0.0345 0.2205, -0.0144 -0.0226 0.2205, -0.0144 -0.014 0.2205, -0.0071 -0.0249 0.2205, -0.0125 -0.0235 0.2205, -0.0087 0.0075 0.2205, -0.0113 0.01 0.2205, -0.013 0.0127 0.2205, -0.0127 0.0259 0.2205, -0.0109 0.0285 0.2205, -0.0141 0.0158 0.2205, -0.0144 0.019 0.2205, -0.0139 0.0231 0.2205, -0.0083 0.0307 0.2205, -0.005 0.0326 0.2205, 0.0 0.0022 0.2205, -0.0101 -0.0166 0.2205, 0.0081 -0.002 0.2205, -0.0031 -0.0188 0.2205, 0.0089 -0.0026 0.2205, 0.0013 -0.0192 0.2205, 0.0056 -0.0188 0.2205, 0.0086 -0.018 0.2205, 0.0107 -0.0169 0.2205, 0.012 -0.0157 0.2205, 0.0128 -0.0145 0.2205, 0.0134 -0.0127 0.2205, 0.0137 -0.0104 0.2205, 0.0134 -0.0083 0.2205, 0.0128 -0.0066 0.2205, 0.0113 -0.0046 0.2205, 0.0274 -0.1555 0.2205, 0.0054 -0.0253 0.2205, 0.0005 -0.0257 0.2205, 0.0134 0.0345 0.2205, 0.0194 0.0332 0.2205, 0.0274 0.0345 0.2205, 0.0194 0.0246 0.2205, 0.0274 -0.0253 0.2205, 0.0211 -0.0139 0.2205, 0.02 -0.0169 0.2205, 0.0181 -0.0196 0.2205, 0.0148 0.0027 0.2205, 0.0182 -0.0005 0.2205, 0.0157 -0.0218 0.2205, 0.0123 -0.0236 0.2205, 0.0066 -0.0252 0.2205, 0.0201 -0.0034 0.2205, 0.0212 -0.0064 0.2205, 0.0216 -0.0097 0.2205, 0.0061 0.0078 0.2205, 0.015 0.0269 0.2205, 0.0006 0.0107 0.2205, 0.0099 0.0281 0.2205, 0.0059 0.0284 0.2205, -0.0056 0.0159 0.2205, -0.0062 0.0175 0.2205, -0.0065 0.0198 0.2205, -0.0046 0.0144 0.2205, -0.0028 0.0128 0.2205, -0.0049 0.0244 0.2205, -0.0058 0.0231 0.2205, -0.0063 0.0216 0.2205, 0.0017 0.028 0.2205, -0.0014 0.027 0.2205, -0.0036 0.0257 0.2205, 0.013 0.0346 0.2205, 0.0274 0.3937 0.2205, 0.0065 0.0348 0.2205, -0.0191 0.3937 0.2205, 0.1365 0.012 0.2205, 0.14 0.0108 0.2205, 0.1455 0.026 0.2205, 0.1433 0.0086 0.2205, 0.1395 0.0345 0.2205, 0.1407 0.0344 0.2205, 0.2714 0.0345 0.2205, 0.1441 0.0333 0.2205, 0.1455 0.0325 0.2205, 0.1458 0.0058 0.2205, 0.1477 0.0022 0.2205, 0.1489 -0.0025 0.2205, 0.1485 -0.0112 0.2205, 0.147 -0.0154 0.2205, 0.2714 -0.0253 0.2205, 0.1447 -0.0191 0.2205, 0.1416 -0.022 0.2205, 0.1491 -0.0058 0.2205, 0.1184 0.0041 0.2205, 0.1186 0.0041 0.2205, 0.1188 0.0104 0.2205, 0.1207 0.0074 0.2205, 0.1206 0.0172 0.2205, 0.1231 0.0097 0.2205, 0.123 0.0216 0.2205, 0.1259 0.0114 0.2205, 0.1259 0.0248 0.2205, 0.129 0.0123 0.2205, 0.1288 0.0268 0.2205, 0.1321 0.0125 0.2205, 0.1407 0.0278 0.2205, 0.1357 0.0284 0.2205, 0.1319 0.0279 0.2205, 0.2714 0.3937 0.2205, 0.1059 0.3937 0.2205, 0.1355 0.0348 0.2205, 0.1319 0.0345 0.2205, 0.1273 -0.0253 0.2205, 0.1252 -0.025 0.2205, 0.1059 -0.0253 0.2205, 0.1217 -0.0237 0.2205, 0.1059 0.0345 0.2205, 0.1257 0.0326 0.2205, 0.1306 0.0343 0.2205, 0.1185 -0.0214 0.2205, 0.1158 -0.0184 0.2205, 0.1133 -0.0137 0.2205, 0.1143 0.0198 0.2205, 0.1178 0.0259 0.2205, 0.1216 0.03 0.2205, 0.1114 -0.0062 0.2205, 0.1109 0.0011 0.2205, 0.1119 0.0117 0.2205, 0.1382 -0.0241 0.2205, 0.1342 -0.0253 0.2205, 0.2714 -0.1555 0.2205, 0.1059 -0.1555 0.2205, 0.1342 -0.0253 0.2205, 0.1302 -0.0257 0.2205, -0.0238 -0.0154 0.2205, -0.0238 -0.0219 0.2205, -0.0324 0.0345 0.2205, -0.0306 0.0343 0.2205, -0.0238 0.0325 0.2205, -0.0238 0.0246 0.2205, -0.0304 0.0274 0.2205, -0.0248 -0.016 0.2205, -0.0376 0.0284 0.2205, -0.0434 0.0277 0.2205, -0.0478 0.0261 0.2205, -0.0519 0.0234 0.2205, -0.0555 0.0194 0.2205, -0.0598 0.004 0.2205, -0.0592 -0.0024 0.2205, -0.0576 -0.0075 0.2205, -0.0444 -0.0186 0.2205, -0.0389 -0.0192 0.2205, -0.0487 -0.017 0.2205, -0.0524 -0.0145 0.2205, -0.0551 -0.0116 0.2205, -0.0311 -0.0183 0.2205, -0.0579 0.0149 0.2205, -0.0595 0.0086 0.2205, -0.0713 0.3937 0.2205, -0.0421 0.0345 0.2205, -0.0377 0.0348 0.2205, -0.0578 -0.0199 0.2205, -0.0622 -0.0152 0.2205, -0.0646 0.0186 0.2205, -0.0611 0.0241 0.2205, -0.0713 0.0345 0.2205, -0.0473 -0.0249 0.2205, -0.053 -0.0229 0.2205, -0.0668 0.0119 0.2205, -0.0558 0.0292 0.2205, -0.0502 0.0324 0.2205, -0.0436 0.0343 0.2205, -0.0653 -0.0096 0.2205, -0.0671 -0.0034 0.2205, -0.0677 0.0035 0.2205, -0.0301 -0.0245 0.2205, -0.036 -0.0253 0.2205, -0.0384 -0.0256 0.2205, -0.04 -0.0257 0.2205, -0.2147 -0.3937 0.2205, -0.2147 -0.3691 0.2205, -0.3937 -0.3691 0.2205, 0.2714 -0.3691 0.2205, 0.1059 -0.3937 0.2205, 0.1059 -0.3691 0.2205, 0.0742 -0.3937 0.2205, 0.0742 -0.3691 0.2205, 0.0274 -0.3937 0.2205, 0.0274 -0.3691 0.2205, -0.0191 -0.3937 0.2205, -0.0191 -0.3691 0.2205, -0.0713 -0.3937 0.2205, -0.0713 -0.3691 0.2205, -0.1095 -0.3937 0.2205, -0.315 -0.2854 0.2205, -0.3073 -0.2864 0.2205, -0.2147 -0.1555 0.2205, -0.3002 -0.2894 0.2205, -0.2941 -0.2941 0.2205, -0.2894 -0.3002 0.2205, -0.2864 -0.3073 0.2205, -0.2854 -0.315 0.2205, -0.2864 -0.3226 0.2205, -0.2894 -0.3297 0.2205, -0.2941 -0.3358 0.2205, -0.3002 -0.3405 0.2205, -0.3405 -0.3297 0.2205, -0.3358 -0.3358 0.2205, -0.3297 -0.3405 0.2205, -0.3073 -0.3435 0.2205, -0.315 -0.3445 0.2205, -0.3226 -0.3435 0.2205, -0.3937 -0.1555 0.2205, -0.3226 -0.2864 0.2205, -0.3405 -0.3002 0.2205, -0.3358 -0.2941 0.2205, -0.3297 -0.2894 0.2205, -0.3435 -0.3226 0.2205, -0.3445 -0.315 0.2205, -0.3435 -0.3073 0.2205, 0.0742 -0.1555 0.2205, -0.1095 -0.3691 0.2205, -0.1095 -0.1555 0.2205, -0.1095 -0.0253 0.2205, 0.0742 -0.0253 0.2205, -0.2147 -0.0253 0.2205, -0.3937 -0.0253 0.2205, -0.2147 0.0345 0.2205, -0.3937 0.0345 0.2205, -0.1095 0.0345 0.2205, -0.1138 -0.0185 0.2205, -0.1138 -0.0249 0.2205, -0.144 -0.0249 0.2205, -0.1361 -0.0185 0.2205, -0.1361 0.0341 0.2205, -0.144 0.0341 0.2205, -0.0749 0.0276 0.2205, -0.0972 0.0276 0.2205, -0.0972 0.0075 0.2205, -0.0763 0.0075 0.2205, -0.0763 0.001 0.2205, -0.0972 0.001 0.2205, -0.0972 -0.0249 0.2205, -0.1051 -0.0249 0.2205, -0.1051 0.0341 0.2205, -0.0749 0.0341 0.2205, 0.0486 -0.0026 0.2205, 0.0411 -0.0026 0.2205, 0.0411 -0.0249 0.2205, 0.0693 0.0115 0.2205, 0.0679 0.0077 0.2205, 0.0655 0.0041 0.2205, 0.062 0.001 0.2205, 0.0576 -0.0013 0.2205, 0.0678 0.0255 0.2205, 0.0691 0.0222 0.2205, 0.0742 0.0345 0.2205, 0.0698 0.0175 0.2205, 0.0699 0.0164 0.2205, 0.0498 0.0341 0.2205, 0.0556 0.0336 0.2205, 0.0601 0.0323 0.2205, 0.0636 0.0304 0.2205, 0.0657 0.0285 0.2205, 0.0529 -0.0024 0.2205, 0.0331 -0.0249 0.2205, 0.0331 0.0341 0.2205, 0.0785 -0.0048 0.2205, 0.0785 0.001 0.2205, 0.1008 -0.0048 0.2205, 0.1008 0.001 0.2205, -0.1095 0.3937 0.2205, -0.2147 0.3937 0.2205, -0.3937 0.3937 0.2205, 0.0742 0.3937 0.2205, 0.3937 -0.1555 0.2205, 0.3937 -0.0253 0.2205, 0.3937 0.0345 0.2205, 0.3937 0.3937 0.2205, 0.1969 0.3937 0.0787, 0.0591 0.3937 0.0787, 0.315 0.3937 0.0787, -0.0591 0.3937 0.0787, -0.315 0.3937 0.0787, -0.1969 0.3937 0.0787
            ]
        }
        coordIndex [
            0,1,2,-1,3,4,2,-1,2,4,5,-1,6,7,8,-1,8,7,9,-1,8,9,10,-1,11,12,13,-1,14,15,4,-1,16,17,18,-1,18,17,19,-1,18,19,20,-1,21,22,5,-1,10,23,8,-1,8,23,11,-1,8,11,24,-1,24,11,13,-1,14,4,25,-1,26,27,28,-1,28,27,29,-1,30,31,32,-1,31,33,32,-1,32,33,34,-1,32,34,35,-1,36,37,38,-1,39,40,41,-1,42,43,5,-1,5,43,44,-1,5,44,45,-1,46,47,48,-1,35,49,32,-1,32,49,50,-1,32,50,5,-1,5,50,51,-1,52,53,5,-1,5,53,54,-1,5,54,21,-1,45,55,5,-1,5,55,56,-1,5,56,2,-1,2,56,57,-1,2,57,0,-1,58,59,3,-1,3,59,60,-1,3,60,4,-1,4,60,61,-1,4,61,25,-1,62,63,64,-1,64,30,62,-1,62,30,32,-1,62,32,18,-1,18,32,27,-1,18,27,16,-1,16,27,26,-1,65,66,67,-1,67,66,68,-1,67,68,38,-1,38,68,69,-1,38,69,36,-1,42,5,70,-1,70,5,22,-1,70,22,40,-1,40,22,71,-1,40,71,41,-1,15,72,4,-1,4,72,73,-1,4,73,27,-1,27,73,74,-1,37,75,38,-1,38,75,52,-1,38,52,76,-1,76,52,5,-1,76,5,77,-1,77,5,51,-1,78,79,27,-1,80,81,82,-1,82,81,83,-1,82,83,46,-1,46,83,84,-1,46,84,47,-1,8,85,6,-1,6,85,86,-1,6,86,79,-1,86,87,79,-1,79,87,88,-1,79,88,27,-1,27,88,89,-1,27,89,29,-1,48,90,46,-1,46,90,78,-1,46,78,91,-1,91,78,27,-1,91,27,92,-1,92,27,74,-1,93,94,95,-1,95,94,96,-1,95,96,41,-1,41,96,97,-1,41,97,39,-1,98,18,20,-1,13,12,99,-1,99,12,100,-1,20,101,98,-1,98,101,99,-1,98,99,102,-1,102,99,100,-1,102,100,103,-1,58,3,104,-1,104,3,102,-1,104,102,105,-1,105,102,103,-1,105,103,80,-1,80,103,81,-1,106,102,107,-1,108,109,110,-1,111,112,113,-1,114,115,116,-1,112,117,118,-1,111,119,112,-1,112,119,120,-1,112,120,117,-1,121,122,118,-1,118,122,123,-1,116,124,125,-1,126,127,116,-1,116,127,128,-1,116,128,124,-1,125,129,116,-1,116,129,130,-1,116,130,114,-1,121,118,131,-1,131,118,132,-1,131,132,133,-1,133,132,134,-1,133,134,135,-1,135,134,136,-1,135,136,137,-1,137,138,135,-1,135,138,139,-1,135,139,140,-1,140,141,135,-1,135,141,142,-1,135,142,143,-1,144,145,143,-1,143,145,146,-1,143,146,135,-1,147,148,113,-1,113,148,149,-1,113,149,111,-1,150,151,152,-1,152,151,153,-1,152,153,154,-1,155,156,154,-1,154,156,157,-1,158,159,153,-1,157,160,154,-1,154,160,161,-1,154,161,162,-1,159,163,153,-1,153,163,164,-1,153,164,154,-1,154,164,165,-1,154,165,155,-1,158,153,166,-1,166,153,167,-1,166,167,168,-1,168,167,169,-1,168,169,170,-1,171,170,172,-1,172,170,173,-1,171,174,170,-1,170,174,175,-1,170,175,168,-1,176,177,178,-1,170,179,173,-1,173,179,180,-1,173,180,178,-1,178,180,181,-1,178,181,176,-1,182,183,184,-1,184,183,185,-1,184,185,115,-1,186,187,188,-1,188,187,189,-1,190,191,192,-1,192,191,193,-1,192,193,194,-1,189,195,188,-1,188,195,196,-1,188,196,197,-1,198,199,200,-1,200,199,201,-1,200,201,202,-1,194,188,192,-1,192,188,197,-1,192,197,200,-1,200,197,203,-1,200,203,198,-1,204,205,206,-1,206,205,207,-1,206,207,208,-1,208,207,209,-1,208,209,210,-1,210,209,211,-1,210,211,212,-1,212,211,213,-1,212,213,214,-1,214,213,215,-1,188,216,186,-1,186,216,217,-1,186,217,215,-1,215,217,218,-1,215,218,214,-1,192,219,190,-1,190,219,220,-1,190,220,221,-1,221,220,222,-1,223,224,225,-1,225,224,226,-1,227,228,229,-1,226,230,225,-1,225,230,231,-1,225,231,232,-1,233,234,227,-1,227,234,235,-1,227,235,228,-1,232,236,225,-1,225,236,237,-1,225,237,227,-1,227,237,238,-1,227,238,233,-1,202,239,200,-1,200,239,240,-1,200,240,241,-1,241,240,242,-1,242,240,243,-1,242,243,244,-1,123,126,118,-1,118,126,116,-1,118,116,112,-1,112,116,245,-1,112,245,246,-1,115,185,116,-1,116,185,247,-1,116,247,248,-1,248,249,116,-1,116,249,250,-1,116,250,245,-1,245,250,251,-1,245,251,252,-1,252,251,253,-1,252,253,254,-1,254,255,252,-1,252,255,256,-1,252,256,257,-1,258,259,252,-1,252,259,260,-1,261,262,263,-1,263,262,264,-1,260,265,252,-1,252,265,264,-1,252,264,266,-1,266,264,262,-1,257,267,252,-1,252,267,268,-1,252,268,258,-1,269,270,185,-1,185,270,271,-1,185,271,247,-1,272,273,109,-1,274,275,276,-1,108,277,109,-1,109,277,278,-1,109,278,272,-1,274,276,279,-1,275,280,276,-1,276,280,281,-1,276,281,282,-1,273,283,109,-1,109,283,284,-1,109,284,285,-1,246,286,112,-1,112,286,287,-1,112,287,113,-1,113,287,288,-1,113,288,110,-1,110,288,289,-1,110,289,108,-1,290,291,98,-1,98,291,292,-1,106,293,294,-1,294,293,295,-1,294,295,296,-1,296,295,297,-1,296,297,298,-1,298,297,299,-1,298,299,300,-1,300,299,301,-1,300,301,302,-1,302,301,303,-1,302,303,304,-1,305,306,307,-1,307,306,308,-1,307,308,309,-1,309,310,307,-1,307,310,311,-1,307,311,291,-1,291,311,312,-1,291,312,313,-1,313,314,291,-1,291,314,315,-1,291,315,316,-1,317,292,318,-1,318,292,319,-1,316,320,291,-1,291,320,321,-1,291,321,292,-1,292,321,322,-1,292,322,319,-1,323,324,305,-1,325,326,323,-1,323,326,327,-1,323,327,324,-1,317,328,292,-1,292,328,329,-1,292,329,323,-1,323,329,330,-1,323,330,325,-1,293,241,295,-1,295,241,242,-1,295,242,297,-1,297,242,331,-1,297,331,299,-1,299,331,147,-1,299,147,301,-1,301,147,113,-1,301,113,303,-1,303,113,110,-1,304,303,332,-1,332,303,110,-1,332,110,333,-1,333,110,109,-1,333,109,334,-1,244,223,242,-1,242,223,225,-1,242,225,331,-1,331,225,335,-1,331,335,147,-1,147,335,154,-1,147,154,148,-1,148,154,162,-1,305,307,323,-1,323,307,336,-1,323,336,337,-1,337,336,338,-1,337,338,339,-1,340,341,334,-1,334,341,342,-1,334,342,343,-1,344,341,345,-1,345,341,340,-1,345,340,346,-1,346,340,338,-1,346,338,343,-1,343,338,336,-1,343,336,334,-1,334,336,307,-1,334,307,333,-1,333,307,291,-1,333,291,332,-1,332,291,290,-1,332,290,304,-1,347,348,349,-1,109,350,351,-1,349,350,347,-1,347,350,109,-1,347,109,276,-1,276,109,285,-1,276,285,279,-1,351,352,109,-1,109,352,353,-1,109,353,334,-1,334,353,354,-1,334,354,340,-1,340,354,355,-1,340,355,276,-1,276,355,356,-1,276,356,347,-1,357,358,359,-1,360,361,335,-1,361,362,335,-1,335,362,363,-1,335,363,364,-1,365,366,367,-1,367,366,368,-1,367,368,369,-1,152,370,367,-1,367,370,371,-1,367,371,372,-1,372,373,367,-1,367,373,374,-1,367,374,365,-1,357,359,375,-1,364,375,335,-1,335,375,359,-1,335,359,154,-1,154,359,376,-1,154,376,152,-1,152,376,377,-1,152,377,370,-1,335,378,379,-1,378,335,380,-1,380,335,225,-1,380,225,381,-1,381,225,227,-1,381,227,379,-1,379,227,367,-1,379,367,335,-1,335,367,369,-1,335,369,360,-1,282,270,276,-1,276,270,269,-1,276,269,340,-1,340,269,382,-1,340,382,338,-1,338,382,383,-1,338,383,339,-1,339,383,384,-1,229,222,227,-1,227,222,220,-1,227,220,367,-1,367,220,385,-1,367,385,152,-1,152,385,183,-1,152,183,150,-1,150,183,182,-1,106,107,293,-1,293,107,386,-1,293,386,241,-1,241,386,387,-1,241,387,200,-1,200,387,388,-1,200,388,192,-1,192,388,389,-1,192,389,219,-1,389,102,2,-1,2,102,3,-1,389,2,1,-1,94,93,390,-1,390,93,391,-1,1,392,389,-1,389,392,390,-1,389,390,384,-1,384,390,391,-1,384,391,393,-1,63,62,394,-1,394,62,384,-1,394,384,395,-1,395,384,393,-1,395,393,65,-1,65,393,66,-1,98,384,18,-1,18,384,62,-1,
        ]
    }
}
Shape{
    appearance Appearance {
        material  Material 	{
            diffuseColor 0.6666666666666666 0.6666666666666666 0.6666666666666666
            specularColor 0.3333333333333333 0.3333333333333333 0.3333333333333333
            ambientIntensity 0.6667
            transparency 0.0
            shininess 0.5
        }
    }
    geometry IndexedFaceSet {
        ccw TRUE
        solid FALSE
        coord DEF co Coordinate {
            point [
                -0.1138 -0.0185 0.2165, -0.1138 -0.0249 0.2165, -0.1138 -0.0185 0.2205, -0.1138 -0.0249 0.2205, -0.144 -0.0249 0.2165, -0.144 -0.0249 0.2205, -0.144 0.0341 0.2165, -0.144 0.0341 0.2205, -0.1361 0.0341 0.2165, -0.1361 0.0341 0.2205, -0.1361 -0.0185 0.2165, -0.1361 -0.0185 0.2205, -0.2854 -0.315 0.2165, -0.2854 -0.315 0.2205, -0.2864 -0.3073 0.2165, -0.2864 -0.3073 0.2205, -0.2894 -0.3002 0.2165, -0.2894 -0.3002 0.2205, -0.2941 -0.2941 0.2165, -0.2941 -0.2941 0.2205, -0.3002 -0.2894 0.2165, -0.3002 -0.2894 0.2205, -0.3073 -0.2864 0.2165, -0.3073 -0.2864 0.2205, -0.315 -0.2854 0.2165, -0.315 -0.2854 0.2205, -0.3226 -0.2864 0.2165, -0.3226 -0.2864 0.2205, -0.3297 -0.2894 0.2165, -0.3297 -0.2894 0.2205, -0.3358 -0.2941 0.2165, -0.3358 -0.2941 0.2205, -0.3405 -0.3002 0.2165, -0.3405 -0.3002 0.2205, -0.3435 -0.3073 0.2165, -0.3435 -0.3073 0.2205, -0.3445 -0.315 0.2165, -0.3445 -0.315 0.2205, -0.3435 -0.3226 0.2165, -0.3435 -0.3226 0.2205, -0.3405 -0.3297 0.2165, -0.3405 -0.3297 0.2205, -0.3358 -0.3358 0.2165, -0.3358 -0.3358 0.2205, -0.3297 -0.3405 0.2165, -0.3297 -0.3405 0.2205, -0.3226 -0.3435 0.2165, -0.3226 -0.3435 0.2205, -0.315 -0.3445 0.2165, -0.315 -0.3445 0.2205, -0.3073 -0.3435 0.2165, -0.3073 -0.3435 0.2205, -0.3002 -0.3405 0.2165, -0.3002 -0.3405 0.2205, -0.2941 -0.3358 0.2165, -0.2941 -0.3358 0.2205, -0.2894 -0.3297 0.2165, -0.2894 -0.3297 0.2205, -0.2864 -0.3226 0.2165, -0.2864 -0.3226 0.2205, -0.315 -0.315 0.2165, 0.1455 0.0325 0.2165, 0.1455 0.026 0.2165, 0.1455 0.0325 0.2205, 0.1455 0.026 0.2205, 0.1357 0.0284 0.2165, 0.1357 0.0284 0.2205, 0.1407 0.0278 0.2205, 0.1407 0.0278 0.2165, 0.1184 0.0041 0.2165, 0.1184 0.0041 0.2205, 0.1188 0.0104 0.2205, 0.1188 0.0104 0.2165, 0.1206 0.0172 0.2205, 0.1206 0.0172 0.2165, 0.123 0.0216 0.2205, 0.123 0.0216 0.2165, 0.1259 0.0248 0.2205, 0.1259 0.0248 0.2165, 0.1288 0.0268 0.2205, 0.1288 0.0268 0.2165, 0.1319 0.0279 0.2205, 0.1319 0.0279 0.2165, 0.1186 0.0041 0.2165, 0.1186 0.0041 0.2205, 0.1321 0.0125 0.2165, 0.1321 0.0125 0.2205, 0.129 0.0123 0.2205, 0.129 0.0123 0.2165, 0.1259 0.0114 0.2205, 0.1259 0.0114 0.2165, 0.1231 0.0097 0.2205, 0.1231 0.0097 0.2165, 0.1207 0.0074 0.2205, 0.1207 0.0074 0.2165, 0.1491 -0.0058 0.2165, 0.1491 -0.0058 0.2205, 0.1489 -0.0025 0.2205, 0.1489 -0.0025 0.2165, 0.1477 0.0022 0.2205, 0.1477 0.0022 0.2165, 0.1458 0.0058 0.2205, 0.1458 0.0058 0.2165, 0.1433 0.0086 0.2205, 0.1433 0.0086 0.2165, 0.14 0.0108 0.2205, 0.14 0.0108 0.2165, 0.1365 0.012 0.2205, 0.1365 0.012 0.2165, 0.1302 -0.0257 0.2165, 0.1302 -0.0257 0.2205, 0.1342 -0.0253 0.2205, 0.1342 -0.0253 0.2165, 0.1342 -0.0253 0.2205, 0.1382 -0.0241 0.2165, 0.1382 -0.0241 0.2205, 0.1416 -0.022 0.2205, 0.1416 -0.022 0.2165, 0.1447 -0.0191 0.2205, 0.1447 -0.0191 0.2165, 0.147 -0.0154 0.2205, 0.147 -0.0154 0.2165, 0.1485 -0.0112 0.2205, 0.1485 -0.0112 0.2165, 0.1273 -0.0253 0.2205, 0.1252 -0.025 0.2165, 0.1252 -0.025 0.2205, 0.1217 -0.0237 0.2165, 0.1217 -0.0237 0.2205, 0.1185 -0.0214 0.2165, 0.1185 -0.0214 0.2205, 0.1158 -0.0184 0.2165, 0.1158 -0.0184 0.2205, 0.1133 -0.0137 0.2165, 0.1133 -0.0137 0.2205, 0.1114 -0.0062 0.2165, 0.1114 -0.0062 0.2205, 0.1109 0.0011 0.2165, 0.1109 0.0011 0.2205, 0.1355 0.0348 0.2205, 0.1319 0.0345 0.2205, 0.1355 0.0348 0.2165, 0.1306 0.0343 0.2165, 0.1306 0.0343 0.2205, 0.1257 0.0326 0.2205, 0.1257 0.0326 0.2165, 0.1216 0.03 0.2205, 0.1216 0.03 0.2165, 0.1178 0.0259 0.2205, 0.1178 0.0259 0.2165, 0.1143 0.0198 0.2205, 0.1143 0.0198 0.2165, 0.1119 0.0117 0.2205, 0.1119 0.0117 0.2165, 0.1395 0.0345 0.2205, 0.1407 0.0344 0.2165, 0.1407 0.0344 0.2205, 0.1441 0.0333 0.2165, 0.1441 0.0333 0.2205, 0.1188 -0.0053 0.2165, 0.1189 -0.0039 0.2165, 0.1241 -0.0172 0.2165, 0.1223 -0.0156 0.2165, 0.1205 -0.0127 0.2165, 0.1193 -0.0094 0.2165, 0.1195 -0.0013 0.2165, 0.1208 0.0013 0.2165, 0.1228 0.0035 0.2165, 0.1249 0.0049 0.2165, 0.1272 0.0057 0.2165, 0.1301 0.006 0.2165, 0.132 0.0059 0.2165, 0.1343 0.0054 0.2165, 0.1362 0.0045 0.2165, 0.1378 0.0032 0.2165, 0.1388 0.0021 0.2165, 0.14 -0.0001 0.2165, 0.1408 -0.003 0.2165, 0.1412 -0.0066 0.2165, 0.1409 -0.0097 0.2165, 0.1401 -0.0124 0.2165, 0.1388 -0.0148 0.2165, 0.137 -0.0168 0.2165, 0.1351 -0.0181 0.2165, 0.133 -0.0188 0.2165, 0.1302 -0.0192 0.2165, 0.1281 -0.019 0.2165, 0.1259 -0.0183 0.2165, 0.1188 -0.0053 0.2205, 0.1189 -0.0039 0.2205, 0.1195 -0.0013 0.2205, 0.1208 0.0013 0.2205, 0.1228 0.0035 0.2205, 0.1249 0.0049 0.2205, 0.1272 0.0057 0.2205, 0.1301 0.006 0.2205, 0.132 0.0059 0.2205, 0.1343 0.0054 0.2205, 0.1362 0.0045 0.2205, 0.1378 0.0032 0.2205, 0.1388 0.0021 0.2205, 0.14 -0.0001 0.2205, 0.1408 -0.003 0.2205, 0.1412 -0.0066 0.2205, 0.1409 -0.0097 0.2205, 0.1401 -0.0124 0.2205, 0.1388 -0.0148 0.2205, 0.137 -0.0168 0.2205, 0.1351 -0.0181 0.2205, 0.133 -0.0188 0.2205, 0.1302 -0.0192 0.2205, 0.1281 -0.019 0.2205, 0.1259 -0.0183 0.2205, 0.1241 -0.0172 0.2205, 0.1223 -0.0156 0.2205, 0.1205 -0.0127 0.2205, 0.1193 -0.0094 0.2205, 0.1008 0.001 0.2165, 0.1008 -0.0048 0.2165, 0.1008 0.001 0.2205, 0.1008 -0.0048 0.2205, 0.0785 -0.0048 0.2165, 0.0785 -0.0048 0.2205, 0.0785 0.001 0.2165, 0.0785 0.001 0.2205, 0.0486 -0.0026 0.2165, 0.0411 -0.0026 0.2165, 0.0486 -0.0026 0.2205, 0.0411 -0.0026 0.2205, 0.0411 -0.0249 0.2165, 0.0411 -0.0249 0.2205, 0.0331 -0.0249 0.2165, 0.0331 -0.0249 0.2205, 0.0331 0.0341 0.2165, 0.0331 0.0341 0.2205, 0.0498 0.0341 0.2165, 0.0498 0.0341 0.2205, 0.0699 0.0164 0.2165, 0.0699 0.0164 0.2205, 0.0698 0.0175 0.2205, 0.0698 0.0175 0.2165, 0.0691 0.0222 0.2205, 0.0691 0.0222 0.2165, 0.0678 0.0255 0.2205, 0.0678 0.0255 0.2165, 0.0657 0.0285 0.2205, 0.0657 0.0285 0.2165, 0.0636 0.0304 0.2205, 0.0636 0.0304 0.2165, 0.0601 0.0323 0.2205, 0.0601 0.0323 0.2165, 0.0556 0.0336 0.2205, 0.0556 0.0336 0.2165, 0.0529 -0.0024 0.2205, 0.0529 -0.0024 0.2165, 0.0576 -0.0013 0.2205, 0.0576 -0.0013 0.2165, 0.062 0.001 0.2205, 0.062 0.001 0.2165, 0.0655 0.0041 0.2205, 0.0655 0.0041 0.2165, 0.0679 0.0077 0.2205, 0.0679 0.0077 0.2165, 0.0693 0.0115 0.2205, 0.0693 0.0115 0.2165, 0.0411 0.0276 0.2165, 0.0487 0.0276 0.2165, 0.0501 0.0276 0.2165, 0.0545 0.0269 0.2165, 0.0571 0.0258 0.2165, 0.0586 0.0248 0.2165, 0.0599 0.0234 0.2165, 0.061 0.0215 0.2165, 0.0617 0.0191 0.2165, 0.0619 0.0161 0.2165, 0.0619 0.0159 0.2165, 0.0615 0.0123 0.2165, 0.0607 0.01 0.2165, 0.0593 0.008 0.2165, 0.0574 0.0063 0.2165, 0.055 0.005 0.2165, 0.052 0.0042 0.2165, 0.048 0.0039 0.2165, 0.0411 0.0039 0.2165, 0.0487 0.0276 0.2205, 0.0411 0.0276 0.2205, 0.0501 0.0276 0.2205, 0.0545 0.0269 0.2205, 0.0571 0.0258 0.2205, 0.0586 0.0248 0.2205, 0.0599 0.0234 0.2205, 0.061 0.0215 0.2205, 0.0617 0.0191 0.2205, 0.0619 0.0161 0.2205, 0.0619 0.0159 0.2205, 0.0615 0.0123 0.2205, 0.0607 0.01 0.2205, 0.0593 0.008 0.2205, 0.0574 0.0063 0.2205, 0.055 0.005 0.2205, 0.052 0.0042 0.2205, 0.048 0.0039 0.2205, 0.0411 0.0039 0.2205, -0.0144 -0.0226 0.2165, -0.0144 -0.014 0.2165, -0.0144 -0.0226 0.2205, -0.0144 -0.014 0.2205, 0.0013 -0.0192 0.2165, 0.0013 -0.0192 0.2205, -0.0031 -0.0188 0.2205, -0.0031 -0.0188 0.2165, -0.0101 -0.0166 0.2205, -0.0101 -0.0166 0.2165, 0.0137 -0.0104 0.2165, 0.0137 -0.0104 0.2205, 0.0134 -0.0127 0.2205, 0.0134 -0.0127 0.2165, 0.0128 -0.0145 0.2205, 0.0128 -0.0145 0.2165, 0.012 -0.0157 0.2205, 0.012 -0.0157 0.2165, 0.0107 -0.0169 0.2205, 0.0107 -0.0169 0.2165, 0.0086 -0.018 0.2205, 0.0086 -0.018 0.2165, 0.0056 -0.0188 0.2205, 0.0056 -0.0188 0.2165, 0.0 0.0022 0.2165, 0.0 0.0022 0.2205, 0.0081 -0.002 0.2205, 0.0081 -0.002 0.2165, 0.0089 -0.0026 0.2205, 0.0089 -0.0026 0.2165, 0.0113 -0.0046 0.2205, 0.0113 -0.0046 0.2165, 0.0128 -0.0066 0.2205, 0.0128 -0.0066 0.2165, 0.0134 -0.0083 0.2205, 0.0134 -0.0083 0.2165, -0.0144 0.019 0.2165, -0.0144 0.019 0.2205, -0.0141 0.0158 0.2205, -0.0141 0.0158 0.2165, -0.013 0.0127 0.2205, -0.013 0.0127 0.2165, -0.0113 0.01 0.2205, -0.0113 0.01 0.2165, -0.0087 0.0075 0.2205, -0.0087 0.0075 0.2165, 0.0065 0.0348 0.2165, 0.0065 0.0348 0.2205, -0.0 0.0342 0.2165, 0.0028 0.0345 0.2205, -0.0 0.0342 0.2205, -0.005 0.0326 0.2205, -0.005 0.0326 0.2165, -0.0083 0.0307 0.2205, -0.0083 0.0307 0.2165, -0.0109 0.0285 0.2205, -0.0109 0.0285 0.2165, -0.0127 0.0259 0.2205, -0.0127 0.0259 0.2165, -0.0139 0.0231 0.2205, -0.0139 0.0231 0.2165, 0.013 0.0346 0.2165, 0.0194 0.0332 0.2165, 0.0194 0.0332 0.2205, 0.0134 0.0345 0.2205, 0.013 0.0346 0.2205, 0.0194 0.0246 0.2165, 0.0194 0.0246 0.2205, 0.0059 0.0284 0.2165, 0.0059 0.0284 0.2205, 0.0099 0.0281 0.2205, 0.0099 0.0281 0.2165, 0.015 0.0269 0.2205, 0.015 0.0269 0.2165, -0.0065 0.0198 0.2165, -0.0065 0.0198 0.2205, -0.0063 0.0216 0.2205, -0.0063 0.0216 0.2165, -0.0058 0.0231 0.2205, -0.0058 0.0231 0.2165, -0.0049 0.0244 0.2205, -0.0049 0.0244 0.2165, -0.0036 0.0257 0.2205, -0.0036 0.0257 0.2165, -0.0014 0.027 0.2205, -0.0014 0.027 0.2165, 0.0017 0.028 0.2205, 0.0017 0.028 0.2165, 0.0061 0.0078 0.2165, 0.0061 0.0078 0.2205, 0.0006 0.0107 0.2205, 0.0006 0.0107 0.2165, -0.0028 0.0128 0.2205, -0.0028 0.0128 0.2165, -0.0046 0.0144 0.2205, -0.0046 0.0144 0.2165, -0.0056 0.0159 0.2205, -0.0056 0.0159 0.2165, -0.0062 0.0175 0.2205, -0.0062 0.0175 0.2165, 0.0216 -0.0097 0.2165, 0.0216 -0.0097 0.2205, 0.0212 -0.0064 0.2205, 0.0212 -0.0064 0.2165, 0.0201 -0.0034 0.2205, 0.0201 -0.0034 0.2165, 0.0182 -0.0005 0.2205, 0.0182 -0.0005 0.2165, 0.0148 0.0027 0.2205, 0.0148 0.0027 0.2165, 0.0005 -0.0257 0.2205, 0.0054 -0.0253 0.2205, 0.0005 -0.0257 0.2165, 0.0066 -0.0252 0.2165, 0.0066 -0.0252 0.2205, 0.0123 -0.0236 0.2205, 0.0123 -0.0236 0.2165, 0.0157 -0.0218 0.2205, 0.0157 -0.0218 0.2165, 0.0181 -0.0196 0.2205, 0.0181 -0.0196 0.2165, 0.02 -0.0169 0.2205, 0.02 -0.0169 0.2165, 0.0211 -0.0139 0.2205, 0.0211 -0.0139 0.2165, -0.0125 -0.0235 0.2205, -0.0125 -0.0235 0.2165, -0.0071 -0.0249 0.2205, -0.0071 -0.0249 0.2165, -0.003 -0.0253 0.2205, -0.0238 -0.0154 0.2165, -0.0238 -0.0219 0.2165, -0.0238 -0.0154 0.2205, -0.0238 -0.0219 0.2205, -0.0301 -0.0245 0.2165, -0.04 -0.0257 0.2165, -0.04 -0.0257 0.2205, -0.0384 -0.0256 0.2205, -0.0384 -0.0256 0.2165, -0.036 -0.0253 0.2205, -0.0301 -0.0245 0.2205, -0.0677 0.0035 0.2165, -0.0677 0.0035 0.2205, -0.0671 -0.0034 0.2205, -0.0671 -0.0034 0.2165, -0.0653 -0.0096 0.2205, -0.0653 -0.0096 0.2165, -0.0622 -0.0152 0.2205, -0.0622 -0.0152 0.2165, -0.0578 -0.0199 0.2205, -0.0578 -0.0199 0.2165, -0.053 -0.0229 0.2205, -0.053 -0.0229 0.2165, -0.0473 -0.0249 0.2205, -0.0473 -0.0249 0.2165, -0.0435 -0.0253 0.2205, -0.0377 0.0348 0.2205, -0.0421 0.0345 0.2205, -0.0377 0.0348 0.2165, -0.0436 0.0343 0.2165, -0.0436 0.0343 0.2205, -0.0502 0.0324 0.2205, -0.0502 0.0324 0.2165, -0.0558 0.0292 0.2205, -0.0558 0.0292 0.2165, -0.0611 0.0241 0.2205, -0.0611 0.0241 0.2165, -0.0646 0.0186 0.2205, -0.0646 0.0186 0.2165, -0.0668 0.0119 0.2205, -0.0668 0.0119 0.2165, -0.0324 0.0345 0.2205, -0.0306 0.0343 0.2165, -0.0306 0.0343 0.2205, -0.0238 0.0325 0.2165, -0.0238 0.0325 0.2205, -0.0238 0.0246 0.2165, -0.0238 0.0246 0.2205, -0.0376 0.0284 0.2165, -0.0376 0.0284 0.2205, -0.0304 0.0274 0.2205, -0.0304 0.0274 0.2165, -0.0598 0.004 0.2165, -0.0598 0.004 0.2205, -0.0595 0.0086 0.2205, -0.0595 0.0086 0.2165, -0.0579 0.0149 0.2205, -0.0579 0.0149 0.2165, -0.0555 0.0194 0.2205, -0.0555 0.0194 0.2165, -0.0519 0.0234 0.2205, -0.0519 0.0234 0.2165, -0.0478 0.0261 0.2205, -0.0478 0.0261 0.2165, -0.0434 0.0277 0.2205, -0.0434 0.0277 0.2165, -0.0389 -0.0192 0.2165, -0.0389 -0.0192 0.2205, -0.0444 -0.0186 0.2205, -0.0444 -0.0186 0.2165, -0.0487 -0.017 0.2205, -0.0487 -0.017 0.2165, -0.0524 -0.0145 0.2205, -0.0524 -0.0145 0.2165, -0.0551 -0.0116 0.2205, -0.0551 -0.0116 0.2165, -0.0576 -0.0075 0.2205, -0.0576 -0.0075 0.2165, -0.0592 -0.0024 0.2205, -0.0592 -0.0024 0.2165, -0.0248 -0.016 0.2205, -0.0248 -0.016 0.2165, -0.0311 -0.0183 0.2205, -0.0311 -0.0183 0.2165, -0.0749 0.0341 0.2165, -0.0749 0.0276 0.2165, -0.0749 0.0341 0.2205, -0.0749 0.0276 0.2205, -0.0972 0.0276 0.2165, -0.0972 0.0276 0.2205, -0.0972 0.0075 0.2165, -0.0972 0.0075 0.2205, -0.0763 0.0075 0.2165, -0.0763 0.0075 0.2205, -0.0763 0.001 0.2165, -0.0763 0.001 0.2205, -0.0972 0.001 0.2165, -0.0972 0.001 0.2205, -0.0972 -0.0249 0.2165, -0.0972 -0.0249 0.2205, -0.1051 -0.0249 0.2165, -0.1051 -0.0249 0.2205, -0.1051 0.0341 0.2165, -0.1051 0.0341 0.2205
            ]
        }
        coordIndex [
            0,1,2,-1,2,1,3,-1,1,4,3,-1,3,4,5,-1,4,6,5,-1,5,6,7,-1,6,8,7,-1,7,8,9,-1,8,10,9,-1,9,10,11,-1,10,0,11,-1,11,0,2,-1,8,6,10,-1,10,6,4,-1,10,4,0,-1,0,4,1,-1,12,13,14,-1,14,13,15,-1,14,15,16,-1,16,15,17,-1,16,17,18,-1,18,17,19,-1,18,19,20,-1,20,19,21,-1,20,21,22,-1,22,21,23,-1,22,23,24,-1,24,23,25,-1,24,25,26,-1,26,25,27,-1,26,27,28,-1,28,27,29,-1,28,29,30,-1,30,29,31,-1,30,31,32,-1,32,31,33,-1,32,33,34,-1,34,33,35,-1,34,35,36,-1,36,35,37,-1,36,37,38,-1,38,37,39,-1,38,39,40,-1,40,39,41,-1,40,41,42,-1,42,41,43,-1,42,43,44,-1,44,43,45,-1,44,45,46,-1,46,45,47,-1,46,47,48,-1,48,47,49,-1,48,49,50,-1,50,49,51,-1,50,51,52,-1,52,51,53,-1,52,53,54,-1,54,53,55,-1,54,55,56,-1,56,55,57,-1,56,57,58,-1,58,57,59,-1,58,59,12,-1,12,59,13,-1,56,58,60,-1,60,58,12,-1,60,12,14,-1,50,52,60,-1,60,52,54,-1,60,54,56,-1,44,46,60,-1,60,46,48,-1,60,48,50,-1,38,40,60,-1,60,40,42,-1,60,42,44,-1,32,34,60,-1,60,34,36,-1,60,36,38,-1,26,28,60,-1,60,28,30,-1,60,30,32,-1,20,22,60,-1,60,22,24,-1,60,24,26,-1,14,16,60,-1,60,16,18,-1,60,18,20,-1,61,62,63,-1,63,62,64,-1,65,66,67,-1,65,67,68,-1,68,67,64,-1,68,64,62,-1,69,70,71,-1,69,71,72,-1,72,71,73,-1,72,73,74,-1,74,73,75,-1,74,75,76,-1,76,75,77,-1,76,77,78,-1,78,77,79,-1,78,79,80,-1,80,79,81,-1,80,81,82,-1,82,81,66,-1,82,66,65,-1,69,83,70,-1,70,83,84,-1,85,86,87,-1,85,87,88,-1,88,87,89,-1,88,89,90,-1,90,89,91,-1,90,91,92,-1,92,91,93,-1,92,93,94,-1,94,93,84,-1,94,84,83,-1,95,96,97,-1,95,97,98,-1,98,97,99,-1,98,99,100,-1,100,99,101,-1,100,101,102,-1,102,101,103,-1,102,103,104,-1,104,103,105,-1,104,105,106,-1,106,105,107,-1,106,107,108,-1,108,107,86,-1,108,86,85,-1,109,110,111,-1,109,111,112,-1,112,111,113,-1,112,113,114,-1,113,115,114,-1,114,115,116,-1,114,116,117,-1,117,116,118,-1,117,118,119,-1,119,118,120,-1,119,120,121,-1,121,120,122,-1,121,122,123,-1,123,122,96,-1,123,96,95,-1,110,109,124,-1,124,109,125,-1,124,125,126,-1,126,125,127,-1,126,127,128,-1,128,127,129,-1,128,129,130,-1,130,129,131,-1,130,131,132,-1,132,131,133,-1,132,133,134,-1,134,133,135,-1,134,135,136,-1,136,135,137,-1,136,137,138,-1,139,140,141,-1,141,140,142,-1,140,143,142,-1,142,143,144,-1,142,144,145,-1,145,144,146,-1,145,146,147,-1,147,146,148,-1,147,148,149,-1,149,148,150,-1,149,150,151,-1,151,150,152,-1,151,152,153,-1,153,152,138,-1,153,138,137,-1,139,141,154,-1,154,141,155,-1,154,155,156,-1,156,155,157,-1,156,157,158,-1,158,157,61,-1,158,61,63,-1,83,159,160,-1,135,69,137,-1,137,69,72,-1,62,61,157,-1,62,157,68,-1,68,157,155,-1,68,155,65,-1,65,155,141,-1,65,141,82,-1,82,141,142,-1,82,142,80,-1,80,142,145,-1,80,145,78,-1,78,145,147,-1,78,147,76,-1,76,147,149,-1,76,149,74,-1,74,149,151,-1,74,151,72,-1,72,151,153,-1,72,153,137,-1,127,161,129,-1,129,161,162,-1,129,162,131,-1,131,162,163,-1,131,163,133,-1,133,163,164,-1,133,164,135,-1,135,164,159,-1,135,159,69,-1,69,159,83,-1,160,165,83,-1,83,165,166,-1,83,166,94,-1,94,166,167,-1,94,167,92,-1,92,167,168,-1,92,168,90,-1,90,168,169,-1,90,169,88,-1,88,169,170,-1,88,170,85,-1,85,170,171,-1,85,171,108,-1,108,171,172,-1,108,172,106,-1,106,172,173,-1,106,173,104,-1,104,173,174,-1,104,174,102,-1,102,174,175,-1,102,175,100,-1,100,175,176,-1,100,176,98,-1,98,176,177,-1,98,177,95,-1,95,177,178,-1,95,178,123,-1,123,178,179,-1,123,179,121,-1,121,179,180,-1,121,180,119,-1,119,180,181,-1,119,181,117,-1,117,181,182,-1,117,182,114,-1,114,182,183,-1,114,183,112,-1,112,183,184,-1,112,184,109,-1,109,184,185,-1,109,185,125,-1,125,185,186,-1,125,186,127,-1,127,186,187,-1,127,187,161,-1,159,188,189,-1,159,189,160,-1,160,189,190,-1,160,190,165,-1,165,190,191,-1,165,191,166,-1,166,191,192,-1,166,192,167,-1,167,192,193,-1,167,193,168,-1,168,193,194,-1,168,194,169,-1,169,194,195,-1,169,195,170,-1,170,195,196,-1,170,196,171,-1,171,196,197,-1,171,197,172,-1,172,197,198,-1,172,198,173,-1,173,198,199,-1,173,199,174,-1,174,199,200,-1,174,200,175,-1,175,200,201,-1,175,201,176,-1,176,201,202,-1,176,202,177,-1,177,202,203,-1,177,203,178,-1,178,203,204,-1,178,204,179,-1,179,204,205,-1,179,205,180,-1,180,205,206,-1,180,206,181,-1,181,206,207,-1,181,207,182,-1,182,207,208,-1,182,208,183,-1,183,208,209,-1,183,209,184,-1,184,209,210,-1,184,210,185,-1,185,210,211,-1,185,211,186,-1,186,211,212,-1,186,212,187,-1,187,212,213,-1,187,213,161,-1,161,213,214,-1,161,214,162,-1,162,214,215,-1,162,215,163,-1,163,215,216,-1,163,216,164,-1,164,216,188,-1,164,188,159,-1,217,218,219,-1,219,218,220,-1,218,221,220,-1,220,221,222,-1,221,223,222,-1,222,223,224,-1,223,217,224,-1,224,217,219,-1,223,221,217,-1,217,221,218,-1,225,226,227,-1,227,226,228,-1,226,229,228,-1,228,229,230,-1,229,231,230,-1,230,231,232,-1,231,233,232,-1,232,233,234,-1,233,235,234,-1,234,235,236,-1,237,238,239,-1,237,239,240,-1,240,239,241,-1,240,241,242,-1,242,241,243,-1,242,243,244,-1,244,243,245,-1,244,245,246,-1,246,245,247,-1,246,247,248,-1,248,247,249,-1,248,249,250,-1,250,249,251,-1,250,251,252,-1,252,251,236,-1,252,236,235,-1,225,227,253,-1,225,253,254,-1,254,253,255,-1,254,255,256,-1,256,255,257,-1,256,257,258,-1,258,257,259,-1,258,259,260,-1,260,259,261,-1,260,261,262,-1,262,261,263,-1,262,263,264,-1,264,263,238,-1,264,238,237,-1,233,231,226,-1,226,231,229,-1,265,266,235,-1,235,266,267,-1,235,267,252,-1,252,267,268,-1,252,268,250,-1,250,268,269,-1,250,269,248,-1,248,269,270,-1,248,270,246,-1,246,270,271,-1,246,271,244,-1,244,271,272,-1,244,272,242,-1,242,272,273,-1,242,273,240,-1,240,273,274,-1,240,274,237,-1,237,274,275,-1,237,275,264,-1,264,275,276,-1,264,276,262,-1,262,276,277,-1,262,277,260,-1,260,277,278,-1,260,278,258,-1,258,278,279,-1,258,279,256,-1,256,279,280,-1,256,280,254,-1,254,280,281,-1,254,281,225,-1,225,281,282,-1,225,282,226,-1,226,282,283,-1,226,283,233,-1,233,283,265,-1,233,265,235,-1,266,265,284,-1,284,265,285,-1,266,284,286,-1,266,286,267,-1,267,286,287,-1,267,287,268,-1,268,287,288,-1,268,288,269,-1,269,288,289,-1,269,289,270,-1,270,289,290,-1,270,290,271,-1,271,290,291,-1,271,291,272,-1,272,291,292,-1,272,292,273,-1,273,292,293,-1,273,293,274,-1,274,293,294,-1,274,294,275,-1,275,294,295,-1,275,295,276,-1,276,295,296,-1,276,296,277,-1,277,296,297,-1,277,297,278,-1,278,297,298,-1,278,298,279,-1,279,298,299,-1,279,299,280,-1,280,299,300,-1,280,300,281,-1,281,300,301,-1,281,301,282,-1,283,282,302,-1,302,282,301,-1,265,283,285,-1,285,283,302,-1,303,304,305,-1,305,304,306,-1,307,308,309,-1,307,309,310,-1,310,309,311,-1,310,311,312,-1,312,311,306,-1,312,306,304,-1,313,314,315,-1,313,315,316,-1,316,315,317,-1,316,317,318,-1,318,317,319,-1,318,319,320,-1,320,319,321,-1,320,321,322,-1,322,321,323,-1,322,323,324,-1,324,323,325,-1,324,325,326,-1,326,325,308,-1,326,308,307,-1,327,328,329,-1,327,329,330,-1,330,329,331,-1,330,331,332,-1,332,331,333,-1,332,333,334,-1,334,333,335,-1,334,335,336,-1,336,335,337,-1,336,337,338,-1,338,337,314,-1,338,314,313,-1,339,340,341,-1,339,341,342,-1,342,341,343,-1,342,343,344,-1,344,343,345,-1,344,345,346,-1,346,345,347,-1,346,347,348,-1,348,347,328,-1,348,328,327,-1,349,350,351,-1,351,350,352,-1,352,353,351,-1,351,353,354,-1,351,354,355,-1,355,354,356,-1,355,356,357,-1,357,356,358,-1,357,358,359,-1,359,358,360,-1,359,360,361,-1,361,360,362,-1,361,362,363,-1,363,362,340,-1,363,340,339,-1,350,349,364,-1,365,366,367,-1,365,367,364,-1,364,367,368,-1,364,368,350,-1,365,369,366,-1,366,369,370,-1,371,372,373,-1,371,373,374,-1,374,373,375,-1,374,375,376,-1,376,375,370,-1,376,370,369,-1,377,378,379,-1,377,379,380,-1,380,379,381,-1,380,381,382,-1,382,381,383,-1,382,383,384,-1,384,383,385,-1,384,385,386,-1,386,385,387,-1,386,387,388,-1,388,387,389,-1,388,389,390,-1,390,389,372,-1,390,372,371,-1,391,392,393,-1,391,393,394,-1,394,393,395,-1,394,395,396,-1,396,395,397,-1,396,397,398,-1,398,397,399,-1,398,399,400,-1,400,399,401,-1,400,401,402,-1,402,401,378,-1,402,378,377,-1,403,404,405,-1,403,405,406,-1,406,405,407,-1,406,407,408,-1,408,407,409,-1,408,409,410,-1,410,409,411,-1,410,411,412,-1,412,411,392,-1,412,392,391,-1,413,414,415,-1,415,414,416,-1,414,417,416,-1,416,417,418,-1,416,418,419,-1,419,418,420,-1,419,420,421,-1,421,420,422,-1,421,422,423,-1,423,422,424,-1,423,424,425,-1,425,424,426,-1,425,426,427,-1,427,426,404,-1,427,404,403,-1,303,305,428,-1,303,428,429,-1,429,428,430,-1,429,430,431,-1,431,430,415,-1,415,430,432,-1,415,432,413,-1,304,303,312,-1,312,303,429,-1,312,429,310,-1,310,429,431,-1,310,431,307,-1,307,431,415,-1,307,415,326,-1,326,415,416,-1,326,416,324,-1,324,416,419,-1,324,419,322,-1,322,419,421,-1,322,421,320,-1,320,421,423,-1,320,423,318,-1,318,423,425,-1,318,425,316,-1,316,425,427,-1,316,427,313,-1,313,427,403,-1,313,403,338,-1,338,403,406,-1,338,406,336,-1,336,406,408,-1,336,408,334,-1,334,408,410,-1,334,410,332,-1,332,410,412,-1,332,412,330,-1,330,412,391,-1,330,391,327,-1,327,391,394,-1,327,394,348,-1,348,394,396,-1,348,396,346,-1,346,396,398,-1,346,398,344,-1,344,398,400,-1,344,400,342,-1,342,400,402,-1,342,402,339,-1,339,402,377,-1,339,377,363,-1,363,377,380,-1,363,380,361,-1,361,380,382,-1,361,382,359,-1,359,382,384,-1,359,384,357,-1,357,384,386,-1,357,386,355,-1,355,386,388,-1,355,388,351,-1,351,388,390,-1,351,390,349,-1,349,390,371,-1,349,371,364,-1,364,371,374,-1,364,374,365,-1,365,374,376,-1,365,376,369,-1,433,434,435,-1,435,434,436,-1,436,434,437,-1,438,439,440,-1,438,440,441,-1,441,440,442,-1,441,442,437,-1,437,442,443,-1,437,443,436,-1,444,445,446,-1,444,446,447,-1,447,446,448,-1,447,448,449,-1,449,448,450,-1,449,450,451,-1,451,450,452,-1,451,452,453,-1,453,452,454,-1,453,454,455,-1,455,454,456,-1,455,456,457,-1,457,456,438,-1,438,456,458,-1,438,458,439,-1,459,460,461,-1,461,460,462,-1,460,463,462,-1,462,463,464,-1,462,464,465,-1,465,464,466,-1,465,466,467,-1,467,466,468,-1,467,468,469,-1,469,468,470,-1,469,470,471,-1,471,470,472,-1,471,472,473,-1,473,472,445,-1,473,445,444,-1,459,461,474,-1,474,461,475,-1,474,475,476,-1,476,475,477,-1,476,477,478,-1,477,479,478,-1,478,479,480,-1,481,482,483,-1,481,483,484,-1,484,483,480,-1,484,480,479,-1,485,486,487,-1,485,487,488,-1,488,487,489,-1,488,489,490,-1,490,489,491,-1,490,491,492,-1,492,491,493,-1,492,493,494,-1,494,493,495,-1,494,495,496,-1,496,495,497,-1,496,497,498,-1,498,497,482,-1,498,482,481,-1,499,500,501,-1,499,501,502,-1,502,501,503,-1,502,503,504,-1,504,503,505,-1,504,505,506,-1,506,505,507,-1,506,507,508,-1,508,507,509,-1,508,509,510,-1,510,509,511,-1,510,511,512,-1,512,511,486,-1,512,486,485,-1,433,435,513,-1,433,513,514,-1,514,513,515,-1,514,515,516,-1,516,515,500,-1,516,500,499,-1,502,438,499,-1,499,438,441,-1,499,441,516,-1,516,441,437,-1,516,437,514,-1,514,437,434,-1,514,434,433,-1,479,477,484,-1,484,477,475,-1,484,475,481,-1,481,475,461,-1,481,461,498,-1,498,461,462,-1,498,462,496,-1,496,462,465,-1,496,465,494,-1,494,465,467,-1,494,467,492,-1,492,467,469,-1,492,469,490,-1,490,469,471,-1,490,471,488,-1,488,471,473,-1,488,473,485,-1,485,473,444,-1,485,444,512,-1,512,444,447,-1,512,447,510,-1,510,447,449,-1,510,449,508,-1,508,449,451,-1,508,451,506,-1,506,451,453,-1,506,453,504,-1,504,453,455,-1,504,455,502,-1,502,455,457,-1,502,457,438,-1,517,518,519,-1,519,518,520,-1,518,521,520,-1,520,521,522,-1,521,523,522,-1,522,523,524,-1,523,525,524,-1,524,525,526,-1,525,527,526,-1,526,527,528,-1,527,529,528,-1,528,529,530,-1,529,531,530,-1,530,531,532,-1,531,533,532,-1,532,533,534,-1,533,535,534,-1,534,535,536,-1,535,517,536,-1,536,517,519,-1,535,533,529,-1,529,533,531,-1,518,517,521,-1,521,517,535,-1,521,535,523,-1,523,535,529,-1,523,529,525,-1,525,529,527,-1,
        ]
    }
}
Shape{
    appearance Appearance {
        material  Material 	{
            diffuseColor 0.25098039215686274 0.25098039215686274 0.25098039215686274
            specularColor 0.12549019607843137 0.12549019607843137 0.12549019607843137
            ambientIntensity 0.251
            transparency 0.0
            shininess 0.5
        }
    }
    geometry IndexedFaceSet {
        ccw TRUE
        solid FALSE
        coord DEF co Coordinate {
            point [
                0.1412 -0.0066 0.2205, 0.1408 -0.003 0.2205, 0.1188 -0.0053 0.2205, 0.14 -0.0001 0.2205, 0.1388 0.0021 0.2205, 0.1378 0.0032 0.2205, 0.1362 0.0045 0.2205, 0.1343 0.0054 0.2205, 0.1205 -0.0127 0.2205, 0.1223 -0.0156 0.2205, 0.1409 -0.0097 0.2205, 0.1401 -0.0124 0.2205, 0.1302 -0.0192 0.2205, 0.1281 -0.019 0.2205, 0.132 0.0059 0.2205, 0.1301 0.006 0.2205, 0.1189 -0.0039 0.2205, 0.1272 0.0057 0.2205, 0.1249 0.0049 0.2205, 0.1193 -0.0094 0.2205, 0.1241 -0.0172 0.2205, 0.1259 -0.0183 0.2205, 0.133 -0.0188 0.2205, 0.1351 -0.0181 0.2205, 0.137 -0.0168 0.2205, 0.1228 0.0035 0.2205, 0.1208 0.0013 0.2205, 0.1195 -0.0013 0.2205, 0.1388 -0.0148 0.2205, 0.0411 0.0276 0.2205, 0.0411 0.0039 0.2205, 0.0487 0.0276 0.2205, 0.048 0.0039 0.2205, 0.052 0.0042 0.2205, 0.055 0.005 0.2205, 0.0574 0.0063 0.2205, 0.0615 0.0123 0.2205, 0.0619 0.0159 0.2205, 0.0619 0.0161 0.2205, 0.0501 0.0276 0.2205, 0.0617 0.0191 0.2205, 0.0545 0.0269 0.2205, 0.0571 0.0258 0.2205, 0.0593 0.008 0.2205, 0.0607 0.01 0.2205, 0.0586 0.0248 0.2205, 0.061 0.0215 0.2205, 0.0599 0.0234 0.2205
            ]
        }
        coordIndex [
            0,1,2,-1,2,1,3,-1,2,3,4,-1,4,5,2,-1,2,5,6,-1,2,6,7,-1,8,9,10,-1,11,10,12,-1,12,10,13,-1,7,14,2,-1,2,14,15,-1,2,15,16,-1,16,15,17,-1,16,17,18,-1,0,2,10,-1,10,2,19,-1,10,19,8,-1,9,20,10,-1,10,20,21,-1,10,21,13,-1,22,23,24,-1,18,25,16,-1,16,25,26,-1,16,26,27,-1,22,24,12,-1,12,24,28,-1,12,28,11,-1,29,30,31,-1,31,30,32,-1,32,33,31,-1,31,33,34,-1,31,34,35,-1,36,37,31,-1,31,37,38,-1,31,38,39,-1,39,38,40,-1,39,40,41,-1,41,40,42,-1,35,43,31,-1,31,43,44,-1,31,44,36,-1,42,40,45,-1,45,40,46,-1,45,46,47,-1,
        ]
    }
}
Shape{
    appearance Appearance {
        material  Material 	{
            diffuseColor 0.8509803921568627 0.8509803921568627 0.8509803921568627
            specularColor 0.4235294117647059 0.4235294117647059 0.4235294117647059
            ambientIntensity 0.851
            transparency 0.0
            shininess 0.5
        }
    }
    geometry IndexedFaceSet {
        ccw TRUE
        solid FALSE
        coord DEF co Coordinate {
            point [
                -0.315 -0.3976 0.0787, -0.1969 -0.3976 0.0787, -0.315 -0.3937 0.0787, -0.1969 -0.3937 0.0787, -0.1969 -0.3937 0.0039, -0.1969 -0.3976 0.0, -0.1969 -0.3189 0.0039, -0.1969 -0.3189 0.0, -0.315 -0.3189 0.0039, -0.315 -0.3189 0.0, -0.315 -0.3937 0.0039, -0.315 -0.3976 0.0, -0.1989 -0.3036 0.0, -0.1989 -0.3036 0.0039, -0.2048 -0.2894 0.0, -0.2048 -0.2894 0.0039, -0.2141 -0.2771 0.0, -0.2141 -0.2771 0.0039, -0.2264 -0.2678 0.0, -0.2264 -0.2678 0.0039, -0.2406 -0.2619 0.0, -0.2406 -0.2619 0.0039, -0.2559 -0.2598 0.0, -0.2559 -0.2598 0.0039, -0.2712 -0.2619 0.0, -0.2712 -0.2619 0.0039, -0.2854 -0.2678 0.0, -0.2854 -0.2678 0.0039, -0.2977 -0.2771 0.0, -0.2977 -0.2771 0.0039, -0.307 -0.2894 0.0, -0.307 -0.2894 0.0039, -0.3129 -0.3036 0.0, -0.3129 -0.3036 0.0039, -0.0591 -0.3976 0.0787, 0.0591 -0.3976 0.0787, -0.0591 -0.3937 0.0787, 0.0591 -0.3937 0.0787, 0.0591 -0.3937 0.0039, 0.0591 -0.3976 0.0, 0.0591 -0.3189 0.0039, 0.0591 -0.3189 0.0, -0.0591 -0.3189 0.0039, -0.0591 -0.3189 0.0, -0.0591 -0.3937 0.0039, -0.0591 -0.3976 0.0, 0.057 -0.3036 0.0, 0.057 -0.3036 0.0039, 0.0511 -0.2894 0.0, 0.0511 -0.2894 0.0039, 0.0418 -0.2771 0.0, 0.0418 -0.2771 0.0039, 0.0295 -0.2678 0.0, 0.0295 -0.2678 0.0039, 0.0153 -0.2619 0.0, 0.0153 -0.2619 0.0039, 0.0 -0.2598 0.0, 0.0 -0.2598 0.0039, -0.0153 -0.2619 0.0, -0.0153 -0.2619 0.0039, -0.0295 -0.2678 0.0, -0.0295 -0.2678 0.0039, -0.0418 -0.2771 0.0, -0.0418 -0.2771 0.0039, -0.0511 -0.2894 0.0, -0.0511 -0.2894 0.0039, -0.057 -0.3036 0.0, -0.057 -0.3036 0.0039, 0.1969 -0.3976 0.0787, 0.315 -0.3976 0.0787, 0.1969 -0.3937 0.0787, 0.315 -0.3937 0.0787, 0.315 -0.3937 0.0039, 0.315 -0.3976 0.0, 0.315 -0.3189 0.0039, 0.315 -0.3189 0.0, 0.1969 -0.3189 0.0039, 0.1969 -0.3189 0.0, 0.1969 -0.3937 0.0039, 0.1969 -0.3976 0.0, 0.3129 -0.3036 0.0, 0.3129 -0.3036 0.0039, 0.307 -0.2894 0.0, 0.307 -0.2894 0.0039, 0.2977 -0.2771 0.0, 0.2977 -0.2771 0.0039, 0.2854 -0.2678 0.0, 0.2854 -0.2678 0.0039, 0.2712 -0.2619 0.0, 0.2712 -0.2619 0.0039, 0.2559 -0.2598 0.0, 0.2559 -0.2598 0.0039, 0.2406 -0.2619 0.0, 0.2406 -0.2619 0.0039, 0.2264 -0.2678 0.0, 0.2264 -0.2678 0.0039, 0.2141 -0.2771 0.0, 0.2141 -0.2771 0.0039, 0.2048 -0.2894 0.0, 0.2048 -0.2894 0.0039, 0.1989 -0.3036 0.0, 0.1989 -0.3036 0.0039, -0.1969 0.3976 0.0787, -0.315 0.3976 0.0787, -0.1969 0.3937 0.0787, -0.315 0.3937 0.0787, -0.315 0.3976 0.0, -0.1969 0.3976 0.0, -0.315 0.3937 0.0039, -0.315 0.3189 0.0039, -0.315 0.3189 0.0, -0.3129 0.3036 0.0, -0.3129 0.3036 0.0039, -0.307 0.2894 0.0, -0.307 0.2894 0.0039, -0.2977 0.2771 0.0, -0.2977 0.2771 0.0039, -0.2854 0.2678 0.0, -0.2854 0.2678 0.0039, -0.2712 0.2619 0.0, -0.2712 0.2619 0.0039, -0.2559 0.2598 0.0, -0.2559 0.2598 0.0039, -0.2406 0.2619 0.0, -0.2406 0.2619 0.0039, -0.2264 0.2678 0.0, -0.2264 0.2678 0.0039, -0.2141 0.2771 0.0, -0.2141 0.2771 0.0039, -0.2048 0.2894 0.0, -0.2048 0.2894 0.0039, -0.1989 0.3036 0.0, -0.1989 0.3036 0.0039, -0.1969 0.3189 0.0, -0.1969 0.3189 0.0039, -0.1969 0.3937 0.0039, 0.0591 0.3976 0.0787, -0.0591 0.3976 0.0787, 0.0591 0.3937 0.0787, -0.0591 0.3937 0.0787, -0.0591 0.3976 0.0, 0.0591 0.3976 0.0, -0.0591 0.3937 0.0039, -0.0591 0.3189 0.0039, -0.0591 0.3189 0.0, -0.057 0.3036 0.0, -0.057 0.3036 0.0039, -0.0511 0.2894 0.0, -0.0511 0.2894 0.0039, -0.0418 0.2771 0.0, -0.0418 0.2771 0.0039, -0.0295 0.2678 0.0, -0.0295 0.2678 0.0039, -0.0153 0.2619 0.0, -0.0153 0.2619 0.0039, 0.0 0.2598 0.0, 0.0 0.2598 0.0039, 0.0153 0.2619 0.0, 0.0153 0.2619 0.0039, 0.0295 0.2678 0.0, 0.0295 0.2678 0.0039, 0.0418 0.2771 0.0, 0.0418 0.2771 0.0039, 0.0511 0.2894 0.0, 0.0511 0.2894 0.0039, 0.057 0.3036 0.0, 0.057 0.3036 0.0039, 0.0591 0.3189 0.0, 0.0591 0.3189 0.0039, 0.0591 0.3937 0.0039, 0.315 0.3976 0.0787, 0.1969 0.3976 0.0787, 0.315 0.3937 0.0787, 0.1969 0.3937 0.0787, 0.1969 0.3976 0.0, 0.315 0.3976 0.0, 0.1969 0.3937 0.0039, 0.1969 0.3189 0.0039, 0.1969 0.3189 0.0, 0.1989 0.3036 0.0, 0.1989 0.3036 0.0039, 0.2048 0.2894 0.0, 0.2048 0.2894 0.0039, 0.2141 0.2771 0.0, 0.2141 0.2771 0.0039, 0.2264 0.2678 0.0, 0.2264 0.2678 0.0039, 0.2406 0.2619 0.0, 0.2406 0.2619 0.0039, 0.2559 0.2598 0.0, 0.2559 0.2598 0.0039, 0.2712 0.2619 0.0, 0.2712 0.2619 0.0039, 0.2854 0.2678 0.0, 0.2854 0.2678 0.0039, 0.2977 0.2771 0.0, 0.2977 0.2771 0.0039, 0.307 0.2894 0.0, 0.307 0.2894 0.0039, 0.3129 0.3036 0.0, 0.3129 0.3036 0.0039, 0.315 0.3189 0.0, 0.315 0.3189 0.0039, 0.315 0.3937 0.0039, -0.315 -0.1969 0.0, -0.315 -0.1969 0.0039, -0.315 -0.036 0.0, -0.315 0.1969 0.0039, -0.315 0.1969 0.0, 0.0413 0.1969 0.0, 0.315 0.1969 0.0039, 0.315 0.1969 0.0, 0.315 -0.036 0.0, 0.315 -0.1969 0.0039, 0.315 -0.1969 0.0, 0.0413 -0.1969 0.0
            ]
        }
        coordIndex [
            0,1,2,-1,2,1,3,-1,3,1,4,-1,4,1,5,-1,4,5,6,-1,6,5,7,-1,8,9,10,-1,10,9,11,-1,10,11,2,-1,2,11,0,-1,1,0,5,-1,5,0,11,-1,6,7,12,-1,6,12,13,-1,13,12,14,-1,13,14,15,-1,15,14,16,-1,15,16,17,-1,17,16,18,-1,17,18,19,-1,19,18,20,-1,19,20,21,-1,21,20,22,-1,21,22,23,-1,23,22,24,-1,23,24,25,-1,25,24,26,-1,25,26,27,-1,27,26,28,-1,27,28,29,-1,29,28,30,-1,29,30,31,-1,31,30,32,-1,31,32,33,-1,33,32,9,-1,33,9,8,-1,32,30,22,-1,18,16,9,-1,9,16,14,-1,30,28,22,-1,22,28,26,-1,22,26,24,-1,32,22,9,-1,9,22,20,-1,9,20,18,-1,5,11,7,-1,7,11,9,-1,7,9,12,-1,12,9,14,-1,34,35,36,-1,36,35,37,-1,37,35,38,-1,38,35,39,-1,38,39,40,-1,40,39,41,-1,42,43,44,-1,44,43,45,-1,44,45,36,-1,36,45,34,-1,35,34,39,-1,39,34,45,-1,40,41,46,-1,40,46,47,-1,47,46,48,-1,47,48,49,-1,49,48,50,-1,49,50,51,-1,51,50,52,-1,51,52,53,-1,53,52,54,-1,53,54,55,-1,55,54,56,-1,55,56,57,-1,57,56,58,-1,57,58,59,-1,59,58,60,-1,59,60,61,-1,61,60,62,-1,61,62,63,-1,63,62,64,-1,63,64,65,-1,65,64,66,-1,65,66,67,-1,67,66,43,-1,67,43,42,-1,54,43,56,-1,56,43,66,-1,56,66,64,-1,64,62,56,-1,56,62,60,-1,56,60,58,-1,54,52,43,-1,43,52,50,-1,43,50,48,-1,39,45,41,-1,41,45,43,-1,41,43,46,-1,46,43,48,-1,68,69,70,-1,70,69,71,-1,71,69,72,-1,72,69,73,-1,72,73,74,-1,74,73,75,-1,76,77,78,-1,78,77,79,-1,78,79,70,-1,70,79,68,-1,69,68,73,-1,73,68,79,-1,74,75,80,-1,74,80,81,-1,81,80,82,-1,81,82,83,-1,83,82,84,-1,83,84,85,-1,85,84,86,-1,85,86,87,-1,87,86,88,-1,87,88,89,-1,89,88,90,-1,89,90,91,-1,91,90,92,-1,91,92,93,-1,93,92,94,-1,93,94,95,-1,95,94,96,-1,95,96,97,-1,97,96,98,-1,97,98,99,-1,99,98,100,-1,99,100,101,-1,101,100,77,-1,101,77,76,-1,100,98,90,-1,86,84,77,-1,77,84,82,-1,98,96,90,-1,90,96,94,-1,90,94,92,-1,100,90,77,-1,77,90,88,-1,77,88,86,-1,73,79,75,-1,75,79,77,-1,75,77,80,-1,80,77,82,-1,102,103,104,-1,104,103,105,-1,103,102,106,-1,106,102,107,-1,105,103,108,-1,108,103,106,-1,108,106,109,-1,109,106,110,-1,109,110,111,-1,109,111,112,-1,112,111,113,-1,112,113,114,-1,114,113,115,-1,114,115,116,-1,116,115,117,-1,116,117,118,-1,118,117,119,-1,118,119,120,-1,120,119,121,-1,120,121,122,-1,122,121,123,-1,122,123,124,-1,124,123,125,-1,124,125,126,-1,126,125,127,-1,126,127,128,-1,128,127,129,-1,128,129,130,-1,130,129,131,-1,130,131,132,-1,132,131,133,-1,132,133,134,-1,134,133,135,-1,135,133,107,-1,135,107,104,-1,104,107,102,-1,106,107,110,-1,110,107,133,-1,110,133,111,-1,131,129,121,-1,131,121,133,-1,133,121,119,-1,133,119,117,-1,129,127,121,-1,121,127,125,-1,121,125,123,-1,117,115,133,-1,133,115,113,-1,133,113,111,-1,136,137,138,-1,138,137,139,-1,137,136,140,-1,140,136,141,-1,139,137,142,-1,142,137,140,-1,142,140,143,-1,143,140,144,-1,143,144,145,-1,143,145,146,-1,146,145,147,-1,146,147,148,-1,148,147,149,-1,148,149,150,-1,150,149,151,-1,150,151,152,-1,152,151,153,-1,152,153,154,-1,154,153,155,-1,154,155,156,-1,156,155,157,-1,156,157,158,-1,158,157,159,-1,158,159,160,-1,160,159,161,-1,160,161,162,-1,162,161,163,-1,162,163,164,-1,164,163,165,-1,164,165,166,-1,166,165,167,-1,166,167,168,-1,168,167,169,-1,169,167,141,-1,169,141,138,-1,138,141,136,-1,163,161,159,-1,157,155,167,-1,167,155,153,-1,157,167,159,-1,159,167,165,-1,159,165,163,-1,153,151,167,-1,167,151,149,-1,167,149,147,-1,140,141,144,-1,144,141,167,-1,144,167,145,-1,145,167,147,-1,170,171,172,-1,172,171,173,-1,171,170,174,-1,174,170,175,-1,173,171,176,-1,176,171,174,-1,176,174,177,-1,177,174,178,-1,177,178,179,-1,177,179,180,-1,180,179,181,-1,180,181,182,-1,182,181,183,-1,182,183,184,-1,184,183,185,-1,184,185,186,-1,186,185,187,-1,186,187,188,-1,188,187,189,-1,188,189,190,-1,190,189,191,-1,190,191,192,-1,192,191,193,-1,192,193,194,-1,194,193,195,-1,194,195,196,-1,196,195,197,-1,196,197,198,-1,198,197,199,-1,198,199,200,-1,200,199,201,-1,200,201,202,-1,202,201,203,-1,203,201,175,-1,203,175,172,-1,172,175,170,-1,174,175,178,-1,178,175,201,-1,178,201,179,-1,199,197,189,-1,199,189,201,-1,201,189,187,-1,201,187,185,-1,197,195,189,-1,189,195,193,-1,189,193,191,-1,185,183,201,-1,201,183,181,-1,201,181,179,-1,204,205,206,-1,206,205,207,-1,206,207,208,-1,208,207,209,-1,209,207,210,-1,209,210,211,-1,211,210,212,-1,212,210,213,-1,212,213,214,-1,214,213,215,-1,215,213,205,-1,215,205,204,-1,
        ]
    }
}
Shape{
    appearance Appearance {
        material  Material 	{
            diffuseColor 0.25098039215686274 0.25098039215686274 0.25098039215686274
            specularColor 0.12549019607843137 0.12549019607843137 0.12549019607843137
            ambientIntensity 0.251
            transparency 0.0
            shininess 0.5
        }
    }
    geometry IndexedFaceSet {
        ccw TRUE
        solid FALSE
        coord DEF co Coordinate {
            point [
                -0.1335 0.0432 0.0039, -0.1642 -0.0355 0.0039, -0.1335 0.0432 0.0, -0.1642 -0.0355 0.0, -0.1527 -0.0355 0.0039, -0.1527 -0.0355 0.0, -0.1447 -0.0134 0.0039, -0.1447 -0.0134 0.0, -0.1122 -0.0134 0.0039, -0.1122 -0.0134 0.0, -0.1047 -0.0355 0.0039, -0.1047 -0.0355 0.0, -0.0931 -0.0355 0.0039, -0.0931 -0.0355 0.0, -0.1229 0.0432 0.0039, -0.1229 0.0432 0.0, -0.1148 -0.0048 0.0039, -0.1412 -0.0048 0.0039, -0.1266 0.0281 0.0039, -0.1273 0.0308 0.0039, -0.1278 0.0336 0.0039, -0.1281 0.0336 0.0039, -0.1286 0.0308 0.0039, -0.1293 0.0281 0.0039, -0.1148 -0.0048 0.0, -0.1412 -0.0048 0.0, -0.1266 0.0281 0.0, -0.1273 0.0308 0.0, -0.1278 0.0336 0.0, -0.1281 0.0336 0.0, -0.1286 0.0308 0.0, -0.1293 0.0281 0.0, -0.0454 -0.0355 0.0039, -0.024 -0.0355 0.0039, -0.0454 -0.0355 0.0, -0.024 -0.0355 0.0, -0.024 0.0432 0.0039, -0.024 0.0432 0.0, -0.0462 0.0432 0.0039, -0.0462 0.0432 0.0, -0.0874 0.0048 0.0039, -0.0874 0.0048 0.0, -0.0868 0.0122 0.0, -0.0868 0.0122 0.0039, -0.0847 0.02 0.0, -0.0847 0.02 0.0039, -0.0811 0.0268 0.0, -0.0811 0.0268 0.0039, -0.0755 0.0329 0.0, -0.0755 0.0329 0.0039, -0.0754 0.033 0.0, -0.0754 0.033 0.0039, -0.0668 0.0388 0.0, -0.0668 0.0388 0.0039, -0.0576 0.042 0.0, -0.0576 0.042 0.0039, -0.0552 -0.0347 0.0, -0.0552 -0.0347 0.0039, -0.0642 -0.032 0.0, -0.0642 -0.032 0.0039, -0.0725 -0.0272 0.0, -0.0725 -0.0272 0.0039, -0.0789 -0.021 0.0, -0.0789 -0.021 0.0039, -0.0835 -0.0139 0.0, -0.0835 -0.0139 0.0039, -0.0863 -0.0057 0.0, -0.0863 -0.0057 0.0039, -0.0716 0.0235 0.0039, -0.0678 0.0276 0.0039, -0.062 0.0313 0.0039, -0.0555 0.0336 0.0039, -0.0462 0.0346 0.0039, -0.0346 0.0346 0.0039, -0.0346 -0.0269 0.0039, -0.0457 -0.0269 0.0039, -0.0541 -0.0261 0.0039, -0.0607 -0.024 0.0039, -0.066 -0.0208 0.0039, -0.0705 -0.0165 0.0039, -0.0738 -0.0111 0.0039, -0.0761 -0.0037 0.0039, -0.0768 0.0046 0.0039, -0.0762 0.0125 0.0039, -0.0743 0.0187 0.0039, -0.0462 0.0346 0.0, -0.0346 0.0346 0.0, -0.0555 0.0336 0.0, -0.062 0.0313 0.0, -0.0678 0.0276 0.0, -0.0716 0.0235 0.0, -0.0743 0.0187 0.0, -0.0762 0.0125 0.0, -0.0768 0.0046 0.0, -0.0761 -0.0037 0.0, -0.0738 -0.0111 0.0, -0.0705 -0.0165 0.0, -0.066 -0.0208 0.0, -0.0607 -0.024 0.0, -0.0541 -0.0261 0.0, -0.0457 -0.0269 0.0, -0.0346 -0.0269 0.0, -0.0086 -0.0269 0.0039, -0.0086 -0.0355 0.0039, -0.0086 -0.0269 0.0, -0.0086 -0.0355 0.0, 0.0336 -0.0355 0.0039, 0.0336 -0.0355 0.0, 0.0336 0.0432 0.0039, 0.0336 0.0432 0.0, -0.0067 0.0432 0.0039, -0.0067 0.0432 0.0, -0.0067 0.0346 0.0039, -0.0067 0.0346 0.0, 0.023 0.0346 0.0039, 0.023 0.0346 0.0, 0.023 0.0087 0.0039, 0.023 0.0087 0.0, -0.0048 0.0087 0.0039, -0.0048 0.0087 0.0, -0.0048 0.0 0.0039, -0.0048 0.0 0.0, 0.023 0.0 0.0039, 0.023 0.0 0.0, 0.023 -0.0269 0.0039, 0.023 -0.0269 0.0, 0.049 -0.0228 0.0039, 0.049 -0.0314 0.0039, 0.049 -0.0228 0.0, 0.049 -0.0314 0.0, 0.0574 -0.0349 0.0039, 0.0706 -0.0365 0.0039, 0.0706 -0.0365 0.0, 0.0685 -0.0364 0.0, 0.0685 -0.0364 0.0039, 0.0653 -0.036 0.0, 0.0574 -0.0349 0.0, 0.1075 0.0024 0.0039, 0.1075 0.0024 0.0, 0.1068 -0.0068 0.0, 0.1068 -0.0068 0.0039, 0.1044 -0.0151 0.0, 0.1044 -0.0151 0.0039, 0.1002 -0.0226 0.0, 0.1002 -0.0226 0.0039, 0.0943 -0.0288 0.0, 0.0943 -0.0288 0.0039, 0.088 -0.0328 0.0, 0.088 -0.0328 0.0039, 0.0803 -0.0355 0.0, 0.0803 -0.0355 0.0039, 0.0753 -0.036 0.0, 0.0675 0.0442 0.0039, 0.0675 0.0442 0.0, 0.0754 0.0435 0.0, 0.0754 0.0435 0.0039, 0.0842 0.041 0.0, 0.0842 0.041 0.0039, 0.0916 0.0367 0.0, 0.0916 0.0367 0.0039, 0.0988 0.0299 0.0, 0.0988 0.0299 0.0039, 0.1034 0.0225 0.0, 0.1034 0.0225 0.0039, 0.1064 0.0136 0.0, 0.1064 0.0136 0.0039, 0.049 0.0411 0.0039, 0.049 0.0411 0.0, 0.0581 0.0435 0.0, 0.0581 0.0435 0.0039, 0.049 0.0305 0.0039, 0.049 0.0305 0.0, 0.0674 0.0355 0.0039, 0.0674 0.0355 0.0, 0.0578 0.0343 0.0, 0.0578 0.0343 0.0039, 0.097 0.003 0.0039, 0.097 0.003 0.0, 0.0966 0.0091 0.0, 0.0966 0.0091 0.0039, 0.0945 0.0176 0.0, 0.0945 0.0176 0.0039, 0.0913 0.0236 0.0, 0.0913 0.0236 0.0039, 0.0865 0.0289 0.0, 0.0865 0.0289 0.0039, 0.0811 0.0325 0.0, 0.0811 0.0325 0.0039, 0.0752 0.0347 0.0, 0.0752 0.0347 0.0039, 0.0692 -0.0278 0.0039, 0.0692 -0.0278 0.0, 0.0765 -0.027 0.0, 0.0765 -0.027 0.0039, 0.0823 -0.0249 0.0, 0.0823 -0.0249 0.0039, 0.0871 -0.0216 0.0, 0.0871 -0.0216 0.0039, 0.0908 -0.0177 0.0, 0.0908 -0.0177 0.0039, 0.094 -0.0123 0.0, 0.094 -0.0123 0.0039, 0.0962 -0.0055 0.0, 0.0962 -0.0055 0.0039, 0.0504 -0.0236 0.0, 0.0504 -0.0236 0.0039, 0.0587 -0.0267 0.0, 0.0587 -0.0267 0.0039, 0.1143 -0.0269 0.0039, 0.1143 -0.0355 0.0039, 0.1143 -0.0269 0.0, 0.1143 -0.0355 0.0, 0.1546 -0.0355 0.0039, 0.1546 -0.0355 0.0, 0.1546 0.0432 0.0039, 0.1546 0.0432 0.0, 0.144 0.0432 0.0039, 0.144 0.0432 0.0, 0.144 -0.0269 0.0039, 0.144 -0.0269 0.0
            ]
        }
        coordIndex [
            0,1,2,-1,2,1,3,-1,1,4,3,-1,3,4,5,-1,4,6,5,-1,5,6,7,-1,6,8,7,-1,7,8,9,-1,8,10,9,-1,9,10,11,-1,10,12,11,-1,11,12,13,-1,12,14,13,-1,13,14,15,-1,14,0,15,-1,15,0,2,-1,16,8,17,-1,17,8,6,-1,18,14,16,-1,16,14,12,-1,16,12,8,-1,8,12,10,-1,18,19,14,-1,14,19,20,-1,14,20,0,-1,0,20,21,-1,0,21,22,-1,22,23,0,-1,0,23,17,-1,0,17,1,-1,1,17,6,-1,1,6,4,-1,16,17,24,-1,24,17,25,-1,18,16,26,-1,26,16,24,-1,18,26,27,-1,18,27,19,-1,19,27,28,-1,19,28,20,-1,21,20,29,-1,29,20,28,-1,21,29,30,-1,21,30,22,-1,22,30,31,-1,22,31,23,-1,17,23,25,-1,25,23,31,-1,32,33,34,-1,34,33,35,-1,33,36,35,-1,35,36,37,-1,36,38,37,-1,37,38,39,-1,40,41,42,-1,40,42,43,-1,43,42,44,-1,43,44,45,-1,45,44,46,-1,45,46,47,-1,47,46,48,-1,47,48,49,-1,49,48,50,-1,49,50,51,-1,51,50,52,-1,51,52,53,-1,53,52,54,-1,53,54,55,-1,55,54,39,-1,55,39,38,-1,32,34,56,-1,32,56,57,-1,57,56,58,-1,57,58,59,-1,59,58,60,-1,59,60,61,-1,61,60,62,-1,61,62,63,-1,63,62,64,-1,63,64,65,-1,65,64,66,-1,65,66,67,-1,67,66,41,-1,67,41,40,-1,45,47,68,-1,68,47,49,-1,68,49,69,-1,69,49,51,-1,69,51,70,-1,70,51,53,-1,70,53,71,-1,71,53,55,-1,71,55,72,-1,72,55,38,-1,72,38,73,-1,73,38,36,-1,73,36,74,-1,74,36,33,-1,74,33,75,-1,75,33,32,-1,75,32,76,-1,76,32,57,-1,76,57,77,-1,77,57,59,-1,77,59,78,-1,78,59,61,-1,78,61,79,-1,79,61,63,-1,79,63,80,-1,80,63,65,-1,80,65,81,-1,81,65,67,-1,81,67,82,-1,82,67,40,-1,82,40,83,-1,83,40,43,-1,83,43,84,-1,84,43,45,-1,84,45,68,-1,72,73,85,-1,85,73,86,-1,72,85,87,-1,72,87,71,-1,71,87,88,-1,71,88,70,-1,70,88,89,-1,70,89,69,-1,69,89,90,-1,69,90,68,-1,68,90,91,-1,68,91,84,-1,84,91,92,-1,84,92,83,-1,83,92,93,-1,83,93,82,-1,82,93,94,-1,82,94,81,-1,81,94,95,-1,81,95,80,-1,80,95,96,-1,80,96,79,-1,79,96,97,-1,79,97,78,-1,78,97,98,-1,78,98,77,-1,77,98,99,-1,77,99,76,-1,76,99,100,-1,76,100,75,-1,74,75,101,-1,101,75,100,-1,73,74,86,-1,86,74,101,-1,102,103,104,-1,104,103,105,-1,103,106,105,-1,105,106,107,-1,106,108,107,-1,107,108,109,-1,108,110,109,-1,109,110,111,-1,110,112,111,-1,111,112,113,-1,112,114,113,-1,113,114,115,-1,114,116,115,-1,115,116,117,-1,116,118,117,-1,117,118,119,-1,118,120,119,-1,119,120,121,-1,120,122,121,-1,121,122,123,-1,122,124,123,-1,123,124,125,-1,124,102,125,-1,125,102,104,-1,106,103,102,-1,102,124,106,-1,106,124,122,-1,106,122,108,-1,112,110,114,-1,114,110,108,-1,114,108,116,-1,116,108,122,-1,116,122,118,-1,118,122,120,-1,126,127,128,-1,128,127,129,-1,129,127,130,-1,131,132,133,-1,131,133,134,-1,134,133,135,-1,134,135,130,-1,130,135,136,-1,130,136,129,-1,137,138,139,-1,137,139,140,-1,140,139,141,-1,140,141,142,-1,142,141,143,-1,142,143,144,-1,144,143,145,-1,144,145,146,-1,146,145,147,-1,146,147,148,-1,148,147,149,-1,148,149,150,-1,150,149,131,-1,131,149,151,-1,131,151,132,-1,152,153,154,-1,152,154,155,-1,155,154,156,-1,155,156,157,-1,157,156,158,-1,157,158,159,-1,159,158,160,-1,159,160,161,-1,161,160,162,-1,161,162,163,-1,163,162,164,-1,163,164,165,-1,165,164,138,-1,165,138,137,-1,166,167,168,-1,166,168,169,-1,169,168,153,-1,169,153,152,-1,166,170,167,-1,167,170,171,-1,172,173,174,-1,172,174,175,-1,175,174,171,-1,175,171,170,-1,176,177,178,-1,176,178,179,-1,179,178,180,-1,179,180,181,-1,181,180,182,-1,181,182,183,-1,183,182,184,-1,183,184,185,-1,185,184,186,-1,185,186,187,-1,187,186,188,-1,187,188,189,-1,189,188,173,-1,189,173,172,-1,190,191,192,-1,190,192,193,-1,193,192,194,-1,193,194,195,-1,195,194,196,-1,195,196,197,-1,197,196,198,-1,197,198,199,-1,199,198,200,-1,199,200,201,-1,201,200,202,-1,201,202,203,-1,203,202,177,-1,203,177,176,-1,126,128,204,-1,126,204,205,-1,205,204,206,-1,205,206,207,-1,207,206,191,-1,207,191,190,-1,193,131,190,-1,190,131,134,-1,190,134,207,-1,207,134,130,-1,207,130,205,-1,205,130,127,-1,205,127,126,-1,170,166,175,-1,175,166,169,-1,175,169,172,-1,172,169,152,-1,172,152,189,-1,189,152,155,-1,189,155,187,-1,187,155,157,-1,187,157,185,-1,185,157,159,-1,185,159,183,-1,183,159,161,-1,183,161,181,-1,181,161,163,-1,181,163,179,-1,179,163,165,-1,179,165,176,-1,176,165,137,-1,176,137,203,-1,203,137,140,-1,203,140,201,-1,201,140,142,-1,201,142,199,-1,199,142,144,-1,199,144,197,-1,197,144,146,-1,197,146,195,-1,195,146,148,-1,195,148,193,-1,193,148,150,-1,193,150,131,-1,208,209,210,-1,210,209,211,-1,209,212,211,-1,211,212,213,-1,212,214,213,-1,213,214,215,-1,214,216,215,-1,215,216,217,-1,216,218,217,-1,217,218,219,-1,218,208,219,-1,219,208,210,-1,216,214,218,-1,218,214,212,-1,218,212,208,-1,208,212,209,-1,
        ]
    }
}
Shape{
    appearance Appearance {
        material  Material 	{
            diffuseColor 0.8509803921568627 0.8509803921568627 0.8509803921568627
            specularColor 0.4235294117647059 0.4235294117647059 0.4235294117647059
            ambientIntensity 0.851
            transparency 0.0
            shininess 0.5
        }
    }
    geometry IndexedFaceSet {
        ccw TRUE
        solid FALSE
        coord DEF co Coordinate {
            point [
                -0.1148 -0.0048 0.0, -0.1412 -0.0048 0.0, -0.1266 0.0281 0.0, -0.1293 0.0281 0.0, -0.1273 0.0308 0.0, -0.1286 0.0308 0.0, -0.1278 0.0336 0.0, -0.1281 0.0336 0.0, -0.0346 0.0346 0.0, -0.0346 -0.0269 0.0, -0.0462 0.0346 0.0, -0.0457 -0.0269 0.0, -0.0541 -0.0261 0.0, -0.0768 0.0046 0.0, -0.0762 0.0125 0.0, -0.0743 0.0187 0.0, -0.0555 0.0336 0.0, -0.0607 -0.024 0.0, -0.066 -0.0208 0.0, -0.0705 -0.0165 0.0, -0.0738 -0.0111 0.0, -0.0761 -0.0037 0.0, -0.0716 0.0235 0.0, -0.0678 0.0276 0.0, -0.062 0.0313 0.0
            ]
        }
        coordIndex [
            0,1,2,-1,2,1,3,-1,2,3,4,-1,4,3,5,-1,4,5,6,-1,6,5,7,-1,8,9,10,-1,10,9,11,-1,10,11,12,-1,13,14,10,-1,10,14,15,-1,10,15,16,-1,12,17,10,-1,10,17,18,-1,10,18,19,-1,19,20,10,-1,10,20,21,-1,10,21,13,-1,22,23,15,-1,15,23,24,-1,15,24,16,-1,
        ]
    }
}