#VRML V2.0 utf8
# 3D model generated by easyeda2kicad.py (https://github.com/uPesy/easyeda2kicad.py)

Shape{
    appearance Appearance {
        material  Material 	{
            diffuseColor 0.7529411764705882 0.7529411764705882 0.7529411764705882
            specularColor 0.3764705882352941 0.3764705882352941 0.3764705882352941
            ambientIntensity 0.7529
            transparency 0.0
            shininess 0.5
        }
    }
    geometry IndexedFaceSet {
        ccw TRUE
        solid FALSE
        coord DEF co Coordinate {
            point [
                1.2008 -0.687 1.2835, -1.2008 -0.687 1.2835, 1.2008 -0.687 1.2441, -1.2008 -0.687 1.2441, 1.2008 0.6909 1.2835, 1.2008 0.6909 1.2441, -1.2008 0.6909 1.2835, -1.2008 0.6909 1.2441, 0.6201 0.3071 1.2835, -0.6201 0.3071 1.2835, -0.6201 -0.3031 1.2835, 0.6201 -0.3031 1.2835, 0.6201 0.3071 1.2441, 0.6201 -0.3031 1.2441, -0.6201 -0.3031 1.2441, -0.6201 0.3071 1.2441
            ]
        }
        coordIndex [
            0,1,2,-1,2,1,3,-1,4,0,5,-1,5,0,2,-1,6,4,7,-1,7,4,5,-1,1,6,3,-1,3,6,7,-1,8,4,9,-1,9,4,6,-1,9,6,10,-1,10,6,1,-1,10,1,11,-1,11,1,0,-1,11,0,8,-1,8,0,4,-1,12,5,13,-1,13,5,2,-1,13,2,14,-1,14,2,3,-1,14,3,15,-1,15,3,7,-1,15,7,12,-1,12,7,5,-1,8,12,11,-1,11,12,13,-1,11,13,10,-1,10,13,14,-1,10,14,9,-1,9,14,15,-1,9,15,8,-1,8,15,12,-1,
        ]
    }
}
Shape{
    appearance Appearance {
        material  Material 	{
            diffuseColor 0.25098039215686274 0.25098039215686274 0.25098039215686274
            specularColor 0.12549019607843137 0.12549019607843137 0.12549019607843137
            ambientIntensity 0.251
            transparency 0.0
            shininess 0.5
        }
    }
    geometry IndexedFaceSet {
        ccw TRUE
        solid FALSE
        coord DEF co Coordinate {
            point [
                -0.9971 0.3676 1.3425, -0.7814 0.3676 1.3425, -0.9971 0.3676 1.2835, -0.7814 0.3676 1.2835, -0.9971 -0.3636 1.3425, -0.9971 -0.3636 1.2835, -0.7814 -0.3636 1.3425, -0.7814 -0.3636 1.2835, 0.9971 0.3676 1.3425, 0.9971 -0.3636 1.3425, 0.9971 0.3676 1.2835, 0.9971 -0.3636 1.2835, 0.7814 0.3676 1.3425, 0.7814 0.3676 1.2835, 0.7814 -0.3636 1.3425, 0.7814 -0.3636 1.2835, 0.0216 -0.687 0.1733, 0.0216 -0.687 0.1416, 0.0986 -0.687 0.1416, 0.0216 -0.687 0.3004, 0.0216 -0.687 0.2769, 0.0986 -0.687 0.2769, 0.1292 -0.687 0.381, 0.1353 -0.687 0.3818, 0.1034 -0.687 0.3818, 0.1498 -0.687 0.3009, 0.1447 -0.687 0.3004, 0.1712 -0.687 0.3004, 0.1862 -0.687 0.3719, 0.1862 -0.687 0.3463, 0.2078 -0.687 0.3463, 0.3643 -0.687 0.301, 0.3561 -0.687 0.3229, 0.3267 -0.687 0.3229, 0.1911 -0.687 0.1738, 0.1877 -0.687 0.1733, 0.2078 -0.687 0.1733, 0.1736 -0.687 0.1736, 0.1712 -0.687 0.1744, 0.1712 -0.687 0.1733, 0.2864 -0.687 0.2449, 0.2864 -0.687 0.2193, 0.3014 -0.687 0.2193, -0.3742 -0.687 0.2711, -0.3731 -0.687 0.2769, -0.7876 -0.687 0.2769, -0.0478 -0.687 0.3187, -0.0324 -0.687 0.3056, 0.0216 -0.687 0.3818, -0.1114 -0.687 0.3818, -0.0983 -0.687 0.373, -0.0954 -0.687 0.3702, -0.0775 -0.687 0.3481, -0.0676 -0.687 0.328, -0.0648 -0.687 0.3271, -0.1523 -0.687 0.4001, -0.1237 -0.687 0.3901, 0.0216 -0.687 1.2441, -0.2303 -0.687 0.389, -0.204 -0.687 0.3991, -0.7876 -0.687 1.2441, -0.1758 -0.687 0.4026, -0.3477 -0.687 0.3292, -0.3433 -0.687 0.3332, -0.7876 -0.687 0.3818, -0.2418 -0.687 0.3818, -0.2441 -0.687 0.3804, -0.3244 -0.687 0.3463, -0.3032 -0.687 0.3541, -0.2822 -0.687 0.3565, -0.2574 -0.687 0.3689, -0.2757 -0.687 0.3561, -0.2691 -0.687 0.3553, -0.7876 -0.687 0.3004, -0.37 -0.687 0.2925, -0.3664 -0.687 0.3004, -0.3607 -0.687 0.3128, -0.3343 -0.687 0.1881, -0.3505 -0.687 0.2022, -0.7876 -0.687 0.1733, -0.3139 -0.687 0.1776, -0.3642 -0.687 0.2221, -0.372 -0.687 0.2434, -0.3744 -0.687 0.2643, -0.305 -0.687 0.1749, -0.3043 -0.687 0.1733, -0.2993 -0.687 0.1627, -0.2908 -0.687 0.1522, -0.2273 -0.687 0.1416, -0.2371 -0.687 0.1379, 0.0216 -0.687 0.0039, -0.2509 -0.687 0.1362, -0.2531 -0.687 0.1362, -0.7876 -0.687 0.0039, -0.2666 -0.687 0.1383, -0.7876 -0.687 0.1416, -0.2744 -0.687 0.1416, -0.2797 -0.687 0.1438, -0.1975 -0.687 0.1733, -0.1976 -0.687 0.1732, -0.2043 -0.687 0.1605, -0.2131 -0.687 0.1506, -0.2244 -0.687 0.1427, -0.0138 -0.687 0.272, -0.0112 -0.687 0.2534, -0.1248 -0.687 0.207, -0.1209 -0.687 0.2085, -0.1143 -0.687 0.2409, -0.0323 -0.687 0.1994, -0.0478 -0.687 0.1862, -0.2082 -0.687 0.2312, -0.1319 -0.687 0.2711, -0.2181 -0.687 0.2403, -0.2302 -0.687 0.2468, -0.1283 -0.687 0.2045, -0.021 -0.687 0.2151, -0.0468 -0.687 0.2578, -0.0495 -0.687 0.2688, -0.0538 -0.687 0.2769, -0.3372 -0.687 0.2769, -0.0138 -0.687 0.2331, -0.1165 -0.687 0.209, -0.116 -0.687 0.209, -0.1143 -0.687 0.2086, -0.3338 -0.687 0.2428, -0.327 -0.687 0.2311, -0.2981 -0.687 0.2253, -0.3168 -0.687 0.2207, -0.3044 -0.687 0.213, -0.277 -0.687 0.2441, -0.2887 -0.687 0.236, -0.3386 -0.687 0.2654, -0.3379 -0.687 0.2567, -0.2645 -0.687 0.2489, -0.2509 -0.687 0.2506, -0.244 -0.687 0.2502, -0.1342 -0.687 0.1914, -0.1341 -0.687 0.1935, -0.194 -0.687 0.1988, -0.133 -0.687 0.1978, -0.1308 -0.687 0.2017, -0.0581 -0.687 0.2228, -0.0518 -0.687 0.2317, -0.0479 -0.687 0.2418, -0.0465 -0.687 0.2529, -0.1209 -0.687 0.1743, -0.1247 -0.687 0.1757, -0.1284 -0.687 0.1784, -0.1297 -0.687 0.1797, -0.1322 -0.687 0.1833, -0.1337 -0.687 0.1872, -0.1943 -0.687 0.1872, -0.194 -0.687 0.1931, -0.0652 -0.687 0.1777, -0.0841 -0.687 0.1737, -0.1177 -0.687 0.1737, -0.1131 -0.687 0.2085, -0.0875 -0.687 0.2085, -0.0773 -0.687 0.2104, -0.0673 -0.687 0.2151, -0.0589 -0.687 0.2219, -0.0955 -0.687 0.2973, -0.332 -0.687 0.2919, -0.3369 -0.687 0.2792, -0.0909 -0.687 0.2973, -0.0547 -0.687 0.2786, -0.0613 -0.687 0.286, -0.0702 -0.687 0.2921, -0.0801 -0.687 0.296, -0.1076 -0.687 0.3313, -0.1204 -0.687 0.3467, -0.2515 -0.687 0.3138, -0.3261 -0.687 0.3004, -0.2556 -0.687 0.3161, -0.1221 -0.687 0.3482, -0.1381 -0.687 0.3593, -0.156 -0.687 0.3661, -0.0962 -0.687 0.3004, -0.0989 -0.687 0.3129, -0.2684 -0.687 0.3207, -0.2816 -0.687 0.3223, -0.2875 -0.687 0.322, -0.3016 -0.687 0.3187, -0.3143 -0.687 0.312, -0.3241 -0.687 0.3032, -0.1959 -0.687 0.3658, -0.2145 -0.687 0.3583, -0.1752 -0.687 0.3684, -0.2302 -0.687 0.3469, -0.2429 -0.687 0.3316, -0.0286 -0.687 0.3004, -0.0208 -0.687 0.2894, -0.0158 -0.687 0.2769, 0.3192 -0.687 0.1832, 0.3192 -0.687 0.174, 0.3267 -0.687 0.1733, 0.3014 -0.687 0.1733, 0.3267 -0.687 0.2769, 0.3173 -0.687 0.2449, 0.3173 -0.687 0.2541, 0.3151 -0.687 0.2101, 0.3014 -0.687 0.2101, 0.3014 -0.687 0.1832, 0.2864 -0.687 0.2101, 0.2864 -0.687 0.1832, 0.3151 -0.687 0.2193, 0.3014 -0.687 0.2449, 0.3014 -0.687 0.174, 0.2761 -0.687 0.174, 0.2707 -0.687 0.1733, 0.2761 -0.687 0.2541, 0.1107 -0.687 0.2009, 0.1126 -0.687 0.2175, 0.1087 -0.687 0.1976, 0.1075 -0.687 0.194, 0.1348 -0.687 0.224, 0.1313 -0.687 0.2244, 0.126 -0.687 0.208, 0.1665 -0.687 0.1864, 0.153 -0.687 0.2108, 0.1665 -0.687 0.176, 0.153 -0.687 0.174, 0.1377 -0.687 0.1769, 0.1345 -0.687 0.1748, 0.1429 -0.687 0.174, 0.1306 -0.687 0.1733, 0.1137 -0.687 0.2036, 0.1177 -0.687 0.2058, 0.1195 -0.687 0.2218, 0.1258 -0.687 0.2238, 0.1034 -0.687 0.1416, 0.1193 -0.687 0.1733, 0.1034 -0.687 0.1733, 0.1191 -0.687 0.1734, 0.1153 -0.687 0.1748, 0.1119 -0.687 0.1772, 0.111 -0.687 0.1781, 0.1089 -0.687 0.1811, 0.1711 -0.687 0.1837, 0.1712 -0.687 0.1836, 0.1712 -0.687 0.205, 0.1429 -0.687 0.1829, 0.1427 -0.687 0.1829, 0.1409 -0.687 0.1803, 0.1076 -0.687 0.1844, 0.107 -0.687 0.1893, 0.1034 -0.687 0.2769, 0.1126 -0.687 0.2272, 0.167 -0.687 0.2119, 0.152 -0.687 0.2193, 0.1666 -0.687 0.2158, 0.1429 -0.687 0.2104, 0.1426 -0.687 0.2148, 0.1416 -0.687 0.2184, 0.1404 -0.687 0.2204, 0.1146 -0.687 0.2284, 0.1221 -0.687 0.2313, 0.1323 -0.687 0.2325, 0.1711 -0.687 0.205, 0.1695 -0.687 0.2067, 0.1682 -0.687 0.2088, 0.1389 -0.687 0.222, 0.1371 -0.687 0.2232, 0.1464 -0.687 0.2284, 0.17 -0.687 0.2253, 0.1433 -0.687 0.2304, 0.1393 -0.687 0.2318, 0.167 -0.687 0.2193, 0.1682 -0.687 0.2226, 0.1503 -0.687 0.2236, 0.1482 -0.687 0.2267, 0.1756 -0.687 0.1733, 0.1712 -0.687 0.1416, 0.1821 -0.687 0.1727, 0.2024 -0.687 0.23, 0.2024 -0.687 0.2202, 0.1712 -0.687 0.2263, 0.1712 -0.687 0.2769, 0.173 -0.687 0.228, 0.1755 -0.687 0.2295, 0.2047 -0.687 0.1856, 0.2035 -0.687 0.1824, 0.2016 -0.687 0.1797, 0.1809 -0.687 0.2316, 0.1889 -0.687 0.2325, 0.2078 -0.687 0.2769, 0.1959 -0.687 0.2319, 0.2018 -0.687 0.199, 0.2037 -0.687 0.1963, 0.2048 -0.687 0.1933, 0.2052 -0.687 0.1896, 0.1987 -0.687 0.1772, 0.1964 -0.687 0.1758, 0.1879 -0.687 0.2244, 0.1849 -0.687 0.2242, 0.1769 -0.687 0.2167, 0.1822 -0.687 0.2234, 0.18 -0.687 0.2222, 0.177 -0.687 0.2153, 0.1774 -0.687 0.2138, 0.1782 -0.687 0.2124, 0.1791 -0.687 0.2114, 0.1827 -0.687 0.2091, 0.1949 -0.687 0.2235, 0.1889 -0.687 0.2064, 0.2006 -0.687 0.2213, 0.1928 -0.687 0.2049, 0.1994 -0.687 0.2012, 0.1785 -0.687 0.2209, 0.1776 -0.687 0.2196, 0.1771 -0.687 0.2183, 0.1774 -0.687 0.1815, 0.1818 -0.687 0.1992, 0.1758 -0.687 0.2019, 0.183 -0.687 0.1809, 0.1835 -0.687 0.1809, 0.1884 -0.687 0.1964, 0.1886 -0.687 0.1814, 0.1949 -0.687 0.1886, 0.1948 -0.687 0.1898, 0.1912 -0.687 0.1824, 0.1921 -0.687 0.1829, 0.1933 -0.687 0.184, 0.1942 -0.687 0.1853, 0.1947 -0.687 0.1867, 0.1943 -0.687 0.1914, 0.1935 -0.687 0.1927, 0.1923 -0.687 0.194, 0.3757 -0.687 0.301, 0.3267 -0.687 0.3004, 1.2008 -0.687 0.3004, 1.2008 -0.687 0.3818, 0.3452 -0.687 0.3811, 0.3267 -0.687 0.3818, 0.3228 -0.687 0.3229, 0.3151 -0.687 0.301, 0.3014 -0.687 0.3004, 0.3036 -0.687 0.301, 0.3014 -0.687 0.3818, 0.3267 -0.687 0.3616, 0.3341 -0.687 0.3811, 0.2707 -0.687 0.3004, 0.2697 -0.687 0.3027, 0.256 -0.687 0.301, 0.2569 -0.687 0.3811, 0.2707 -0.687 0.3818, 0.2264 -0.687 0.3818, 0.2264 -0.687 0.3004, 0.234 -0.687 0.301, 0.234 -0.687 0.3811, 0.297 -0.687 0.3276, 0.2931 -0.687 0.3194, 0.2899 -0.687 0.3678, 0.2949 -0.687 0.3608, 0.2871 -0.687 0.3123, 0.2788 -0.687 0.3063, 0.2707 -0.687 0.3031, 0.2871 -0.687 0.3705, 0.2691 -0.687 0.3798, 0.2707 -0.687 0.3792, 0.2787 -0.687 0.3762, 0.2979 -0.687 0.3532, 0.2992 -0.687 0.3421, 0.299 -0.687 0.337, 0.2078 -0.687 0.3818, 0.2171 -0.687 0.3811, 0.2078 -0.687 0.3811, 0.2171 -0.687 0.3719, 0.2189 -0.687 0.3102, 0.2189 -0.687 0.301, 0.2078 -0.687 0.3004, 0.1862 -0.687 0.3102, 0.2078 -0.687 0.3102, 0.1862 -0.687 0.3371, 0.2078 -0.687 0.3371, 0.2148 -0.687 0.3371, 0.2148 -0.687 0.3463, 0.2078 -0.687 0.3719, 0.1758 -0.687 0.3811, 0.1712 -0.687 0.3818, 0.1758 -0.687 0.301, 0.1598 -0.687 0.3792, 0.1514 -0.687 0.3816, 0.1494 -0.687 0.3818, 0.2078 -0.687 0.301, 0.1598 -0.687 0.3684, 0.1584 -0.687 0.3037, 0.1391 -0.687 0.3089, 0.1429 -0.687 0.309, 0.1589 -0.687 0.3689, 0.1519 -0.687 0.3107, 0.1598 -0.687 0.3143, 0.1598 -0.687 0.3044, 0.1186 -0.687 0.3173, 0.1201 -0.687 0.3158, 0.1109 -0.687 0.3359, 0.1508 -0.687 0.372, 0.1124 -0.687 0.3281, 0.1152 -0.687 0.3219, 0.1254 -0.687 0.3121, 0.1311 -0.687 0.3099, 0.1191 -0.687 0.3643, 0.1147 -0.687 0.3582, 0.1246 -0.687 0.3688, 0.1308 -0.687 0.3717, 0.1409 -0.687 0.3731, 0.1378 -0.687 0.373, 0.1107 -0.687 0.3402, 0.112 -0.687 0.3513, 0.1408 -0.687 0.3825, 0.1034 -0.687 1.2441, 0.1712 -0.687 1.2441, 0.1409 -0.687 0.3825, 0.1056 -0.687 0.3631, 0.1114 -0.687 0.3707, 0.1133 -0.687 0.3725, 0.1208 -0.687 0.3778, 0.1034 -0.687 0.3214, 0.1014 -0.687 0.3265, 0.0986 -0.687 0.3004, 0.0998 -0.687 0.3396, 0.1 -0.687 0.3437, 0.0986 -0.687 0.3818, 0.1018 -0.687 0.3542, 0.1034 -0.687 0.358, 0.1241 -0.687 0.3017, 0.1166 -0.687 0.3053, 0.1034 -0.687 0.3004, 0.1101 -0.687 0.3106, 0.1047 -0.687 0.3181, 0.1306 -0.687 0.3004, 0.1328 -0.687 0.2999, 0.1376 -0.687 0.2997, 0.1304 -0.687 0.1733, 0.1251 -0.687 0.1727, 0.2549 -0.687 0.2312, 0.2653 -0.687 0.2312, 0.2707 -0.687 0.2769, 0.3014 -0.687 0.2541, 0.3014 -0.687 0.2769, 0.2425 -0.687 0.1733, 0.2365 -0.687 0.1882, 0.2378 -0.687 0.1835, 0.238 -0.687 0.1835, 0.2264 -0.687 0.2769, 0.2264 -0.687 0.2173, 0.2393 -0.687 0.1881, 0.2385 -0.687 0.1855, 0.2264 -0.687 0.1733, 0.2264 -0.687 0.1904, 0.2104 -0.687 0.2312, 0.2216 -0.687 0.2312, 0.2328 -0.687 0.1741, 0.2325 -0.687 0.1733, 0.2284 -0.687 0.1638, 0.2078 -0.687 0.1416, 0.2125 -0.687 0.1479, 0.2125 -0.687 0.1568, 0.2245 -0.687 0.158, 0.2264 -0.687 0.1601, 0.2264 -0.687 0.1602, 0.2145 -0.687 0.1562, 0.2181 -0.687 0.1557, 0.2264 -0.687 0.1489, 0.223 -0.687 0.1476, 0.2264 -0.687 0.1416, 0.2189 -0.687 0.1471, 0.2167 -0.687 0.1472, 0.2208 -0.687 0.156, 0.223 -0.687 0.1569, 0.2393 -0.687 0.1654, 0.2348 -0.687 0.1565, 0.2707 -0.687 0.1416, 0.2311 -0.687 0.1521, 0.2304 -0.687 0.1515, 0.2269 -0.687 0.1491, -1.2008 -0.687 0.0039, -1.2008 -0.687 0.1416, -1.2008 -0.687 0.1733, -1.2008 -0.687 0.2769, -1.2008 -0.687 0.3004, -1.2008 -0.687 0.3818, -1.2008 -0.687 1.2441, 0.0966 -0.687 0.3102, 0.0966 -0.687 0.301, 0.0543 -0.687 0.301, 0.0647 -0.687 0.3811, 0.0647 -0.687 0.3102, 0.0543 -0.687 0.3811, 0.0986 -0.687 0.1733, 0.0974 -0.687 0.174, 0.0543 -0.687 0.174, 0.0974 -0.687 0.1832, 0.0956 -0.687 0.2449, 0.0647 -0.687 0.2101, 0.0647 -0.687 0.1832, 0.0933 -0.687 0.2101, 0.0933 -0.687 0.2193, 0.0647 -0.687 0.2193, 0.0647 -0.687 0.2449, 0.0543 -0.687 0.2541, 0.0956 -0.687 0.2541, 0.0986 -0.687 1.2441, 0.2078 -0.687 1.2441, 0.2264 -0.687 1.2441, 0.2707 -0.687 1.2441, 0.3014 -0.687 1.2441, 0.3267 -0.687 1.2441, 1.2008 -0.687 1.2441, 1.2008 -0.687 0.2769, 0.4645 -0.687 0.174, 0.4564 -0.687 0.1959, 0.423 -0.687 0.1959, 0.4153 -0.687 0.174, 0.4039 -0.687 0.174, 0.3343 -0.687 0.2541, 0.3343 -0.687 0.174, 0.3563 -0.687 0.174, 0.4344 -0.687 0.2541, 0.4455 -0.687 0.2541, 0.476 -0.687 0.174, 1.2008 -0.687 0.1733, 0.3934 -0.687 0.1923, 0.3874 -0.687 0.1852, 0.3791 -0.687 0.1793, 0.37 -0.687 0.1757, 0.3874 -0.687 0.2435, 0.3902 -0.687 0.2408, 0.3952 -0.687 0.2338, 0.3981 -0.687 0.2262, 0.3571 -0.687 0.2541, 0.3693 -0.687 0.2527, 0.379 -0.687 0.2492, 0.3995 -0.687 0.2151, 0.3992 -0.687 0.21, 0.3973 -0.687 0.2006, 0.3014 -0.687 0.1416, 0.3267 -0.687 0.1416, 1.2008 -0.687 0.1416, 0.0986 -0.687 0.0039, 0.1034 -0.687 0.0039, 0.1712 -0.687 0.0039, 0.2078 -0.687 0.0039, 0.2264 -0.687 0.0039, 0.2707 -0.687 0.0039, 0.3014 -0.687 0.0039, 0.3267 -0.687 0.0039, 1.2008 -0.687 0.0039, 1.2008 0.6909 1.2441, 0.6102 0.2776 1.2441, 0.6102 -0.2736 1.2441, 0.6089 -0.2838 1.2441, 0.605 -0.2933 1.2441, 0.5987 -0.3015 1.2441, 0.5906 -0.3077 1.2441, -0.5811 -0.3117 1.2441, -0.5906 -0.3077 1.2441, -0.5987 -0.3015 1.2441, -0.605 -0.2933 1.2441, 0.5811 0.3156 1.2441, 0.5906 0.3117 1.2441, 0.5987 0.3054 1.2441, -0.6089 0.2877 1.2441, -0.605 0.2972 1.2441, -1.2008 0.6909 1.2441, -0.5987 0.3054 1.2441, -0.5906 0.3117 1.2441, 0.605 0.2972 1.2441, 0.6089 0.2877 1.2441, -0.6089 -0.2838 1.2441, -0.6102 -0.2736 1.2441, -0.6102 0.2776 1.2441, 0.5811 -0.3117 1.2441, 0.5709 -0.313 1.2441, -0.5709 -0.313 1.2441, -0.5811 0.3156 1.2441, -0.5709 0.3169 1.2441, 0.5709 0.3169 1.2441, -1.2008 -0.1949 0.0039, -1.2008 -0.1949 0.0433, -1.2008 0.1988 0.0433, -1.2008 0.1988 0.0039, -1.2008 0.6909 0.0039, -0.9055 0.1988 0.0039, -0.9055 -0.1949 0.0039, 1.2008 0.6909 0.0039, 1.2008 0.1988 0.0039, 0.9055 0.1988 0.0039, 1.2008 -0.1949 0.0039, 0.9055 -0.1949 0.0039, 1.2008 0.1988 0.0433, 1.2008 -0.1949 0.0433, 0.5906 0.2776 1.2638, 0.5906 0.2776 1.6772, 0.5906 -0.2736 1.2638, 0.5906 -0.2736 1.6772, -0.5709 0.2972 1.6772, 0.5709 0.2972 1.6772, -0.5709 0.2972 1.2638, 0.5709 0.2972 1.2638, -0.5906 -0.2736 1.2638, -0.5906 -0.2736 1.6772, -0.5906 0.2776 1.2638, -0.5906 0.2776 1.6772, 0.5709 -0.2933 1.6772, -0.5709 -0.2933 1.6772, 0.5709 -0.2933 1.2638, -0.5709 -0.2933 1.2638, -0.5709 -0.2736 1.6969, 0.5709 -0.2736 1.6969, -0.5709 0.2776 1.6969, 0.5709 0.2776 1.6969
            ]
        }
        coordIndex [
            0,1,2,-1,2,1,3,-1,4,0,5,-1,5,0,2,-1,6,4,7,-1,7,4,5,-1,1,6,3,-1,3,6,7,-1,4,6,0,-1,0,6,1,-1,7,5,3,-1,3,5,2,-1,8,9,10,-1,10,9,11,-1,12,8,13,-1,13,8,10,-1,14,12,15,-1,15,12,13,-1,9,14,11,-1,11,14,15,-1,12,14,8,-1,8,14,9,-1,15,13,11,-1,11,13,10,-1,16,17,18,-1,19,20,21,-1,22,23,24,-1,25,26,27,-1,28,29,30,-1,31,32,33,-1,34,35,36,-1,37,38,39,-1,40,41,42,-1,43,44,45,-1,46,47,48,-1,48,47,19,-1,49,50,48,-1,48,50,51,-1,48,51,52,-1,52,53,48,-1,48,53,54,-1,48,54,46,-1,55,56,57,-1,58,59,60,-1,60,59,57,-1,57,59,61,-1,57,61,55,-1,62,63,64,-1,58,60,65,-1,65,60,64,-1,65,64,66,-1,63,67,64,-1,64,67,68,-1,64,68,66,-1,66,68,69,-1,66,69,70,-1,70,69,71,-1,70,71,72,-1,45,44,73,-1,44,74,73,-1,73,74,75,-1,73,75,64,-1,64,75,76,-1,64,76,62,-1,77,78,79,-1,77,79,80,-1,78,81,79,-1,79,81,82,-1,79,82,45,-1,45,82,83,-1,45,83,43,-1,84,80,85,-1,85,80,79,-1,85,79,86,-1,86,79,87,-1,88,89,90,-1,89,91,90,-1,90,91,92,-1,90,92,93,-1,93,92,94,-1,93,94,95,-1,95,94,96,-1,95,96,79,-1,79,96,97,-1,79,97,87,-1,16,98,17,-1,17,98,99,-1,17,99,100,-1,100,101,17,-1,17,101,102,-1,17,102,88,-1,103,104,20,-1,105,106,107,-1,108,109,16,-1,110,111,112,-1,112,111,113,-1,105,107,114,-1,108,16,115,-1,116,117,111,-1,111,117,118,-1,111,118,119,-1,20,104,16,-1,16,104,120,-1,16,120,115,-1,106,121,107,-1,107,121,122,-1,107,122,123,-1,124,125,126,-1,126,125,127,-1,126,127,128,-1,129,119,130,-1,130,119,131,-1,130,131,126,-1,126,131,132,-1,126,132,124,-1,129,133,119,-1,119,133,134,-1,119,134,111,-1,111,134,135,-1,111,135,113,-1,136,137,138,-1,138,137,139,-1,138,139,107,-1,107,139,140,-1,107,140,114,-1,141,142,107,-1,107,142,143,-1,107,143,111,-1,111,143,144,-1,111,144,116,-1,145,146,98,-1,98,146,147,-1,98,147,148,-1,148,149,98,-1,98,149,150,-1,98,150,151,-1,151,150,136,-1,151,136,152,-1,152,136,138,-1,109,153,16,-1,16,153,154,-1,16,154,98,-1,98,154,155,-1,98,155,145,-1,123,156,107,-1,107,156,157,-1,107,157,158,-1,158,159,107,-1,107,159,160,-1,107,160,141,-1,161,162,163,-1,163,119,161,-1,161,119,118,-1,161,118,164,-1,164,118,165,-1,165,166,164,-1,164,166,167,-1,164,167,168,-1,169,170,171,-1,172,171,173,-1,170,174,171,-1,171,174,175,-1,171,175,176,-1,162,161,172,-1,172,161,177,-1,172,177,171,-1,171,177,178,-1,171,178,169,-1,173,179,172,-1,172,179,180,-1,172,180,181,-1,182,183,181,-1,181,183,184,-1,181,184,172,-1,185,186,187,-1,187,186,188,-1,187,188,176,-1,176,188,189,-1,176,189,171,-1,47,190,19,-1,19,190,191,-1,19,191,20,-1,20,191,192,-1,20,192,103,-1,193,194,195,-1,195,194,196,-1,195,197,198,-1,198,197,199,-1,200,201,202,-1,202,201,203,-1,202,203,204,-1,202,193,200,-1,200,193,195,-1,200,195,205,-1,205,195,198,-1,205,198,42,-1,42,198,206,-1,42,206,40,-1,194,207,196,-1,196,207,208,-1,196,208,209,-1,209,208,210,-1,211,212,213,-1,213,212,214,-1,215,216,217,-1,218,219,220,-1,220,219,221,-1,220,221,38,-1,222,223,224,-1,224,223,225,-1,224,225,221,-1,211,226,212,-1,212,226,227,-1,212,227,228,-1,228,227,217,-1,228,217,229,-1,229,217,216,-1,230,231,232,-1,232,231,233,-1,232,233,234,-1,234,235,232,-1,232,235,236,-1,232,236,237,-1,238,239,240,-1,241,242,224,-1,224,242,243,-1,224,243,222,-1,237,244,232,-1,232,244,245,-1,232,245,246,-1,246,245,214,-1,246,214,247,-1,247,214,212,-1,219,248,249,-1,249,248,250,-1,251,252,217,-1,217,252,253,-1,217,253,254,-1,247,255,246,-1,246,255,256,-1,246,256,257,-1,238,240,218,-1,240,258,218,-1,218,258,259,-1,218,259,219,-1,219,259,260,-1,219,260,248,-1,254,261,217,-1,217,261,262,-1,217,262,215,-1,263,264,265,-1,265,264,246,-1,265,246,266,-1,266,246,257,-1,250,267,249,-1,249,267,268,-1,249,268,269,-1,269,268,264,-1,269,264,270,-1,270,264,263,-1,37,39,271,-1,271,39,272,-1,271,272,273,-1,274,275,36,-1,264,276,277,-1,277,276,278,-1,277,278,279,-1,280,281,36,-1,36,281,282,-1,279,283,277,-1,277,283,284,-1,277,284,285,-1,285,284,286,-1,285,286,274,-1,287,288,275,-1,275,288,289,-1,275,289,36,-1,36,289,290,-1,36,290,280,-1,282,291,36,-1,36,291,292,-1,36,292,34,-1,293,294,295,-1,295,294,296,-1,295,296,297,-1,295,298,293,-1,293,298,299,-1,293,299,300,-1,300,301,293,-1,293,301,302,-1,293,302,303,-1,303,302,304,-1,303,304,305,-1,305,304,306,-1,305,306,275,-1,275,306,307,-1,275,307,287,-1,308,309,297,-1,297,309,310,-1,297,310,295,-1,311,312,239,-1,239,312,313,-1,239,313,240,-1,311,314,312,-1,312,314,315,-1,312,315,316,-1,316,315,317,-1,316,318,319,-1,317,320,316,-1,316,320,321,-1,316,321,322,-1,322,323,316,-1,316,323,324,-1,316,324,318,-1,319,325,316,-1,316,325,326,-1,316,326,327,-1,328,31,329,-1,330,331,332,-1,332,331,333,-1,31,33,329,-1,329,33,334,-1,329,334,335,-1,336,337,338,-1,338,337,339,-1,338,339,333,-1,333,339,340,-1,333,340,332,-1,341,342,343,-1,344,345,346,-1,341,343,347,-1,347,343,348,-1,347,348,346,-1,346,348,349,-1,346,349,344,-1,350,351,336,-1,352,353,338,-1,351,354,336,-1,336,354,355,-1,336,355,341,-1,341,355,356,-1,341,356,342,-1,352,338,357,-1,344,358,345,-1,345,358,359,-1,345,359,338,-1,338,359,360,-1,338,360,357,-1,353,361,338,-1,338,361,362,-1,338,362,336,-1,336,362,363,-1,336,363,350,-1,346,364,365,-1,365,364,366,-1,365,367,346,-1,346,367,368,-1,346,368,347,-1,347,368,369,-1,347,369,370,-1,371,372,373,-1,373,372,374,-1,374,372,375,-1,375,372,368,-1,375,368,376,-1,376,368,367,-1,376,367,30,-1,30,367,377,-1,30,377,28,-1,366,364,378,-1,378,364,379,-1,378,379,380,-1,381,379,382,-1,382,379,383,-1,369,384,370,-1,370,384,380,-1,370,380,27,-1,27,380,379,-1,27,379,385,-1,385,379,381,-1,25,27,386,-1,387,388,389,-1,389,388,390,-1,389,390,385,-1,385,390,391,-1,385,391,27,-1,27,391,392,-1,27,392,386,-1,389,393,394,-1,395,389,396,-1,395,397,389,-1,389,397,398,-1,389,398,393,-1,394,399,389,-1,389,399,400,-1,389,400,387,-1,401,402,403,-1,403,402,404,-1,396,405,395,-1,395,405,406,-1,395,406,407,-1,407,406,404,-1,407,404,408,-1,408,404,402,-1,23,409,410,-1,410,409,411,-1,411,409,412,-1,411,412,383,-1,24,413,414,-1,414,415,24,-1,24,415,416,-1,24,416,22,-1,417,418,419,-1,420,421,422,-1,422,421,423,-1,422,423,24,-1,24,423,424,-1,24,424,413,-1,425,426,427,-1,427,426,428,-1,427,428,429,-1,425,427,430,-1,430,427,246,-1,430,246,431,-1,264,277,246,-1,246,277,432,-1,246,432,431,-1,38,221,39,-1,39,221,225,-1,39,225,272,-1,272,225,433,-1,272,433,230,-1,230,433,434,-1,230,434,231,-1,435,436,437,-1,199,197,438,-1,438,197,439,-1,438,439,210,-1,210,439,437,-1,210,437,209,-1,209,437,436,-1,209,436,440,-1,441,442,443,-1,437,444,435,-1,435,444,445,-1,435,445,446,-1,446,445,441,-1,446,441,447,-1,447,441,443,-1,448,449,36,-1,36,449,450,-1,274,36,285,-1,285,36,450,-1,285,450,444,-1,444,450,451,-1,444,451,445,-1,452,449,453,-1,453,449,448,-1,453,448,454,-1,455,456,457,-1,458,459,448,-1,448,459,460,-1,448,460,454,-1,273,272,35,-1,35,272,455,-1,35,455,36,-1,36,455,457,-1,36,457,448,-1,448,457,461,-1,448,461,462,-1,463,464,465,-1,465,464,466,-1,465,466,455,-1,455,466,467,-1,455,467,456,-1,462,468,448,-1,448,468,469,-1,448,469,458,-1,470,471,472,-1,470,472,440,-1,471,473,472,-1,472,473,474,-1,472,474,465,-1,465,474,475,-1,465,475,463,-1,476,93,477,-1,477,93,95,-1,477,95,478,-1,478,95,79,-1,478,79,479,-1,479,79,45,-1,479,45,480,-1,480,45,73,-1,480,73,481,-1,481,73,64,-1,481,64,482,-1,482,64,60,-1,483,484,419,-1,419,484,485,-1,486,422,48,-1,418,420,419,-1,419,420,422,-1,419,422,483,-1,483,422,486,-1,483,486,487,-1,21,419,19,-1,19,419,485,-1,19,485,48,-1,48,485,488,-1,48,488,486,-1,489,490,491,-1,490,489,492,-1,492,489,21,-1,492,21,493,-1,494,495,496,-1,496,495,492,-1,496,492,497,-1,497,492,493,-1,497,493,498,-1,498,493,499,-1,18,489,16,-1,16,489,491,-1,16,491,20,-1,20,491,500,-1,20,500,21,-1,21,500,501,-1,21,501,493,-1,23,410,24,-1,24,410,502,-1,24,502,422,-1,422,502,57,-1,422,57,48,-1,48,57,56,-1,48,56,49,-1,18,230,489,-1,489,230,232,-1,489,232,21,-1,21,232,246,-1,21,246,419,-1,419,246,427,-1,419,427,417,-1,417,427,429,-1,197,336,439,-1,439,336,341,-1,439,341,437,-1,437,341,347,-1,437,347,444,-1,444,347,370,-1,444,370,285,-1,285,370,27,-1,285,27,277,-1,277,27,26,-1,277,26,432,-1,383,379,411,-1,411,379,364,-1,411,364,503,-1,503,364,346,-1,503,346,504,-1,504,346,345,-1,504,345,505,-1,505,345,338,-1,505,338,506,-1,506,338,333,-1,506,333,507,-1,507,333,331,-1,507,331,508,-1,332,328,330,-1,330,328,329,-1,330,329,509,-1,510,511,512,-1,513,514,195,-1,515,197,516,-1,516,197,195,-1,516,195,517,-1,517,195,514,-1,197,518,519,-1,512,513,510,-1,510,513,195,-1,510,195,520,-1,520,195,521,-1,520,521,519,-1,519,521,509,-1,519,509,197,-1,197,509,329,-1,197,329,336,-1,336,329,335,-1,336,335,337,-1,514,522,523,-1,523,524,514,-1,514,524,525,-1,514,525,517,-1,526,527,518,-1,518,527,528,-1,518,528,529,-1,515,530,197,-1,197,530,531,-1,197,531,518,-1,518,531,532,-1,518,532,526,-1,529,533,518,-1,518,533,534,-1,518,534,514,-1,514,534,535,-1,514,535,522,-1,440,472,209,-1,209,472,536,-1,209,536,196,-1,196,536,537,-1,196,537,195,-1,195,537,538,-1,195,538,521,-1,88,90,17,-1,17,90,539,-1,17,539,18,-1,18,539,540,-1,18,540,230,-1,230,540,541,-1,230,541,272,-1,272,541,542,-1,272,542,455,-1,455,542,543,-1,455,543,465,-1,465,543,544,-1,465,544,472,-1,472,544,545,-1,472,545,536,-1,536,545,546,-1,536,546,537,-1,537,546,547,-1,537,547,538,-1,548,549,508,-1,508,549,550,-1,508,550,551,-1,551,552,508,-1,508,552,553,-1,508,553,554,-1,555,556,482,-1,482,556,557,-1,482,557,558,-1,559,560,548,-1,548,560,561,-1,562,563,564,-1,564,563,565,-1,564,565,566,-1,561,567,548,-1,548,567,568,-1,548,568,549,-1,558,569,482,-1,482,569,570,-1,482,570,564,-1,564,570,571,-1,564,571,562,-1,554,572,508,-1,508,572,573,-1,508,573,482,-1,482,573,574,-1,482,574,555,-1,566,575,564,-1,564,575,576,-1,564,576,548,-1,548,576,577,-1,548,577,559,-1,578,476,579,-1,579,476,482,-1,579,482,580,-1,580,482,564,-1,580,564,581,-1,581,564,582,-1,583,581,582,-1,547,476,584,-1,584,476,578,-1,585,586,587,-1,588,547,589,-1,589,547,584,-1,589,584,587,-1,587,584,583,-1,587,583,585,-1,585,583,582,-1,586,585,590,-1,590,585,548,-1,590,548,591,-1,591,548,508,-1,591,508,588,-1,588,508,547,-1,564,548,582,-1,582,548,585,-1,592,593,594,-1,594,593,595,-1,596,597,598,-1,598,597,599,-1,600,601,602,-1,602,601,603,-1,604,605,606,-1,606,605,607,-1,608,609,610,-1,610,609,611,-1,
        ]
    }
}
Shape{
    appearance Appearance {
        material  Material 	{
            diffuseColor 0.7529411764705882 0.7529411764705882 0.7529411764705882
            specularColor 0.3764705882352941 0.3764705882352941 0.3764705882352941
            ambientIntensity 0.7529
            transparency 0.0
            shininess 0.5
        }
    }
    geometry IndexedFaceSet {
        ccw TRUE
        solid FALSE
        coord DEF co Coordinate {
            point [
                1.2008 -0.1949 0.0433, 1.6929 -0.1949 0.0433, 1.2008 0.1988 0.0433, 1.6929 0.1988 0.0433, 0.9055 0.1988 0.0, 0.9055 0.1988 0.0039, 1.2008 0.1988 0.0039, 1.6929 0.1988 0.0, 0.9055 -0.1949 0.0, 0.9055 -0.1949 0.0039, 1.2008 -0.1949 0.0039, 1.6929 -0.1949 0.0, -1.2008 0.1988 0.0433, -1.6929 0.1988 0.0433, -1.2008 -0.1949 0.0433, -1.6929 -0.1949 0.0433, -0.9055 -0.1949 0.0, -0.9055 -0.1949 0.0039, -1.2008 -0.1949 0.0039, -1.6929 -0.1949 0.0, -0.9055 0.1988 0.0039, -0.9055 0.1988 0.0, -1.2008 0.1988 0.0039, -1.6929 0.1988 0.0
            ]
        }
        coordIndex [
            0,1,2,-1,2,1,3,-1,4,5,6,-1,2,3,6,-1,6,3,7,-1,6,7,4,-1,4,8,5,-1,5,8,9,-1,9,8,10,-1,10,8,11,-1,10,11,0,-1,0,11,1,-1,7,3,11,-1,11,3,1,-1,8,4,11,-1,11,4,7,-1,12,13,14,-1,14,13,15,-1,16,17,18,-1,14,15,18,-1,18,15,19,-1,18,19,16,-1,17,16,20,-1,20,16,21,-1,20,21,22,-1,22,21,23,-1,22,23,12,-1,12,23,13,-1,19,15,23,-1,23,15,13,-1,21,16,23,-1,23,16,19,-1,
        ]
    }
}
Shape{
    appearance Appearance {
        material  Material 	{
            diffuseColor 0.25098039215686274 0.25098039215686274 0.25098039215686274
            specularColor 0.12549019607843137 0.12549019607843137 0.12549019607843137
            ambientIntensity 0.251
            transparency 0.0
            shininess 0.5
        }
    }
    geometry IndexedFaceSet {
        ccw TRUE
        solid FALSE
        coord DEF co Coordinate {
            point [
                0.5709 0.2776 1.6969, 0.5709 -0.2736 1.6969, 0.576 -0.2736 1.6962, 0.576 0.2776 1.6962, 0.5807 -0.2736 1.6942, 0.5807 0.2776 1.6942, 0.5848 -0.2736 1.6911, 0.5848 0.2776 1.6911, 0.5879 -0.2736 1.687, 0.5879 0.2776 1.687, 0.5899 -0.2736 1.6823, 0.5899 0.2776 1.6823, 0.5906 -0.2736 1.6772, 0.5906 0.2776 1.6772, 0.5709 0.2972 1.6772, 0.5709 0.2966 1.6823, 0.5758 0.2959 1.6823, 0.5758 0.2861 1.6942, 0.5734 0.282 1.6962, 0.5745 0.2812 1.6962, 0.5758 0.2789 1.6962, 0.5722 0.2825 1.6962, 0.5734 0.2871 1.6942, 0.5745 0.291 1.6911, 0.5709 0.2827 1.6962, 0.5778 0.2845 1.6942, 0.5753 0.2801 1.6962, 0.5794 0.2825 1.6942, 0.5804 0.2801 1.6942, 0.5709 0.2874 1.6942, 0.5709 0.2915 1.6911, 0.5709 0.2946 1.687, 0.5778 0.2896 1.6911, 0.5807 0.2874 1.6911, 0.5829 0.2845 1.6911, 0.5843 0.2812 1.6911, 0.5753 0.294 1.687, 0.5794 0.2923 1.687, 0.5829 0.2896 1.687, 0.5856 0.2861 1.687, 0.5873 0.282 1.687, 0.5804 0.294 1.6823, 0.5843 0.291 1.6823, 0.5873 0.2871 1.6823, 0.5892 0.2825 1.6823, 0.576 0.2966 1.6772, 0.5807 0.2946 1.6772, 0.5848 0.2915 1.6772, 0.5879 0.2874 1.6772, 0.5899 0.2827 1.6772, 0.5892 -0.2785 1.6823, 0.5794 -0.2785 1.6942, 0.5753 -0.2762 1.6962, 0.5745 -0.2772 1.6962, 0.5709 -0.2787 1.6962, 0.5722 -0.2785 1.6962, 0.5758 -0.2749 1.6962, 0.5804 -0.2762 1.6942, 0.5843 -0.2772 1.6911, 0.5778 -0.2806 1.6942, 0.5734 -0.278 1.6962, 0.5758 -0.2821 1.6942, 0.5734 -0.2831 1.6942, 0.5709 -0.2835 1.6942, 0.5829 -0.2806 1.6911, 0.5807 -0.2835 1.6911, 0.5778 -0.2857 1.6911, 0.5745 -0.2871 1.6911, 0.5709 -0.2875 1.6911, 0.5873 -0.278 1.687, 0.5856 -0.2821 1.687, 0.5829 -0.2857 1.687, 0.5794 -0.2884 1.687, 0.5753 -0.2901 1.687, 0.5709 -0.2907 1.687, 0.5873 -0.2831 1.6823, 0.5843 -0.2871 1.6823, 0.5804 -0.2901 1.6823, 0.5758 -0.292 1.6823, 0.5709 -0.2926 1.6823, 0.5899 -0.2787 1.6772, 0.5879 -0.2835 1.6772, 0.5848 -0.2875 1.6772, 0.5807 -0.2907 1.6772, 0.576 -0.2926 1.6772, 0.5709 -0.2933 1.6772, 0.5906 0.2776 1.2638, 0.5899 0.2827 1.2638, 0.5879 0.2874 1.2638, 0.5848 0.2915 1.2638, 0.5807 0.2946 1.2638, 0.576 0.2966 1.2638, 0.5709 0.2972 1.2638, -0.5709 0.2776 1.6969, -0.5709 0.2827 1.6962, -0.5709 0.2874 1.6942, -0.5709 0.2915 1.6911, -0.5709 0.2946 1.687, -0.5709 0.2966 1.6823, -0.5709 0.2972 1.6772, -0.5709 -0.2736 1.6969, -0.576 0.2776 1.6962, -0.576 -0.2736 1.6962, -0.5807 0.2776 1.6942, -0.5807 -0.2736 1.6942, -0.5848 0.2776 1.6911, -0.5848 -0.2736 1.6911, -0.5879 0.2776 1.687, -0.5879 -0.2736 1.687, -0.5899 0.2776 1.6823, -0.5899 -0.2736 1.6823, -0.5906 0.2776 1.6772, -0.5906 -0.2736 1.6772, -0.5709 -0.2787 1.6962, -0.5709 -0.2835 1.6942, -0.5709 -0.2875 1.6911, -0.5709 -0.2907 1.687, -0.5709 -0.2926 1.6823, -0.5709 -0.2933 1.6772, 0.5709 -0.2933 1.2638, 0.576 -0.2926 1.2638, 0.5807 -0.2907 1.2638, 0.5848 -0.2875 1.2638, 0.5879 -0.2835 1.2638, 0.5899 -0.2787 1.2638, 0.5906 -0.2736 1.2638, 0.6102 -0.2736 1.2441, 0.6102 0.2776 1.2441, 0.6051 -0.2736 1.2448, 0.6051 0.2776 1.2448, 0.6004 -0.2736 1.2467, 0.6004 0.2776 1.2467, 0.5963 -0.2736 1.2499, 0.5963 0.2776 1.2499, 0.5932 -0.2736 1.2539, 0.5932 0.2776 1.2539, 0.5912 -0.2736 1.2587, 0.5912 0.2776 1.2587, 0.5905 0.2828 1.2587, 0.5885 0.2877 1.2587, 0.5853 0.292 1.2587, 0.581 0.2952 1.2587, 0.5761 0.2972 1.2587, 0.5709 0.2979 1.2587, 0.5924 0.2833 1.2539, 0.5902 0.2887 1.2539, 0.5867 0.2933 1.2539, 0.582 0.2969 1.2539, 0.5766 0.2991 1.2539, 0.5709 0.2999 1.2539, 0.5954 0.2841 1.2499, 0.5929 0.2903 1.2499, 0.5889 0.2956 1.2499, 0.5836 0.2996 1.2499, 0.5775 0.3021 1.2499, 0.5709 0.303 1.2499, 0.5994 0.2852 1.2467, 0.5964 0.2923 1.2467, 0.5917 0.2984 1.2467, 0.5856 0.3031 1.2467, 0.5785 0.3061 1.2467, 0.5709 0.3071 1.2467, 0.604 0.2864 1.2448, 0.6005 0.2947 1.2448, 0.5951 0.3018 1.2448, 0.588 0.3072 1.2448, 0.5797 0.3107 1.2448, 0.5709 0.3118 1.2448, 0.6089 0.2877 1.2441, 0.605 0.2972 1.2441, 0.5987 0.3054 1.2441, 0.5906 0.3117 1.2441, 0.5811 0.3156 1.2441, 0.5709 0.3169 1.2441, -0.5892 0.2825 1.6823, -0.5794 0.2825 1.6942, -0.5753 0.2801 1.6962, -0.5745 0.2812 1.6962, -0.5722 0.2825 1.6962, -0.5758 0.2789 1.6962, -0.5804 0.2801 1.6942, -0.5843 0.2812 1.6911, -0.5778 0.2845 1.6942, -0.5734 0.282 1.6962, -0.5758 0.2861 1.6942, -0.5734 0.2871 1.6942, -0.5829 0.2845 1.6911, -0.5807 0.2874 1.6911, -0.5778 0.2896 1.6911, -0.5745 0.291 1.6911, -0.5873 0.282 1.687, -0.5856 0.2861 1.687, -0.5829 0.2896 1.687, -0.5794 0.2923 1.687, -0.5753 0.294 1.687, -0.5873 0.2871 1.6823, -0.5843 0.291 1.6823, -0.5804 0.294 1.6823, -0.5758 0.2959 1.6823, -0.5899 0.2827 1.6772, -0.5879 0.2874 1.6772, -0.5848 0.2915 1.6772, -0.5807 0.2946 1.6772, -0.576 0.2966 1.6772, -0.5758 -0.292 1.6823, -0.5758 -0.2821 1.6942, -0.5734 -0.278 1.6962, -0.5745 -0.2772 1.6962, -0.5758 -0.2749 1.6962, -0.5722 -0.2785 1.6962, -0.5734 -0.2831 1.6942, -0.5745 -0.2871 1.6911, -0.5778 -0.2806 1.6942, -0.5753 -0.2762 1.6962, -0.5794 -0.2785 1.6942, -0.5804 -0.2762 1.6942, -0.5778 -0.2857 1.6911, -0.5807 -0.2835 1.6911, -0.5829 -0.2806 1.6911, -0.5843 -0.2772 1.6911, -0.5753 -0.2901 1.687, -0.5794 -0.2884 1.687, -0.5829 -0.2857 1.687, -0.5856 -0.2821 1.687, -0.5873 -0.278 1.687, -0.5804 -0.2901 1.6823, -0.5843 -0.2871 1.6823, -0.5873 -0.2831 1.6823, -0.5892 -0.2785 1.6823, -0.576 -0.2926 1.6772, -0.5807 -0.2907 1.6772, -0.5848 -0.2875 1.6772, -0.5879 -0.2835 1.6772, -0.5899 -0.2787 1.6772, 0.5709 -0.294 1.2587, 0.5761 -0.2933 1.2587, 0.581 -0.2913 1.2587, 0.5853 -0.288 1.2587, 0.5885 -0.2838 1.2587, 0.5905 -0.2789 1.2587, 0.5709 -0.2959 1.2539, 0.5766 -0.2952 1.2539, 0.582 -0.293 1.2539, 0.5867 -0.2894 1.2539, 0.5902 -0.2848 1.2539, 0.5924 -0.2794 1.2539, 0.5709 -0.2991 1.2499, 0.5775 -0.2982 1.2499, 0.5836 -0.2957 1.2499, 0.5889 -0.2916 1.2499, 0.5929 -0.2863 1.2499, 0.5954 -0.2802 1.2499, 0.5709 -0.3031 1.2467, 0.5785 -0.3021 1.2467, 0.5856 -0.2992 1.2467, 0.5917 -0.2945 1.2467, 0.5964 -0.2884 1.2467, 0.5994 -0.2813 1.2467, 0.5709 -0.3079 1.2448, 0.5797 -0.3067 1.2448, 0.588 -0.3033 1.2448, 0.5951 -0.2979 1.2448, 0.6005 -0.2908 1.2448, 0.604 -0.2825 1.2448, 0.5709 -0.313 1.2441, 0.5811 -0.3117 1.2441, 0.5906 -0.3077 1.2441, 0.5987 -0.3015 1.2441, 0.605 -0.2933 1.2441, 0.6089 -0.2838 1.2441, -0.5709 0.3169 1.2441, -0.5709 0.3118 1.2448, -0.5709 0.3071 1.2467, -0.5709 0.303 1.2499, -0.5709 0.2999 1.2539, -0.5709 0.2979 1.2587, -0.5709 0.2972 1.2638, -0.576 0.2966 1.2638, -0.5807 0.2946 1.2638, -0.5848 0.2915 1.2638, -0.5879 0.2874 1.2638, -0.5899 0.2827 1.2638, -0.5906 0.2776 1.2638, -0.5906 -0.2736 1.2638, -0.5899 -0.2787 1.2638, -0.5879 -0.2835 1.2638, -0.5848 -0.2875 1.2638, -0.5807 -0.2907 1.2638, -0.576 -0.2926 1.2638, -0.5709 -0.2933 1.2638, -0.5709 -0.313 1.2441, -0.5709 -0.3079 1.2448, -0.5709 -0.3031 1.2467, -0.5709 -0.2991 1.2499, -0.5709 -0.2959 1.2539, -0.5709 -0.294 1.2587, -0.5761 0.2972 1.2587, -0.581 0.2952 1.2587, -0.5853 0.292 1.2587, -0.5885 0.2877 1.2587, -0.5905 0.2828 1.2587, -0.5912 0.2776 1.2587, -0.5766 0.2991 1.2539, -0.582 0.2969 1.2539, -0.5867 0.2933 1.2539, -0.5902 0.2887 1.2539, -0.5924 0.2833 1.2539, -0.5932 0.2776 1.2539, -0.5775 0.3021 1.2499, -0.5836 0.2996 1.2499, -0.5889 0.2956 1.2499, -0.5929 0.2903 1.2499, -0.5954 0.2841 1.2499, -0.5963 0.2776 1.2499, -0.5785 0.3061 1.2467, -0.5856 0.3031 1.2467, -0.5917 0.2984 1.2467, -0.5964 0.2923 1.2467, -0.5994 0.2852 1.2467, -0.6004 0.2776 1.2467, -0.5797 0.3107 1.2448, -0.588 0.3072 1.2448, -0.5951 0.3018 1.2448, -0.6005 0.2947 1.2448, -0.604 0.2864 1.2448, -0.6051 0.2776 1.2448, -0.5811 0.3156 1.2441, -0.5906 0.3117 1.2441, -0.5987 0.3054 1.2441, -0.605 0.2972 1.2441, -0.6089 0.2877 1.2441, -0.6102 0.2776 1.2441, -0.5912 -0.2736 1.2587, -0.5905 -0.2789 1.2587, -0.5885 -0.2838 1.2587, -0.5853 -0.288 1.2587, -0.581 -0.2913 1.2587, -0.5761 -0.2933 1.2587, -0.5932 -0.2736 1.2539, -0.5924 -0.2794 1.2539, -0.5902 -0.2848 1.2539, -0.5867 -0.2894 1.2539, -0.582 -0.293 1.2539, -0.5766 -0.2952 1.2539, -0.5963 -0.2736 1.2499, -0.5954 -0.2802 1.2499, -0.5929 -0.2863 1.2499, -0.5889 -0.2916 1.2499, -0.5836 -0.2957 1.2499, -0.5775 -0.2982 1.2499, -0.6004 -0.2736 1.2467, -0.5994 -0.2813 1.2467, -0.5964 -0.2884 1.2467, -0.5917 -0.2945 1.2467, -0.5856 -0.2992 1.2467, -0.5785 -0.3021 1.2467, -0.6051 -0.2736 1.2448, -0.604 -0.2825 1.2448, -0.6005 -0.2908 1.2448, -0.5951 -0.2979 1.2448, -0.588 -0.3033 1.2448, -0.5797 -0.3067 1.2448, -0.6102 -0.2736 1.2441, -0.6089 -0.2838 1.2441, -0.605 -0.2933 1.2441, -0.5987 -0.3015 1.2441, -0.5906 -0.3077 1.2441, -0.5811 -0.3117 1.2441
            ]
        }
        coordIndex [
            0,1,2,-1,0,2,3,-1,3,2,4,-1,3,4,5,-1,5,4,6,-1,5,6,7,-1,7,6,8,-1,7,8,9,-1,9,8,10,-1,9,10,11,-1,11,10,12,-1,11,12,13,-1,14,15,16,-1,17,18,19,-1,0,3,20,-1,19,18,0,-1,21,0,18,-1,21,18,22,-1,22,18,17,-1,22,17,23,-1,24,0,21,-1,25,26,27,-1,27,26,20,-1,27,20,28,-1,28,20,3,-1,28,3,5,-1,24,21,29,-1,29,21,22,-1,29,22,30,-1,30,22,23,-1,30,23,31,-1,32,25,33,-1,33,25,27,-1,33,27,34,-1,34,27,28,-1,34,28,35,-1,35,28,5,-1,35,5,7,-1,36,32,37,-1,37,32,33,-1,37,33,38,-1,38,33,34,-1,38,34,39,-1,39,34,35,-1,39,35,40,-1,40,35,7,-1,40,7,9,-1,15,36,16,-1,16,36,37,-1,16,37,41,-1,41,37,38,-1,41,38,42,-1,42,38,39,-1,42,39,43,-1,43,39,40,-1,43,40,44,-1,44,40,9,-1,44,9,11,-1,14,16,45,-1,45,16,41,-1,45,41,46,-1,46,41,42,-1,46,42,47,-1,47,42,43,-1,47,43,48,-1,48,43,44,-1,48,44,49,-1,49,44,11,-1,49,11,13,-1,26,0,20,-1,15,31,36,-1,36,31,23,-1,36,23,32,-1,32,23,17,-1,32,17,25,-1,25,17,19,-1,25,19,26,-1,26,19,0,-1,12,10,50,-1,51,52,53,-1,1,54,55,-1,53,52,1,-1,56,1,52,-1,56,52,57,-1,57,52,51,-1,57,51,58,-1,2,1,56,-1,59,60,61,-1,61,60,55,-1,61,55,62,-1,62,55,54,-1,62,54,63,-1,2,56,4,-1,4,56,57,-1,4,57,6,-1,6,57,58,-1,6,58,8,-1,64,59,65,-1,65,59,61,-1,65,61,66,-1,66,61,62,-1,66,62,67,-1,67,62,63,-1,67,63,68,-1,69,64,70,-1,70,64,65,-1,70,65,71,-1,71,65,66,-1,71,66,72,-1,72,66,67,-1,72,67,73,-1,73,67,68,-1,73,68,74,-1,10,69,50,-1,50,69,70,-1,50,70,75,-1,75,70,71,-1,75,71,76,-1,76,71,72,-1,76,72,77,-1,77,72,73,-1,77,73,78,-1,78,73,74,-1,78,74,79,-1,12,50,80,-1,80,50,75,-1,80,75,81,-1,81,75,76,-1,81,76,82,-1,82,76,77,-1,82,77,83,-1,83,77,78,-1,83,78,84,-1,84,78,79,-1,84,79,85,-1,60,1,55,-1,10,8,69,-1,69,8,58,-1,69,58,64,-1,64,58,51,-1,64,51,59,-1,59,51,53,-1,59,53,60,-1,60,53,1,-1,13,86,87,-1,13,87,49,-1,49,87,88,-1,49,88,48,-1,48,88,89,-1,48,89,47,-1,47,89,90,-1,47,90,46,-1,46,90,91,-1,46,91,45,-1,45,91,92,-1,45,92,14,-1,93,0,24,-1,93,24,94,-1,94,24,29,-1,94,29,95,-1,95,29,30,-1,95,30,96,-1,96,30,31,-1,96,31,97,-1,97,31,15,-1,97,15,98,-1,98,15,14,-1,98,14,99,-1,100,93,101,-1,100,101,102,-1,102,101,103,-1,102,103,104,-1,104,103,105,-1,104,105,106,-1,106,105,107,-1,106,107,108,-1,108,107,109,-1,108,109,110,-1,110,109,111,-1,110,111,112,-1,1,100,113,-1,1,113,54,-1,54,113,114,-1,54,114,63,-1,63,114,115,-1,63,115,68,-1,68,115,116,-1,68,116,74,-1,74,116,117,-1,74,117,79,-1,79,117,118,-1,79,118,85,-1,85,119,120,-1,85,120,84,-1,84,120,121,-1,84,121,83,-1,83,121,122,-1,83,122,82,-1,82,122,123,-1,82,123,81,-1,81,123,124,-1,81,124,80,-1,80,124,125,-1,80,125,12,-1,126,127,128,-1,128,127,129,-1,128,129,130,-1,130,129,131,-1,130,131,132,-1,132,131,133,-1,132,133,134,-1,134,133,135,-1,134,135,136,-1,136,135,137,-1,136,137,125,-1,125,137,86,-1,86,137,87,-1,87,137,138,-1,87,138,88,-1,88,138,139,-1,88,139,89,-1,89,139,140,-1,89,140,90,-1,90,140,141,-1,90,141,91,-1,91,141,142,-1,91,142,92,-1,92,142,143,-1,137,135,138,-1,138,135,144,-1,138,144,139,-1,139,144,145,-1,139,145,140,-1,140,145,146,-1,140,146,141,-1,141,146,147,-1,141,147,142,-1,142,147,148,-1,142,148,143,-1,143,148,149,-1,135,133,144,-1,144,133,150,-1,144,150,145,-1,145,150,151,-1,145,151,146,-1,146,151,152,-1,146,152,147,-1,147,152,153,-1,147,153,148,-1,148,153,154,-1,148,154,149,-1,149,154,155,-1,133,131,150,-1,150,131,156,-1,150,156,151,-1,151,156,157,-1,151,157,152,-1,152,157,158,-1,152,158,153,-1,153,158,159,-1,153,159,154,-1,154,159,160,-1,154,160,155,-1,155,160,161,-1,131,129,156,-1,156,129,162,-1,156,162,157,-1,157,162,163,-1,157,163,158,-1,158,163,164,-1,158,164,159,-1,159,164,165,-1,159,165,160,-1,160,165,166,-1,160,166,161,-1,161,166,167,-1,129,127,162,-1,162,127,168,-1,162,168,163,-1,163,168,169,-1,163,169,164,-1,164,169,170,-1,164,170,165,-1,165,170,171,-1,165,171,166,-1,166,171,172,-1,166,172,167,-1,167,172,173,-1,111,109,174,-1,175,176,177,-1,93,94,178,-1,177,176,93,-1,179,93,176,-1,179,176,180,-1,180,176,175,-1,180,175,181,-1,101,93,179,-1,182,183,184,-1,184,183,178,-1,184,178,185,-1,185,178,94,-1,185,94,95,-1,101,179,103,-1,103,179,180,-1,103,180,105,-1,105,180,181,-1,105,181,107,-1,186,182,187,-1,187,182,184,-1,187,184,188,-1,188,184,185,-1,188,185,189,-1,189,185,95,-1,189,95,96,-1,190,186,191,-1,191,186,187,-1,191,187,192,-1,192,187,188,-1,192,188,193,-1,193,188,189,-1,193,189,194,-1,194,189,96,-1,194,96,97,-1,109,190,174,-1,174,190,191,-1,174,191,195,-1,195,191,192,-1,195,192,196,-1,196,192,193,-1,196,193,197,-1,197,193,194,-1,197,194,198,-1,198,194,97,-1,198,97,98,-1,111,174,199,-1,199,174,195,-1,199,195,200,-1,200,195,196,-1,200,196,201,-1,201,196,197,-1,201,197,202,-1,202,197,198,-1,202,198,203,-1,203,198,98,-1,203,98,99,-1,183,93,178,-1,109,107,190,-1,190,107,181,-1,190,181,186,-1,186,181,175,-1,186,175,182,-1,182,175,177,-1,182,177,183,-1,183,177,93,-1,118,117,204,-1,205,206,207,-1,100,102,208,-1,207,206,100,-1,209,100,206,-1,209,206,210,-1,210,206,205,-1,210,205,211,-1,113,100,209,-1,212,213,214,-1,214,213,208,-1,214,208,215,-1,215,208,102,-1,215,102,104,-1,113,209,114,-1,114,209,210,-1,114,210,115,-1,115,210,211,-1,115,211,116,-1,216,212,217,-1,217,212,214,-1,217,214,218,-1,218,214,215,-1,218,215,219,-1,219,215,104,-1,219,104,106,-1,220,216,221,-1,221,216,217,-1,221,217,222,-1,222,217,218,-1,222,218,223,-1,223,218,219,-1,223,219,224,-1,224,219,106,-1,224,106,108,-1,117,220,204,-1,204,220,221,-1,204,221,225,-1,225,221,222,-1,225,222,226,-1,226,222,223,-1,226,223,227,-1,227,223,224,-1,227,224,228,-1,228,224,108,-1,228,108,110,-1,118,204,229,-1,229,204,225,-1,229,225,230,-1,230,225,226,-1,230,226,231,-1,231,226,227,-1,231,227,232,-1,232,227,228,-1,232,228,233,-1,233,228,110,-1,233,110,112,-1,213,100,208,-1,117,116,220,-1,220,116,211,-1,220,211,216,-1,216,211,205,-1,216,205,212,-1,212,205,207,-1,212,207,213,-1,213,207,100,-1,119,234,120,-1,120,234,235,-1,120,235,121,-1,121,235,236,-1,121,236,122,-1,122,236,237,-1,122,237,123,-1,123,237,238,-1,123,238,124,-1,124,238,239,-1,124,239,125,-1,125,239,136,-1,234,240,235,-1,235,240,241,-1,235,241,236,-1,236,241,242,-1,236,242,237,-1,237,242,243,-1,237,243,238,-1,238,243,244,-1,238,244,239,-1,239,244,245,-1,239,245,136,-1,136,245,134,-1,240,246,241,-1,241,246,247,-1,241,247,242,-1,242,247,248,-1,242,248,243,-1,243,248,249,-1,243,249,244,-1,244,249,250,-1,244,250,245,-1,245,250,251,-1,245,251,134,-1,134,251,132,-1,246,252,247,-1,247,252,253,-1,247,253,248,-1,248,253,254,-1,248,254,249,-1,249,254,255,-1,249,255,250,-1,250,255,256,-1,250,256,251,-1,251,256,257,-1,251,257,132,-1,132,257,130,-1,252,258,253,-1,253,258,259,-1,253,259,254,-1,254,259,260,-1,254,260,255,-1,255,260,261,-1,255,261,256,-1,256,261,262,-1,256,262,257,-1,257,262,263,-1,257,263,130,-1,130,263,128,-1,258,264,259,-1,259,264,265,-1,259,265,260,-1,260,265,266,-1,260,266,261,-1,261,266,267,-1,261,267,262,-1,262,267,268,-1,262,268,263,-1,263,268,269,-1,263,269,128,-1,128,269,126,-1,173,270,167,-1,167,270,271,-1,167,271,161,-1,161,271,272,-1,161,272,155,-1,155,272,273,-1,155,273,149,-1,149,273,274,-1,149,274,143,-1,143,274,275,-1,143,275,92,-1,92,275,276,-1,99,276,277,-1,99,277,203,-1,203,277,278,-1,203,278,202,-1,202,278,279,-1,202,279,201,-1,201,279,280,-1,201,280,200,-1,200,280,281,-1,200,281,199,-1,199,281,282,-1,199,282,111,-1,112,283,284,-1,112,284,233,-1,233,284,285,-1,233,285,232,-1,232,285,286,-1,232,286,231,-1,231,286,287,-1,231,287,230,-1,230,287,288,-1,230,288,229,-1,229,288,289,-1,229,289,118,-1,290,264,291,-1,291,264,258,-1,291,258,292,-1,292,258,252,-1,292,252,293,-1,293,252,246,-1,293,246,294,-1,294,246,240,-1,294,240,295,-1,295,240,234,-1,295,234,289,-1,289,234,119,-1,276,275,277,-1,277,275,296,-1,277,296,278,-1,278,296,297,-1,278,297,279,-1,279,297,298,-1,279,298,280,-1,280,298,299,-1,280,299,281,-1,281,299,300,-1,281,300,282,-1,282,300,301,-1,275,274,296,-1,296,274,302,-1,296,302,297,-1,297,302,303,-1,297,303,298,-1,298,303,304,-1,298,304,299,-1,299,304,305,-1,299,305,300,-1,300,305,306,-1,300,306,301,-1,301,306,307,-1,274,273,302,-1,302,273,308,-1,302,308,303,-1,303,308,309,-1,303,309,304,-1,304,309,310,-1,304,310,305,-1,305,310,311,-1,305,311,306,-1,306,311,312,-1,306,312,307,-1,307,312,313,-1,273,272,308,-1,308,272,314,-1,308,314,309,-1,309,314,315,-1,309,315,310,-1,310,315,316,-1,310,316,311,-1,311,316,317,-1,311,317,312,-1,312,317,318,-1,312,318,313,-1,313,318,319,-1,272,271,314,-1,314,271,320,-1,314,320,315,-1,315,320,321,-1,315,321,316,-1,316,321,322,-1,316,322,317,-1,317,322,323,-1,317,323,318,-1,318,323,324,-1,318,324,319,-1,319,324,325,-1,271,270,320,-1,320,270,326,-1,320,326,321,-1,321,326,327,-1,321,327,322,-1,322,327,328,-1,322,328,323,-1,323,328,329,-1,323,329,324,-1,324,329,330,-1,324,330,325,-1,325,330,331,-1,283,332,284,-1,284,332,333,-1,284,333,285,-1,285,333,334,-1,285,334,286,-1,286,334,335,-1,286,335,287,-1,287,335,336,-1,287,336,288,-1,288,336,337,-1,288,337,289,-1,289,337,295,-1,332,338,333,-1,333,338,339,-1,333,339,334,-1,334,339,340,-1,334,340,335,-1,335,340,341,-1,335,341,336,-1,336,341,342,-1,336,342,337,-1,337,342,343,-1,337,343,295,-1,295,343,294,-1,338,344,339,-1,339,344,345,-1,339,345,340,-1,340,345,346,-1,340,346,341,-1,341,346,347,-1,341,347,342,-1,342,347,348,-1,342,348,343,-1,343,348,349,-1,343,349,294,-1,294,349,293,-1,344,350,345,-1,345,350,351,-1,345,351,346,-1,346,351,352,-1,346,352,347,-1,347,352,353,-1,347,353,348,-1,348,353,354,-1,348,354,349,-1,349,354,355,-1,349,355,293,-1,293,355,292,-1,350,356,351,-1,351,356,357,-1,351,357,352,-1,352,357,358,-1,352,358,353,-1,353,358,359,-1,353,359,354,-1,354,359,360,-1,354,360,355,-1,355,360,361,-1,355,361,292,-1,292,361,291,-1,356,362,357,-1,357,362,363,-1,357,363,358,-1,358,363,364,-1,358,364,359,-1,359,364,365,-1,359,365,360,-1,360,365,366,-1,360,366,361,-1,361,366,367,-1,361,367,291,-1,291,367,290,-1,331,362,325,-1,325,362,356,-1,325,356,319,-1,319,356,350,-1,319,350,313,-1,313,350,344,-1,313,344,307,-1,307,344,338,-1,307,338,301,-1,301,338,332,-1,301,332,282,-1,282,332,283,-1,
        ]
    }
}
Shape{
    appearance Appearance {
        material  Material 	{
            diffuseColor 1.0 1.0 1.0
            specularColor 0.5019607843137255 0.5019607843137255 0.5019607843137255
            ambientIntensity 1.0
            transparency 0.0
            shininess 0.5
        }
    }
    geometry IndexedFaceSet {
        ccw TRUE
        solid FALSE
        coord DEF co Coordinate {
            point [
                0.0966 -0.6909 0.3102, 0.0966 -0.6909 0.301, 0.0966 -0.687 0.3102, 0.0966 -0.687 0.301, 0.0647 -0.6909 0.3102, 0.0647 -0.687 0.3102, 0.0647 -0.6909 0.3811, 0.0647 -0.687 0.3811, 0.0543 -0.6909 0.3811, 0.0543 -0.687 0.3811, 0.0543 -0.6909 0.301, 0.0543 -0.687 0.301, 0.1376 -0.6909 0.2997, 0.1376 -0.687 0.2997, 0.1498 -0.6909 0.3009, 0.1447 -0.687 0.3004, 0.1498 -0.687 0.3009, 0.1584 -0.687 0.3037, 0.1584 -0.6909 0.3037, 0.1598 -0.687 0.3044, 0.1598 -0.6909 0.3044, 0.1598 -0.6909 0.3143, 0.1598 -0.687 0.3143, 0.1519 -0.687 0.3107, 0.1519 -0.6909 0.3107, 0.1429 -0.687 0.309, 0.1429 -0.6909 0.309, 0.1391 -0.687 0.3089, 0.1391 -0.6909 0.3089, 0.1311 -0.687 0.3099, 0.1311 -0.6909 0.3099, 0.1254 -0.687 0.3121, 0.1254 -0.6909 0.3121, 0.1201 -0.687 0.3158, 0.1201 -0.6909 0.3158, 0.1186 -0.687 0.3173, 0.1186 -0.6909 0.3173, 0.1152 -0.687 0.3219, 0.1152 -0.6909 0.3219, 0.1124 -0.687 0.3281, 0.1124 -0.6909 0.3281, 0.1109 -0.687 0.3359, 0.1109 -0.6909 0.3359, 0.1107 -0.687 0.3402, 0.1107 -0.6909 0.3402, 0.112 -0.687 0.3513, 0.112 -0.6909 0.3513, 0.1147 -0.687 0.3582, 0.1147 -0.6909 0.3582, 0.1191 -0.687 0.3643, 0.1191 -0.6909 0.3643, 0.1246 -0.687 0.3688, 0.1246 -0.6909 0.3688, 0.1308 -0.687 0.3717, 0.1308 -0.6909 0.3717, 0.1378 -0.687 0.373, 0.1378 -0.6909 0.373, 0.1409 -0.687 0.3731, 0.1409 -0.6909 0.3731, 0.1508 -0.687 0.372, 0.1508 -0.6909 0.372, 0.1589 -0.687 0.3689, 0.1589 -0.6909 0.3689, 0.1598 -0.687 0.3684, 0.1598 -0.6909 0.3684, 0.1598 -0.6909 0.3792, 0.1598 -0.687 0.3792, 0.1408 -0.687 0.3825, 0.1408 -0.6909 0.3825, 0.1409 -0.6909 0.3825, 0.1514 -0.687 0.3816, 0.1514 -0.6909 0.3816, 0.1494 -0.687 0.3818, 0.1409 -0.687 0.3825, 0.1353 -0.687 0.3818, 0.1292 -0.6909 0.381, 0.1292 -0.687 0.381, 0.1208 -0.687 0.3778, 0.1208 -0.6909 0.3778, 0.1133 -0.687 0.3725, 0.1133 -0.6909 0.3725, 0.1114 -0.687 0.3707, 0.1114 -0.6909 0.3707, 0.1056 -0.687 0.3631, 0.1034 -0.687 0.358, 0.1018 -0.6909 0.3542, 0.1056 -0.6909 0.3631, 0.1018 -0.687 0.3542, 0.1 -0.687 0.3437, 0.1 -0.6909 0.3437, 0.0998 -0.687 0.3396, 0.0998 -0.6909 0.3396, 0.1014 -0.687 0.3265, 0.1034 -0.687 0.3214, 0.1047 -0.6909 0.3181, 0.1014 -0.6909 0.3265, 0.1047 -0.687 0.3181, 0.1101 -0.687 0.3106, 0.1101 -0.6909 0.3106, 0.1328 -0.6909 0.2999, 0.1166 -0.687 0.3053, 0.1166 -0.6909 0.3053, 0.1241 -0.687 0.3017, 0.1241 -0.6909 0.3017, 0.1306 -0.687 0.3004, 0.1328 -0.687 0.2999, 0.2189 -0.6909 0.3102, 0.2189 -0.6909 0.301, 0.2189 -0.687 0.3102, 0.2189 -0.687 0.301, 0.1862 -0.687 0.3102, 0.1862 -0.6909 0.3102, 0.2078 -0.687 0.3102, 0.1862 -0.6909 0.3371, 0.1862 -0.687 0.3371, 0.2148 -0.6909 0.3371, 0.2078 -0.687 0.3371, 0.2148 -0.687 0.3371, 0.2148 -0.6909 0.3463, 0.2148 -0.687 0.3463, 0.1862 -0.687 0.3463, 0.1862 -0.6909 0.3463, 0.2078 -0.687 0.3463, 0.1862 -0.6909 0.3719, 0.1862 -0.687 0.3719, 0.2171 -0.6909 0.3719, 0.2078 -0.687 0.3719, 0.2171 -0.687 0.3719, 0.2171 -0.6909 0.3811, 0.2171 -0.687 0.3811, 0.1758 -0.687 0.3811, 0.1758 -0.6909 0.3811, 0.2078 -0.687 0.3811, 0.1758 -0.6909 0.301, 0.1758 -0.687 0.301, 0.2078 -0.687 0.301, 0.2833 -0.6909 0.3228, 0.2798 -0.6909 0.3185, 0.2871 -0.6909 0.3123, 0.2789 -0.6909 0.3177, 0.2788 -0.6909 0.3063, 0.2737 -0.6909 0.3141, 0.2697 -0.6909 0.3027, 0.2671 -0.6909 0.3115, 0.256 -0.6909 0.301, 0.256 -0.6909 0.3102, 0.234 -0.6909 0.301, 0.2443 -0.6909 0.3102, 0.234 -0.6909 0.3811, 0.2443 -0.6909 0.3719, 0.2569 -0.6909 0.3811, 0.2564 -0.6909 0.3719, 0.2691 -0.6909 0.3798, 0.2667 -0.6909 0.3708, 0.2787 -0.6909 0.3762, 0.2737 -0.6909 0.3683, 0.2871 -0.6909 0.3705, 0.2796 -0.6909 0.3644, 0.2899 -0.6909 0.3678, 0.2817 -0.6909 0.3622, 0.2949 -0.6909 0.3608, 0.2849 -0.6909 0.3577, 0.2979 -0.6909 0.3532, 0.2871 -0.6909 0.3519, 0.2992 -0.6909 0.3421, 0.2883 -0.6909 0.3418, 0.299 -0.6909 0.337, 0.2879 -0.6909 0.3357, 0.297 -0.6909 0.3276, 0.2862 -0.6909 0.3286, 0.2931 -0.6909 0.3194, 0.256 -0.687 0.301, 0.234 -0.687 0.301, 0.2871 -0.687 0.3123, 0.2697 -0.687 0.3027, 0.2707 -0.687 0.3031, 0.2788 -0.687 0.3063, 0.2931 -0.687 0.3194, 0.297 -0.687 0.3276, 0.299 -0.687 0.337, 0.2992 -0.687 0.3421, 0.2979 -0.687 0.3532, 0.2949 -0.687 0.3608, 0.2899 -0.687 0.3678, 0.2871 -0.687 0.3705, 0.2569 -0.687 0.3811, 0.2787 -0.687 0.3762, 0.2707 -0.687 0.3792, 0.2691 -0.687 0.3798, 0.234 -0.687 0.3811, 0.2564 -0.687 0.3719, 0.2443 -0.687 0.3719, 0.2443 -0.687 0.3102, 0.256 -0.687 0.3102, 0.2798 -0.687 0.3185, 0.2789 -0.687 0.3177, 0.2737 -0.687 0.3141, 0.2671 -0.687 0.3115, 0.2883 -0.687 0.3418, 0.2879 -0.687 0.3357, 0.2862 -0.687 0.3286, 0.2833 -0.687 0.3228, 0.2796 -0.687 0.3644, 0.2817 -0.687 0.3622, 0.2849 -0.687 0.3577, 0.2871 -0.687 0.3519, 0.2667 -0.687 0.3708, 0.2737 -0.687 0.3683
            ]
        }
        coordIndex [
            0,1,2,-1,2,1,3,-1,4,0,5,-1,5,0,2,-1,6,4,7,-1,7,4,5,-1,8,6,9,-1,9,6,7,-1,10,8,11,-1,11,8,9,-1,1,10,3,-1,3,10,11,-1,6,8,4,-1,4,8,10,-1,4,10,0,-1,0,10,1,-1,12,13,14,-1,14,13,15,-1,15,16,14,-1,14,16,17,-1,14,17,18,-1,18,17,19,-1,18,19,20,-1,21,20,22,-1,22,20,19,-1,21,22,23,-1,21,23,24,-1,24,23,25,-1,24,25,26,-1,26,25,27,-1,26,27,28,-1,28,27,29,-1,28,29,30,-1,30,29,31,-1,30,31,32,-1,32,31,33,-1,32,33,34,-1,34,33,35,-1,34,35,36,-1,36,35,37,-1,36,37,38,-1,38,37,39,-1,38,39,40,-1,40,39,41,-1,40,41,42,-1,42,41,43,-1,42,43,44,-1,44,43,45,-1,44,45,46,-1,46,45,47,-1,46,47,48,-1,48,47,49,-1,48,49,50,-1,50,49,51,-1,50,51,52,-1,52,51,53,-1,52,53,54,-1,54,53,55,-1,54,55,56,-1,56,55,57,-1,56,57,58,-1,58,57,59,-1,58,59,60,-1,60,59,61,-1,60,61,62,-1,62,61,63,-1,62,63,64,-1,65,64,66,-1,66,64,63,-1,67,68,69,-1,65,66,70,-1,65,70,71,-1,71,70,72,-1,71,72,69,-1,69,72,73,-1,69,73,67,-1,68,67,74,-1,68,74,75,-1,74,76,75,-1,75,76,77,-1,75,77,78,-1,78,77,79,-1,78,79,80,-1,80,79,81,-1,80,81,82,-1,82,81,83,-1,84,85,83,-1,83,85,86,-1,83,86,82,-1,84,87,85,-1,85,87,88,-1,85,88,89,-1,89,88,90,-1,89,90,91,-1,91,90,92,-1,93,94,92,-1,92,94,95,-1,92,95,91,-1,93,96,94,-1,94,96,97,-1,94,97,98,-1,13,12,99,-1,98,97,100,-1,98,100,101,-1,101,100,102,-1,101,102,103,-1,103,102,104,-1,103,104,99,-1,99,104,105,-1,99,105,13,-1,62,64,65,-1,52,80,50,-1,50,80,82,-1,50,82,48,-1,48,82,86,-1,48,86,46,-1,91,44,89,-1,89,44,46,-1,89,46,85,-1,85,46,86,-1,62,65,60,-1,60,65,71,-1,60,71,58,-1,58,71,69,-1,58,69,56,-1,56,69,68,-1,56,68,54,-1,54,68,75,-1,54,75,52,-1,52,75,78,-1,52,78,80,-1,20,21,18,-1,18,21,24,-1,18,24,14,-1,14,24,26,-1,14,26,12,-1,12,26,28,-1,12,28,99,-1,99,28,30,-1,99,30,103,-1,103,30,32,-1,103,32,101,-1,101,32,34,-1,101,34,98,-1,98,34,36,-1,98,36,94,-1,94,36,38,-1,94,38,95,-1,95,38,40,-1,95,40,91,-1,91,40,42,-1,91,42,44,-1,106,107,108,-1,108,107,109,-1,110,111,112,-1,112,111,106,-1,112,106,108,-1,113,111,114,-1,114,111,110,-1,113,114,115,-1,115,114,116,-1,115,116,117,-1,118,115,119,-1,119,115,117,-1,120,121,122,-1,122,121,118,-1,122,118,119,-1,123,121,124,-1,124,121,120,-1,123,124,125,-1,125,124,126,-1,125,126,127,-1,128,125,129,-1,129,125,127,-1,130,131,132,-1,132,131,128,-1,132,128,129,-1,133,131,134,-1,134,131,130,-1,133,134,107,-1,107,134,135,-1,107,135,109,-1,133,107,106,-1,106,111,133,-1,133,111,113,-1,133,113,131,-1,125,128,123,-1,123,128,131,-1,123,131,121,-1,121,131,113,-1,121,113,118,-1,118,113,115,-1,136,137,138,-1,138,137,139,-1,138,139,140,-1,140,139,141,-1,140,141,142,-1,142,141,143,-1,142,143,144,-1,144,143,145,-1,144,145,146,-1,146,145,147,-1,146,147,148,-1,148,147,149,-1,148,149,150,-1,150,149,151,-1,150,151,152,-1,152,151,153,-1,152,153,154,-1,154,153,155,-1,154,155,156,-1,156,155,157,-1,156,157,158,-1,158,157,159,-1,158,159,160,-1,160,159,161,-1,160,161,162,-1,162,161,163,-1,162,163,164,-1,164,163,165,-1,164,165,166,-1,166,165,167,-1,166,167,168,-1,168,167,169,-1,168,169,170,-1,170,169,136,-1,170,136,138,-1,144,146,171,-1,171,146,172,-1,173,138,140,-1,144,171,174,-1,144,174,142,-1,142,174,175,-1,142,175,140,-1,140,175,176,-1,140,176,173,-1,138,173,177,-1,138,177,170,-1,170,177,178,-1,170,178,168,-1,168,178,179,-1,168,179,166,-1,166,179,180,-1,166,180,164,-1,164,180,181,-1,164,181,162,-1,162,181,182,-1,162,182,160,-1,160,182,183,-1,160,183,158,-1,158,183,184,-1,158,184,156,-1,185,150,152,-1,156,184,186,-1,156,186,154,-1,154,186,187,-1,154,187,152,-1,152,187,188,-1,152,188,185,-1,148,150,189,-1,189,150,185,-1,146,148,172,-1,172,148,189,-1,151,149,190,-1,190,149,191,-1,149,147,191,-1,191,147,192,-1,147,145,192,-1,192,145,193,-1,137,194,195,-1,137,195,139,-1,139,195,196,-1,139,196,141,-1,141,196,197,-1,141,197,143,-1,143,197,193,-1,143,193,145,-1,165,198,199,-1,165,199,167,-1,167,199,200,-1,167,200,169,-1,169,200,201,-1,169,201,136,-1,136,201,194,-1,136,194,137,-1,157,202,203,-1,157,203,159,-1,159,203,204,-1,159,204,161,-1,161,204,205,-1,161,205,163,-1,163,205,198,-1,163,198,165,-1,151,190,206,-1,151,206,153,-1,153,206,207,-1,153,207,155,-1,155,207,202,-1,155,202,157,-1,
        ]
    }
}
Shape{
    appearance Appearance {
        material  Material 	{
            diffuseColor 0.25098039215686274 0.25098039215686274 0.25098039215686274
            specularColor 0.12549019607843137 0.12549019607843137 0.12549019607843137
            ambientIntensity 0.251
            transparency 0.0
            shininess 0.5
        }
    }
    geometry IndexedFaceSet {
        ccw TRUE
        solid FALSE
        coord DEF co Coordinate {
            point [
                0.2789 -0.687 0.3177, 0.2798 -0.687 0.3185, 0.2564 -0.687 0.3719, 0.2443 -0.687 0.3719, 0.2443 -0.687 0.3102, 0.256 -0.687 0.3102, 0.2671 -0.687 0.3115, 0.2737 -0.687 0.3141, 0.2833 -0.687 0.3228, 0.2862 -0.687 0.3286, 0.2879 -0.687 0.3357, 0.2883 -0.687 0.3418, 0.2871 -0.687 0.3519, 0.2849 -0.687 0.3577, 0.2817 -0.687 0.3622, 0.2796 -0.687 0.3644, 0.2667 -0.687 0.3708, 0.2737 -0.687 0.3683
            ]
        }
        coordIndex [
            0,1,2,-1,3,4,2,-1,2,4,5,-1,5,6,2,-1,2,6,7,-1,2,7,0,-1,1,8,2,-1,2,8,9,-1,2,9,10,-1,10,11,2,-1,2,11,12,-1,2,12,13,-1,13,14,2,-1,2,14,15,-1,2,15,16,-1,16,15,17,-1,
        ]
    }
}
Shape{
    appearance Appearance {
        material  Material 	{
            diffuseColor 1.0 1.0 1.0
            specularColor 0.5019607843137255 0.5019607843137255 0.5019607843137255
            ambientIntensity 1.0
            transparency 0.0
            shininess 0.5
        }
    }
    geometry IndexedFaceSet {
        ccw TRUE
        solid FALSE
        coord DEF co Coordinate {
            point [
                0.326 -0.6909 0.332, 0.3228 -0.6909 0.3229, 0.3529 -0.6909 0.332, 0.3561 -0.6909 0.3229, 0.338 -0.6909 0.3653, 0.3341 -0.6909 0.3811, 0.3036 -0.6909 0.301, 0.3151 -0.6909 0.301, 0.3387 -0.6909 0.3677, 0.3393 -0.6909 0.3709, 0.3452 -0.6909 0.3811, 0.3396 -0.6909 0.3709, 0.3402 -0.6909 0.3675, 0.3408 -0.6909 0.3653, 0.3757 -0.6909 0.301, 0.3643 -0.6909 0.301, 0.3452 -0.687 0.3811, 0.3757 -0.687 0.301, 0.3341 -0.687 0.3811, 0.3036 -0.687 0.301, 0.3267 -0.687 0.3616, 0.3151 -0.687 0.301, 0.3228 -0.687 0.3229, 0.3561 -0.687 0.3229, 0.3267 -0.687 0.3229, 0.3643 -0.687 0.301, 0.326 -0.687 0.332, 0.3529 -0.687 0.332, 0.3408 -0.687 0.3653, 0.3396 -0.687 0.3709, 0.3402 -0.687 0.3675, 0.3393 -0.687 0.3709, 0.338 -0.687 0.3653, 0.3387 -0.687 0.3677
            ]
        }
        coordIndex [
            0,1,2,-1,2,1,3,-1,4,5,0,-1,0,5,6,-1,0,6,1,-1,1,6,7,-1,4,8,5,-1,5,8,9,-1,5,9,10,-1,10,9,11,-1,10,11,12,-1,12,13,10,-1,10,13,2,-1,10,2,14,-1,14,2,3,-1,14,3,15,-1,10,14,16,-1,16,14,17,-1,5,10,18,-1,18,10,16,-1,19,6,20,-1,20,6,5,-1,20,5,18,-1,7,6,21,-1,21,6,19,-1,1,7,22,-1,22,7,21,-1,23,3,24,-1,24,3,1,-1,24,1,22,-1,15,3,25,-1,25,3,23,-1,14,15,17,-1,17,15,25,-1,0,2,26,-1,26,2,27,-1,2,13,27,-1,27,13,28,-1,11,29,30,-1,11,30,12,-1,12,30,28,-1,12,28,13,-1,11,9,29,-1,29,9,31,-1,4,32,33,-1,4,33,8,-1,8,33,31,-1,8,31,9,-1,4,0,32,-1,32,0,26,-1,
        ]
    }
}
Shape{
    appearance Appearance {
        material  Material 	{
            diffuseColor 0.25098039215686274 0.25098039215686274 0.25098039215686274
            specularColor 0.12549019607843137 0.12549019607843137 0.12549019607843137
            ambientIntensity 0.251
            transparency 0.0
            shininess 0.5
        }
    }
    geometry IndexedFaceSet {
        ccw TRUE
        solid FALSE
        coord DEF co Coordinate {
            point [
                0.3396 -0.687 0.3709, 0.3393 -0.687 0.3709, 0.3402 -0.687 0.3675, 0.3387 -0.687 0.3677, 0.3408 -0.687 0.3653, 0.338 -0.687 0.3653, 0.3529 -0.687 0.332, 0.326 -0.687 0.332
            ]
        }
        coordIndex [
            0,1,2,-1,2,1,3,-1,2,3,4,-1,4,3,5,-1,4,5,6,-1,6,5,7,-1,
        ]
    }
}
Shape{
    appearance Appearance {
        material  Material 	{
            diffuseColor 1.0 1.0 1.0
            specularColor 0.5019607843137255 0.5019607843137255 0.5019607843137255
            ambientIntensity 1.0
            transparency 0.0
            shininess 0.5
        }
    }
    geometry IndexedFaceSet {
        ccw TRUE
        solid FALSE
        coord DEF co Coordinate {
            point [
                0.0974 -0.6909 0.1832, 0.0974 -0.6909 0.174, 0.0974 -0.687 0.1832, 0.0974 -0.687 0.174, 0.0647 -0.6909 0.1832, 0.0647 -0.687 0.1832, 0.0647 -0.6909 0.2101, 0.0647 -0.687 0.2101, 0.0933 -0.6909 0.2101, 0.0933 -0.687 0.2101, 0.0933 -0.6909 0.2193, 0.0933 -0.687 0.2193, 0.0647 -0.6909 0.2193, 0.0647 -0.687 0.2193, 0.0647 -0.6909 0.2449, 0.0647 -0.687 0.2449, 0.0956 -0.6909 0.2449, 0.0956 -0.687 0.2449, 0.0956 -0.6909 0.2541, 0.0956 -0.687 0.2541, 0.0543 -0.6909 0.2541, 0.0543 -0.687 0.2541, 0.0543 -0.6909 0.174, 0.0543 -0.687 0.174, 0.1427 -0.6909 0.1829, 0.1429 -0.6909 0.1829, 0.1423 -0.6909 0.1921, 0.121 -0.6909 0.1983, 0.1232 -0.6909 0.1994, 0.1177 -0.6909 0.2058, 0.1429 -0.6909 0.1966, 0.153 -0.6909 0.2108, 0.1429 -0.6909 0.1972, 0.1429 -0.6909 0.2027, 0.1429 -0.6909 0.174, 0.153 -0.6909 0.174, 0.1393 -0.6909 0.2318, 0.1371 -0.6909 0.2232, 0.1433 -0.6909 0.2304, 0.1389 -0.6909 0.222, 0.1408 -0.6909 0.1885, 0.1386 -0.6909 0.1856, 0.1409 -0.6909 0.1803, 0.1374 -0.6909 0.1843, 0.1377 -0.6909 0.1769, 0.1345 -0.6909 0.1824, 0.1345 -0.6909 0.1748, 0.1315 -0.6909 0.1813, 0.1304 -0.6909 0.1733, 0.1277 -0.6909 0.1809, 0.1251 -0.6909 0.1727, 0.1244 -0.6909 0.1813, 0.1191 -0.6909 0.1734, 0.1221 -0.6909 0.1821, 0.1153 -0.6909 0.1748, 0.1201 -0.6909 0.1835, 0.1119 -0.6909 0.1772, 0.1192 -0.6909 0.1843, 0.126 -0.6909 0.208, 0.1295 -0.6909 0.2009, 0.1429 -0.6909 0.2104, 0.1126 -0.6909 0.2272, 0.1126 -0.6909 0.2175, 0.1146 -0.6909 0.2284, 0.1195 -0.6909 0.2218, 0.1221 -0.6909 0.2313, 0.1258 -0.6909 0.2238, 0.1323 -0.6909 0.2325, 0.1313 -0.6909 0.2244, 0.1348 -0.6909 0.224, 0.1426 -0.6909 0.2148, 0.152 -0.6909 0.2193, 0.1416 -0.6909 0.2184, 0.1503 -0.6909 0.2236, 0.1404 -0.6909 0.2204, 0.1482 -0.6909 0.2267, 0.1464 -0.6909 0.2284, 0.1198 -0.6909 0.1974, 0.1137 -0.6909 0.2036, 0.1186 -0.6909 0.1959, 0.1107 -0.6909 0.2009, 0.1178 -0.6909 0.194, 0.1087 -0.6909 0.1976, 0.1173 -0.6909 0.1917, 0.1075 -0.6909 0.194, 0.1172 -0.6909 0.1902, 0.107 -0.6909 0.1893, 0.1174 -0.6909 0.1879, 0.1076 -0.6909 0.1844, 0.1181 -0.6909 0.186, 0.1089 -0.6909 0.1811, 0.111 -0.6909 0.1781, 0.1323 -0.687 0.2325, 0.1221 -0.687 0.2313, 0.1146 -0.687 0.2284, 0.1126 -0.687 0.2272, 0.1126 -0.687 0.2175, 0.1195 -0.687 0.2218, 0.1258 -0.687 0.2238, 0.1313 -0.687 0.2244, 0.1348 -0.687 0.224, 0.1371 -0.687 0.2232, 0.1389 -0.687 0.222, 0.1404 -0.687 0.2204, 0.1416 -0.687 0.2184, 0.1426 -0.687 0.2148, 0.1429 -0.687 0.2104, 0.126 -0.687 0.208, 0.1177 -0.687 0.2058, 0.1137 -0.687 0.2036, 0.1107 -0.687 0.2009, 0.1087 -0.687 0.1976, 0.1075 -0.687 0.194, 0.107 -0.687 0.1893, 0.1076 -0.687 0.1844, 0.1089 -0.687 0.1811, 0.111 -0.687 0.1781, 0.1119 -0.687 0.1772, 0.1251 -0.687 0.1727, 0.1193 -0.687 0.1733, 0.1191 -0.687 0.1734, 0.1153 -0.687 0.1748, 0.1304 -0.687 0.1733, 0.1306 -0.687 0.1733, 0.1345 -0.687 0.1748, 0.1377 -0.687 0.1769, 0.1409 -0.687 0.1803, 0.1427 -0.687 0.1829, 0.1429 -0.687 0.1829, 0.1429 -0.687 0.174, 0.153 -0.687 0.174, 0.153 -0.687 0.2108, 0.152 -0.687 0.2193, 0.1503 -0.687 0.2236, 0.1482 -0.687 0.2267, 0.1464 -0.687 0.2284, 0.1433 -0.687 0.2304, 0.1393 -0.687 0.2318, 0.1198 -0.687 0.1974, 0.121 -0.687 0.1983, 0.1232 -0.687 0.1994, 0.1295 -0.687 0.2009, 0.1172 -0.687 0.1902, 0.1173 -0.687 0.1917, 0.1178 -0.687 0.194, 0.1186 -0.687 0.1959, 0.1201 -0.687 0.1835, 0.1192 -0.687 0.1843, 0.1181 -0.687 0.186, 0.1174 -0.687 0.1879, 0.1277 -0.687 0.1809, 0.1244 -0.687 0.1813, 0.1221 -0.687 0.1821, 0.1386 -0.687 0.1856, 0.1374 -0.687 0.1843, 0.1345 -0.687 0.1824, 0.1315 -0.687 0.1813, 0.1429 -0.687 0.1972, 0.1429 -0.687 0.1966, 0.1423 -0.687 0.1921, 0.1408 -0.687 0.1885, 0.1429 -0.687 0.2027
            ]
        }
        coordIndex [
            0,1,2,-1,2,1,3,-1,4,0,5,-1,5,0,2,-1,6,4,7,-1,7,4,5,-1,8,6,9,-1,9,6,7,-1,10,8,11,-1,11,8,9,-1,12,10,13,-1,13,10,11,-1,14,12,15,-1,15,12,13,-1,16,14,17,-1,17,14,15,-1,18,16,19,-1,19,16,17,-1,20,18,21,-1,21,18,19,-1,22,20,23,-1,23,20,21,-1,1,22,3,-1,3,22,23,-1,22,1,0,-1,0,4,22,-1,22,4,6,-1,22,6,20,-1,16,18,14,-1,14,18,20,-1,14,20,12,-1,12,20,6,-1,12,6,10,-1,10,6,8,-1,24,25,26,-1,27,28,29,-1,30,31,32,-1,32,31,33,-1,34,35,25,-1,25,35,31,-1,25,31,26,-1,26,31,30,-1,36,37,38,-1,38,37,39,-1,26,40,24,-1,24,40,41,-1,24,41,42,-1,42,41,43,-1,42,43,44,-1,44,43,45,-1,44,45,46,-1,46,45,47,-1,46,47,48,-1,48,47,49,-1,48,49,50,-1,50,49,51,-1,50,51,52,-1,52,51,53,-1,52,53,54,-1,54,53,55,-1,54,55,56,-1,56,55,57,-1,29,28,58,-1,58,28,59,-1,58,59,60,-1,61,62,63,-1,63,62,64,-1,63,64,65,-1,65,64,66,-1,65,66,67,-1,67,66,68,-1,67,68,36,-1,36,68,69,-1,36,69,37,-1,59,33,60,-1,60,33,31,-1,60,31,70,-1,70,31,71,-1,70,71,72,-1,72,71,73,-1,72,73,74,-1,74,73,75,-1,74,75,39,-1,39,75,76,-1,39,76,38,-1,27,29,77,-1,77,29,78,-1,77,78,79,-1,79,78,80,-1,79,80,81,-1,81,80,82,-1,81,82,83,-1,83,82,84,-1,83,84,85,-1,85,84,86,-1,85,86,87,-1,87,86,88,-1,87,88,89,-1,89,88,90,-1,89,90,57,-1,57,90,91,-1,57,91,56,-1,67,92,93,-1,67,93,65,-1,65,93,94,-1,65,94,63,-1,63,94,95,-1,63,95,61,-1,62,61,96,-1,96,61,95,-1,62,96,97,-1,62,97,64,-1,64,97,98,-1,64,98,66,-1,66,98,99,-1,66,99,68,-1,68,99,100,-1,68,100,69,-1,69,100,101,-1,69,101,37,-1,37,101,102,-1,37,102,39,-1,39,102,103,-1,39,103,74,-1,74,103,104,-1,74,104,72,-1,72,104,105,-1,72,105,70,-1,70,105,106,-1,70,106,60,-1,58,60,107,-1,107,60,106,-1,58,107,108,-1,58,108,29,-1,29,108,109,-1,29,109,78,-1,78,109,110,-1,78,110,80,-1,80,110,111,-1,80,111,82,-1,82,111,112,-1,82,112,84,-1,84,112,113,-1,84,113,86,-1,86,113,114,-1,86,114,88,-1,88,114,115,-1,88,115,90,-1,90,115,116,-1,90,116,91,-1,91,116,117,-1,91,117,56,-1,118,50,119,-1,119,50,52,-1,119,52,120,-1,120,52,54,-1,120,54,121,-1,121,54,56,-1,121,56,117,-1,50,118,122,-1,50,122,48,-1,48,122,123,-1,48,123,46,-1,123,124,46,-1,46,124,125,-1,46,125,44,-1,44,125,126,-1,44,126,42,-1,42,126,127,-1,42,127,24,-1,25,24,128,-1,128,24,127,-1,34,25,129,-1,129,25,128,-1,35,34,130,-1,130,34,129,-1,31,35,131,-1,131,35,130,-1,31,131,132,-1,31,132,71,-1,71,132,133,-1,71,133,73,-1,73,133,134,-1,73,134,75,-1,75,134,135,-1,75,135,76,-1,76,135,136,-1,76,136,38,-1,38,136,137,-1,38,137,36,-1,36,137,92,-1,36,92,67,-1,77,138,139,-1,77,139,27,-1,27,139,140,-1,27,140,28,-1,28,140,141,-1,28,141,59,-1,85,142,143,-1,85,143,83,-1,83,143,144,-1,83,144,81,-1,81,144,145,-1,81,145,79,-1,79,145,138,-1,79,138,77,-1,55,146,147,-1,55,147,57,-1,57,147,148,-1,57,148,89,-1,89,148,149,-1,89,149,87,-1,87,149,142,-1,87,142,85,-1,49,150,151,-1,49,151,51,-1,51,151,152,-1,51,152,53,-1,53,152,146,-1,53,146,55,-1,41,153,154,-1,41,154,43,-1,43,154,155,-1,43,155,45,-1,45,155,156,-1,45,156,47,-1,47,156,150,-1,47,150,49,-1,32,157,158,-1,32,158,30,-1,30,158,159,-1,30,159,26,-1,26,159,160,-1,26,160,40,-1,40,160,153,-1,40,153,41,-1,32,33,157,-1,157,33,161,-1,33,59,161,-1,161,59,141,-1,
        ]
    }
}
Shape{
    appearance Appearance {
        material  Material 	{
            diffuseColor 0.25098039215686274 0.25098039215686274 0.25098039215686274
            specularColor 0.12549019607843137 0.12549019607843137 0.12549019607843137
            ambientIntensity 0.251
            transparency 0.0
            shininess 0.5
        }
    }
    geometry IndexedFaceSet {
        ccw TRUE
        solid FALSE
        coord DEF co Coordinate {
            point [
                0.1429 -0.687 0.1966, 0.1429 -0.687 0.1972, 0.1198 -0.687 0.1974, 0.1429 -0.687 0.2027, 0.1295 -0.687 0.2009, 0.1232 -0.687 0.1994, 0.121 -0.687 0.1983, 0.1423 -0.687 0.1921, 0.1186 -0.687 0.1959, 0.1408 -0.687 0.1885, 0.1192 -0.687 0.1843, 0.1201 -0.687 0.1835, 0.1374 -0.687 0.1843, 0.1181 -0.687 0.186, 0.1345 -0.687 0.1824, 0.1315 -0.687 0.1813, 0.1277 -0.687 0.1809, 0.1178 -0.687 0.194, 0.1173 -0.687 0.1917, 0.1386 -0.687 0.1856, 0.1172 -0.687 0.1902, 0.1174 -0.687 0.1879, 0.1221 -0.687 0.1821, 0.1244 -0.687 0.1813
            ]
        }
        coordIndex [
            0,1,2,-1,1,3,4,-1,4,5,1,-1,1,5,6,-1,1,6,2,-1,0,2,7,-1,7,2,8,-1,7,8,9,-1,10,11,12,-1,10,12,13,-1,14,12,15,-1,15,12,16,-1,8,17,9,-1,9,17,18,-1,9,18,19,-1,19,18,20,-1,19,20,12,-1,12,20,21,-1,12,21,13,-1,11,22,12,-1,12,22,23,-1,12,23,16,-1,
        ]
    }
}
Shape{
    appearance Appearance {
        material  Material 	{
            diffuseColor 1.0 1.0 1.0
            specularColor 0.5019607843137255 0.5019607843137255 0.5019607843137255
            ambientIntensity 1.0
            transparency 0.0
            shininess 0.5
        }
    }
    geometry IndexedFaceSet {
        ccw TRUE
        solid FALSE
        coord DEF co Coordinate {
            point [
                0.1665 -0.687 0.1864, 0.1665 -0.6909 0.1864, 0.1711 -0.6909 0.1837, 0.183 -0.6909 0.1809, 0.183 -0.687 0.1809, 0.1774 -0.687 0.1815, 0.1774 -0.6909 0.1815, 0.1712 -0.687 0.1836, 0.1711 -0.687 0.1837, 0.1665 -0.6909 0.176, 0.1665 -0.687 0.176, 0.1736 -0.6909 0.1736, 0.1712 -0.687 0.1744, 0.1821 -0.687 0.1727, 0.1821 -0.6909 0.1727, 0.1756 -0.687 0.1733, 0.1736 -0.687 0.1736, 0.1911 -0.6909 0.1738, 0.1877 -0.687 0.1733, 0.1911 -0.687 0.1738, 0.1964 -0.687 0.1758, 0.1964 -0.6909 0.1758, 0.1987 -0.687 0.1772, 0.1987 -0.6909 0.1772, 0.2016 -0.687 0.1797, 0.2016 -0.6909 0.1797, 0.2035 -0.687 0.1824, 0.2035 -0.6909 0.1824, 0.2047 -0.687 0.1856, 0.2047 -0.6909 0.1856, 0.2052 -0.687 0.1896, 0.2052 -0.6909 0.1896, 0.2048 -0.687 0.1933, 0.2048 -0.6909 0.1933, 0.2037 -0.687 0.1963, 0.2037 -0.6909 0.1963, 0.2018 -0.687 0.199, 0.2018 -0.6909 0.199, 0.1994 -0.687 0.2012, 0.1994 -0.6909 0.2012, 0.1928 -0.687 0.2049, 0.1928 -0.6909 0.2049, 0.1889 -0.687 0.2064, 0.1889 -0.6909 0.2064, 0.1827 -0.687 0.2091, 0.1827 -0.6909 0.2091, 0.1791 -0.687 0.2114, 0.1791 -0.6909 0.2114, 0.1782 -0.687 0.2124, 0.1782 -0.6909 0.2124, 0.1774 -0.687 0.2138, 0.1774 -0.6909 0.2138, 0.177 -0.687 0.2153, 0.177 -0.6909 0.2153, 0.1769 -0.687 0.2167, 0.1769 -0.6909 0.2167, 0.1771 -0.687 0.2183, 0.1771 -0.6909 0.2183, 0.1776 -0.687 0.2196, 0.1776 -0.6909 0.2196, 0.1785 -0.687 0.2209, 0.1785 -0.6909 0.2209, 0.18 -0.687 0.2222, 0.18 -0.6909 0.2222, 0.1822 -0.687 0.2234, 0.1822 -0.6909 0.2234, 0.1849 -0.687 0.2242, 0.1849 -0.6909 0.2242, 0.1879 -0.687 0.2244, 0.1879 -0.6909 0.2244, 0.1949 -0.687 0.2235, 0.1949 -0.6909 0.2235, 0.2006 -0.687 0.2213, 0.2006 -0.6909 0.2213, 0.2024 -0.687 0.2202, 0.2024 -0.6909 0.2202, 0.2024 -0.6909 0.23, 0.2024 -0.687 0.23, 0.1959 -0.687 0.2319, 0.1959 -0.6909 0.2319, 0.1889 -0.687 0.2325, 0.1889 -0.6909 0.2325, 0.1809 -0.687 0.2316, 0.1809 -0.6909 0.2316, 0.1755 -0.687 0.2295, 0.1755 -0.6909 0.2295, 0.173 -0.687 0.228, 0.173 -0.6909 0.228, 0.1712 -0.687 0.2263, 0.17 -0.6909 0.2253, 0.17 -0.687 0.2253, 0.1682 -0.687 0.2226, 0.1682 -0.6909 0.2226, 0.167 -0.687 0.2193, 0.167 -0.6909 0.2193, 0.1666 -0.687 0.2158, 0.1666 -0.6909 0.2158, 0.167 -0.687 0.2119, 0.167 -0.6909 0.2119, 0.1682 -0.687 0.2088, 0.1682 -0.6909 0.2088, 0.1695 -0.687 0.2067, 0.1695 -0.6909 0.2067, 0.1818 -0.687 0.1992, 0.1818 -0.6909 0.1992, 0.1758 -0.6909 0.2019, 0.1711 -0.687 0.205, 0.1711 -0.6909 0.205, 0.1712 -0.687 0.205, 0.1758 -0.687 0.2019, 0.1884 -0.687 0.1964, 0.1884 -0.6909 0.1964, 0.1923 -0.687 0.194, 0.1923 -0.6909 0.194, 0.1935 -0.687 0.1927, 0.1935 -0.6909 0.1927, 0.1943 -0.687 0.1914, 0.1943 -0.6909 0.1914, 0.1948 -0.687 0.1898, 0.1948 -0.6909 0.1898, 0.1949 -0.687 0.1886, 0.1949 -0.6909 0.1886, 0.1947 -0.687 0.1867, 0.1947 -0.6909 0.1867, 0.1942 -0.687 0.1853, 0.1942 -0.6909 0.1853, 0.1933 -0.687 0.184, 0.1933 -0.6909 0.184, 0.1921 -0.687 0.1829, 0.1921 -0.6909 0.1829, 0.1912 -0.687 0.1824, 0.1912 -0.6909 0.1824, 0.1886 -0.687 0.1814, 0.1886 -0.6909 0.1814, 0.1835 -0.687 0.1809, 0.1835 -0.6909 0.1809, 0.2549 -0.6909 0.2312, 0.2653 -0.6909 0.2312, 0.2549 -0.687 0.2312, 0.2653 -0.687 0.2312, 0.2393 -0.6909 0.1881, 0.2393 -0.687 0.1881, 0.2385 -0.687 0.1855, 0.2385 -0.6909 0.1855, 0.238 -0.687 0.1835, 0.238 -0.6909 0.1835, 0.2378 -0.6909 0.1835, 0.2378 -0.687 0.1835, 0.2365 -0.6909 0.1882, 0.2365 -0.687 0.1882, 0.2216 -0.687 0.2312, 0.2216 -0.6909 0.2312, 0.2264 -0.687 0.2173, 0.2104 -0.6909 0.2312, 0.2104 -0.687 0.2312, 0.2328 -0.687 0.1741, 0.2328 -0.6909 0.1741, 0.2264 -0.687 0.1904, 0.2284 -0.687 0.1638, 0.2284 -0.6909 0.1638, 0.2325 -0.687 0.1733, 0.2264 -0.687 0.1602, 0.2264 -0.6909 0.1601, 0.2264 -0.687 0.1601, 0.2245 -0.687 0.158, 0.2245 -0.6909 0.158, 0.223 -0.687 0.1569, 0.223 -0.6909 0.1569, 0.2208 -0.687 0.156, 0.2208 -0.6909 0.156, 0.2181 -0.687 0.1557, 0.2181 -0.6909 0.1557, 0.2145 -0.687 0.1562, 0.2145 -0.6909 0.1562, 0.2125 -0.687 0.1568, 0.2125 -0.6909 0.1568, 0.2125 -0.6909 0.1479, 0.2125 -0.687 0.1479, 0.2167 -0.687 0.1472, 0.2167 -0.6909 0.1472, 0.2189 -0.687 0.1471, 0.2189 -0.6909 0.1471, 0.223 -0.687 0.1476, 0.223 -0.6909 0.1476, 0.2264 -0.687 0.1489, 0.2269 -0.6909 0.1491, 0.2269 -0.687 0.1491, 0.2304 -0.687 0.1515, 0.2304 -0.6909 0.1515, 0.2311 -0.687 0.1521, 0.2311 -0.6909 0.1521, 0.2348 -0.687 0.1565, 0.2348 -0.6909 0.1565, 0.2393 -0.687 0.1654, 0.2393 -0.6909 0.1654, 0.2425 -0.687 0.1733, 0.3192 -0.6909 0.1832, 0.3192 -0.6909 0.174, 0.3192 -0.687 0.1832, 0.3192 -0.687 0.174, 0.2864 -0.687 0.1832, 0.2864 -0.6909 0.1832, 0.3014 -0.687 0.1832, 0.2864 -0.6909 0.2101, 0.2864 -0.687 0.2101, 0.3151 -0.687 0.2101, 0.3151 -0.6909 0.2101, 0.3014 -0.687 0.2101, 0.3151 -0.6909 0.2193, 0.3151 -0.687 0.2193, 0.2864 -0.687 0.2193, 0.2864 -0.6909 0.2193, 0.3014 -0.687 0.2193, 0.2864 -0.6909 0.2449, 0.2864 -0.687 0.2449, 0.3173 -0.687 0.2449, 0.3173 -0.6909 0.2449, 0.3014 -0.687 0.2449, 0.3173 -0.6909 0.2541, 0.3173 -0.687 0.2541, 0.2761 -0.687 0.2541, 0.2761 -0.6909 0.2541, 0.3014 -0.687 0.2541, 0.2761 -0.6909 0.174, 0.2761 -0.687 0.174, 0.3014 -0.687 0.174, 0.3836 -0.6909 0.1958, 0.38 -0.6909 0.1915, 0.3874 -0.6909 0.1852, 0.3792 -0.6909 0.1907, 0.3791 -0.6909 0.1793, 0.374 -0.6909 0.1871, 0.37 -0.6909 0.1757, 0.3674 -0.6909 0.1845, 0.3563 -0.6909 0.174, 0.3562 -0.6909 0.1832, 0.3343 -0.6909 0.174, 0.3446 -0.6909 0.1832, 0.3343 -0.6909 0.2541, 0.3446 -0.6909 0.2449, 0.3571 -0.6909 0.2541, 0.3567 -0.6909 0.2449, 0.3693 -0.6909 0.2527, 0.367 -0.6909 0.2438, 0.379 -0.6909 0.2492, 0.374 -0.6909 0.2412, 0.3874 -0.6909 0.2435, 0.3798 -0.6909 0.2374, 0.3902 -0.6909 0.2408, 0.382 -0.6909 0.2352, 0.3952 -0.6909 0.2338, 0.3851 -0.6909 0.2307, 0.3981 -0.6909 0.2262, 0.3874 -0.6909 0.2249, 0.3995 -0.6909 0.2151, 0.3886 -0.6909 0.2148, 0.3992 -0.6909 0.21, 0.3882 -0.6909 0.2086, 0.3973 -0.6909 0.2006, 0.3865 -0.6909 0.2016, 0.3934 -0.6909 0.1923, 0.3563 -0.687 0.174, 0.3343 -0.687 0.174, 0.37 -0.687 0.1757, 0.3791 -0.687 0.1793, 0.3874 -0.687 0.1852, 0.3934 -0.687 0.1923, 0.3973 -0.687 0.2006, 0.3992 -0.687 0.21, 0.3995 -0.687 0.2151, 0.3981 -0.687 0.2262, 0.3952 -0.687 0.2338, 0.3902 -0.687 0.2408, 0.3874 -0.687 0.2435, 0.379 -0.687 0.2492, 0.3693 -0.687 0.2527, 0.3571 -0.687 0.2541, 0.3343 -0.687 0.2541, 0.3567 -0.687 0.2449, 0.3446 -0.687 0.2449, 0.3446 -0.687 0.1832, 0.3562 -0.687 0.1832, 0.38 -0.687 0.1915, 0.3792 -0.687 0.1907, 0.374 -0.687 0.1871, 0.3674 -0.687 0.1845, 0.3886 -0.687 0.2148, 0.3882 -0.687 0.2086, 0.3865 -0.687 0.2016, 0.3836 -0.687 0.1958, 0.3798 -0.687 0.2374, 0.382 -0.687 0.2352, 0.3851 -0.687 0.2307, 0.3874 -0.687 0.2249, 0.367 -0.687 0.2438, 0.374 -0.687 0.2412
            ]
        }
        coordIndex [
            0,1,2,-1,3,4,5,-1,3,5,6,-1,6,5,7,-1,6,7,2,-1,2,7,8,-1,2,8,0,-1,9,1,10,-1,10,1,0,-1,9,10,11,-1,11,10,12,-1,13,14,15,-1,15,14,11,-1,15,11,16,-1,16,11,12,-1,14,13,17,-1,17,13,18,-1,18,19,17,-1,17,19,20,-1,17,20,21,-1,21,20,22,-1,21,22,23,-1,23,22,24,-1,23,24,25,-1,25,24,26,-1,25,26,27,-1,27,26,28,-1,27,28,29,-1,29,28,30,-1,29,30,31,-1,31,30,32,-1,31,32,33,-1,33,32,34,-1,33,34,35,-1,35,34,36,-1,35,36,37,-1,37,36,38,-1,37,38,39,-1,39,38,40,-1,39,40,41,-1,41,40,42,-1,41,42,43,-1,43,42,44,-1,43,44,45,-1,45,44,46,-1,45,46,47,-1,47,46,48,-1,47,48,49,-1,49,48,50,-1,49,50,51,-1,51,50,52,-1,51,52,53,-1,53,52,54,-1,53,54,55,-1,55,54,56,-1,55,56,57,-1,57,56,58,-1,57,58,59,-1,59,58,60,-1,59,60,61,-1,61,60,62,-1,61,62,63,-1,63,62,64,-1,63,64,65,-1,65,64,66,-1,65,66,67,-1,67,66,68,-1,67,68,69,-1,69,68,70,-1,69,70,71,-1,71,70,72,-1,71,72,73,-1,73,72,74,-1,73,74,75,-1,76,75,77,-1,77,75,74,-1,76,77,78,-1,76,78,79,-1,79,78,80,-1,79,80,81,-1,81,80,82,-1,81,82,83,-1,83,82,84,-1,83,84,85,-1,85,84,86,-1,85,86,87,-1,86,88,87,-1,87,88,89,-1,88,90,89,-1,89,90,91,-1,89,91,92,-1,92,91,93,-1,92,93,94,-1,94,93,95,-1,94,95,96,-1,96,95,97,-1,96,97,98,-1,98,97,99,-1,98,99,100,-1,100,99,101,-1,100,101,102,-1,103,104,105,-1,102,101,106,-1,102,106,107,-1,107,106,108,-1,107,108,105,-1,105,108,109,-1,105,109,103,-1,104,103,110,-1,104,110,111,-1,111,110,112,-1,111,112,113,-1,113,112,114,-1,113,114,115,-1,115,114,116,-1,115,116,117,-1,117,116,118,-1,117,118,119,-1,119,118,120,-1,119,120,121,-1,121,120,122,-1,121,122,123,-1,123,122,124,-1,123,124,125,-1,125,124,126,-1,125,126,127,-1,127,126,128,-1,127,128,129,-1,129,128,130,-1,129,130,131,-1,131,130,132,-1,131,132,133,-1,133,132,134,-1,133,134,135,-1,135,134,4,-1,135,4,3,-1,61,63,85,-1,85,63,83,-1,111,43,104,-1,104,43,45,-1,21,23,127,-1,127,23,25,-1,127,25,125,-1,125,25,27,-1,125,27,123,-1,123,27,29,-1,123,29,121,-1,121,29,31,-1,121,31,119,-1,119,31,33,-1,119,33,117,-1,117,33,35,-1,117,35,115,-1,115,35,37,-1,115,37,113,-1,113,37,39,-1,113,39,111,-1,111,39,41,-1,111,41,43,-1,14,3,11,-1,11,3,6,-1,11,6,9,-1,9,6,2,-1,9,2,1,-1,63,65,83,-1,83,65,67,-1,83,67,81,-1,81,67,69,-1,81,69,79,-1,79,69,71,-1,79,71,76,-1,76,71,73,-1,76,73,75,-1,127,129,21,-1,21,129,131,-1,21,131,17,-1,17,131,133,-1,17,133,14,-1,14,133,135,-1,14,135,3,-1,85,87,61,-1,61,87,89,-1,61,89,59,-1,59,89,92,-1,59,92,57,-1,57,92,94,-1,57,94,55,-1,55,94,96,-1,55,96,53,-1,53,96,98,-1,53,98,51,-1,51,98,100,-1,51,100,49,-1,49,100,102,-1,49,102,47,-1,47,102,107,-1,47,107,45,-1,45,107,105,-1,45,105,104,-1,136,137,138,-1,138,137,139,-1,140,136,141,-1,141,136,138,-1,140,141,142,-1,140,142,143,-1,143,142,144,-1,143,144,145,-1,146,145,147,-1,147,145,144,-1,148,146,149,-1,149,146,147,-1,150,151,152,-1,152,151,148,-1,152,148,149,-1,153,151,154,-1,154,151,150,-1,155,156,157,-1,157,156,153,-1,157,153,154,-1,158,159,160,-1,160,159,156,-1,160,156,155,-1,158,161,159,-1,159,161,162,-1,161,163,162,-1,162,163,164,-1,162,164,165,-1,165,164,166,-1,165,166,167,-1,167,166,168,-1,167,168,169,-1,169,168,170,-1,169,170,171,-1,171,170,172,-1,171,172,173,-1,173,172,174,-1,173,174,175,-1,176,175,177,-1,177,175,174,-1,176,177,178,-1,176,178,179,-1,179,178,180,-1,179,180,181,-1,181,180,182,-1,181,182,183,-1,183,182,184,-1,183,184,185,-1,184,186,185,-1,185,186,187,-1,185,187,188,-1,188,187,189,-1,188,189,190,-1,190,189,191,-1,190,191,192,-1,192,191,193,-1,192,193,194,-1,139,137,195,-1,195,137,194,-1,195,194,193,-1,143,145,194,-1,137,136,194,-1,194,136,140,-1,194,140,143,-1,151,153,148,-1,148,153,156,-1,148,156,146,-1,175,176,173,-1,173,176,179,-1,173,179,171,-1,171,179,181,-1,171,181,169,-1,169,181,183,-1,169,183,167,-1,167,183,185,-1,167,185,165,-1,145,146,194,-1,194,146,156,-1,194,156,192,-1,156,159,192,-1,192,159,162,-1,192,162,190,-1,190,162,165,-1,190,165,188,-1,188,165,185,-1,196,197,198,-1,198,197,199,-1,200,201,202,-1,202,201,196,-1,202,196,198,-1,203,201,204,-1,204,201,200,-1,205,206,207,-1,207,206,203,-1,207,203,204,-1,208,206,209,-1,209,206,205,-1,210,211,212,-1,212,211,208,-1,212,208,209,-1,213,211,214,-1,214,211,210,-1,215,216,217,-1,217,216,213,-1,217,213,214,-1,218,216,219,-1,219,216,215,-1,220,221,222,-1,222,221,218,-1,222,218,219,-1,223,221,224,-1,224,221,220,-1,199,197,225,-1,225,197,223,-1,225,223,224,-1,223,197,196,-1,196,201,223,-1,223,201,203,-1,223,203,221,-1,216,218,213,-1,213,218,221,-1,213,221,211,-1,211,221,203,-1,211,203,208,-1,208,203,206,-1,226,227,228,-1,228,227,229,-1,228,229,230,-1,230,229,231,-1,230,231,232,-1,232,231,233,-1,232,233,234,-1,234,233,235,-1,234,235,236,-1,236,235,237,-1,236,237,238,-1,238,237,239,-1,238,239,240,-1,240,239,241,-1,240,241,242,-1,242,241,243,-1,242,243,244,-1,244,243,245,-1,244,245,246,-1,246,245,247,-1,246,247,248,-1,248,247,249,-1,248,249,250,-1,250,249,251,-1,250,251,252,-1,252,251,253,-1,252,253,254,-1,254,253,255,-1,254,255,256,-1,256,255,257,-1,256,257,258,-1,258,257,259,-1,258,259,260,-1,260,259,226,-1,260,226,228,-1,234,236,261,-1,261,236,262,-1,234,261,263,-1,234,263,232,-1,232,263,264,-1,232,264,230,-1,230,264,265,-1,230,265,228,-1,228,265,266,-1,228,266,260,-1,260,266,267,-1,260,267,258,-1,258,267,268,-1,258,268,256,-1,256,268,269,-1,256,269,254,-1,254,269,270,-1,254,270,252,-1,252,270,271,-1,252,271,250,-1,250,271,272,-1,250,272,248,-1,248,272,273,-1,248,273,246,-1,246,273,274,-1,246,274,244,-1,244,274,275,-1,244,275,242,-1,242,275,276,-1,242,276,240,-1,238,240,277,-1,277,240,276,-1,236,238,262,-1,262,238,277,-1,241,239,278,-1,278,239,279,-1,239,237,279,-1,279,237,280,-1,237,235,280,-1,280,235,281,-1,227,282,283,-1,227,283,229,-1,229,283,284,-1,229,284,231,-1,231,284,285,-1,231,285,233,-1,233,285,281,-1,233,281,235,-1,255,286,287,-1,255,287,257,-1,257,287,288,-1,257,288,259,-1,259,288,289,-1,259,289,226,-1,226,289,282,-1,226,282,227,-1,247,290,291,-1,247,291,249,-1,249,291,292,-1,249,292,251,-1,251,292,293,-1,251,293,253,-1,253,293,286,-1,253,286,255,-1,241,278,294,-1,241,294,243,-1,243,294,295,-1,243,295,245,-1,245,295,290,-1,245,290,247,-1,
        ]
    }
}
Shape{
    appearance Appearance {
        material  Material 	{
            diffuseColor 0.25098039215686274 0.25098039215686274 0.25098039215686274
            specularColor 0.12549019607843137 0.12549019607843137 0.12549019607843137
            ambientIntensity 0.251
            transparency 0.0
            shininess 0.5
        }
    }
    geometry IndexedFaceSet {
        ccw TRUE
        solid FALSE
        coord DEF co Coordinate {
            point [
                0.3792 -0.687 0.1907, 0.38 -0.687 0.1915, 0.3567 -0.687 0.2449, 0.3446 -0.687 0.2449, 0.3446 -0.687 0.1832, 0.3562 -0.687 0.1832, 0.3674 -0.687 0.1845, 0.374 -0.687 0.1871, 0.3836 -0.687 0.1958, 0.3865 -0.687 0.2016, 0.3882 -0.687 0.2086, 0.3886 -0.687 0.2148, 0.3874 -0.687 0.2249, 0.3851 -0.687 0.2307, 0.382 -0.687 0.2352, 0.3798 -0.687 0.2374, 0.367 -0.687 0.2438, 0.374 -0.687 0.2412
            ]
        }
        coordIndex [
            0,1,2,-1,3,4,2,-1,2,4,5,-1,5,6,2,-1,2,6,7,-1,2,7,0,-1,1,8,2,-1,2,8,9,-1,2,9,10,-1,10,11,2,-1,2,11,12,-1,2,12,13,-1,13,14,2,-1,2,14,15,-1,2,15,16,-1,16,15,17,-1,
        ]
    }
}
Shape{
    appearance Appearance {
        material  Material 	{
            diffuseColor 1.0 1.0 1.0
            specularColor 0.5019607843137255 0.5019607843137255 0.5019607843137255
            ambientIntensity 1.0
            transparency 0.0
            shininess 0.5
        }
    }
    geometry IndexedFaceSet {
        ccw TRUE
        solid FALSE
        coord DEF co Coordinate {
            point [
                0.4263 -0.6909 0.205, 0.423 -0.6909 0.1959, 0.4532 -0.6909 0.205, 0.4564 -0.6909 0.1959, 0.4383 -0.6909 0.2383, 0.4344 -0.6909 0.2541, 0.4039 -0.6909 0.174, 0.4153 -0.6909 0.174, 0.439 -0.6909 0.2406, 0.4396 -0.6909 0.2439, 0.4455 -0.6909 0.2541, 0.4398 -0.6909 0.2439, 0.4405 -0.6909 0.2405, 0.4411 -0.6909 0.2383, 0.476 -0.6909 0.174, 0.4645 -0.6909 0.174, 0.4455 -0.687 0.2541, 0.476 -0.687 0.174, 0.4344 -0.687 0.2541, 0.4039 -0.687 0.174, 0.4153 -0.687 0.174, 0.423 -0.687 0.1959, 0.4564 -0.687 0.1959, 0.4645 -0.687 0.174, 0.4263 -0.687 0.205, 0.4532 -0.687 0.205, 0.4411 -0.687 0.2383, 0.4398 -0.687 0.2439, 0.4405 -0.687 0.2405, 0.4396 -0.687 0.2439, 0.4383 -0.687 0.2383, 0.439 -0.687 0.2406
            ]
        }
        coordIndex [
            0,1,2,-1,2,1,3,-1,4,5,0,-1,0,5,6,-1,0,6,1,-1,1,6,7,-1,4,8,5,-1,5,8,9,-1,5,9,10,-1,10,9,11,-1,10,11,12,-1,12,13,10,-1,10,13,2,-1,10,2,14,-1,14,2,3,-1,14,3,15,-1,10,14,16,-1,16,14,17,-1,5,10,18,-1,18,10,16,-1,6,5,19,-1,19,5,18,-1,7,6,20,-1,20,6,19,-1,1,7,21,-1,21,7,20,-1,3,1,22,-1,22,1,21,-1,15,3,23,-1,23,3,22,-1,14,15,17,-1,17,15,23,-1,0,2,24,-1,24,2,25,-1,2,13,25,-1,25,13,26,-1,11,27,28,-1,11,28,12,-1,12,28,26,-1,12,26,13,-1,11,9,27,-1,27,9,29,-1,4,30,31,-1,4,31,8,-1,8,31,29,-1,8,29,9,-1,4,0,30,-1,30,0,24,-1,
        ]
    }
}
Shape{
    appearance Appearance {
        material  Material 	{
            diffuseColor 0.25098039215686274 0.25098039215686274 0.25098039215686274
            specularColor 0.12549019607843137 0.12549019607843137 0.12549019607843137
            ambientIntensity 0.251
            transparency 0.0
            shininess 0.5
        }
    }
    geometry IndexedFaceSet {
        ccw TRUE
        solid FALSE
        coord DEF co Coordinate {
            point [
                0.4398 -0.687 0.2439, 0.4396 -0.687 0.2439, 0.4405 -0.687 0.2405, 0.439 -0.687 0.2406, 0.4411 -0.687 0.2383, 0.4383 -0.687 0.2383, 0.4532 -0.687 0.205, 0.4263 -0.687 0.205
            ]
        }
        coordIndex [
            0,1,2,-1,2,1,3,-1,2,3,4,-1,4,3,5,-1,4,5,6,-1,6,5,7,-1,
        ]
    }
}
Shape{
    appearance Appearance {
        material  Material 	{
            diffuseColor 1.0 1.0 1.0
            specularColor 0.5019607843137255 0.5019607843137255 0.5019607843137255
            ambientIntensity 1.0
            transparency 0.0
            shininess 0.5
        }
    }
    geometry IndexedFaceSet {
        ccw TRUE
        solid FALSE
        coord DEF co Coordinate {
            point [
                -0.2993 -0.6909 0.1627, -0.2908 -0.6909 0.1522, -0.3044 -0.6909 0.213, -0.0989 -0.6909 0.3129, -0.0955 -0.6909 0.2973, -0.0676 -0.6909 0.328, -0.3143 -0.6909 0.312, -0.3016 -0.6909 0.3187, -0.3032 -0.6909 0.3541, -0.2043 -0.6909 0.1605, -0.1976 -0.6909 0.1732, -0.1943 -0.6909 0.1872, -0.2822 -0.6909 0.3565, -0.1143 -0.6909 0.2409, -0.1319 -0.6909 0.2711, -0.194 -0.6909 0.1988, -0.2082 -0.6909 0.2312, -0.194 -0.6909 0.1931, -0.2244 -0.6909 0.1427, -0.2131 -0.6909 0.1506, -0.2656 -0.6909 0.1754, -0.2609 -0.6909 0.1725, -0.2797 -0.6909 0.1438, -0.2556 -0.6909 0.1707, -0.3168 -0.6909 0.2207, -0.3139 -0.6909 0.1776, -0.305 -0.6909 0.1749, -0.0909 -0.6909 0.2973, -0.0801 -0.6909 0.296, -0.0648 -0.6909 0.3271, -0.0702 -0.6909 0.2921, -0.0478 -0.6909 0.3187, -0.0324 -0.6909 0.3056, -0.2145 -0.6909 0.3583, -0.2441 -0.6909 0.3804, -0.2302 -0.6909 0.3469, -0.2574 -0.6909 0.3689, -0.2429 -0.6909 0.3316, -0.2691 -0.6909 0.3553, -0.2515 -0.6909 0.3138, -0.2875 -0.6909 0.322, -0.2816 -0.6909 0.3223, -0.2757 -0.6909 0.3561, -0.2684 -0.6909 0.3207, -0.2556 -0.6909 0.3161, -0.2734 -0.6909 0.1892, -0.272 -0.6909 0.184, -0.2694 -0.6909 0.1794, -0.2666 -0.6909 0.1383, -0.2531 -0.6909 0.1362, -0.2515 -0.6909 0.1703, -0.2509 -0.6909 0.1362, -0.2465 -0.6909 0.1709, -0.2371 -0.6909 0.1379, -0.2415 -0.6909 0.1727, -0.237 -0.6909 0.1757, -0.2333 -0.6909 0.1797, -0.0323 -0.6909 0.1994, -0.0589 -0.6909 0.2219, -0.0478 -0.6909 0.1862, -0.0673 -0.6909 0.2151, -0.0652 -0.6909 0.1777, -0.0773 -0.6909 0.2104, -0.0841 -0.6909 0.1737, -0.0875 -0.6909 0.2085, -0.1177 -0.6909 0.1737, -0.1131 -0.6909 0.2085, -0.1209 -0.6909 0.1743, -0.3369 -0.6909 0.2792, -0.3742 -0.6909 0.2711, -0.3386 -0.6909 0.2654, -0.3744 -0.6909 0.2643, -0.3379 -0.6909 0.2567, -0.372 -0.6909 0.2434, -0.3338 -0.6909 0.2428, -0.3642 -0.6909 0.2221, -0.327 -0.6909 0.2311, -0.3505 -0.6909 0.2022, -0.3343 -0.6909 0.1881, -0.2307 -0.6909 0.2003, -0.2294 -0.6909 0.195, -0.2294 -0.6909 0.1901, -0.2307 -0.6909 0.1847, -0.0613 -0.6909 0.286, -0.0547 -0.6909 0.2786, -0.0208 -0.6909 0.2894, -0.0495 -0.6909 0.2688, -0.0138 -0.6909 0.272, -0.0468 -0.6909 0.2578, -0.0112 -0.6909 0.2534, -0.0465 -0.6909 0.2529, -0.0138 -0.6909 0.2331, -0.0479 -0.6909 0.2418, -0.021 -0.6909 0.2151, -0.0518 -0.6909 0.2317, -0.0581 -0.6909 0.2228, -0.3244 -0.6909 0.3463, -0.3433 -0.6909 0.3332, -0.3241 -0.6909 0.3032, -0.3477 -0.6909 0.3292, -0.332 -0.6909 0.2919, -0.3607 -0.6909 0.3128, -0.37 -0.6909 0.2925, -0.1076 -0.6909 0.3313, -0.0775 -0.6909 0.3481, -0.1204 -0.6909 0.3467, -0.0954 -0.6909 0.3702, -0.1221 -0.6909 0.3482, -0.0983 -0.6909 0.373, -0.1381 -0.6909 0.3593, -0.1237 -0.6909 0.3901, -0.156 -0.6909 0.3661, -0.1523 -0.6909 0.4001, -0.1752 -0.6909 0.3684, -0.1758 -0.6909 0.4026, -0.1959 -0.6909 0.3658, -0.204 -0.6909 0.3991, -0.2303 -0.6909 0.389, -0.2736 -0.6909 0.1948, -0.2723 -0.6909 0.2003, -0.2981 -0.6909 0.2253, -0.2697 -0.6909 0.2052, -0.2887 -0.6909 0.236, -0.266 -0.6909 0.2093, -0.277 -0.6909 0.2441, -0.2615 -0.6909 0.2123, -0.2645 -0.6909 0.2489, -0.2564 -0.6909 0.2142, -0.2509 -0.6909 0.2506, -0.2515 -0.6909 0.2147, -0.244 -0.6909 0.2502, -0.2466 -0.6909 0.2142, -0.2302 -0.6909 0.2468, -0.2413 -0.6909 0.2123, -0.2181 -0.6909 0.2403, -0.2367 -0.6909 0.2091, -0.2331 -0.6909 0.205, -0.116 -0.6909 0.209, -0.1297 -0.6909 0.1797, -0.1284 -0.6909 0.1784, -0.1143 -0.6909 0.2086, -0.1247 -0.6909 0.1757, -0.1342 -0.6909 0.1914, -0.1337 -0.6909 0.1872, -0.1322 -0.6909 0.1833, -0.1209 -0.6909 0.2085, -0.1248 -0.6909 0.207, -0.1341 -0.6909 0.1935, -0.1283 -0.6909 0.2045, -0.1308 -0.6909 0.2017, -0.133 -0.6909 0.1978, -0.1165 -0.6909 0.209, -0.0286 -0.687 0.3004, -0.0208 -0.687 0.2894, -0.0158 -0.687 0.2769, -0.0138 -0.687 0.272, -0.0112 -0.687 0.2534, -0.0324 -0.687 0.3056, -0.0478 -0.687 0.3187, -0.0648 -0.687 0.3271, -0.0676 -0.687 0.328, -0.0775 -0.687 0.3481, -0.0954 -0.687 0.3702, -0.0983 -0.687 0.373, -0.1114 -0.687 0.3818, -0.1237 -0.687 0.3901, -0.1523 -0.687 0.4001, -0.1758 -0.687 0.4026, -0.204 -0.687 0.3991, -0.2303 -0.687 0.389, -0.2418 -0.687 0.3818, -0.2441 -0.687 0.3804, -0.2574 -0.687 0.3689, -0.2691 -0.687 0.3553, -0.2757 -0.687 0.3561, -0.2822 -0.687 0.3565, -0.3032 -0.687 0.3541, -0.3244 -0.687 0.3463, -0.3433 -0.687 0.3332, -0.3477 -0.687 0.3292, -0.3607 -0.687 0.3128, -0.3664 -0.687 0.3004, -0.37 -0.687 0.2925, -0.3731 -0.687 0.2769, -0.3742 -0.687 0.2711, -0.3744 -0.687 0.2643, -0.372 -0.687 0.2434, -0.3642 -0.687 0.2221, -0.3505 -0.687 0.2022, -0.3343 -0.687 0.1881, -0.3139 -0.687 0.1776, -0.305 -0.687 0.1749, -0.3043 -0.687 0.1733, -0.2993 -0.687 0.1627, -0.2908 -0.687 0.1522, -0.2797 -0.687 0.1438, -0.2744 -0.687 0.1416, -0.2666 -0.687 0.1383, -0.2531 -0.687 0.1362, -0.2509 -0.687 0.1362, -0.194 -0.687 0.1931, -0.2371 -0.687 0.1379, -0.2273 -0.687 0.1416, -0.2244 -0.687 0.1427, -0.2131 -0.687 0.1506, -0.2043 -0.687 0.1605, -0.1976 -0.687 0.1732, -0.1975 -0.687 0.1733, -0.1943 -0.687 0.1872, -0.194 -0.687 0.1988, -0.1143 -0.687 0.2409, -0.1319 -0.687 0.2711, -0.2082 -0.687 0.2312, -0.2181 -0.687 0.2403, -0.2302 -0.687 0.2468, -0.244 -0.687 0.2502, -0.2509 -0.687 0.2506, -0.2645 -0.687 0.2489, -0.277 -0.687 0.2441, -0.2887 -0.687 0.236, -0.2981 -0.687 0.2253, -0.3044 -0.687 0.213, -0.3168 -0.687 0.2207, -0.327 -0.687 0.2311, -0.3338 -0.687 0.2428, -0.3379 -0.687 0.2567, -0.3386 -0.687 0.2654, -0.3372 -0.687 0.2769, -0.3369 -0.687 0.2792, -0.332 -0.687 0.2919, -0.3261 -0.687 0.3004, -0.3241 -0.687 0.3032, -0.3143 -0.687 0.312, -0.3016 -0.687 0.3187, -0.2875 -0.687 0.322, -0.2816 -0.687 0.3223, -0.2684 -0.687 0.3207, -0.2556 -0.687 0.3161, -0.2515 -0.687 0.3138, -0.2429 -0.687 0.3316, -0.2302 -0.687 0.3469, -0.2145 -0.687 0.3583, -0.1959 -0.687 0.3658, -0.1752 -0.687 0.3684, -0.156 -0.687 0.3661, -0.1381 -0.687 0.3593, -0.1221 -0.687 0.3482, -0.1204 -0.687 0.3467, -0.1076 -0.687 0.3313, -0.0989 -0.687 0.3129, -0.0962 -0.687 0.3004, -0.0955 -0.687 0.2973, -0.0909 -0.687 0.2973, -0.0801 -0.687 0.296, -0.0702 -0.687 0.2921, -0.0613 -0.687 0.286, -0.0547 -0.687 0.2786, -0.0538 -0.687 0.2769, -0.0495 -0.687 0.2688, -0.0468 -0.687 0.2578, -0.0465 -0.687 0.2529, -0.0479 -0.687 0.2418, -0.0518 -0.687 0.2317, -0.0581 -0.687 0.2228, -0.0589 -0.687 0.2219, -0.0673 -0.687 0.2151, -0.0773 -0.687 0.2104, -0.0875 -0.687 0.2085, -0.1131 -0.687 0.2085, -0.1143 -0.687 0.2086, -0.116 -0.687 0.209, -0.1165 -0.687 0.209, -0.1209 -0.687 0.2085, -0.1248 -0.687 0.207, -0.1283 -0.687 0.2045, -0.1308 -0.687 0.2017, -0.133 -0.687 0.1978, -0.1341 -0.687 0.1935, -0.1342 -0.687 0.1914, -0.1337 -0.687 0.1872, -0.1322 -0.687 0.1833, -0.1297 -0.687 0.1797, -0.1284 -0.687 0.1784, -0.1247 -0.687 0.1757, -0.1209 -0.687 0.1743, -0.1177 -0.687 0.1737, -0.0841 -0.687 0.1737, -0.0652 -0.687 0.1777, -0.0478 -0.687 0.1862, -0.0323 -0.687 0.1994, -0.021 -0.687 0.2151, -0.0138 -0.687 0.2331, -0.2515 -0.687 0.2147, -0.2466 -0.687 0.2142, -0.2413 -0.687 0.2123, -0.2367 -0.687 0.2091, -0.2331 -0.687 0.205, -0.2307 -0.687 0.2003, -0.2294 -0.687 0.195, -0.2294 -0.687 0.1901, -0.2307 -0.687 0.1847, -0.2333 -0.687 0.1797, -0.237 -0.687 0.1757, -0.2415 -0.687 0.1727, -0.2465 -0.687 0.1709, -0.2515 -0.687 0.1703, -0.2556 -0.687 0.1707, -0.2609 -0.687 0.1725, -0.2656 -0.687 0.1754, -0.2694 -0.687 0.1794, -0.272 -0.687 0.184, -0.2734 -0.687 0.1892, -0.2736 -0.687 0.1948, -0.2723 -0.687 0.2003, -0.2697 -0.687 0.2052, -0.266 -0.687 0.2093, -0.2615 -0.687 0.2123, -0.2564 -0.687 0.2142
            ]
        }
        coordIndex [
            0,1,2,-1,3,4,5,-1,6,7,8,-1,9,10,11,-1,8,7,12,-1,13,14,15,-1,15,14,16,-1,15,16,17,-1,17,16,18,-1,17,18,11,-1,11,18,19,-1,11,19,9,-1,20,1,21,-1,21,1,22,-1,21,22,23,-1,24,25,2,-1,2,25,26,-1,2,26,0,-1,4,27,5,-1,5,27,28,-1,5,28,29,-1,29,28,30,-1,29,30,31,-1,31,30,32,-1,33,34,35,-1,35,34,36,-1,35,36,37,-1,37,36,38,-1,37,38,39,-1,7,40,12,-1,12,40,41,-1,12,41,42,-1,42,41,43,-1,42,43,38,-1,38,43,44,-1,38,44,39,-1,45,2,46,-1,46,2,1,-1,46,1,47,-1,47,1,20,-1,22,48,23,-1,23,48,49,-1,23,49,50,-1,50,49,51,-1,50,51,52,-1,52,51,53,-1,52,53,54,-1,54,53,18,-1,54,18,55,-1,55,18,56,-1,57,58,59,-1,59,58,60,-1,59,60,61,-1,61,60,62,-1,61,62,63,-1,63,62,64,-1,63,64,65,-1,65,64,66,-1,65,66,67,-1,68,69,70,-1,70,69,71,-1,70,71,72,-1,72,71,73,-1,72,73,74,-1,74,73,75,-1,74,75,76,-1,76,75,77,-1,76,77,24,-1,24,77,78,-1,24,78,25,-1,79,80,16,-1,16,80,81,-1,16,81,18,-1,18,81,82,-1,18,82,56,-1,30,83,32,-1,32,83,84,-1,32,84,85,-1,85,84,86,-1,85,86,87,-1,87,86,88,-1,87,88,89,-1,89,88,90,-1,89,90,91,-1,91,90,92,-1,91,92,93,-1,93,92,94,-1,93,94,57,-1,57,94,95,-1,57,95,58,-1,8,96,6,-1,6,96,97,-1,6,97,98,-1,98,97,99,-1,98,99,100,-1,100,99,101,-1,100,101,68,-1,68,101,102,-1,68,102,69,-1,3,5,103,-1,103,5,104,-1,103,104,105,-1,105,104,106,-1,105,106,107,-1,107,106,108,-1,107,108,109,-1,109,108,110,-1,109,110,111,-1,111,110,112,-1,111,112,113,-1,113,112,114,-1,113,114,115,-1,115,114,116,-1,115,116,33,-1,33,116,117,-1,33,117,34,-1,45,118,2,-1,2,118,119,-1,2,119,120,-1,120,119,121,-1,120,121,122,-1,122,121,123,-1,122,123,124,-1,124,123,125,-1,124,125,126,-1,126,125,127,-1,126,127,128,-1,128,127,129,-1,128,129,130,-1,130,129,131,-1,130,131,132,-1,132,131,133,-1,132,133,134,-1,134,133,135,-1,134,135,16,-1,16,135,136,-1,16,136,79,-1,137,138,139,-1,66,140,67,-1,67,140,137,-1,67,137,141,-1,141,137,139,-1,142,143,137,-1,137,143,144,-1,137,144,138,-1,145,146,147,-1,146,148,147,-1,147,148,149,-1,147,149,150,-1,142,137,147,-1,147,137,151,-1,147,151,145,-1,152,32,153,-1,153,32,85,-1,153,85,154,-1,154,85,87,-1,154,87,155,-1,155,87,89,-1,155,89,156,-1,152,157,32,-1,32,157,158,-1,32,158,31,-1,31,158,159,-1,31,159,29,-1,29,159,160,-1,29,160,5,-1,5,160,161,-1,5,161,104,-1,104,161,162,-1,104,162,106,-1,106,162,163,-1,106,163,108,-1,110,108,164,-1,164,108,163,-1,164,165,110,-1,110,165,166,-1,110,166,112,-1,112,166,167,-1,112,167,114,-1,114,167,168,-1,114,168,116,-1,116,168,169,-1,116,169,117,-1,117,169,34,-1,34,169,170,-1,34,170,171,-1,34,171,172,-1,34,172,36,-1,36,172,173,-1,36,173,38,-1,38,173,174,-1,38,174,42,-1,42,174,175,-1,42,175,12,-1,12,175,176,-1,12,176,8,-1,8,176,177,-1,8,177,96,-1,96,177,178,-1,96,178,97,-1,97,178,179,-1,97,179,99,-1,102,101,180,-1,180,101,99,-1,180,99,179,-1,180,181,102,-1,102,181,182,-1,102,182,69,-1,69,182,183,-1,183,184,69,-1,69,184,185,-1,69,185,71,-1,71,185,186,-1,71,186,73,-1,73,186,187,-1,73,187,75,-1,75,187,188,-1,75,188,77,-1,77,188,189,-1,77,189,78,-1,78,189,190,-1,78,190,25,-1,25,190,191,-1,25,191,26,-1,26,191,192,-1,26,192,0,-1,192,193,0,-1,0,193,194,-1,0,194,1,-1,1,194,195,-1,1,195,22,-1,22,195,196,-1,22,196,48,-1,196,197,48,-1,48,197,198,-1,48,198,49,-1,49,198,199,-1,49,199,51,-1,200,17,11,-1,51,199,201,-1,202,18,201,-1,201,18,53,-1,201,53,51,-1,202,203,18,-1,18,203,204,-1,18,204,19,-1,19,204,205,-1,19,205,9,-1,9,205,206,-1,9,206,10,-1,10,206,207,-1,10,207,11,-1,11,207,208,-1,11,208,200,-1,15,17,209,-1,209,17,200,-1,13,15,210,-1,210,15,209,-1,14,13,211,-1,211,13,210,-1,16,14,212,-1,212,14,211,-1,16,212,213,-1,16,213,134,-1,134,213,214,-1,134,214,132,-1,132,214,215,-1,132,215,130,-1,130,215,216,-1,130,216,128,-1,128,216,217,-1,128,217,126,-1,126,217,218,-1,126,218,124,-1,124,218,219,-1,124,219,122,-1,122,219,220,-1,122,220,120,-1,120,220,221,-1,120,221,2,-1,2,221,222,-1,2,222,24,-1,24,222,223,-1,24,223,76,-1,76,223,224,-1,76,224,74,-1,74,224,225,-1,74,225,72,-1,72,225,226,-1,72,226,70,-1,68,70,226,-1,226,227,68,-1,68,227,228,-1,68,228,229,-1,230,98,229,-1,229,98,100,-1,229,100,68,-1,230,231,98,-1,98,231,232,-1,98,232,6,-1,6,232,233,-1,6,233,7,-1,7,233,234,-1,7,234,40,-1,40,234,235,-1,40,235,41,-1,41,235,236,-1,41,236,43,-1,43,236,237,-1,43,237,44,-1,44,237,238,-1,44,238,39,-1,39,238,239,-1,39,239,37,-1,37,239,240,-1,37,240,35,-1,35,240,241,-1,35,241,33,-1,33,241,242,-1,33,242,115,-1,115,242,243,-1,115,243,113,-1,113,243,244,-1,113,244,111,-1,111,244,245,-1,111,245,109,-1,109,245,246,-1,109,246,107,-1,107,246,247,-1,107,247,105,-1,105,247,248,-1,105,248,103,-1,103,248,249,-1,103,249,3,-1,3,249,4,-1,4,249,250,-1,4,250,251,-1,27,4,252,-1,252,4,251,-1,27,252,253,-1,27,253,28,-1,28,253,254,-1,28,254,30,-1,30,254,255,-1,30,255,83,-1,83,255,256,-1,83,256,84,-1,84,256,257,-1,84,257,86,-1,257,258,86,-1,86,258,259,-1,86,259,88,-1,88,259,260,-1,88,260,90,-1,90,260,261,-1,90,261,92,-1,92,261,262,-1,92,262,94,-1,94,262,263,-1,94,263,95,-1,95,263,264,-1,95,264,58,-1,58,264,265,-1,58,265,60,-1,60,265,266,-1,60,266,62,-1,62,266,267,-1,62,267,64,-1,66,64,268,-1,268,64,267,-1,66,268,269,-1,66,269,140,-1,140,269,270,-1,140,270,137,-1,137,270,271,-1,137,271,151,-1,151,271,272,-1,151,272,145,-1,145,272,273,-1,145,273,146,-1,146,273,274,-1,146,274,148,-1,148,274,275,-1,148,275,149,-1,149,275,276,-1,149,276,150,-1,150,276,277,-1,150,277,147,-1,147,277,278,-1,147,278,142,-1,142,278,279,-1,142,279,143,-1,143,279,280,-1,143,280,144,-1,144,280,281,-1,144,281,138,-1,138,281,282,-1,138,282,139,-1,139,282,283,-1,139,283,141,-1,141,283,284,-1,141,284,67,-1,67,284,285,-1,67,285,65,-1,63,65,286,-1,286,65,285,-1,63,286,287,-1,63,287,61,-1,61,287,288,-1,61,288,59,-1,59,288,289,-1,59,289,57,-1,57,289,290,-1,57,290,93,-1,93,290,291,-1,93,291,91,-1,91,291,156,-1,91,156,89,-1,129,292,293,-1,129,293,131,-1,131,293,294,-1,131,294,133,-1,133,294,295,-1,133,295,135,-1,135,295,296,-1,135,296,136,-1,136,296,297,-1,136,297,79,-1,79,297,298,-1,79,298,80,-1,80,298,299,-1,80,299,81,-1,81,299,300,-1,81,300,82,-1,82,300,301,-1,82,301,56,-1,56,301,302,-1,56,302,55,-1,55,302,303,-1,55,303,54,-1,54,303,304,-1,54,304,52,-1,52,304,305,-1,52,305,50,-1,50,305,306,-1,50,306,23,-1,23,306,307,-1,23,307,21,-1,21,307,308,-1,21,308,20,-1,20,308,309,-1,20,309,47,-1,47,309,310,-1,47,310,46,-1,46,310,311,-1,46,311,45,-1,45,311,312,-1,45,312,118,-1,118,312,313,-1,118,313,119,-1,119,313,314,-1,119,314,121,-1,121,314,315,-1,121,315,123,-1,123,315,316,-1,123,316,125,-1,125,316,317,-1,125,317,127,-1,127,317,292,-1,127,292,129,-1,
        ]
    }
}
Shape{
    appearance Appearance {
        material  Material 	{
            diffuseColor 0.25098039215686274 0.25098039215686274 0.25098039215686274
            specularColor 0.12549019607843137 0.12549019607843137 0.12549019607843137
            ambientIntensity 0.251
            transparency 0.0
            shininess 0.5
        }
    }
    geometry IndexedFaceSet {
        ccw TRUE
        solid FALSE
        coord DEF co Coordinate {
            point [
                -0.2556 -0.687 0.1707, -0.2515 -0.687 0.1703, -0.2515 -0.687 0.2147, -0.2415 -0.687 0.1727, -0.2294 -0.687 0.1901, -0.2465 -0.687 0.1709, -0.2294 -0.687 0.195, -0.2307 -0.687 0.2003, -0.2331 -0.687 0.205, -0.2367 -0.687 0.2091, -0.2615 -0.687 0.2123, -0.2694 -0.687 0.1794, -0.2656 -0.687 0.1754, -0.2413 -0.687 0.2123, -0.2466 -0.687 0.2142, -0.272 -0.687 0.184, -0.266 -0.687 0.2093, -0.2734 -0.687 0.1892, -0.2564 -0.687 0.2142, -0.2609 -0.687 0.1725, -0.237 -0.687 0.1757, -0.2333 -0.687 0.1797, -0.2307 -0.687 0.1847, -0.2736 -0.687 0.1948, -0.2697 -0.687 0.2052, -0.2723 -0.687 0.2003
            ]
        }
        coordIndex [
            0,1,2,-1,3,4,5,-1,5,4,6,-1,5,6,1,-1,6,7,1,-1,1,7,8,-1,1,8,9,-1,10,11,12,-1,9,13,1,-1,1,13,14,-1,1,14,2,-1,11,10,15,-1,15,10,16,-1,15,16,17,-1,2,18,0,-1,0,18,10,-1,0,10,19,-1,19,10,12,-1,3,20,4,-1,4,20,21,-1,4,21,22,-1,17,16,23,-1,23,16,24,-1,23,24,25,-1,
        ]
    }
}