#VRML V2.0 utf8
# 3D model generated by easyeda2kicad.py (https://github.com/uPesy/easyeda2kicad.py)

Shape{
    appearance Appearance {
        material  Material 	{
            diffuseColor 0.10980392156862745 0.10980392156862745 0.10980392156862745
            specularColor 0.0784313725490196 0.0784313725490196 0.0784313725490196
            ambientIntensity 0.1098
            transparency 0.0
            shininess 0.5
        }
    }
    geometry IndexedFaceSet {
        ccw TRUE
        solid FALSE
        coord DEF co Coordinate {
            point [
                -1.738 -2.2826 0.0787, -2.4458 -1.5748 0.0787, -1.2878 -1.8324 0.0787, -2.4458 -0.5319 0.0787, 2.3179 -1.5748 0.0787, 1.6101 -2.2826 0.0787, 2.3179 -0.5319 0.0787, 1.1599 -1.8324 0.0787, -0.0147 -0.5319 0.0787, -0.0116 -0.5324 0.0787, -0.0964 -2.7559 0.0787, -0.0048 -0.5319 0.0787, -0.0094 -0.5324 0.0787, 0.631 -2.3613 0.0787, 1.0255 -2.7559 0.0787, -0.0887 -0.5228 0.0787, -0.0887 -0.5314 0.0787, -0.0964 -0.5319 0.0787, -0.0464 -0.5314 0.0787, -0.0964 1.693 0.0787, 1.0255 1.693 0.0787, 0.631 1.2984 0.0787, -0.0311 -0.5274 0.0787, -0.0311 -0.5187 0.0787, -0.0464 -0.4527 0.0787, -1.1534 -2.7559 0.0787, -0.7589 -2.3613 0.0787, -0.0227 -0.5308 0.0787, -0.0311 -0.4654 0.0787, -0.0222 -0.4616 0.0787, -0.0297 -0.5195 0.0787, -0.0126 -0.4604 0.0787, -0.0049 -0.4613 0.0787, -0.0848 -0.4959 0.0787, -0.057 -0.4959 0.0787, -0.057 -0.5228 0.0787, 0.0746 -0.4527 0.0787, 1.6101 1.2197 0.0787, 0.0746 -0.5314 0.0787, 2.3179 0.5119 0.0787, 0.064 -0.4527 0.0787, 0.064 -0.5228 0.0787, 0.0342 -0.5228 0.0787, -0.0848 -0.4873 0.0787, -0.0868 -0.4613 0.0787, -0.057 -0.4873 0.0787, -0.057 -0.4613 0.0787, 0.001 -0.4634 0.0787, 0.0065 -0.467 0.0787, 0.0112 -0.4723 0.0787, 0.0169 -0.4929 0.0787, 0.0161 -0.5014 0.0787, 0.014 -0.5082 0.0787, -0.0035 -0.5229 0.0787, -0.0109 -0.5238 0.0787, 0.0022 -0.5208 0.0787, 0.0071 -0.5176 0.0787, 0.0107 -0.5137 0.0787, -0.0213 -0.5226 0.0787, 0.0145 -0.4784 0.0787, 0.0166 -0.4868 0.0787, 0.0079 -0.5288 0.0787, 0.0143 -0.5247 0.0787, 0.0342 -0.5314 0.0787, 0.0202 -0.5185 0.0787, 0.0003 -0.5314 0.0787, 0.0244 -0.511 0.0787, 0.0267 -0.5027 0.0787, 0.0275 -0.4936 0.0787, 0.0116 -0.4592 0.0787, 0.0041 -0.4549 0.0787, -0.0046 -0.4524 0.0787, -0.0868 -0.4527 0.0787, 0.0264 -0.4824 0.0787, 0.0233 -0.4734 0.0787, 0.0187 -0.4661 0.0787, -0.0125 -0.4517 0.0787, -0.022 -0.4524 0.0787, -0.0311 -0.4549 0.0787, 1.1599 0.7695 0.0787, -0.1847 -0.5314 0.0787, -0.1732 -0.5314 0.0787, -0.2442 -0.5314 0.0787, -0.2327 -0.5314 0.0787, -0.1635 -0.5099 0.0787, -0.159 -0.5169 0.0787, -0.1525 -0.5231 0.0787, -0.1443 -0.5279 0.0787, -2.4458 0.5119 0.0787, -1.738 1.2197 0.0787, -1.2878 0.7695 0.0787, -0.2248 -0.5094 0.0787, -0.1922 -0.5094 0.0787, -0.1041 -0.4527 0.0787, -0.2135 -0.4527 0.0787, -0.203 -0.4527 0.0787, -0.1352 -0.5306 0.0787, -0.1255 -0.5314 0.0787, -0.1041 -0.5314 0.0787, -0.1469 -0.4572 0.0787, -0.1554 -0.4629 0.0787, -1.1534 1.693 0.0787, -0.7589 1.2984 0.0787, -0.1263 -0.4527 0.0787, -0.1376 -0.4539 0.0787, -0.1555 -0.463 0.0787, -0.1611 -0.4691 0.0787, -0.1647 -0.4759 0.0787, -0.1669 -0.4837 0.0787, -0.1674 -0.4911 0.0787, -0.1663 -0.5016 0.0787, 1.1368 1.693 1.9646, 1.1368 1.693 0.7087, 1.0255 1.693 0.7087, -1.2647 1.693 0.7087, -1.2647 1.693 1.9646, -1.1534 1.693 0.7087, -0.1821 1.693 0.5118, -0.1821 1.693 0.4331, 0.0542 1.693 0.5118, 0.0542 1.693 0.4331, 1.1368 -2.7559 1.9646, 1.1368 -2.7559 0.7087, 2.3179 -1.5748 1.9646, 1.6101 -2.2826 0.7087, 2.0573 -1.8354 0.5118, 2.0573 -1.8354 0.4331, 2.2243 -1.6684 0.4331, 2.2243 -1.6684 0.5118, 1.6101 1.2197 0.7087, 1.8407 0.9891 0.5118, 1.8407 0.9891 0.4331, 2.0078 0.822 0.4331, 2.0078 0.822 0.5118, 2.3179 0.5119 1.9646, -2.1357 -1.8849 0.5118, -1.9686 -2.052 0.5118, -1.2647 -2.7559 1.9646, -2.4458 -1.5748 1.9646, -2.1357 -1.8849 0.4331, -1.9686 -2.052 0.4331, -1.738 -2.2826 0.7087, -1.2647 -2.7559 0.7087, -1.738 1.2197 0.7087, -1.9686 0.9891 0.5118, -2.4458 0.5119 1.9646, -2.1357 0.822 0.5118, -2.1357 0.822 0.4331, -1.9686 0.9891 0.4331, 1.0255 -2.7559 0.7087, -1.1534 -2.7559 0.7087, 1.1599 0.7695 0.7087, 0.631 1.2984 0.7087, 1.1599 -1.8324 0.7087, 0.631 -2.3613 0.7087, -0.7589 -2.3613 0.7087, -1.2878 -1.8324 0.7087, -1.2878 0.7695 0.7087, -0.7589 1.2984 0.7087
            ]
        }
        coordIndex [
            0,1,2,-1,2,1,3,-1,4,5,6,-1,6,5,7,-1,8,9,10,-1,11,6,12,-1,12,6,7,-1,12,7,9,-1,9,7,13,-1,9,13,10,-1,10,13,14,-1,15,16,17,-1,17,16,18,-1,19,20,21,-1,22,18,23,-1,23,18,24,-1,25,26,10,-1,10,26,17,-1,10,17,8,-1,8,17,18,-1,8,18,27,-1,27,18,22,-1,24,28,23,-1,23,28,29,-1,23,29,30,-1,30,29,31,-1,30,31,32,-1,33,34,35,-1,36,37,38,-1,38,37,39,-1,40,41,42,-1,35,15,33,-1,33,15,17,-1,33,17,43,-1,43,17,44,-1,43,44,45,-1,45,44,46,-1,32,47,30,-1,30,47,48,-1,30,48,49,-1,50,51,30,-1,30,51,52,-1,53,54,55,-1,55,54,56,-1,52,57,30,-1,30,57,56,-1,30,56,58,-1,58,56,54,-1,49,59,30,-1,30,59,60,-1,30,60,50,-1,61,62,63,-1,63,62,64,-1,63,64,42,-1,39,6,38,-1,38,6,11,-1,38,11,63,-1,63,11,65,-1,63,65,61,-1,64,66,42,-1,42,66,67,-1,42,67,68,-1,69,70,19,-1,19,70,71,-1,24,72,19,-1,73,74,19,-1,19,74,75,-1,19,75,69,-1,71,76,19,-1,19,76,77,-1,19,77,24,-1,24,77,78,-1,24,78,28,-1,68,73,42,-1,42,73,19,-1,42,19,40,-1,40,19,21,-1,40,21,36,-1,36,21,79,-1,36,79,37,-1,80,81,17,-1,82,83,17,-1,84,85,81,-1,81,85,86,-1,81,86,87,-1,88,89,3,-1,3,89,90,-1,17,83,80,-1,80,83,91,-1,80,91,92,-1,93,19,17,-1,17,19,72,-1,17,72,44,-1,26,2,17,-1,17,2,3,-1,17,3,82,-1,82,3,90,-1,82,90,94,-1,94,90,95,-1,87,96,81,-1,81,96,97,-1,81,97,17,-1,17,97,98,-1,17,98,93,-1,95,99,100,-1,101,19,102,-1,102,19,93,-1,102,93,90,-1,90,93,103,-1,90,103,95,-1,95,103,104,-1,95,104,99,-1,100,105,95,-1,95,105,106,-1,95,106,107,-1,107,108,95,-1,95,108,109,-1,95,109,81,-1,81,109,110,-1,81,110,84,-1,111,112,113,-1,114,115,116,-1,116,115,111,-1,117,118,101,-1,101,116,117,-1,117,116,111,-1,117,111,119,-1,119,111,113,-1,119,113,120,-1,120,113,20,-1,120,20,118,-1,118,20,19,-1,118,19,101,-1,121,122,123,-1,123,122,124,-1,125,124,126,-1,126,124,5,-1,126,5,127,-1,127,5,4,-1,127,4,128,-1,128,4,123,-1,128,123,125,-1,125,123,124,-1,129,112,111,-1,130,131,37,-1,37,131,39,-1,39,131,132,-1,39,132,133,-1,37,129,130,-1,130,129,111,-1,130,111,133,-1,133,111,134,-1,133,134,39,-1,135,136,137,-1,137,138,135,-1,135,138,1,-1,135,1,139,-1,136,140,137,-1,137,140,141,-1,137,141,142,-1,139,1,140,-1,140,1,0,-1,140,0,141,-1,114,143,115,-1,115,143,144,-1,115,144,145,-1,145,144,146,-1,145,146,88,-1,88,146,147,-1,88,147,89,-1,89,147,148,-1,89,148,143,-1,143,148,144,-1,1,138,3,-1,3,138,145,-1,3,145,88,-1,39,134,6,-1,6,134,123,-1,6,123,4,-1,149,122,121,-1,150,25,10,-1,137,142,121,-1,121,142,150,-1,121,150,149,-1,149,150,10,-1,149,10,14,-1,123,134,121,-1,121,134,111,-1,121,111,137,-1,137,111,115,-1,137,115,138,-1,138,115,145,-1,112,129,113,-1,113,129,151,-1,113,151,152,-1,21,20,152,-1,152,20,113,-1,151,129,79,-1,79,129,37,-1,152,151,21,-1,21,151,79,-1,124,122,153,-1,153,122,149,-1,153,149,154,-1,7,5,153,-1,153,5,124,-1,154,149,13,-1,13,149,14,-1,153,154,7,-1,7,154,13,-1,155,150,156,-1,156,150,142,-1,156,142,141,-1,26,25,155,-1,155,25,150,-1,156,141,2,-1,2,141,0,-1,155,156,26,-1,26,156,2,-1,143,114,157,-1,157,114,116,-1,157,116,158,-1,90,89,157,-1,157,89,143,-1,158,116,102,-1,102,116,101,-1,157,158,90,-1,90,158,102,-1,
        ]
    }
}
Shape{
    appearance Appearance {
        material  Material 	{
            diffuseColor 0.7764705882352941 0.7568627450980392 0.7372549019607844
            specularColor 0.38823529411764707 0.3764705882352941 0.3686274509803922
            ambientIntensity 0.7605
            transparency 0.0
            shininess 0.5
        }
    }
    geometry IndexedFaceSet {
        ccw TRUE
        solid FALSE
        coord DEF co Coordinate {
            point [
                -2.1357 0.822 0.4331, -2.247 0.9334 0.4331, -1.9686 0.9891 0.4331, -2.08 1.1004 0.4331, -2.1357 0.822 0.5118, -2.247 0.9334 0.5118, -1.9686 0.9891 0.5118, -2.08 1.1004 0.5118, -2.1635 1.184 -1.1024, -2.3305 1.0169 -1.1024, -2.2192 1.2396 -1.1024, -2.3862 1.0726 -1.1024, -2.1635 1.184 0.315, -2.3305 1.0169 0.315, -2.3862 1.0726 0.315, -2.2192 1.2396 0.315, -2.3277 1.0141 0.3455, -2.1606 1.1811 0.3455, -2.3193 1.0057 0.374, -2.1523 1.1728 0.374, -2.3061 0.9925 0.3985, -2.139 1.1595 0.3985, -2.2888 0.9752 0.4172, -2.1217 1.1422 0.4172, -2.2686 0.955 0.429, -2.1016 1.1221 0.429, -2.283 0.9694 0.5051, -2.3166 1.003 0.4854, -2.3454 1.0318 0.4542, -2.3676 1.0539 0.4134, -2.3815 1.0679 0.3659, -2.116 1.1365 0.5051, -2.1496 1.17 0.4854, -2.1784 1.1989 0.4542, -2.2005 1.221 0.4134, -2.2144 1.2349 0.3659, -2.1357 -1.8849 0.5118, -2.247 -1.9963 0.5118, -1.9686 -2.052 0.5118, -2.08 -2.1633 0.5118, -2.1357 -1.8849 0.4331, -2.247 -1.9963 0.4331, -1.9686 -2.052 0.4331, -2.08 -2.1633 0.4331, -2.3305 -2.0798 -1.1024, -2.1635 -2.2468 -1.1024, -2.3862 -2.1355 -1.1024, -2.2192 -2.3025 -1.1024, -2.2192 -2.3025 0.315, -2.3862 -2.1355 0.315, -2.3305 -2.0798 0.315, -2.1635 -2.2468 0.315, -2.283 -2.0323 0.5051, -2.116 -2.1994 0.5051, -2.3166 -2.0659 0.4854, -2.1496 -2.2329 0.4854, -2.3454 -2.0947 0.4542, -2.1784 -2.2618 0.4542, -2.3676 -2.1168 0.4134, -2.2005 -2.2839 0.4134, -2.3815 -2.1307 0.3659, -2.2144 -2.2978 0.3659, -2.3277 -2.077 0.3455, -2.3193 -2.0686 0.374, -2.3061 -2.0553 0.3985, -2.2888 -2.0381 0.4172, -2.2686 -2.0179 0.429, -2.1606 -2.244 0.3455, -2.1523 -2.2357 0.374, -2.139 -2.2224 0.3985, -2.1217 -2.2051 0.4172, -2.1016 -2.1849 0.429, 2.1191 0.9334 0.4331, 2.0078 0.822 0.4331, 1.9521 1.1004 0.4331, 1.8407 0.9891 0.4331, 2.1191 0.9334 0.5118, 2.0078 0.822 0.5118, 1.9521 1.1004 0.5118, 1.8407 0.9891 0.5118, 2.2026 1.0169 -1.1024, 2.0356 1.184 -1.1024, 2.2583 1.0726 -1.1024, 2.0913 1.2396 -1.1024, 2.0356 1.184 0.315, 2.2026 1.0169 0.315, 2.2583 1.0726 0.315, 2.0913 1.2396 0.315, 2.1407 0.955 0.429, 1.9737 1.1221 0.429, 2.1609 0.9752 0.4172, 1.9938 1.1422 0.4172, 2.1782 0.9925 0.3985, 2.0111 1.1595 0.3985, 2.1914 1.0057 0.374, 2.0244 1.1728 0.374, 2.1998 1.0141 0.3455, 2.0327 1.1811 0.3455, 2.2536 1.0679 0.3659, 2.2397 1.0539 0.4134, 2.2175 1.0318 0.4542, 2.1887 1.003 0.4854, 2.1551 0.9694 0.5051, 2.0865 1.2349 0.3659, 2.0726 1.221 0.4134, 2.0505 1.1989 0.4542, 2.0217 1.17 0.4854, 1.9881 1.1365 0.5051, 2.1672 -1.9454 -1.1024, 2.3342 -1.7784 -1.1024, 2.2229 -2.0011 -1.1024, 2.3899 -1.834 -1.1024, 2.2243 -1.6684 0.4331, 2.2507 -1.6948 0.4331, 2.0573 -1.8354 0.4331, 2.0837 -1.8619 0.4331, 2.0573 -1.8354 0.5118, 2.0837 -1.8619 0.5118, 2.2243 -1.6684 0.5118, 2.2507 -1.6948 0.5118, 2.1053 -1.8835 0.429, 2.2723 -1.7165 0.429, 2.1255 -1.9036 0.4172, 2.2925 -1.7366 0.4172, 2.1428 -1.9209 0.3985, 2.3098 -1.7539 0.3985, 2.156 -1.9342 0.374, 2.3231 -1.7672 0.374, 2.1644 -1.9425 0.3455, 2.3314 -1.7755 0.3455, 2.1672 -1.9454 0.315, 2.3342 -1.7784 0.315, 2.2229 -2.0011 0.315, 2.2181 -1.9963 0.3659, 2.2042 -1.9824 0.4134, 2.1821 -1.9603 0.4542, 2.1533 -1.9315 0.4854, 2.1197 -1.8979 0.5051, 2.3899 -1.834 0.315, 2.3852 -1.8293 0.3659, 2.3713 -1.8154 0.4134, 2.3492 -1.7933 0.4542, 2.3203 -1.7644 0.4854, 2.2868 -1.7309 0.5051, 0.0542 2.2048 -1.1024, 0.0542 2.126 -1.1024, -0.1821 2.2048 -1.1024, -0.1821 2.126 -1.1024, 0.0542 2.0079 0.5118, 0.0542 1.693 0.5118, 0.0542 2.0079 0.4331, 0.0542 1.693 0.4331, -0.1821 2.0079 0.4331, -0.1821 1.693 0.4331, -0.1821 2.0079 0.5118, -0.1821 1.693 0.5118, 0.0542 2.126 0.315, 0.0542 2.2048 0.315, 0.0542 2.1231 0.3412, 0.0542 2.1998 0.3588, 0.0542 2.1143 0.3662, 0.0542 2.1853 0.4004, 0.0542 2.1003 0.3886, 0.0542 2.1618 0.4377, 0.0542 2.0816 0.4073, 0.0542 2.1307 0.4689, 0.0542 2.0592 0.4214, 0.0542 2.0933 0.4923, 0.0542 2.0342 0.4301, 0.0542 2.0517 0.5069, -0.1821 2.0342 0.4301, -0.1821 2.0592 0.4214, -0.1821 2.0816 0.4073, -0.1821 2.1003 0.3886, -0.1821 2.1143 0.3662, -0.1821 2.1231 0.3412, -0.1821 2.126 0.315, -0.1821 2.0517 0.5069, -0.1821 2.0933 0.4923, -0.1821 2.1307 0.4689, -0.1821 2.1618 0.4377, -0.1821 2.1853 0.4004, -0.1821 2.1998 0.3588, -0.1821 2.2048 0.315
            ]
        }
        coordIndex [
            0,1,2,-1,2,1,3,-1,4,5,0,-1,0,5,1,-1,6,7,4,-1,4,7,5,-1,2,3,6,-1,6,3,7,-1,8,9,10,-1,10,9,11,-1,8,12,9,-1,9,12,13,-1,9,13,11,-1,11,13,14,-1,11,14,10,-1,10,14,15,-1,8,10,12,-1,12,10,15,-1,13,12,16,-1,16,12,17,-1,16,17,18,-1,18,17,19,-1,18,19,20,-1,20,19,21,-1,20,21,22,-1,22,21,23,-1,22,23,24,-1,24,23,25,-1,24,25,1,-1,1,25,3,-1,1,5,24,-1,24,5,26,-1,24,26,22,-1,22,26,27,-1,22,27,20,-1,20,27,28,-1,20,28,18,-1,18,28,29,-1,18,29,16,-1,16,29,30,-1,16,30,13,-1,13,30,14,-1,5,7,31,-1,5,31,26,-1,26,31,32,-1,26,32,27,-1,27,32,33,-1,27,33,28,-1,28,33,34,-1,28,34,29,-1,29,34,35,-1,29,35,30,-1,30,35,15,-1,30,15,14,-1,12,15,17,-1,17,15,35,-1,17,35,19,-1,19,35,34,-1,19,34,21,-1,21,34,33,-1,21,33,23,-1,23,33,32,-1,23,32,25,-1,25,32,31,-1,25,31,3,-1,3,31,7,-1,36,37,38,-1,38,37,39,-1,40,41,36,-1,36,41,37,-1,42,43,40,-1,40,43,41,-1,38,39,42,-1,42,39,43,-1,44,45,46,-1,46,45,47,-1,47,48,46,-1,46,48,49,-1,46,49,44,-1,44,49,50,-1,44,50,45,-1,45,50,51,-1,47,45,48,-1,48,45,51,-1,39,37,52,-1,39,52,53,-1,53,52,54,-1,53,54,55,-1,55,54,56,-1,55,56,57,-1,57,56,58,-1,57,58,59,-1,59,58,60,-1,59,60,61,-1,61,60,49,-1,61,49,48,-1,50,49,62,-1,62,49,60,-1,62,60,63,-1,63,60,58,-1,63,58,64,-1,64,58,56,-1,64,56,65,-1,65,56,54,-1,65,54,66,-1,66,54,52,-1,66,52,41,-1,41,52,37,-1,51,50,67,-1,67,50,62,-1,67,62,68,-1,68,62,63,-1,68,63,69,-1,69,63,64,-1,69,64,70,-1,70,64,65,-1,70,65,71,-1,71,65,66,-1,71,66,43,-1,43,66,41,-1,43,39,71,-1,71,39,53,-1,71,53,70,-1,70,53,55,-1,70,55,69,-1,69,55,57,-1,69,57,68,-1,68,57,59,-1,68,59,67,-1,67,59,61,-1,67,61,51,-1,51,61,48,-1,72,73,74,-1,74,73,75,-1,76,77,72,-1,72,77,73,-1,78,79,76,-1,76,79,77,-1,74,75,78,-1,78,75,79,-1,80,81,82,-1,82,81,83,-1,84,81,85,-1,85,81,80,-1,85,80,86,-1,86,80,82,-1,86,82,87,-1,87,82,83,-1,83,81,87,-1,87,81,84,-1,72,74,88,-1,88,74,89,-1,88,89,90,-1,90,89,91,-1,90,91,92,-1,92,91,93,-1,92,93,94,-1,94,93,95,-1,94,95,96,-1,96,95,97,-1,96,97,85,-1,85,97,84,-1,85,86,96,-1,96,86,98,-1,96,98,94,-1,94,98,99,-1,94,99,92,-1,92,99,100,-1,92,100,90,-1,90,100,101,-1,90,101,88,-1,88,101,102,-1,88,102,72,-1,72,102,76,-1,86,87,103,-1,86,103,98,-1,98,103,104,-1,98,104,99,-1,99,104,105,-1,99,105,100,-1,100,105,106,-1,100,106,101,-1,101,106,107,-1,101,107,102,-1,102,107,78,-1,102,78,76,-1,74,78,89,-1,89,78,107,-1,89,107,91,-1,91,107,106,-1,91,106,93,-1,93,106,105,-1,93,105,95,-1,95,105,104,-1,95,104,97,-1,97,104,103,-1,97,103,84,-1,84,103,87,-1,108,109,110,-1,110,109,111,-1,112,113,114,-1,114,113,115,-1,114,115,116,-1,116,115,117,-1,116,117,118,-1,118,117,119,-1,112,118,113,-1,113,118,119,-1,115,113,120,-1,120,113,121,-1,120,121,122,-1,122,121,123,-1,122,123,124,-1,124,123,125,-1,124,125,126,-1,126,125,127,-1,126,127,128,-1,128,127,129,-1,128,129,130,-1,130,129,131,-1,130,132,128,-1,128,132,133,-1,128,133,126,-1,126,133,134,-1,126,134,124,-1,124,134,135,-1,124,135,122,-1,122,135,136,-1,122,136,120,-1,120,136,137,-1,120,137,115,-1,115,137,117,-1,132,138,139,-1,132,139,133,-1,133,139,140,-1,133,140,134,-1,134,140,141,-1,134,141,135,-1,135,141,142,-1,135,142,136,-1,136,142,143,-1,136,143,137,-1,137,143,119,-1,137,119,117,-1,113,119,121,-1,121,119,143,-1,121,143,123,-1,123,143,142,-1,123,142,125,-1,125,142,141,-1,125,141,127,-1,127,141,140,-1,127,140,129,-1,129,140,139,-1,129,139,131,-1,131,139,138,-1,131,109,130,-1,130,109,108,-1,130,108,132,-1,132,108,110,-1,132,110,138,-1,138,110,111,-1,131,138,109,-1,109,138,111,-1,144,145,146,-1,146,145,147,-1,148,149,150,-1,150,149,151,-1,150,151,152,-1,152,151,153,-1,152,153,154,-1,154,153,155,-1,155,149,154,-1,154,149,148,-1,156,157,158,-1,158,157,159,-1,158,159,160,-1,160,159,161,-1,160,161,162,-1,162,161,163,-1,162,163,164,-1,164,163,165,-1,164,165,166,-1,166,165,167,-1,166,167,168,-1,168,167,169,-1,168,169,150,-1,150,169,148,-1,150,152,168,-1,168,152,170,-1,168,170,166,-1,166,170,171,-1,166,171,164,-1,164,171,172,-1,164,172,162,-1,162,172,173,-1,162,173,160,-1,160,173,174,-1,160,174,158,-1,158,174,175,-1,158,175,156,-1,156,175,176,-1,152,154,170,-1,170,154,177,-1,170,177,171,-1,171,177,178,-1,171,178,172,-1,172,178,179,-1,172,179,173,-1,173,179,180,-1,173,180,174,-1,174,180,181,-1,174,181,175,-1,175,181,182,-1,175,182,176,-1,176,182,183,-1,157,183,182,-1,157,182,159,-1,159,182,181,-1,159,181,161,-1,161,181,180,-1,161,180,163,-1,163,180,179,-1,163,179,165,-1,165,179,178,-1,165,178,167,-1,167,178,177,-1,167,177,169,-1,169,177,154,-1,169,154,148,-1,144,157,145,-1,145,157,156,-1,145,156,147,-1,147,156,176,-1,147,176,146,-1,146,176,183,-1,183,157,146,-1,146,157,144,-1,
        ]
    }
}
Shape{
    appearance Appearance {
        material  Material 	{
            diffuseColor 1.0 1.0 1.0
            specularColor 0.8784313725490196 0.8784313725490196 0.8784313725490196
            ambientIntensity 1.0
            transparency 0.0
            shininess 0.5
        }
    }
    geometry IndexedFaceSet {
        ccw TRUE
        solid FALSE
        coord DEF co Coordinate {
            point [
                -0.1949 -0.5007 0.0827, -0.1922 -0.5094 0.0827, -0.2212 -0.5007 0.0827, -0.2248 -0.5094 0.0827, -0.2066 -0.4678 0.0827, -0.203 -0.4527 0.0827, -0.1732 -0.5314 0.0827, -0.1847 -0.5314 0.0827, -0.2074 -0.4651 0.0827, -0.2079 -0.4623 0.0827, -0.2135 -0.4527 0.0827, -0.2081 -0.4623 0.0827, -0.2087 -0.4651 0.0827, -0.2094 -0.4678 0.0827, -0.2442 -0.5314 0.0827, -0.2327 -0.5314 0.0827, -0.2248 -0.5094 0.0787, -0.2327 -0.5314 0.0787, -0.1922 -0.5094 0.0787, -0.1847 -0.5314 0.0787, -0.1732 -0.5314 0.0787, -0.203 -0.4527 0.0787, -0.2135 -0.4527 0.0787, -0.2442 -0.5314 0.0787, -0.2094 -0.4678 0.0787, -0.2087 -0.4651 0.0787, -0.2081 -0.4623 0.0787, -0.2079 -0.4623 0.0787, -0.2074 -0.4651 0.0787, -0.2066 -0.4678 0.0787, -0.1949 -0.5007 0.0787, -0.2212 -0.5007 0.0787, -0.1263 -0.4527 0.0827, -0.1263 -0.4527 0.0787, -0.1041 -0.4527 0.0827, -0.1041 -0.4527 0.0787, -0.1376 -0.4539 0.0827, -0.1376 -0.4539 0.0787, -0.1469 -0.4572 0.0827, -0.1469 -0.4572 0.0787, -0.1554 -0.4629 0.0827, -0.1554 -0.4629 0.0787, -0.1555 -0.463 0.0827, -0.1555 -0.463 0.0787, -0.1611 -0.4691 0.0827, -0.1611 -0.4691 0.0787, -0.1647 -0.4759 0.0827, -0.1647 -0.4759 0.0787, -0.1669 -0.4837 0.0827, -0.1669 -0.4837 0.0787, -0.1674 -0.4911 0.0827, -0.1674 -0.4911 0.0787, -0.1663 -0.5016 0.0827, -0.1663 -0.5016 0.0787, -0.1635 -0.5099 0.0827, -0.1635 -0.5099 0.0787, -0.159 -0.5169 0.0827, -0.159 -0.5169 0.0787, -0.1525 -0.5231 0.0827, -0.1525 -0.5231 0.0787, -0.1443 -0.5279 0.0827, -0.1443 -0.5279 0.0787, -0.1352 -0.5306 0.0827, -0.1352 -0.5306 0.0787, -0.1255 -0.5314 0.0827, -0.1255 -0.5314 0.0787, -0.1041 -0.5314 0.0827, -0.1041 -0.5314 0.0787, -0.1516 -0.4724 0.0827, -0.1478 -0.4683 0.0827, -0.142 -0.4646 0.0827, -0.1355 -0.4623 0.0827, -0.1262 -0.4613 0.0827, -0.1146 -0.4613 0.0827, -0.1146 -0.5228 0.0827, -0.1258 -0.5228 0.0827, -0.1341 -0.522 0.0827, -0.1407 -0.52 0.0827, -0.1461 -0.5168 0.0827, -0.1505 -0.5124 0.0827, -0.1538 -0.507 0.0827, -0.1561 -0.4996 0.0827, -0.1569 -0.4913 0.0827, -0.1562 -0.4835 0.0827, -0.1544 -0.4772 0.0827, -0.1258 -0.5228 0.0787, -0.1146 -0.5228 0.0787, -0.1341 -0.522 0.0787, -0.1407 -0.52 0.0787, -0.1461 -0.5168 0.0787, -0.1505 -0.5124 0.0787, -0.1538 -0.507 0.0787, -0.1561 -0.4996 0.0787, -0.1569 -0.4913 0.0787, -0.1562 -0.4835 0.0787, -0.1544 -0.4772 0.0787, -0.1516 -0.4724 0.0787, -0.1478 -0.4683 0.0787, -0.142 -0.4646 0.0787, -0.1355 -0.4623 0.0787, -0.1262 -0.4613 0.0787, -0.1146 -0.4613 0.0787, -0.0464 -0.4527 0.0827, -0.0464 -0.4527 0.0787, -0.0464 -0.5314 0.0827, -0.0464 -0.5314 0.0787, -0.0868 -0.4527 0.0827, -0.0868 -0.4527 0.0787, -0.0868 -0.4613 0.0827, -0.0868 -0.4613 0.0787, -0.057 -0.4613 0.0827, -0.057 -0.4613 0.0787, -0.057 -0.4873 0.0827, -0.057 -0.4873 0.0787, -0.0848 -0.4873 0.0827, -0.0848 -0.4873 0.0787, -0.0848 -0.4959 0.0827, -0.0848 -0.4959 0.0787, -0.057 -0.4959 0.0827, -0.057 -0.4959 0.0787, -0.057 -0.5228 0.0827, -0.057 -0.5228 0.0787, -0.0887 -0.5228 0.0827, -0.0887 -0.5228 0.0787, -0.0887 -0.5314 0.0827, -0.0887 -0.5314 0.0787, -0.0048 -0.5319 0.0787, -0.0094 -0.5324 0.0787, -0.0094 -0.5324 0.0827, 0.0003 -0.5314 0.0787, 0.0003 -0.5314 0.0827, 0.0079 -0.5288 0.0827, 0.0079 -0.5288 0.0787, 0.0143 -0.5247 0.0827, 0.0143 -0.5247 0.0787, 0.0202 -0.5185 0.0827, 0.0202 -0.5185 0.0787, 0.0244 -0.511 0.0827, 0.0244 -0.511 0.0787, 0.0267 -0.5027 0.0827, 0.0267 -0.5027 0.0787, 0.0275 -0.4936 0.0827, 0.0275 -0.4936 0.0787, 0.0264 -0.4824 0.0827, 0.0264 -0.4824 0.0787, 0.0233 -0.4734 0.0827, 0.0233 -0.4734 0.0787, 0.0187 -0.4661 0.0827, 0.0187 -0.4661 0.0787, 0.0116 -0.4592 0.0827, 0.0116 -0.4592 0.0787, 0.0041 -0.4549 0.0827, 0.0041 -0.4549 0.0787, -0.0046 -0.4524 0.0827, -0.0046 -0.4524 0.0787, -0.0125 -0.4517 0.0827, -0.0125 -0.4517 0.0787, -0.022 -0.4524 0.0827, -0.022 -0.4524 0.0787, -0.0311 -0.4549 0.0827, -0.0311 -0.4549 0.0787, -0.0311 -0.4654 0.0827, -0.0311 -0.4654 0.0787, -0.0222 -0.4616 0.0827, -0.0222 -0.4616 0.0787, -0.0126 -0.4604 0.0827, -0.0126 -0.4604 0.0787, -0.0049 -0.4613 0.0827, -0.0049 -0.4613 0.0787, 0.001 -0.4634 0.0827, 0.001 -0.4634 0.0787, 0.0065 -0.467 0.0827, 0.0065 -0.467 0.0787, 0.0112 -0.4723 0.0827, 0.0112 -0.4723 0.0787, 0.0145 -0.4784 0.0827, 0.0145 -0.4784 0.0787, 0.0166 -0.4868 0.0827, 0.0166 -0.4868 0.0787, 0.0169 -0.4929 0.0827, 0.0169 -0.4929 0.0787, 0.0161 -0.5014 0.0827, 0.0161 -0.5014 0.0787, 0.014 -0.5082 0.0827, 0.014 -0.5082 0.0787, 0.0107 -0.5137 0.0827, 0.0107 -0.5137 0.0787, 0.0071 -0.5176 0.0827, 0.0071 -0.5176 0.0787, 0.0022 -0.5208 0.0827, 0.0022 -0.5208 0.0787, -0.0035 -0.5229 0.0827, -0.0035 -0.5229 0.0787, -0.0109 -0.5238 0.0827, -0.0109 -0.5238 0.0787, -0.0213 -0.5226 0.0827, -0.0213 -0.5226 0.0787, -0.0297 -0.5195 0.0827, -0.0297 -0.5195 0.0787, -0.0311 -0.5187 0.0827, -0.0311 -0.5187 0.0787, -0.0311 -0.5274 0.0827, -0.0311 -0.5274 0.0787, -0.0227 -0.5308 0.0787, -0.0227 -0.5308 0.0827, -0.0147 -0.5319 0.0787, -0.0116 -0.5324 0.0827, -0.0116 -0.5324 0.0787, 0.0746 -0.4527 0.0827, 0.0746 -0.4527 0.0787, 0.0746 -0.5314 0.0827, 0.0746 -0.5314 0.0787, 0.064 -0.4527 0.0827, 0.064 -0.4527 0.0787, 0.064 -0.5228 0.0827, 0.064 -0.5228 0.0787, 0.0342 -0.5228 0.0827, 0.0342 -0.5228 0.0787, 0.0342 -0.5314 0.0827, 0.0342 -0.5314 0.0787
            ]
        }
        coordIndex [
            0,1,2,-1,2,1,3,-1,4,5,0,-1,0,5,6,-1,0,6,1,-1,1,6,7,-1,4,8,5,-1,5,8,9,-1,5,9,10,-1,10,9,11,-1,10,11,12,-1,12,13,10,-1,10,13,2,-1,10,2,14,-1,14,2,3,-1,14,3,15,-1,3,16,15,-1,15,16,17,-1,1,18,3,-1,3,18,16,-1,7,19,1,-1,1,19,18,-1,6,20,7,-1,7,20,19,-1,5,21,6,-1,6,21,20,-1,10,22,5,-1,5,22,21,-1,14,23,10,-1,10,23,22,-1,14,15,23,-1,23,15,17,-1,24,13,12,-1,24,12,25,-1,25,12,11,-1,25,11,26,-1,9,27,11,-1,11,27,26,-1,27,9,8,-1,27,8,28,-1,28,8,4,-1,28,4,29,-1,0,30,4,-1,4,30,29,-1,2,31,0,-1,0,31,30,-1,24,31,13,-1,13,31,2,-1,32,33,34,-1,34,33,35,-1,33,32,36,-1,33,36,37,-1,37,36,38,-1,37,38,39,-1,39,38,40,-1,39,40,41,-1,41,40,42,-1,41,42,43,-1,43,42,44,-1,43,44,45,-1,45,44,46,-1,45,46,47,-1,47,46,48,-1,47,48,49,-1,49,48,50,-1,49,50,51,-1,51,50,52,-1,51,52,53,-1,53,52,54,-1,53,54,55,-1,55,54,56,-1,55,56,57,-1,57,56,58,-1,57,58,59,-1,59,58,60,-1,59,60,61,-1,61,60,62,-1,61,62,63,-1,63,62,64,-1,63,64,65,-1,66,67,64,-1,64,67,65,-1,66,34,67,-1,67,34,35,-1,46,44,68,-1,68,44,42,-1,68,42,69,-1,69,42,40,-1,69,40,70,-1,70,40,38,-1,70,38,71,-1,71,38,36,-1,71,36,72,-1,72,36,32,-1,72,32,73,-1,73,32,34,-1,73,34,74,-1,74,34,66,-1,74,66,75,-1,75,66,64,-1,75,64,76,-1,76,64,62,-1,76,62,77,-1,77,62,60,-1,77,60,78,-1,78,60,58,-1,78,58,79,-1,79,58,56,-1,79,56,80,-1,80,56,54,-1,80,54,81,-1,81,54,52,-1,81,52,82,-1,82,52,50,-1,82,50,83,-1,83,50,48,-1,83,48,84,-1,84,48,46,-1,84,46,68,-1,75,85,74,-1,74,85,86,-1,85,75,76,-1,85,76,87,-1,87,76,77,-1,87,77,88,-1,88,77,78,-1,88,78,89,-1,89,78,79,-1,89,79,90,-1,90,79,80,-1,90,80,91,-1,91,80,81,-1,91,81,92,-1,92,81,82,-1,92,82,93,-1,93,82,83,-1,93,83,94,-1,94,83,84,-1,94,84,95,-1,95,84,68,-1,95,68,96,-1,96,68,69,-1,96,69,97,-1,97,69,70,-1,97,70,98,-1,98,70,71,-1,98,71,99,-1,99,71,72,-1,99,72,100,-1,73,101,72,-1,72,101,100,-1,86,101,74,-1,74,101,73,-1,102,103,104,-1,104,103,105,-1,106,107,102,-1,102,107,103,-1,108,109,106,-1,106,109,107,-1,110,111,108,-1,108,111,109,-1,112,113,110,-1,110,113,111,-1,114,115,112,-1,112,115,113,-1,116,117,114,-1,114,117,115,-1,118,119,116,-1,116,119,117,-1,120,121,118,-1,118,121,119,-1,122,123,120,-1,120,123,121,-1,124,125,122,-1,122,125,123,-1,124,104,125,-1,125,104,105,-1,104,124,122,-1,122,120,104,-1,104,120,118,-1,104,118,102,-1,108,106,110,-1,110,106,102,-1,110,102,112,-1,112,102,118,-1,112,118,114,-1,114,118,116,-1,126,127,128,-1,126,128,129,-1,128,130,129,-1,129,130,131,-1,129,131,132,-1,132,131,133,-1,132,133,134,-1,134,133,135,-1,134,135,136,-1,136,135,137,-1,136,137,138,-1,138,137,139,-1,138,139,140,-1,140,139,141,-1,140,141,142,-1,142,141,143,-1,142,143,144,-1,144,143,145,-1,144,145,146,-1,146,145,147,-1,146,147,148,-1,148,147,149,-1,148,149,150,-1,150,149,151,-1,150,151,152,-1,152,151,153,-1,152,153,154,-1,154,153,155,-1,154,155,156,-1,156,155,157,-1,156,157,158,-1,158,157,159,-1,158,159,160,-1,161,162,159,-1,159,162,160,-1,162,161,163,-1,162,163,164,-1,164,163,165,-1,164,165,166,-1,166,165,167,-1,166,167,168,-1,168,167,169,-1,168,169,170,-1,170,169,171,-1,170,171,172,-1,172,171,173,-1,172,173,174,-1,174,173,175,-1,174,175,176,-1,176,175,177,-1,176,177,178,-1,178,177,179,-1,178,179,180,-1,180,179,181,-1,180,181,182,-1,182,181,183,-1,182,183,184,-1,184,183,185,-1,184,185,186,-1,186,185,187,-1,186,187,188,-1,188,187,189,-1,188,189,190,-1,190,189,191,-1,190,191,192,-1,192,191,193,-1,192,193,194,-1,194,193,195,-1,194,195,196,-1,196,195,197,-1,196,197,198,-1,198,197,199,-1,198,199,200,-1,201,202,199,-1,199,202,200,-1,203,202,204,-1,204,202,201,-1,203,204,205,-1,205,204,206,-1,205,206,207,-1,207,206,128,-1,207,128,127,-1,191,128,193,-1,193,128,206,-1,193,206,195,-1,195,206,204,-1,195,204,197,-1,197,204,201,-1,197,201,199,-1,161,159,163,-1,163,159,157,-1,163,157,165,-1,165,157,155,-1,165,155,167,-1,167,155,153,-1,167,153,169,-1,169,153,151,-1,169,151,171,-1,171,151,149,-1,171,149,173,-1,173,149,147,-1,173,147,175,-1,175,147,145,-1,175,145,177,-1,177,145,143,-1,177,143,179,-1,179,143,141,-1,179,141,181,-1,181,141,139,-1,181,139,183,-1,183,139,137,-1,183,137,185,-1,185,137,135,-1,185,135,187,-1,187,135,133,-1,187,133,189,-1,189,133,131,-1,189,131,191,-1,191,131,130,-1,191,130,128,-1,208,209,210,-1,210,209,211,-1,212,213,208,-1,208,213,209,-1,214,215,212,-1,212,215,213,-1,216,217,214,-1,214,217,215,-1,218,219,216,-1,216,219,217,-1,218,210,219,-1,219,210,211,-1,212,208,214,-1,214,208,210,-1,214,210,216,-1,216,210,218,-1,
        ]
    }
}
Shape{
    appearance Appearance {
        material  Material 	{
            diffuseColor 0.10980392156862745 0.10980392156862745 0.10980392156862745
            specularColor 0.0784313725490196 0.0784313725490196 0.0784313725490196
            ambientIntensity 0.1098
            transparency 0.0
            shininess 0.5
        }
    }
    geometry IndexedFaceSet {
        ccw TRUE
        solid FALSE
        coord DEF co Coordinate {
            point [
                -0.1949 -0.5007 0.0787, -0.2212 -0.5007 0.0787, -0.2066 -0.4678 0.0787, -0.2094 -0.4678 0.0787, -0.2074 -0.4651 0.0787, -0.2087 -0.4651 0.0787, -0.2079 -0.4623 0.0787, -0.2081 -0.4623 0.0787, -0.1146 -0.4613 0.0787, -0.1146 -0.5228 0.0787, -0.1262 -0.4613 0.0787, -0.1258 -0.5228 0.0787, -0.1341 -0.522 0.0787, -0.1569 -0.4913 0.0787, -0.1562 -0.4835 0.0787, -0.1544 -0.4772 0.0787, -0.1355 -0.4623 0.0787, -0.1407 -0.52 0.0787, -0.1461 -0.5168 0.0787, -0.1505 -0.5124 0.0787, -0.1538 -0.507 0.0787, -0.1561 -0.4996 0.0787, -0.1516 -0.4724 0.0787, -0.1478 -0.4683 0.0787, -0.142 -0.4646 0.0787
            ]
        }
        coordIndex [
            0,1,2,-1,2,1,3,-1,2,3,4,-1,4,3,5,-1,4,5,6,-1,6,5,7,-1,8,9,10,-1,10,9,11,-1,10,11,12,-1,13,14,10,-1,10,14,15,-1,10,15,16,-1,12,17,10,-1,10,17,18,-1,10,18,19,-1,19,20,10,-1,10,20,21,-1,10,21,13,-1,22,23,15,-1,15,23,24,-1,15,24,16,-1,
        ]
    }
}
Shape{
    appearance Appearance {
        material  Material 	{
            diffuseColor 0.7764705882352941 0.7568627450980392 0.7372549019607844
            specularColor 0.38823529411764707 0.3764705882352941 0.3686274509803922
            ambientIntensity 0.7605
            transparency 0.0
            shininess 0.5
        }
    }
    geometry IndexedFaceSet {
        ccw TRUE
        solid FALSE
        coord DEF co Coordinate {
            point [
                -2.5246 -0.0388 1.8898, -2.4458 -0.0388 1.8898, -2.5246 -0.0388 1.1301, -2.4458 -0.0388 1.1301, -2.4458 -1.023 1.8898, -2.5246 -1.023 1.8898, -2.4458 -1.023 1.1301, -2.5246 -1.023 1.1301, -2.5246 -0.0399 1.1301, -2.5246 -0.1377 0.5751, -2.5246 -0.1377 -1.063, -2.5246 -0.9251 -1.063, -2.5246 -0.9251 0.5751, -2.5246 -0.3826 -1.3701, -2.5246 -0.4527 -1.378, -2.5246 -0.1456 -1.1331, -2.5246 -0.2065 -1.2594, -2.5246 -0.2563 -1.3092, -2.5246 -0.316 -1.3468, -2.5246 -0.8066 -1.3092, -2.5246 -0.8564 -1.2594, -2.5246 -0.894 -1.1996, -2.5246 -0.1689 -1.1996, -2.5246 -0.6102 -1.378, -2.5246 -0.6803 -1.3701, -2.5246 -0.7468 -1.3468, -2.5246 -0.9172 -1.1331, -2.4458 -0.0399 1.1301, -2.4458 -0.894 -1.1996, -2.4458 -0.8564 -1.2594, -2.4458 -0.8066 -1.3092, -2.4458 -0.6803 -1.3701, -2.4458 -0.6102 -1.378, -2.4458 -0.9251 -1.063, -2.4458 -0.1377 -1.063, -2.4458 -0.9251 0.5751, -2.4458 -0.1377 0.5751, -2.4458 -0.9172 -1.1331, -2.4458 -0.7468 -1.3468, -2.4458 -0.316 -1.3468, -2.4458 -0.2563 -1.3092, -2.4458 -0.2065 -1.2594, -2.4458 -0.4527 -1.378, -2.4458 -0.3826 -1.3701, -2.4458 -0.1456 -1.1331, -2.4458 -0.1689 -1.1996, -1.2321 1.6603 2.0472, -2.4132 0.4792 2.0472, -2.3854 0.4514 2.0472, 2.2853 0.4792 2.0472, 1.1042 1.6603 2.0472, 1.0764 1.6325 2.0472, -1.2878 -2.8346 2.0472, 1.1599 -2.8346 2.0472, -1.1764 -2.7232 2.0472, 1.0485 -2.7232 2.0472, 1.1042 -2.7232 2.0472, 2.2853 -1.5421 2.0472, 2.2575 -1.5143 2.0472, 2.2575 0.4514 2.0472, 1.1775 0.0664 2.0472, 2.2853 0.4236 2.0472, 1.2643 -0.1649 2.0472, 1.1599 1.7717 2.0472, -1.2878 1.7717 2.0472, 1.0485 1.6603 2.0472, -1.1764 1.6603 2.0472, -2.5246 0.5349 2.0472, -2.5246 0.0006 2.0472, -2.4132 0.4236 2.0472, -2.3277 0.0006 2.0472, 1.0764 -2.6954 2.0472, -2.3671 -1.023 2.0472, -2.3277 -1.023 2.0472, -2.3671 -0.0388 2.0472, -2.3277 -0.0388 2.0472, -1.4198 -0.2854 2.0472, -1.354 -0.0473 2.0472, -1.2043 1.6325 2.0472, -1.2469 0.1753 2.0472, -1.1016 0.3752 2.0472, 0.2427 0.812 2.0472, 0.4776 0.7356 2.0472, -2.4132 -1.5421 2.0472, -1.2321 -2.7232 2.0472, -2.3854 -1.5143 2.0472, -1.2043 -2.6954 2.0472, -0.2489 -1.8969 2.0472, -0.0021 -1.908 2.0472, 0.2427 -1.8749 2.0472, 1.2643 -0.898 2.0472, 1.1775 -1.1293 2.0472, 2.1998 -1.0624 2.0472, 1.0508 -1.3414 2.0472, 2.2392 -1.023 2.0472, 2.2392 -0.0399 2.0472, 2.1998 -0.0399 2.0472, -1.4419 -0.5314 2.0472, -2.3277 -1.0624 2.0472, -0.7169 -1.7449 2.0472, -0.9231 -1.6088 2.0472, 0.6952 -1.6814 2.0472, 0.4776 -1.7985 2.0472, 2.3967 -1.5978 2.0472, 2.3967 -1.0624 2.0472, 2.2853 -1.4865 2.0472, 0.8883 -1.5274 2.0472, 2.1998 -1.023 2.0472, 2.3967 -0.0005 2.0472, 2.3967 0.5349 2.0472, 2.1998 -0.0005 2.0472, 1.3085 -0.4079 2.0472, -0.9231 0.5459 2.0472, -0.7169 0.682 2.0472, 0.6952 0.6186 2.0472, 0.8883 0.4645 2.0472, 1.0508 0.2785 2.0472, -1.1016 -1.4381 2.0472, -1.2469 -1.2382 2.0472, -1.354 -1.0156 2.0472, -1.4198 -0.7775 2.0472, 1.3085 -0.655 2.0472, -0.4898 0.7791 2.0472, -0.2489 0.834 2.0472, -0.0021 0.8451 2.0472, -2.5246 -1.0624 2.0472, -2.5246 -1.5978 2.0472, -2.4132 -1.4865 2.0472, -0.4898 -1.842 2.0472, -1.1764 1.6603 1.9685, -1.2878 1.7717 1.9685, 1.1599 1.7717 1.9685, -1.2043 -2.6954 1.9685, -1.2321 -2.7232 1.9685, -2.4132 -1.5421 1.9685, 2.2853 -1.5421 1.9685, 1.1042 -2.7232 1.9685, 2.2575 -1.5143 1.9685, 1.0764 -2.6954 1.9685, 1.1599 -2.8346 1.9685, -1.2878 -2.8346 1.9685, 1.0485 -2.7232 1.9685, -1.1764 -2.7232 1.9685, 2.3967 -1.0624 1.9685, 2.3967 -1.5978 1.9685, 2.1998 -1.0624 1.9685, 2.2853 -1.4865 1.9685, -2.5246 -1.5978 1.9685, -2.5246 -1.0624 1.9685, -2.4132 -1.4865 1.9685, -2.3277 -1.0624 1.9685, -2.3854 -1.5143 1.9685, -2.3277 -1.023 1.9685, -2.3671 -1.023 1.9685, -2.3671 -0.0388 1.9685, -1.2043 1.6325 1.9685, -2.3277 -0.0388 1.9685, 2.3967 0.5349 1.9685, 2.3967 -0.0005 1.9685, 2.2853 0.4236 1.9685, 2.1998 -0.0005 1.9685, 2.2575 0.4514 1.9685, 1.0764 1.6325 1.9685, 2.2853 0.4792 1.9685, 1.1042 1.6603 1.9685, 1.0485 1.6603 1.9685, 2.1998 -0.0399 1.9685, -2.5246 0.0006 1.9685, -2.5246 0.5349 1.9685, -2.3277 0.0006 1.9685, -2.4132 0.4236 1.9685, -2.3854 0.4514 1.9685, -2.4132 0.4792 1.9685, -1.2321 1.6603 1.9685, 2.2392 -0.0399 1.9685, 2.2392 -1.023 1.9685, 2.1998 -1.023 1.9685, 2.3179 -0.6102 -1.378, 2.3179 -0.4527 -1.378, 2.3967 -0.6102 -1.378, 2.3967 -0.4527 -1.378, -1.3435 1.7717 1.8898, -1.2878 1.716 1.8898, -1.3435 1.7717 0.748, -1.2878 1.716 0.748, -2.5246 0.5906 1.1811, -2.5246 0.5906 1.8898, -1.7611 1.3541 1.1811, -1.7611 1.3541 0.748, -1.7054 1.2984 0.748, -1.7054 1.2984 1.1811, -2.4689 0.5349 1.1811, -2.4689 0.5349 1.8898, 1.1599 1.716 1.8898, 1.2156 1.7717 1.8898, 1.1599 1.716 0.748, 1.2156 1.7717 0.748, 1.6332 1.3541 0.748, 1.6332 1.3541 1.1811, 2.3967 0.5906 1.1811, 2.3967 0.5906 1.8898, 2.341 0.5349 1.1811, 2.341 0.5349 1.8898, 1.5775 1.2984 1.1811, 1.5775 1.2984 0.748, 1.2156 -2.8346 1.8898, 1.1599 -2.7789 1.8898, 1.2156 -2.8346 0.748, 1.1599 -2.7789 0.748, 2.3967 -1.6535 1.1811, 2.3967 -1.6535 1.8898, 1.6332 -2.417 1.1811, 1.6332 -2.417 0.748, 1.5775 -2.3613 0.748, 1.5775 -2.3613 1.1811, 2.341 -1.5978 1.1811, 2.341 -1.5978 1.8898, -1.2878 -2.7789 1.8898, -1.3435 -2.8346 1.8898, -1.2878 -2.7789 0.748, -1.3435 -2.8346 0.748, -1.7611 -2.417 0.748, -1.7611 -2.417 1.1811, -2.5246 -1.6535 1.1811, -2.5246 -1.6535 1.8898, -2.4689 -1.5978 1.1811, -2.4689 -1.5978 1.8898, -1.7054 -2.3613 1.1811, -1.7054 -2.3613 0.748, -1.3397 -2.8308 1.9305, -1.2864 -2.7775 1.9073, -1.3286 -2.8197 1.9685, -1.2823 -2.7734 1.9239, -1.3109 -2.802 2.0011, -1.2445 -2.7356 1.9665, -1.2609 -2.7521 2.0419, -1.2563 -2.7474 1.9607, -1.2878 -2.7789 2.0261, -1.2668 -2.758 1.9513, -1.2757 -2.7668 1.9389, -2.442 -1.571 2.0419, -2.4256 -1.5545 1.9665, -2.4689 -1.5978 2.0261, -2.4374 -1.5663 1.9607, -2.492 -1.6209 2.0011, -2.4675 -1.5964 1.9073, -2.5208 -1.6497 1.9305, -2.4634 -1.5923 1.9239, -2.5097 -1.6386 1.9685, -2.4568 -1.5857 1.9389, -2.4479 -1.5769 1.9513, 2.2997 -1.5565 1.9658, 2.3141 -1.571 2.0419, 2.3132 -1.57 1.958, 2.341 -1.5978 2.0261, 2.3247 -1.5815 1.9454, 2.3641 -1.6209 2.0011, 2.3335 -1.5904 1.9291, 2.3818 -1.6386 1.9685, 2.3391 -1.5959 1.9101, 2.3929 -1.6497 1.9305, 1.158 -2.777 1.9101, 1.2118 -2.8308 1.9305, 1.1524 -2.7715 1.9291, 1.2007 -2.8197 1.9685, 1.1436 -2.7626 1.9454, 1.183 -2.802 2.0011, 1.1321 -2.7511 1.958, 1.1599 -2.7789 2.0261, 1.1186 -2.7377 1.9658, 1.133 -2.7521 2.0419, 1.1186 1.6748 1.9658, 1.133 1.6892 2.0419, 1.1321 1.6882 1.958, 1.1599 1.716 2.0261, 1.1436 1.6997 1.9454, 1.183 1.7391 2.0011, 1.1524 1.7086 1.9291, 1.2007 1.7568 1.9685, 1.158 1.7141 1.9101, 1.2118 1.7679 1.9305, 2.3391 0.533 1.9101, 2.3929 0.5868 1.9305, 2.3335 0.5275 1.9291, 2.3818 0.5757 1.9685, 2.3247 0.5186 1.9454, 2.3641 0.558 2.0011, 2.3132 0.5071 1.958, 2.341 0.5349 2.0261, 2.2997 0.4937 1.9658, 2.3141 0.5081 2.0419, -2.4276 0.4937 1.9658, -2.442 0.5081 2.0419, -2.4411 0.5071 1.958, -2.4689 0.5349 2.0261, -2.4526 0.5186 1.9454, -2.492 0.558 2.0011, -2.4614 0.5275 1.9291, -2.5097 0.5757 1.9685, -2.467 0.533 1.9101, -2.5208 0.5868 1.9305, -1.2859 1.7141 1.9101, -1.3397 1.7679 1.9305, -1.2803 1.7086 1.9291, -1.3286 1.7568 1.9685, -1.2715 1.6997 1.9454, -1.3109 1.7391 2.0011, -1.26 1.6882 1.958, -1.2878 1.716 2.0261, -1.2465 1.6748 1.9658, -1.2609 1.6892 2.0419, -1.2321 -2.7232 0.5906, -1.2321 -2.7232 0.6693, -1.2609 -2.7521 0.5959, -1.2445 -2.7356 0.6713, -1.2878 -2.7789 0.6117, -1.2563 -2.7474 0.6771, -1.3109 -2.802 0.6367, -1.2864 -2.7775 0.7305, -1.3397 -2.8308 0.7073, -1.2823 -2.7734 0.7139, -1.3286 -2.8197 0.6693, -1.2757 -2.7668 0.6989, -1.2668 -2.758 0.6865, -1.7573 -2.4132 0.7073, -1.704 -2.3599 0.7305, -1.7461 -2.4021 0.6693, -1.6999 -2.3558 0.7139, -1.7284 -2.3844 0.6367, -1.6497 -2.3057 0.6693, -1.6497 -2.3057 0.5906, -1.6621 -2.318 0.6713, -1.6785 -2.3345 0.5959, -1.6739 -2.3298 0.6771, -1.7054 -2.3613 0.6117, -1.6844 -2.3404 0.6865, -1.6932 -2.3492 0.6989, -1.2878 -1.9438 0.6693, -1.2878 -1.9438 0.5906, -0.8702 -2.3613 0.5906, -0.8702 -2.3613 0.6693, 1.5756 -2.3594 0.7277, 1.6294 -2.4132 0.7073, 1.57 -2.3539 0.7087, 1.6182 -2.4021 0.6693, 1.5612 -2.345 0.6924, 1.6005 -2.3844 0.6367, 1.5496 -2.3335 0.6798, 1.5775 -2.3613 0.6117, 1.5362 -2.3201 0.672, 1.5506 -2.3345 0.5959, 1.5218 -2.3057 0.6693, 1.5218 -2.3057 0.5906, 1.1042 -2.7232 0.6693, 1.1042 -2.7232 0.5906, 1.1186 -2.7377 0.672, 1.133 -2.7521 0.5959, 1.1321 -2.7511 0.6798, 1.1599 -2.7789 0.6117, 1.1436 -2.7626 0.6924, 1.183 -2.802 0.6367, 1.1524 -2.7715 0.7087, 1.2007 -2.8197 0.6693, 1.158 -2.777 0.7277, 1.2118 -2.8308 0.7073, 0.7423 -2.3613 0.6693, 0.7423 -2.3613 0.5906, 1.1599 -1.9438 0.5906, 1.1599 -1.9438 0.6693, 1.158 1.7141 0.7277, 1.2118 1.7679 0.7073, 1.1524 1.7086 0.7087, 1.2007 1.7568 0.6693, 1.1436 1.6997 0.6924, 1.183 1.7391 0.6367, 1.1321 1.6882 0.6798, 1.1599 1.716 0.6117, 1.1186 1.6748 0.672, 1.133 1.6892 0.5959, 1.1042 1.6603 0.6693, 1.1042 1.6603 0.5906, 1.5218 1.2428 0.6693, 1.5218 1.2428 0.5906, 1.5362 1.2572 0.672, 1.5506 1.2716 0.5959, 1.5496 1.2706 0.6798, 1.5775 1.2984 0.6117, 1.5612 1.2821 0.6924, 1.6005 1.3215 0.6367, 1.57 1.291 0.7087, 1.6182 1.3392 0.6693, 1.5756 1.2965 0.7277, 1.6294 1.3503 0.7073, 1.1599 0.8809 0.6693, 1.1599 0.8809 0.5906, 0.7423 1.2984 0.5906, 0.7423 1.2984 0.6693, -1.7035 1.2965 0.7277, -1.7573 1.3503 0.7073, -1.6979 1.291 0.7087, -1.7461 1.3392 0.6693, -1.6891 1.2821 0.6924, -1.7284 1.3215 0.6367, -1.6775 1.2706 0.6798, -1.7054 1.2984 0.6117, -1.6641 1.2572 0.672, -1.6785 1.2716 0.5959, -1.6497 1.2428 0.6693, -1.6497 1.2428 0.5906, -1.2321 1.6603 0.6693, -1.2321 1.6603 0.5906, -1.2465 1.6748 0.672, -1.2609 1.6892 0.5959, -1.26 1.6882 0.6798, -1.2878 1.716 0.6117, -1.2715 1.6997 0.6924, -1.3109 1.7391 0.6367, -1.2803 1.7086 0.7087, -1.3286 1.7568 0.6693, -1.2859 1.7141 0.7277, -1.3397 1.7679 0.7073, -0.8702 1.2984 0.6693, -0.8702 1.2984 0.5906, -1.2878 0.8809 0.5906, -1.2878 0.8809 0.6693, 2.2596 -0.0399 1.9658, 2.28 -0.0399 2.0419, 2.2786 -0.0399 1.958, 2.3179 -0.0399 2.0261, 2.2949 -0.0399 1.9454, 2.3506 -0.0399 2.0011, 2.3074 -0.0399 1.9291, 2.3756 -0.0399 1.9685, 2.3153 -0.0399 1.9101, 2.3913 -0.0399 1.9305, 2.3179 -0.0399 1.8898, 2.3967 -0.0399 1.8898, 2.3179 -1.023 1.8898, 2.3967 -1.023 1.8898, 2.3153 -1.023 1.9101, 2.3913 -1.023 1.9305, 2.3074 -1.023 1.9291, 2.3756 -1.023 1.9685, 2.2949 -1.023 1.9454, 2.3506 -1.023 2.0011, 2.2786 -1.023 1.958, 2.3179 -1.023 2.0261, 2.2596 -1.023 1.9658, 2.28 -1.023 2.0419, 2.3967 -1.023 1.1301, 2.3179 -1.023 1.1301, 2.3179 -0.0399 1.1301, 2.3967 -0.0399 1.1301, 2.3967 -0.1377 0.5751, 2.3967 -0.9251 0.5751, 2.3967 -0.1377 -1.063, 2.3967 -0.9251 -1.063, 2.3967 -0.1689 -1.1996, 2.3967 -0.3826 -1.3701, 2.3967 -0.2065 -1.2594, 2.3967 -0.316 -1.3468, 2.3967 -0.2563 -1.3092, 2.3967 -0.7468 -1.3468, 2.3967 -0.894 -1.1996, 2.3967 -0.8066 -1.3092, 2.3967 -0.8564 -1.2594, 2.3967 -0.9172 -1.1331, 2.3967 -0.6803 -1.3701, 2.3967 -0.1456 -1.1331, 2.3179 -0.1689 -1.1996, 2.3179 -0.2065 -1.2594, 2.3179 -0.9251 -1.063, 2.3179 -0.9251 0.5751, 2.3179 -0.1377 0.5751, 2.3179 -0.1377 -1.063, 2.3179 -0.1456 -1.1331, 2.3179 -0.2563 -1.3092, 2.3179 -0.316 -1.3468, 2.3179 -0.3826 -1.3701, 2.3179 -0.6803 -1.3701, 2.3179 -0.894 -1.1996, 2.3179 -0.9172 -1.1331, 2.3179 -0.7468 -1.3468, 2.3179 -0.8066 -1.3092, 2.3179 -0.8564 -1.2594, -2.3875 -1.023 1.9658, -2.4079 -1.023 2.0419, -2.4065 -1.023 1.958, -2.4458 -1.023 2.0261, -2.4228 -1.023 1.9454, -2.4785 -1.023 2.0011, -2.4353 -1.023 1.9291, -2.5035 -1.023 1.9685, -2.4432 -1.023 1.9101, -2.5192 -1.023 1.9305, -2.4432 -0.0388 1.9101, -2.5192 -0.0388 1.9305, -2.4353 -0.0388 1.9291, -2.5035 -0.0388 1.9685, -2.4228 -0.0388 1.9454, -2.4785 -0.0388 2.0011, -2.4065 -0.0388 1.958, -2.4458 -0.0388 2.0261, -2.3875 -0.0388 1.9658, -2.4079 -0.0388 2.0419, 1.314 -0.5314 3.5236, 1.3085 -0.655 3.5236, 1.2643 -0.898 3.5236, 1.1775 -1.1293 3.5236, 1.0508 -1.3414 3.5236, 0.8883 -1.5274 3.5236, 0.6952 -1.6814 3.5236, 0.4776 -1.7985 3.5236, 0.2427 -1.8749 3.5236, -0.0021 -1.908 3.5236, -0.2489 -1.8969 3.5236, -0.4898 -1.842 3.5236, -0.7169 -1.7449 3.5236, -0.9231 -1.6088 3.5236, -1.1016 -1.4381 3.5236, -1.2469 -1.2382 3.5236, -1.354 -1.0156 3.5236, -1.4198 -0.7775 3.5236, -1.4419 -0.5314 3.5236, -1.4198 -0.2854 3.5236, -1.354 -0.0473 3.5236, -1.2469 0.1753 3.5236, -1.1016 0.3752 3.5236, -0.9231 0.5459 3.5236, -0.7169 0.682 3.5236, -0.4898 0.7791 3.5236, -0.2489 0.834 3.5236, -0.0021 0.8451 3.5236, 0.2427 0.812 3.5236, 0.4776 0.7356 3.5236, 0.6952 0.6186 3.5236, 0.8883 0.4645 3.5236, 1.0508 0.2785 3.5236, 1.1775 0.0664 3.5236, 1.2643 -0.1649 3.5236, 1.3085 -0.4079 3.5236, -1.3229 -0.7599 3.622, -1.3217 -0.7666 4.4095, -1.3435 -0.5314 4.4095, -1.3211 -0.7664 3.622, -1.2619 -0.981 3.622, -1.2571 -0.9937 4.4095, -1.256 -0.9932 3.622, -1.1624 -1.1877 3.622, -1.1518 -1.205 4.4095, -1.1505 -1.2041 3.622, -1.0275 -1.3733 3.622, -1.0095 -1.3935 4.4095, -1.0081 -1.3919 3.622, -0.8617 -1.5318 3.622, -0.835 -1.5525 4.4095, -0.8336 -1.5504 3.622, -0.6703 -1.6582 3.622, -0.6343 -1.6768 4.4095, -0.6331 -1.6741 3.622, -0.4593 -1.7483 3.622, -0.4141 -1.7621 4.4095, -0.4134 -1.7588 3.622, -0.2357 -1.7994 3.622, -0.182 -1.8055 4.4095, -0.1818 -1.8018 3.622, -0.0065 -1.8097 3.622, 0.0541 -1.8055 4.4095, 0.0536 -1.8015 3.622, 0.2208 -1.7789 3.622, 0.2862 -1.7621 4.4095, 0.2849 -1.7581 3.622, 0.4389 -1.708 3.622, 0.5064 -1.6768 4.4095, 0.5042 -1.6729 3.622, 0.6409 -1.5993 3.622, 0.7071 -1.5525 4.4095, 0.7042 -1.5489 3.622, 0.8203 -1.4563 3.622, 0.8816 -1.3935 4.4095, 0.878 -1.3903 3.622, 0.9712 -1.2835 3.622, 1.0239 -1.205 4.4095, 1.0196 -1.2025 3.622, 1.0889 -1.0866 3.622, 1.1292 -0.9937 4.4095, 1.1244 -0.9919 3.622, 1.1695 -0.8718 3.622, 1.1938 -0.7666 4.4095, 1.1887 -0.7656 3.622, 1.2104 -0.6461 3.622, 1.2156 -0.5314 4.4095, 1.2156 -0.5314 3.622, 1.2104 -0.4167 3.622, 1.1938 -0.2963 4.4095, 1.1887 -0.2972 3.622, 1.1695 -0.191 3.622, 1.1292 -0.0692 4.4095, 1.1244 -0.071 3.622, 1.0889 0.0237 3.622, 1.0239 0.1421 4.4095, 1.0196 0.1396 3.622, 0.9712 0.2206 3.622, 0.8816 0.3306 4.4095, 0.878 0.3274 3.622, 0.8203 0.3934 3.622, 0.7071 0.4896 4.4095, 0.7042 0.486 3.622, 0.6409 0.5364 3.622, 0.5064 0.6139 4.4095, 0.5042 0.61 3.622, 0.4389 0.6451 3.622, 0.2862 0.6992 4.4095, 0.2849 0.6952 3.622, 0.2208 0.716 3.622, 0.0541 0.7426 4.4095, 0.0536 0.7387 3.622, -0.0065 0.7468 3.622, -0.182 0.7426 4.4095, -0.1818 0.7389 3.622, -0.2357 0.7365 3.622, -0.4141 0.6992 4.4095, -0.4134 0.696 3.622, -0.4593 0.6855 3.622, -0.6343 0.6139 4.4095, -0.6331 0.6112 3.622, -0.6703 0.5953 3.622, -0.835 0.4896 4.4095, -0.8336 0.4875 3.622, -0.8617 0.4689 3.622, -1.0095 0.3306 4.4095, -1.0081 0.329 3.622, -1.0275 0.3104 3.622, -1.1518 0.1421 4.4095, -1.1505 0.1412 3.622, -1.1624 0.1248 3.622, -1.2571 -0.0692 4.4095, -1.256 -0.0697 3.622, -1.2619 -0.0819 3.622, -1.3217 -0.2963 4.4095, -1.3211 -0.2965 3.622, -1.3229 -0.303 3.622, -1.3435 -0.5314 3.622, 1.1118 -0.4192 4.4095, 1.0693 -0.1987 4.4095, 0.9859 0.0098 4.4095, 0.8645 0.1987 4.4095, 0.7095 0.3612 4.4095, 0.5266 0.4914 4.4095, 0.3224 0.5847 4.4095, 0.1041 0.6376 4.4095, -0.1201 0.6483 4.4095, -0.3424 0.6164 4.4095, -0.5546 0.5429 4.4095, -0.7491 0.4307 4.4095, -0.9188 0.2836 4.4095, -1.0576 0.1071 4.4095, -1.1604 -0.0925 4.4095, -1.2237 -0.3079 4.4095, -1.2451 -0.5314 4.4095, -1.2237 -0.755 4.4095, -1.1604 -0.9704 4.4095, -1.0576 -1.17 4.4095, -0.9188 -1.3465 4.4095, -0.7491 -1.4935 4.4095, -0.5546 -1.6058 4.4095, -0.3424 -1.6793 4.4095, -0.1201 -1.7112 4.4095, 0.1041 -1.7005 4.4095, 0.3224 -1.6476 4.4095, 0.5266 -1.5543 4.4095, 0.7095 -1.4241 4.4095, 0.8645 -1.2616 4.4095, 0.9859 -1.0727 4.4095, 1.0693 -0.8642 4.4095, 1.1118 -0.6437 4.4095, 1.1172 -0.5314 4.4095
            ]
        }
        coordIndex [
            0,1,2,-1,2,1,3,-1,4,5,6,-1,6,5,7,-1,0,2,5,-1,5,2,8,-1,5,8,7,-1,7,8,9,-1,10,11,9,-1,9,11,12,-1,9,12,7,-1,13,14,15,-1,15,14,10,-1,16,17,18,-1,19,20,21,-1,13,15,18,-1,18,15,22,-1,18,22,16,-1,10,14,11,-1,11,14,23,-1,11,23,24,-1,24,25,11,-1,11,25,19,-1,11,19,26,-1,26,19,21,-1,27,3,1,-1,28,29,30,-1,31,32,33,-1,33,32,34,-1,33,34,35,-1,35,34,36,-1,35,36,6,-1,6,36,27,-1,6,27,4,-1,4,27,1,-1,28,30,37,-1,37,30,33,-1,33,30,38,-1,33,38,31,-1,39,40,41,-1,32,42,34,-1,34,42,43,-1,34,43,44,-1,44,43,39,-1,44,39,45,-1,45,39,41,-1,32,23,42,-1,42,23,14,-1,46,47,48,-1,49,50,51,-1,52,53,54,-1,54,53,55,-1,56,57,58,-1,59,60,61,-1,61,60,62,-1,49,51,59,-1,63,64,65,-1,65,64,66,-1,67,68,69,-1,69,68,70,-1,69,70,48,-1,56,58,71,-1,72,73,74,-1,74,73,75,-1,76,77,78,-1,78,77,79,-1,78,79,80,-1,65,81,82,-1,83,84,85,-1,85,84,86,-1,85,86,87,-1,87,86,54,-1,87,54,88,-1,88,54,55,-1,88,55,89,-1,90,91,92,-1,92,91,93,-1,94,95,96,-1,65,82,51,-1,75,97,70,-1,70,97,76,-1,70,76,48,-1,48,76,78,-1,48,78,46,-1,98,99,100,-1,71,101,55,-1,55,101,102,-1,55,102,89,-1,103,104,105,-1,105,104,92,-1,105,92,58,-1,58,92,93,-1,58,93,71,-1,71,93,106,-1,71,106,101,-1,94,96,107,-1,108,109,110,-1,110,109,61,-1,110,61,111,-1,111,61,62,-1,80,112,78,-1,78,112,113,-1,78,113,66,-1,82,114,51,-1,51,114,115,-1,51,115,59,-1,59,115,116,-1,59,116,60,-1,100,117,98,-1,98,117,118,-1,98,118,73,-1,73,118,119,-1,73,119,75,-1,75,119,120,-1,75,120,97,-1,90,92,121,-1,121,92,107,-1,121,107,111,-1,111,107,96,-1,111,96,110,-1,113,122,66,-1,66,122,123,-1,66,123,65,-1,65,123,124,-1,65,124,81,-1,125,126,98,-1,98,126,127,-1,98,127,99,-1,99,127,85,-1,99,85,128,-1,128,85,87,-1,129,130,131,-1,132,133,134,-1,135,136,137,-1,137,136,138,-1,139,140,141,-1,141,140,142,-1,141,142,138,-1,143,144,145,-1,145,144,146,-1,147,148,149,-1,149,148,150,-1,149,150,151,-1,152,153,154,-1,142,132,138,-1,138,132,155,-1,138,155,129,-1,154,156,152,-1,152,156,155,-1,152,155,150,-1,150,155,132,-1,150,132,151,-1,151,132,134,-1,157,158,159,-1,159,158,160,-1,159,160,161,-1,161,160,162,-1,161,162,163,-1,163,162,164,-1,131,165,129,-1,129,165,162,-1,129,162,138,-1,138,162,160,-1,138,160,166,-1,167,168,169,-1,169,168,170,-1,169,170,171,-1,172,173,171,-1,171,173,155,-1,171,155,169,-1,169,155,156,-1,174,175,166,-1,166,175,176,-1,166,176,138,-1,138,176,145,-1,138,145,137,-1,137,145,146,-1,68,67,167,-1,167,67,168,-1,148,147,125,-1,125,147,126,-1,177,178,179,-1,179,178,180,-1,104,103,143,-1,143,103,144,-1,158,157,108,-1,108,157,109,-1,181,182,183,-1,183,182,184,-1,185,186,187,-1,187,186,181,-1,187,181,188,-1,188,181,183,-1,189,184,190,-1,190,184,182,-1,190,182,191,-1,191,182,192,-1,190,187,189,-1,189,187,188,-1,193,194,195,-1,195,194,196,-1,197,196,198,-1,198,196,194,-1,198,194,199,-1,199,194,200,-1,201,202,203,-1,203,202,193,-1,203,193,204,-1,204,193,195,-1,198,203,197,-1,197,203,204,-1,205,206,207,-1,207,206,208,-1,209,210,211,-1,211,210,205,-1,211,205,212,-1,212,205,207,-1,213,208,214,-1,214,208,206,-1,214,206,215,-1,215,206,216,-1,214,211,213,-1,213,211,212,-1,217,218,219,-1,219,218,220,-1,221,220,222,-1,222,220,218,-1,222,218,223,-1,223,218,224,-1,225,226,227,-1,227,226,217,-1,227,217,228,-1,228,217,219,-1,222,227,221,-1,221,227,228,-1,191,185,190,-1,190,185,187,-1,199,201,198,-1,198,201,203,-1,215,209,214,-1,214,209,211,-1,223,225,222,-1,222,225,227,-1,64,63,130,-1,130,63,131,-1,53,52,139,-1,139,52,140,-1,126,147,127,-1,127,147,149,-1,127,149,85,-1,85,149,151,-1,85,151,83,-1,83,151,134,-1,84,133,86,-1,86,133,132,-1,86,132,54,-1,54,132,142,-1,54,142,52,-1,52,142,140,-1,53,139,55,-1,55,139,141,-1,55,141,71,-1,71,141,138,-1,71,138,56,-1,56,138,136,-1,57,135,58,-1,58,135,137,-1,58,137,105,-1,105,137,146,-1,105,146,103,-1,103,146,144,-1,61,159,59,-1,59,159,161,-1,59,161,49,-1,49,161,163,-1,50,164,51,-1,51,164,162,-1,51,162,65,-1,65,162,165,-1,109,157,61,-1,61,157,159,-1,65,165,63,-1,63,165,131,-1,66,129,78,-1,78,129,155,-1,78,155,46,-1,46,155,173,-1,47,172,48,-1,48,172,171,-1,48,171,69,-1,69,171,170,-1,64,130,66,-1,66,130,129,-1,69,170,67,-1,67,170,168,-1,218,217,229,-1,229,217,230,-1,229,230,231,-1,231,230,232,-1,231,232,233,-1,133,84,234,-1,234,84,235,-1,234,235,236,-1,236,235,237,-1,236,237,238,-1,238,237,233,-1,238,233,239,-1,239,233,232,-1,83,134,240,-1,240,134,241,-1,240,241,242,-1,242,241,243,-1,242,243,244,-1,226,224,245,-1,245,224,246,-1,245,246,247,-1,247,246,248,-1,247,248,249,-1,249,248,244,-1,249,244,250,-1,250,244,243,-1,84,83,240,-1,84,240,235,-1,235,240,242,-1,235,242,237,-1,237,242,244,-1,237,244,233,-1,233,244,248,-1,233,248,231,-1,231,248,246,-1,231,246,229,-1,229,246,224,-1,229,224,218,-1,217,226,230,-1,230,226,245,-1,230,245,232,-1,232,245,247,-1,232,247,239,-1,239,247,249,-1,239,249,238,-1,238,249,250,-1,238,250,236,-1,236,250,243,-1,236,243,234,-1,234,243,241,-1,234,241,133,-1,133,241,134,-1,225,223,226,-1,226,223,224,-1,135,57,251,-1,251,57,252,-1,251,252,253,-1,253,252,254,-1,253,254,255,-1,255,254,256,-1,255,256,257,-1,257,256,258,-1,257,258,259,-1,259,258,260,-1,259,260,216,-1,216,260,210,-1,206,205,261,-1,261,205,262,-1,261,262,263,-1,263,262,264,-1,263,264,265,-1,265,264,266,-1,265,266,267,-1,267,266,268,-1,267,268,269,-1,269,268,270,-1,269,270,136,-1,136,270,56,-1,57,56,270,-1,57,270,252,-1,252,270,268,-1,252,268,254,-1,254,268,266,-1,254,266,256,-1,256,266,264,-1,256,264,258,-1,258,264,262,-1,258,262,260,-1,260,262,205,-1,260,205,210,-1,216,206,259,-1,259,206,261,-1,259,261,257,-1,257,261,263,-1,257,263,255,-1,255,263,265,-1,255,265,253,-1,253,265,267,-1,253,267,251,-1,251,267,269,-1,251,269,135,-1,135,269,136,-1,209,215,210,-1,210,215,216,-1,164,50,271,-1,271,50,272,-1,271,272,273,-1,273,272,274,-1,273,274,275,-1,275,274,276,-1,275,276,277,-1,277,276,278,-1,277,278,279,-1,279,278,280,-1,279,280,193,-1,193,280,194,-1,202,200,281,-1,281,200,282,-1,281,282,283,-1,283,282,284,-1,283,284,285,-1,285,284,286,-1,285,286,287,-1,287,286,288,-1,287,288,289,-1,289,288,290,-1,289,290,163,-1,163,290,49,-1,50,49,290,-1,50,290,272,-1,272,290,288,-1,272,288,274,-1,274,288,286,-1,274,286,276,-1,276,286,284,-1,276,284,278,-1,278,284,282,-1,278,282,280,-1,280,282,200,-1,280,200,194,-1,193,202,279,-1,279,202,281,-1,279,281,277,-1,277,281,283,-1,277,283,275,-1,275,283,285,-1,275,285,273,-1,273,285,287,-1,273,287,271,-1,271,287,289,-1,271,289,164,-1,164,289,163,-1,201,199,202,-1,202,199,200,-1,172,47,291,-1,291,47,292,-1,291,292,293,-1,293,292,294,-1,293,294,295,-1,295,294,296,-1,295,296,297,-1,297,296,298,-1,297,298,299,-1,299,298,300,-1,299,300,192,-1,192,300,186,-1,182,181,301,-1,301,181,302,-1,301,302,303,-1,303,302,304,-1,303,304,305,-1,305,304,306,-1,305,306,307,-1,307,306,308,-1,307,308,309,-1,309,308,310,-1,309,310,173,-1,173,310,46,-1,47,46,310,-1,47,310,292,-1,292,310,308,-1,292,308,294,-1,294,308,306,-1,294,306,296,-1,296,306,304,-1,296,304,298,-1,298,304,302,-1,298,302,300,-1,300,302,181,-1,300,181,186,-1,192,182,299,-1,299,182,301,-1,299,301,297,-1,297,301,303,-1,297,303,295,-1,295,303,305,-1,295,305,293,-1,293,305,307,-1,293,307,291,-1,291,307,309,-1,291,309,172,-1,172,309,173,-1,185,191,186,-1,186,191,192,-1,311,312,313,-1,313,312,314,-1,313,314,315,-1,315,314,316,-1,315,316,317,-1,219,220,318,-1,318,220,319,-1,318,319,320,-1,320,319,321,-1,320,321,322,-1,322,321,317,-1,322,317,323,-1,323,317,316,-1,221,228,324,-1,324,228,325,-1,324,325,326,-1,326,325,327,-1,326,327,328,-1,329,330,331,-1,331,330,332,-1,331,332,333,-1,333,332,334,-1,333,334,335,-1,335,334,328,-1,335,328,336,-1,336,328,327,-1,220,221,324,-1,220,324,319,-1,319,324,326,-1,319,326,321,-1,321,326,328,-1,321,328,317,-1,317,328,334,-1,317,334,315,-1,315,334,332,-1,315,332,313,-1,313,332,330,-1,313,330,311,-1,312,329,314,-1,314,329,331,-1,314,331,316,-1,316,331,333,-1,316,333,323,-1,323,333,335,-1,323,335,322,-1,322,335,336,-1,322,336,320,-1,320,336,327,-1,320,327,318,-1,318,327,325,-1,318,325,219,-1,219,325,228,-1,337,338,329,-1,329,338,330,-1,339,340,311,-1,311,340,312,-1,338,339,330,-1,330,339,311,-1,312,340,329,-1,329,340,337,-1,339,338,340,-1,340,338,337,-1,213,212,341,-1,341,212,342,-1,341,342,343,-1,343,342,344,-1,343,344,345,-1,345,344,346,-1,345,346,347,-1,347,346,348,-1,347,348,349,-1,349,348,350,-1,349,350,351,-1,351,350,352,-1,353,354,355,-1,355,354,356,-1,355,356,357,-1,357,356,358,-1,357,358,359,-1,359,358,360,-1,359,360,361,-1,361,360,362,-1,361,362,363,-1,363,362,364,-1,363,364,208,-1,208,364,207,-1,212,207,364,-1,212,364,342,-1,342,364,362,-1,342,362,344,-1,344,362,360,-1,344,360,346,-1,346,360,358,-1,346,358,348,-1,348,358,356,-1,348,356,350,-1,350,356,354,-1,350,354,352,-1,351,353,349,-1,349,353,355,-1,349,355,347,-1,347,355,357,-1,347,357,345,-1,345,357,359,-1,345,359,343,-1,343,359,361,-1,343,361,341,-1,341,361,363,-1,341,363,213,-1,213,363,208,-1,365,366,353,-1,353,366,354,-1,367,368,352,-1,352,368,351,-1,366,367,354,-1,354,367,352,-1,351,368,353,-1,353,368,365,-1,367,366,368,-1,368,366,365,-1,195,196,369,-1,369,196,370,-1,369,370,371,-1,371,370,372,-1,371,372,373,-1,373,372,374,-1,373,374,375,-1,375,374,376,-1,375,376,377,-1,377,376,378,-1,377,378,379,-1,379,378,380,-1,381,382,383,-1,383,382,384,-1,383,384,385,-1,385,384,386,-1,385,386,387,-1,387,386,388,-1,387,388,389,-1,389,388,390,-1,389,390,391,-1,391,390,392,-1,391,392,204,-1,204,392,197,-1,196,197,392,-1,196,392,370,-1,370,392,390,-1,370,390,372,-1,372,390,388,-1,372,388,374,-1,374,388,386,-1,374,386,376,-1,376,386,384,-1,376,384,378,-1,378,384,382,-1,378,382,380,-1,379,381,377,-1,377,381,383,-1,377,383,375,-1,375,383,385,-1,375,385,373,-1,373,385,387,-1,373,387,371,-1,371,387,389,-1,371,389,369,-1,369,389,391,-1,369,391,195,-1,195,391,204,-1,393,394,381,-1,381,394,382,-1,395,396,380,-1,380,396,379,-1,394,395,382,-1,382,395,380,-1,379,396,381,-1,381,396,393,-1,395,394,396,-1,396,394,393,-1,189,188,397,-1,397,188,398,-1,397,398,399,-1,399,398,400,-1,399,400,401,-1,401,400,402,-1,401,402,403,-1,403,402,404,-1,403,404,405,-1,405,404,406,-1,405,406,407,-1,407,406,408,-1,409,410,411,-1,411,410,412,-1,411,412,413,-1,413,412,414,-1,413,414,415,-1,415,414,416,-1,415,416,417,-1,417,416,418,-1,417,418,419,-1,419,418,420,-1,419,420,184,-1,184,420,183,-1,188,183,420,-1,188,420,398,-1,398,420,418,-1,398,418,400,-1,400,418,416,-1,400,416,402,-1,402,416,414,-1,402,414,404,-1,404,414,412,-1,404,412,406,-1,406,412,410,-1,406,410,408,-1,407,409,405,-1,405,409,411,-1,405,411,403,-1,403,411,413,-1,403,413,401,-1,401,413,415,-1,401,415,399,-1,399,415,417,-1,399,417,397,-1,397,417,419,-1,397,419,189,-1,189,419,184,-1,421,422,409,-1,409,422,410,-1,423,424,408,-1,408,424,407,-1,422,423,410,-1,410,423,408,-1,407,424,409,-1,409,424,421,-1,423,422,424,-1,424,422,421,-1,92,145,107,-1,107,145,176,-1,107,176,94,-1,94,176,175,-1,95,174,96,-1,96,174,166,-1,96,166,110,-1,110,166,160,-1,104,143,92,-1,92,143,145,-1,110,160,108,-1,108,160,158,-1,174,95,425,-1,425,95,426,-1,425,426,427,-1,427,426,428,-1,427,428,429,-1,429,428,430,-1,429,430,431,-1,431,430,432,-1,431,432,433,-1,433,432,434,-1,433,434,435,-1,435,434,436,-1,437,438,439,-1,439,438,440,-1,439,440,441,-1,441,440,442,-1,441,442,443,-1,443,442,444,-1,443,444,445,-1,445,444,446,-1,445,446,447,-1,447,446,448,-1,447,448,175,-1,175,448,94,-1,95,94,448,-1,95,448,426,-1,426,448,446,-1,426,446,428,-1,428,446,444,-1,428,444,430,-1,430,444,442,-1,430,442,432,-1,432,442,440,-1,432,440,434,-1,434,440,438,-1,434,438,436,-1,435,437,433,-1,433,437,439,-1,433,439,431,-1,431,439,441,-1,431,441,429,-1,429,441,443,-1,429,443,427,-1,427,443,445,-1,427,445,425,-1,425,445,447,-1,425,447,174,-1,174,447,175,-1,449,438,450,-1,450,438,437,-1,451,435,452,-1,452,435,436,-1,436,438,452,-1,452,438,449,-1,452,449,453,-1,453,449,454,-1,453,454,455,-1,455,454,456,-1,455,456,179,-1,457,458,459,-1,459,458,460,-1,459,460,461,-1,462,463,464,-1,464,463,465,-1,456,466,179,-1,179,466,463,-1,179,463,467,-1,467,463,462,-1,179,180,455,-1,455,180,458,-1,455,458,468,-1,468,458,457,-1,469,470,178,-1,178,177,471,-1,437,435,450,-1,450,435,451,-1,450,451,472,-1,472,451,473,-1,472,473,471,-1,471,473,474,-1,471,474,178,-1,178,474,475,-1,178,475,469,-1,476,477,470,-1,470,477,478,-1,470,478,178,-1,479,480,177,-1,177,480,481,-1,177,481,471,-1,479,482,480,-1,480,482,483,-1,480,483,484,-1,474,455,468,-1,474,468,475,-1,475,468,457,-1,475,457,469,-1,469,457,459,-1,469,459,470,-1,470,459,461,-1,470,461,476,-1,476,461,460,-1,476,460,477,-1,477,460,458,-1,477,458,478,-1,478,458,180,-1,478,180,178,-1,473,451,453,-1,453,451,452,-1,474,473,455,-1,455,473,453,-1,450,472,449,-1,449,472,454,-1,472,471,454,-1,454,471,456,-1,177,179,467,-1,177,467,479,-1,479,467,462,-1,479,462,482,-1,482,462,464,-1,482,464,483,-1,483,464,465,-1,483,465,484,-1,484,465,463,-1,484,463,480,-1,480,463,466,-1,480,466,481,-1,481,466,456,-1,481,456,471,-1,70,169,75,-1,75,169,156,-1,75,156,74,-1,74,156,154,-1,72,153,73,-1,73,153,152,-1,73,152,98,-1,98,152,150,-1,68,167,70,-1,70,167,169,-1,98,150,125,-1,125,150,148,-1,153,72,485,-1,485,72,486,-1,485,486,487,-1,487,486,488,-1,487,488,489,-1,489,488,490,-1,489,490,491,-1,491,490,492,-1,491,492,493,-1,493,492,494,-1,493,494,4,-1,4,494,5,-1,1,0,495,-1,495,0,496,-1,495,496,497,-1,497,496,498,-1,497,498,499,-1,499,498,500,-1,499,500,501,-1,501,500,502,-1,501,502,503,-1,503,502,504,-1,503,504,154,-1,154,504,74,-1,72,74,504,-1,72,504,486,-1,486,504,502,-1,486,502,488,-1,488,502,500,-1,488,500,490,-1,490,500,498,-1,490,498,492,-1,492,498,496,-1,492,496,494,-1,494,496,0,-1,494,0,5,-1,4,1,493,-1,493,1,495,-1,493,495,491,-1,491,495,497,-1,491,497,489,-1,489,497,499,-1,489,499,487,-1,487,499,501,-1,487,501,485,-1,485,501,503,-1,485,503,153,-1,153,503,154,-1,33,11,26,-1,33,26,37,-1,37,26,21,-1,37,21,28,-1,28,21,20,-1,28,20,29,-1,29,20,19,-1,29,19,30,-1,30,19,25,-1,30,25,38,-1,38,25,24,-1,38,24,31,-1,31,24,23,-1,31,23,32,-1,33,35,11,-1,11,35,12,-1,35,6,12,-1,12,6,7,-1,27,8,3,-1,3,8,2,-1,27,36,8,-1,8,36,9,-1,36,34,9,-1,9,34,10,-1,42,14,13,-1,42,13,43,-1,43,13,18,-1,43,18,39,-1,39,18,17,-1,39,17,40,-1,40,17,16,-1,40,16,41,-1,41,16,22,-1,41,22,45,-1,45,22,15,-1,45,15,44,-1,44,15,10,-1,44,10,34,-1,505,506,121,-1,121,506,507,-1,121,507,90,-1,90,507,508,-1,90,508,91,-1,91,508,509,-1,91,509,93,-1,93,509,510,-1,93,510,106,-1,106,510,511,-1,106,511,101,-1,101,511,512,-1,101,512,102,-1,102,512,513,-1,102,513,89,-1,89,513,514,-1,89,514,88,-1,88,514,515,-1,88,515,87,-1,87,515,516,-1,87,516,128,-1,128,516,517,-1,128,517,99,-1,99,517,518,-1,99,518,100,-1,100,518,519,-1,100,519,117,-1,117,519,520,-1,117,520,118,-1,118,520,521,-1,118,521,119,-1,119,521,522,-1,119,522,120,-1,120,522,523,-1,120,523,97,-1,97,523,524,-1,97,524,76,-1,76,524,525,-1,76,525,77,-1,77,525,526,-1,77,526,79,-1,79,526,527,-1,79,527,80,-1,80,527,528,-1,80,528,112,-1,112,528,529,-1,112,529,113,-1,113,529,530,-1,113,530,122,-1,122,530,531,-1,122,531,123,-1,123,531,532,-1,123,532,124,-1,124,532,533,-1,124,533,81,-1,81,533,534,-1,81,534,82,-1,82,534,535,-1,82,535,114,-1,114,535,536,-1,114,536,115,-1,115,536,537,-1,115,537,116,-1,116,537,538,-1,116,538,60,-1,60,538,539,-1,60,539,62,-1,62,539,540,-1,62,540,111,-1,111,540,505,-1,111,505,121,-1,541,542,543,-1,541,544,542,-1,542,544,545,-1,542,545,546,-1,545,547,546,-1,546,547,548,-1,546,548,549,-1,548,550,549,-1,549,550,551,-1,549,551,552,-1,551,553,552,-1,552,553,554,-1,552,554,555,-1,554,556,555,-1,555,556,557,-1,555,557,558,-1,557,559,558,-1,558,559,560,-1,558,560,561,-1,560,562,561,-1,561,562,563,-1,561,563,564,-1,563,565,564,-1,564,565,566,-1,564,566,567,-1,566,568,567,-1,567,568,569,-1,567,569,570,-1,569,571,570,-1,570,571,572,-1,570,572,573,-1,572,574,573,-1,573,574,575,-1,573,575,576,-1,575,577,576,-1,576,577,578,-1,576,578,579,-1,578,580,579,-1,579,580,581,-1,579,581,582,-1,581,583,582,-1,582,583,584,-1,582,584,585,-1,584,586,585,-1,585,586,587,-1,585,587,588,-1,587,589,588,-1,588,589,590,-1,588,590,591,-1,590,592,591,-1,591,592,593,-1,591,593,594,-1,593,595,594,-1,594,595,596,-1,594,596,597,-1,596,598,597,-1,597,598,599,-1,597,599,600,-1,599,601,600,-1,600,601,602,-1,600,602,603,-1,602,604,603,-1,603,604,605,-1,603,605,606,-1,605,607,606,-1,606,607,608,-1,606,608,609,-1,608,610,609,-1,609,610,611,-1,609,611,612,-1,611,613,612,-1,612,613,614,-1,612,614,615,-1,614,616,615,-1,615,616,617,-1,615,617,618,-1,617,619,618,-1,618,619,620,-1,618,620,621,-1,620,622,621,-1,621,622,623,-1,621,623,624,-1,623,625,624,-1,624,625,626,-1,624,626,627,-1,626,628,627,-1,627,628,629,-1,627,629,630,-1,629,631,630,-1,630,631,632,-1,630,632,633,-1,632,634,633,-1,633,634,635,-1,633,635,636,-1,635,637,636,-1,636,637,638,-1,636,638,639,-1,638,640,639,-1,639,640,641,-1,639,641,543,-1,543,641,642,-1,543,642,541,-1,643,594,644,-1,644,594,597,-1,644,597,645,-1,645,597,600,-1,645,600,646,-1,646,600,603,-1,646,603,647,-1,647,603,606,-1,647,606,648,-1,648,606,609,-1,648,609,649,-1,649,609,612,-1,649,612,650,-1,650,612,615,-1,650,615,651,-1,651,615,618,-1,651,618,652,-1,652,618,621,-1,652,621,653,-1,653,621,624,-1,653,624,654,-1,654,624,627,-1,654,627,655,-1,655,627,630,-1,655,630,656,-1,656,630,633,-1,656,633,657,-1,657,633,636,-1,657,636,658,-1,658,636,639,-1,658,639,659,-1,659,639,543,-1,659,543,660,-1,660,543,542,-1,660,542,661,-1,661,542,546,-1,661,546,662,-1,662,546,549,-1,662,549,663,-1,663,549,552,-1,663,552,664,-1,664,552,555,-1,664,555,665,-1,665,555,558,-1,665,558,666,-1,666,558,561,-1,666,561,667,-1,667,561,564,-1,667,564,668,-1,668,564,567,-1,668,567,669,-1,669,567,570,-1,669,570,670,-1,670,570,573,-1,670,573,671,-1,671,573,576,-1,671,576,672,-1,672,576,579,-1,672,579,673,-1,673,579,582,-1,673,582,674,-1,674,582,585,-1,674,585,675,-1,675,585,588,-1,675,588,676,-1,676,588,591,-1,676,591,643,-1,643,591,594,-1,
        ]
    }
}
Shape{
    appearance Appearance {
        material  Material 	{
            diffuseColor 0.10980392156862745 0.10980392156862745 0.10980392156862745
            specularColor 0.0784313725490196 0.0784313725490196 0.0784313725490196
            ambientIntensity 0.1098
            transparency 0.0
            shininess 0.5
        }
    }
    geometry IndexedFaceSet {
        ccw TRUE
        solid FALSE
        coord DEF co Coordinate {
            point [
                1.1118 -0.4192 4.8032, 1.1172 -0.5314 4.8032, 1.1172 -0.5314 4.4095, 1.1118 -0.6437 4.4095, 1.1118 -0.6437 4.8032, 1.0693 -0.8642 4.8032, 1.0693 -0.8642 4.4095, 0.9859 -1.0727 4.8032, 0.9859 -1.0727 4.4095, 0.8645 -1.2616 4.8032, 0.8645 -1.2616 4.4095, 0.7095 -1.4241 4.8032, 0.7095 -1.4241 4.4095, 0.5266 -1.5543 4.8032, 0.5266 -1.5543 4.4095, 0.3224 -1.6476 4.8032, 0.3224 -1.6476 4.4095, 0.1041 -1.7005 4.8032, 0.1041 -1.7005 4.4095, -0.1201 -1.7112 4.8032, -0.1201 -1.7112 4.4095, -0.3424 -1.6793 4.8032, -0.3424 -1.6793 4.4095, -0.5546 -1.6058 4.8032, -0.5546 -1.6058 4.4095, -0.7491 -1.4935 4.8032, -0.7491 -1.4935 4.4095, -0.9188 -1.3465 4.8032, -0.9188 -1.3465 4.4095, -1.0576 -1.17 4.8032, -1.0576 -1.17 4.4095, -1.1604 -0.9704 4.8032, -1.1604 -0.9704 4.4095, -1.2237 -0.755 4.8032, -1.2237 -0.755 4.4095, -1.2451 -0.5314 4.8032, -1.2451 -0.5314 4.4095, -1.2237 -0.3079 4.8032, -1.2237 -0.3079 4.4095, -1.1604 -0.0925 4.8032, -1.1604 -0.0925 4.4095, -1.0576 0.1071 4.8032, -1.0576 0.1071 4.4095, -0.9188 0.2836 4.8032, -0.9188 0.2836 4.4095, -0.7491 0.4307 4.8032, -0.7491 0.4307 4.4095, -0.5546 0.5429 4.8032, -0.5546 0.5429 4.4095, -0.3424 0.6164 4.8032, -0.3424 0.6164 4.4095, -0.1201 0.6483 4.8032, -0.1201 0.6483 4.4095, 0.1041 0.6376 4.8032, 0.1041 0.6376 4.4095, 0.3224 0.5847 4.8032, 0.3224 0.5847 4.4095, 0.5266 0.4914 4.8032, 0.5266 0.4914 4.4095, 0.7095 0.3612 4.8032, 0.7095 0.3612 4.4095, 0.8645 0.1987 4.8032, 0.8645 0.1987 4.4095, 0.9859 0.0098 4.8032, 0.9859 0.0098 4.4095, 1.0693 -0.1987 4.8032, 1.0693 -0.1987 4.4095, 1.1118 -0.4192 4.4095, -0.064 -0.5314 4.8032
            ]
        }
        coordIndex [
            0,1,2,-1,2,1,3,-1,1,4,3,-1,3,4,5,-1,3,5,6,-1,6,5,7,-1,6,7,8,-1,8,7,9,-1,8,9,10,-1,10,9,11,-1,10,11,12,-1,12,11,13,-1,12,13,14,-1,14,13,15,-1,14,15,16,-1,16,15,17,-1,16,17,18,-1,18,17,19,-1,18,19,20,-1,20,19,21,-1,20,21,22,-1,22,21,23,-1,22,23,24,-1,24,23,25,-1,24,25,26,-1,26,25,27,-1,26,27,28,-1,28,27,29,-1,28,29,30,-1,30,29,31,-1,30,31,32,-1,32,31,33,-1,32,33,34,-1,34,33,35,-1,34,35,36,-1,36,35,37,-1,36,37,38,-1,38,37,39,-1,38,39,40,-1,40,39,41,-1,40,41,42,-1,42,41,43,-1,42,43,44,-1,44,43,45,-1,44,45,46,-1,46,45,47,-1,46,47,48,-1,48,47,49,-1,48,49,50,-1,50,49,51,-1,50,51,52,-1,52,51,53,-1,52,53,54,-1,54,53,55,-1,54,55,56,-1,56,55,57,-1,56,57,58,-1,58,57,59,-1,58,59,60,-1,60,59,61,-1,60,61,62,-1,62,61,63,-1,62,63,64,-1,64,63,65,-1,64,65,66,-1,66,65,0,-1,66,0,67,-1,67,0,2,-1,1,0,68,-1,7,5,68,-1,68,5,4,-1,68,4,1,-1,13,11,68,-1,68,11,9,-1,68,9,7,-1,19,17,68,-1,68,17,15,-1,68,15,13,-1,25,23,68,-1,68,23,21,-1,68,21,19,-1,31,29,68,-1,68,29,27,-1,68,27,25,-1,37,35,68,-1,68,35,33,-1,68,33,31,-1,43,41,68,-1,68,41,39,-1,68,39,37,-1,49,47,68,-1,68,47,45,-1,68,45,43,-1,55,53,68,-1,68,53,51,-1,68,51,49,-1,61,59,68,-1,68,59,57,-1,68,57,55,-1,0,65,68,-1,68,65,63,-1,68,63,61,-1,
        ]
    }
}
Shape{
    appearance Appearance {
        material  Material 	{
            diffuseColor 0.7764705882352941 0.7568627450980392 0.7372549019607844
            specularColor 0.38823529411764707 0.3764705882352941 0.3686274509803922
            ambientIntensity 0.7605
            transparency 0.0
            shininess 0.5
        }
    }
    geometry IndexedFaceSet {
        ccw TRUE
        solid FALSE
        coord DEF co Coordinate {
            point [
                -1.2619 -0.981 3.622, -1.3211 -0.7664 3.622, -1.354 -1.0156 3.5236, -1.4198 -0.7775 3.5236, -1.256 -0.9932 3.622, -1.2469 -1.2382 3.5236, -1.1624 -1.1877 3.622, -1.1505 -1.2041 3.622, -1.1016 -1.4381 3.5236, -1.0275 -1.3733 3.622, -1.0081 -1.3919 3.622, -0.9231 -1.6088 3.5236, -0.8617 -1.5318 3.622, -0.8336 -1.5504 3.622, -0.7169 -1.7449 3.5236, -0.6703 -1.6582 3.622, -0.6331 -1.6741 3.622, -0.4898 -1.842 3.5236, -0.4593 -1.7483 3.622, -0.4134 -1.7588 3.622, -0.2489 -1.8969 3.5236, -0.2357 -1.7994 3.622, -0.1818 -1.8018 3.622, -0.0021 -1.908 3.5236, -0.0065 -1.8097 3.622, 0.0536 -1.8015 3.622, 0.2427 -1.8749 3.5236, 0.2208 -1.7789 3.622, 0.2849 -1.7581 3.622, 0.4776 -1.7985 3.5236, 0.4389 -1.708 3.622, 0.6952 -1.6814 3.5236, 0.6409 -1.5993 3.622, 0.5042 -1.6729 3.622, 0.8883 -1.5274 3.5236, 1.0508 -1.3414 3.5236, 0.9712 -1.2835 3.622, 0.878 -1.3903 3.622, 0.8203 -1.4563 3.622, 0.7042 -1.5489 3.622, 1.1775 -1.1293 3.5236, 1.2643 -0.898 3.5236, 1.1695 -0.8718 3.622, 1.1244 -0.9919 3.622, 1.0889 -1.0866 3.622, 1.0196 -1.2025 3.622, 1.2643 -0.1649 3.5236, 1.1887 -0.2972 3.622, 1.3085 -0.4079 3.5236, 1.2104 -0.4167 3.622, 1.314 -0.5314 3.5236, 1.2156 -0.5314 3.622, 1.3085 -0.655 3.5236, 1.2104 -0.6461 3.622, 1.1887 -0.7656 3.622, 1.1775 0.0664 3.5236, 1.1244 -0.071 3.622, 1.1695 -0.191 3.622, 1.0508 0.2785 3.5236, 1.0196 0.1396 3.622, 1.0889 0.0237 3.622, 0.8883 0.4645 3.5236, 0.878 0.3274 3.622, 0.9712 0.2206 3.622, 0.6952 0.6186 3.5236, 0.7042 0.486 3.622, 0.8203 0.3934 3.622, 0.4776 0.7356 3.5236, 0.5042 0.61 3.622, 0.6409 0.5364 3.622, 0.2427 0.812 3.5236, 0.2849 0.6952 3.622, 0.4389 0.6451 3.622, -0.0021 0.8451 3.5236, 0.0536 0.7387 3.622, 0.2208 0.716 3.622, -0.2489 0.834 3.5236, -0.1818 0.7389 3.622, -0.0065 0.7468 3.622, -0.4898 0.7791 3.5236, -0.4134 0.696 3.622, -0.2357 0.7365 3.622, -0.7169 0.682 3.5236, -0.6331 0.6112 3.622, -0.4593 0.6855 3.622, -0.9231 0.5459 3.5236, -0.8336 0.4875 3.622, -0.6703 0.5953 3.622, -1.1016 0.3752 3.5236, -1.0081 0.329 3.622, -0.8617 0.4689 3.622, -1.2469 0.1753 3.5236, -1.1505 0.1412 3.622, -1.0275 0.3104 3.622, -1.354 -0.0473 3.5236, -1.256 -0.0697 3.622, -1.1624 0.1248 3.622, -1.3229 -0.7599 3.622, -1.3435 -0.5314 3.622, -1.4419 -0.5314 3.5236, -1.3229 -0.303 3.622, -1.4198 -0.2854 3.5236, -1.3211 -0.2965 3.622, -1.2619 -0.0819 3.622
            ]
        }
        coordIndex [
            0,1,2,-1,2,1,3,-1,0,2,4,-1,4,2,5,-1,4,5,6,-1,6,5,7,-1,7,5,8,-1,7,8,9,-1,9,8,10,-1,10,8,11,-1,10,11,12,-1,12,11,13,-1,13,11,14,-1,13,14,15,-1,15,14,16,-1,16,14,17,-1,16,17,18,-1,18,17,19,-1,19,17,20,-1,19,20,21,-1,21,20,22,-1,22,20,23,-1,22,23,24,-1,24,23,25,-1,25,23,26,-1,25,26,27,-1,27,26,28,-1,28,26,29,-1,28,29,30,-1,31,32,29,-1,29,32,33,-1,29,33,30,-1,34,35,36,-1,36,37,34,-1,34,37,38,-1,34,38,31,-1,31,38,39,-1,31,39,32,-1,40,41,42,-1,42,43,40,-1,40,43,44,-1,40,44,35,-1,35,44,45,-1,35,45,36,-1,46,47,48,-1,48,47,49,-1,48,49,50,-1,50,49,51,-1,50,51,52,-1,52,51,53,-1,52,53,41,-1,41,53,54,-1,41,54,42,-1,55,56,46,-1,46,56,57,-1,46,57,47,-1,58,59,55,-1,55,59,60,-1,55,60,56,-1,61,62,58,-1,58,62,63,-1,58,63,59,-1,64,65,61,-1,61,65,66,-1,61,66,62,-1,67,68,64,-1,64,68,69,-1,64,69,65,-1,70,71,67,-1,67,71,72,-1,67,72,68,-1,73,74,70,-1,70,74,75,-1,70,75,71,-1,76,77,73,-1,73,77,78,-1,73,78,74,-1,79,80,76,-1,76,80,81,-1,76,81,77,-1,82,83,79,-1,79,83,84,-1,79,84,80,-1,85,86,82,-1,82,86,87,-1,82,87,83,-1,88,89,85,-1,85,89,90,-1,85,90,86,-1,91,92,88,-1,88,92,93,-1,88,93,89,-1,94,95,91,-1,91,95,96,-1,91,96,92,-1,1,97,3,-1,3,97,98,-1,3,98,99,-1,99,98,100,-1,99,100,101,-1,101,100,102,-1,101,102,94,-1,94,102,103,-1,94,103,95,-1,
        ]
    }
}
Shape{
    appearance Appearance {
        material  Material 	{
            diffuseColor 0.10980392156862745 0.10980392156862745 0.10980392156862745
            specularColor 0.0784313725490196 0.0784313725490196 0.0784313725490196
            ambientIntensity 0.1098
            transparency 0.0
            shininess 0.5
        }
    }
    geometry IndexedFaceSet {
        ccw TRUE
        solid FALSE
        coord DEF co Coordinate {
            point [
                0.9259 0.1129 5.0, 0.9645 0.0493 5.0, 1.0002 -0.019 4.8071, -1.0105 0.175 4.8071, -0.9124 0.2902 5.0, -0.9124 0.2902 4.8071, -0.8004 0.392 5.0, -0.8004 0.392 4.8071, -0.6762 0.4786 5.0, -0.6762 0.4786 4.8071, -0.542 0.5486 5.0, -0.542 0.5486 4.8071, -0.4 0.6008 5.0, -0.4 0.6008 4.8071, -0.2525 0.6345 5.0, -0.2525 0.6345 4.8071, -0.1018 0.6491 5.0, -0.1018 0.6491 4.8071, 0.0495 0.6442 5.0, 0.0495 0.6442 4.8071, 0.1989 0.62 5.0, 0.1989 0.62 4.8071, 0.344 0.577 5.0, 0.344 0.577 4.8071, 0.4824 0.5157 5.0, 0.4824 0.5157 4.8071, 0.6118 0.4373 5.0, 0.6118 0.4373 4.8071, 0.7301 0.3429 5.0, 0.7301 0.3429 4.8071, 0.8354 0.2342 5.0, 0.8354 0.2342 4.8071, 0.9259 0.1129 4.8071, -1.0931 0.0481 4.8071, -1.0924 0.0493 5.0, -1.0105 0.175 5.0, -1.2354 -0.6825 4.8071, -1.234 -0.6823 6.7717, -1.2384 -0.657 6.7717, -1.2451 -0.5314 4.8071, -1.2129 -0.8051 6.7717, -1.2064 -0.831 4.8071, -1.2051 -0.8306 6.7717, -1.1689 -0.9488 6.7717, -1.1587 -0.9747 4.8071, -1.1574 -0.9741 6.7717, -1.1069 -1.0857 6.7717, -1.0931 -1.111 4.8071, -1.0918 -1.1103 6.7717, -1.0281 -1.2137 6.7717, -1.0105 -1.2379 4.8071, -1.0093 -1.2369 6.7717, -0.9336 -1.3306 6.7717, -0.9124 -1.3531 4.8071, -0.9113 -1.352 6.7717, -0.8251 -1.4346 6.7717, -0.8004 -1.4549 4.8071, -0.7994 -1.4536 6.7717, -0.7043 -1.5239 6.7717, -0.6762 -1.5415 4.8071, -0.6754 -1.54 6.7717, -0.5731 -1.5972 6.7717, -0.542 -1.6115 4.8071, -0.5414 -1.6099 6.7717, -0.4336 -1.6532 6.7717, -0.4 -1.6637 4.8071, -0.3996 -1.6621 6.7717, -0.2882 -1.6911 6.7717, -0.2525 -1.6974 4.8071, -0.2522 -1.6957 6.7717, -0.1391 -1.7102 6.7717, -0.1018 -1.7119 4.8071, -0.1018 -1.7102 6.7717, 0.0112 -1.7102 6.7717, 0.0495 -1.7071 4.8071, 0.0492 -1.7053 6.7717, 0.1603 -1.6911 6.7717, 0.1989 -1.6829 4.8071, 0.1984 -1.6811 6.7717, 0.3057 -1.6532 6.7717, 0.344 -1.6399 4.8071, 0.3433 -1.6381 6.7717, 0.4452 -1.5972 6.7717, 0.4824 -1.5786 4.8071, 0.4814 -1.5769 6.7717, 0.5764 -1.5239 6.7717, 0.6118 -1.5002 4.8071, 0.6106 -1.4986 6.7717, 0.6972 -1.4346 6.7717, 0.7301 -1.4058 4.8071, 0.7287 -1.4044 6.7717, 0.8057 -1.3306 6.7717, 0.8354 -1.2971 4.8071, 0.8338 -1.2958 6.7717, 0.9002 -1.2137 6.7717, 0.9259 -1.1758 4.8071, 0.9242 -1.1747 6.7717, 0.979 -1.0857 6.7717, 1.0002 -1.0439 4.8071, 0.9983 -1.0431 6.7717, 1.041 -0.9488 6.7717, 1.057 -0.9036 4.8071, 1.055 -0.903 6.7717, 1.085 -0.8051 6.7717, 1.0954 -0.7572 4.8071, 1.0933 -0.7569 6.7717, 1.1105 -0.657 6.7717, 1.1147 -0.6071 4.8071, 1.1126 -0.607 6.7717, 1.1169 -0.5068 6.7717, 1.1172 -0.5314 4.8071, 1.1126 -0.456 6.7717, 1.1147 -0.4558 4.8071, 1.1042 -0.3571 6.7717, 1.0954 -0.3057 4.8071, 1.0933 -0.3061 6.7717, 1.0726 -0.2102 6.7717, 1.057 -0.1593 4.8071, 1.0549 -0.16 6.7717, 1.0226 -0.0684 6.7717, 0.9986 -0.0198 6.7717, 0.9645 0.0493 6.7717, -1.0924 0.0493 6.7717, -1.093 0.0481 6.7717, -1.1505 -0.0684 6.7717, -1.1587 -0.0882 4.8071, -1.2064 -0.2319 4.8071, -1.2005 -0.2102 6.7717, -1.1576 -0.0886 6.7717, -1.2354 -0.3804 4.8071, -1.2321 -0.3571 6.7717, -1.2052 -0.2321 6.7717, -1.2437 -0.5314 6.7717, -1.2448 -0.5068 6.7717, -1.2341 -0.3805 6.7717, 0.7307 0.0493 6.9685, -0.8586 0.0493 6.9685, 0.7852 -0.0337 6.9685, -0.9131 -0.0337 6.9685, 0.1229 -1.4978 6.9685, 0.2441 -1.4662 6.9685, 0.3603 -1.4196 6.9685, 0.4697 -1.3585 6.9685, 0.5704 -1.284 6.9685, 0.6608 -1.1974 6.9685, 0.7395 -1.1 6.9685, 0.8052 -0.9933 6.9685, 0.8568 -0.8792 6.9685, 0.8935 -0.7595 6.9685, 0.9147 -0.6361 6.9685, 0.9201 -0.5109 6.9685, 0.9095 -0.3862 6.9685, 0.8832 -0.2637 6.9685, 0.8415 -0.1456 6.9685, -1.0111 -0.2637 6.9685, -1.0374 -0.3862 6.9685, -0.0013 -1.5137 6.9685, -1.0214 -0.7595 6.9685, -0.4882 -1.4196 6.9685, -1.0426 -0.6361 6.9685, -0.372 -1.4662 6.9685, -0.2508 -1.4978 6.9685, -0.9694 -0.1456 6.9685, -0.9847 -0.8792 6.9685, -0.9331 -0.9933 6.9685, -0.8674 -1.1 6.9685, -1.048 -0.5109 6.9685, -0.1266 -1.5137 6.9685, -0.7887 -1.1974 6.9685, -0.6983 -1.284 6.9685, -0.5976 -1.3585 6.9685, -0.064 -0.5314 4.8071, 0.9268 0.0493 6.8043, -1.0547 0.0493 6.8043
            ]
        }
        coordIndex [
            0,1,2,-1,3,4,5,-1,5,4,6,-1,5,6,7,-1,7,6,8,-1,7,8,9,-1,9,8,10,-1,9,10,11,-1,11,10,12,-1,11,12,13,-1,13,12,14,-1,13,14,15,-1,15,14,16,-1,15,16,17,-1,17,16,18,-1,17,18,19,-1,19,18,20,-1,19,20,21,-1,21,20,22,-1,21,22,23,-1,23,22,24,-1,23,24,25,-1,25,24,26,-1,25,26,27,-1,27,26,28,-1,27,28,29,-1,29,28,30,-1,29,30,31,-1,31,30,0,-1,31,0,32,-1,32,0,2,-1,33,34,3,-1,3,34,35,-1,3,35,4,-1,36,37,38,-1,36,38,39,-1,37,36,40,-1,40,36,41,-1,40,41,42,-1,42,41,43,-1,43,41,44,-1,43,44,45,-1,45,44,46,-1,46,44,47,-1,46,47,48,-1,48,47,49,-1,49,47,50,-1,49,50,51,-1,51,50,52,-1,52,50,53,-1,52,53,54,-1,54,53,55,-1,55,53,56,-1,55,56,57,-1,57,56,58,-1,58,56,59,-1,58,59,60,-1,60,59,61,-1,61,59,62,-1,61,62,63,-1,63,62,64,-1,64,62,65,-1,64,65,66,-1,66,65,67,-1,67,65,68,-1,67,68,69,-1,69,68,70,-1,70,68,71,-1,70,71,72,-1,72,71,73,-1,73,71,74,-1,73,74,75,-1,75,74,76,-1,76,74,77,-1,76,77,78,-1,78,77,79,-1,79,77,80,-1,79,80,81,-1,81,80,82,-1,82,80,83,-1,82,83,84,-1,84,83,85,-1,85,83,86,-1,85,86,87,-1,87,86,88,-1,88,86,89,-1,88,89,90,-1,90,89,91,-1,91,89,92,-1,91,92,93,-1,93,92,94,-1,94,92,95,-1,94,95,96,-1,96,95,97,-1,97,95,98,-1,97,98,99,-1,99,98,100,-1,100,98,101,-1,100,101,102,-1,102,101,103,-1,103,101,104,-1,103,104,105,-1,105,104,106,-1,106,104,107,-1,106,107,108,-1,108,107,109,-1,109,107,110,-1,109,110,111,-1,111,110,112,-1,111,112,113,-1,113,112,114,-1,113,114,115,-1,115,114,116,-1,116,114,117,-1,116,117,118,-1,118,117,119,-1,119,117,2,-1,119,2,120,-1,120,2,1,-1,120,1,121,-1,122,34,123,-1,123,34,33,-1,123,33,124,-1,124,33,125,-1,126,127,125,-1,125,127,128,-1,125,128,124,-1,129,130,126,-1,126,130,131,-1,126,131,127,-1,38,132,39,-1,39,132,133,-1,39,133,129,-1,129,133,134,-1,129,134,130,-1,135,136,137,-1,137,136,138,-1,139,140,138,-1,138,140,141,-1,138,141,142,-1,142,143,138,-1,138,143,144,-1,138,144,145,-1,145,146,138,-1,138,146,147,-1,138,147,148,-1,148,149,138,-1,138,149,150,-1,138,150,151,-1,151,152,138,-1,138,152,153,-1,138,153,137,-1,154,155,156,-1,157,158,159,-1,159,158,160,-1,159,160,161,-1,139,138,156,-1,156,138,162,-1,156,162,154,-1,157,163,158,-1,158,163,164,-1,158,164,165,-1,155,166,156,-1,156,166,159,-1,156,159,167,-1,167,159,161,-1,165,168,158,-1,158,168,169,-1,158,169,170,-1,110,107,171,-1,110,171,112,-1,2,117,171,-1,171,117,114,-1,171,114,112,-1,29,31,171,-1,171,31,32,-1,171,32,2,-1,23,25,171,-1,171,25,27,-1,171,27,29,-1,17,19,171,-1,171,19,21,-1,171,21,23,-1,11,13,171,-1,171,13,15,-1,171,15,17,-1,5,7,171,-1,171,7,9,-1,171,9,11,-1,125,33,171,-1,171,33,3,-1,171,3,5,-1,39,129,171,-1,171,129,126,-1,171,126,125,-1,44,41,171,-1,171,41,36,-1,171,36,39,-1,53,50,171,-1,171,50,47,-1,171,47,44,-1,62,59,171,-1,171,59,56,-1,171,56,53,-1,71,68,171,-1,171,68,65,-1,171,65,62,-1,80,77,171,-1,171,77,74,-1,171,74,71,-1,89,86,171,-1,171,86,83,-1,171,83,80,-1,98,95,171,-1,171,95,92,-1,171,92,89,-1,107,104,171,-1,171,104,101,-1,171,101,98,-1,34,1,0,-1,22,20,35,-1,35,20,18,-1,10,8,6,-1,34,0,35,-1,35,0,30,-1,35,30,28,-1,18,16,35,-1,35,16,14,-1,35,14,4,-1,28,26,35,-1,35,26,24,-1,35,24,22,-1,4,14,6,-1,6,14,12,-1,6,12,10,-1,172,121,1,-1,34,122,1,-1,1,122,173,-1,173,136,1,-1,1,136,135,-1,1,135,172,-1,173,138,136,-1,135,137,172,-1,137,153,172,-1,172,153,120,-1,172,120,121,-1,173,122,138,-1,138,122,123,-1,138,123,162,-1,123,124,162,-1,162,124,128,-1,162,128,154,-1,128,127,154,-1,154,127,131,-1,154,131,155,-1,131,130,155,-1,155,130,134,-1,155,134,166,-1,134,133,166,-1,166,133,132,-1,166,132,159,-1,132,38,159,-1,159,38,37,-1,159,37,157,-1,37,40,157,-1,157,40,42,-1,157,42,163,-1,42,43,163,-1,163,43,45,-1,163,45,164,-1,45,46,164,-1,164,46,48,-1,164,48,165,-1,48,49,165,-1,165,49,51,-1,165,51,168,-1,51,52,168,-1,168,52,54,-1,168,54,169,-1,54,55,169,-1,169,55,57,-1,169,57,170,-1,57,58,170,-1,170,58,60,-1,170,60,158,-1,60,61,158,-1,158,61,63,-1,158,63,160,-1,63,64,160,-1,160,64,66,-1,160,66,161,-1,66,67,161,-1,161,67,69,-1,161,69,167,-1,69,70,167,-1,167,70,72,-1,167,72,156,-1,72,73,156,-1,156,73,75,-1,156,75,139,-1,75,76,139,-1,139,76,78,-1,139,78,140,-1,78,79,140,-1,140,79,81,-1,140,81,141,-1,81,82,141,-1,141,82,84,-1,141,84,142,-1,84,85,142,-1,142,85,87,-1,142,87,143,-1,87,88,143,-1,143,88,90,-1,143,90,144,-1,90,91,144,-1,144,91,93,-1,144,93,145,-1,93,94,145,-1,145,94,96,-1,145,96,146,-1,96,97,146,-1,146,97,99,-1,146,99,147,-1,99,100,147,-1,147,100,102,-1,147,102,148,-1,102,103,148,-1,148,103,105,-1,148,105,149,-1,105,106,149,-1,149,106,108,-1,149,108,150,-1,108,109,150,-1,150,109,111,-1,150,111,151,-1,111,113,151,-1,151,113,115,-1,151,115,152,-1,115,116,152,-1,152,116,118,-1,152,118,153,-1,153,118,119,-1,153,119,120,-1,
        ]
    }
}