#VRML V2.0 utf8
# 3D model generated by easyeda2kicad.py (https://github.com/uPesy/easyeda2kicad.py)

Shape{
    appearance Appearance {
        material  Material 	{
            diffuseColor 0.796078431372549 0.8235294117647058 0.9372549019607843
            specularColor 0.396078431372549 0.4117647058823529 0.4666666666666667
            ambientIntensity 0.8283
            transparency 0.0
            shininess 0.5
        }
    }
    geometry IndexedFaceSet {
        ccw TRUE
        solid FALSE
        coord DEF co Coordinate {
            point [
                0.6945 -0.0015 0.0118, 0.6945 -0.0423 0.0118, 0.6463 -0.0423 0.0118, 0.6463 -0.063 0.0118, 0.6201 -0.063 0.0118, -0.1353 -0.0015 0.0118, -0.1634 -0.0015 0.0118, -0.1544 -0.0028 0.0118, -0.3013 -0.4449 0.0118, 0.6201 -0.4449 0.0118, -0.1485 -0.003 0.0118, -0.2907 0.106 0.0118, -0.2347 0.106 0.0118, -0.2347 0.0697 0.0118, -0.2907 0.0697 0.0118, -0.2907 0.0575 0.0118, -0.3013 -0.0015 0.0118, -0.0957 0.0645 0.0118, -0.0954 0.0589 0.0118, -0.1477 0.109 0.0118, -0.1906 0.0288 0.0118, -0.1999 0.0217 0.0118, -0.1999 0.0964 0.0118, -0.2241 0.0 0.0118, -0.1638 -0.0015 0.0118, -0.1772 0.0031 0.0118, 0.6463 0.063 0.0118, 0.6463 0.0423 0.0118, 0.6201 0.063 0.0118, -0.0151 0.0 0.0118, 0.6201 0.4449 0.0118, -0.0151 0.1181 0.0118, -0.3013 0.4449 0.0118, -0.0257 0.1181 0.0118, 0.6945 0.0423 0.0118, -0.0982 0.076 0.0118, -0.1964 0.1008 0.0118, -0.2241 0.1181 0.0118, -0.1895 0.0108 0.0118, -0.2347 0.0575 0.0118, -0.2347 0.0121 0.0118, -0.2907 0.0121 0.0118, -0.2907 0.0 0.0118, -0.1071 0.0269 0.0118, -0.1156 0.0191 0.0118, -0.0712 0.0 0.0118, -0.1301 -0.0009 0.0118, -0.1159 0.0045 0.0118, -0.1906 0.0893 0.0118, -0.1811 0.0985 0.0118, -0.1841 0.0222 0.0118, -0.17 0.1048 0.0118, -0.1736 0.015 0.0118, -0.1623 0.0107 0.0118, -0.1337 0.1073 0.0118, -0.1217 0.1026 0.0118, -0.097 0.0459 0.0118, -0.1007 0.0361 0.0118, -0.1648 0.1066 0.0118, -0.1518 0.1089 0.0118, -0.139 0.0097 0.0118, -0.127 0.0128 0.0118, -0.1484 0.0091 0.0118, -0.1108 0.095 0.0118, -0.1035 0.0864 0.0118, -0.1045 0.0127 0.0118, -0.0998 0.0176 0.0118, -0.0712 0.0121 0.0118, -0.0912 0.0306 0.0118, -0.0257 0.0121 0.0118, -0.1389 0.1206 0.0118, -0.1483 0.1211 0.0118, -0.0865 0.0442 0.0118, -0.0848 0.0597 0.0118, -0.0867 0.0759 0.0118, -0.0916 0.0884 0.0118, -0.0997 0.1 0.0118, -0.112 0.1108 0.0118, -0.1245 0.1172 0.0118, -0.1655 0.1192 0.0118, -0.1763 0.1155 0.0118, -0.1892 0.1077 0.0118, -0.2907 0.1181 0.0118, -0.4356 0.0 0.0118, -0.424 0.0 0.0118, -0.5245 0.0 0.0118, -0.5071 0.0379 0.0118, -0.4535 0.0379 0.0118, -0.4026 0.0286 0.0118, -0.3945 0.0165 0.0118, -0.3857 0.0087 0.0118, -0.3768 0.0041 0.0118, -0.6945 -0.0015 0.0118, -0.536 0.0 0.0118, -0.6945 0.0423 0.0118, -0.6463 0.0423 0.0118, -0.3624 0.0008 0.0118, -0.3485 0.0 0.0118, -0.3547 0.1174 0.0118, -0.3733 0.1139 0.0118, -0.3119 0.0 0.0118, -0.3119 0.1181 0.0118, -0.3358 0.1181 0.0118, -0.3852 0.1078 0.0118, -0.48 0.1181 0.0118, -0.6201 0.4449 0.0118, -0.4815 0.1181 0.0118, -0.6201 0.063 0.0118, -0.6463 0.063 0.0118, -0.3938 0.1003 0.0118, -0.4014 0.0897 0.0118, -0.4063 0.0773 0.0118, -0.4087 0.063 0.0118, -0.4088 0.0576 0.0118, -0.4072 0.0418 0.0118, -0.6463 -0.063 0.0118, -0.6463 -0.0423 0.0118, -0.6201 -0.063 0.0118, -0.6201 -0.4449 0.0118, -0.6945 -0.0423 0.0118
            ]
        }
        coordIndex [
            0,1,2,-1,3,4,2,-1,2,4,5,-1,2,5,0,-1,6,7,8,-1,4,9,5,-1,5,9,8,-1,5,8,10,-1,10,8,7,-1,11,12,13,-1,14,15,16,-1,17,18,19,-1,20,21,22,-1,8,16,6,-1,6,16,23,-1,6,23,24,-1,24,23,25,-1,26,27,28,-1,28,27,29,-1,28,29,30,-1,30,29,31,-1,30,31,32,-1,32,31,33,-1,27,34,0,-1,17,19,35,-1,36,22,37,-1,37,22,21,-1,37,21,23,-1,23,21,38,-1,23,38,25,-1,39,40,15,-1,15,40,41,-1,15,41,16,-1,16,41,42,-1,16,42,23,-1,19,43,44,-1,27,0,29,-1,29,0,5,-1,29,5,45,-1,45,5,46,-1,45,46,47,-1,22,48,20,-1,20,48,49,-1,20,49,50,-1,50,49,51,-1,50,51,52,-1,52,51,53,-1,19,54,55,-1,18,56,19,-1,19,56,57,-1,19,57,43,-1,58,59,60,-1,60,59,19,-1,60,19,61,-1,61,19,44,-1,58,60,51,-1,51,60,62,-1,51,62,53,-1,55,63,19,-1,19,63,64,-1,19,64,35,-1,47,65,45,-1,45,65,66,-1,45,66,67,-1,67,66,68,-1,67,68,69,-1,70,71,32,-1,68,72,69,-1,69,72,73,-1,69,73,33,-1,33,73,74,-1,33,74,75,-1,75,76,33,-1,33,76,77,-1,33,77,32,-1,32,77,78,-1,32,78,70,-1,71,79,32,-1,32,79,80,-1,32,80,81,-1,13,14,11,-1,11,14,16,-1,11,16,82,-1,82,16,32,-1,82,32,37,-1,37,32,81,-1,37,81,36,-1,83,84,16,-1,85,86,87,-1,88,89,84,-1,84,89,90,-1,84,90,91,-1,85,92,93,-1,93,92,94,-1,93,94,95,-1,91,96,84,-1,84,96,97,-1,84,97,16,-1,98,99,32,-1,97,100,16,-1,16,100,101,-1,16,101,32,-1,32,101,102,-1,32,102,98,-1,99,103,32,-1,32,103,104,-1,32,104,105,-1,105,104,106,-1,105,106,107,-1,107,106,93,-1,107,93,108,-1,108,93,95,-1,103,109,104,-1,104,109,110,-1,104,110,111,-1,111,112,104,-1,104,112,113,-1,104,113,84,-1,84,113,114,-1,84,114,88,-1,115,116,117,-1,117,116,16,-1,117,16,118,-1,118,16,8,-1,87,83,85,-1,85,83,16,-1,85,16,92,-1,92,16,116,-1,92,116,119,-1,
        ]
    }
}
Shape{
    appearance Appearance {
        material  Material 	{
            diffuseColor 0.19607843137254902 0.19607843137254902 0.19607843137254902
            specularColor 0.09803921568627451 0.09803921568627451 0.09803921568627451
            ambientIntensity 0.1961
            transparency 0.0
            shininess 0.5
        }
    }
    geometry IndexedFaceSet {
        ccw TRUE
        solid FALSE
        coord DEF co Coordinate {
            point [
                -0.6463 0.063 0.0197, -0.6463 0.0423 0.0197, -0.6945 0.0423 0.0197, 0.6463 -0.063 0.0197, 0.6463 -0.0423 0.0197, 0.916 -0.7115 0.0197, 0.6945 -0.0423 0.0197, 0.916 0.7115 0.0197, -0.6463 -0.0423 0.0197, -0.6463 -0.063 0.0197, -0.916 -0.7115 0.0197, 0.6945 0.0423 0.0197, 0.6463 0.0423 0.0197, 0.6463 0.063 0.0197, 0.6201 -0.063 0.0197, 0.6201 -0.4449 0.0197, -0.6201 -0.4449 0.0197, -0.6201 -0.063 0.0197, 0.6201 0.063 0.0197, 0.6201 0.4449 0.0197, -0.916 0.7115 0.0197, -0.6201 0.4449 0.0197, -0.6201 0.063 0.0197, -0.6945 -0.0423 0.0197, -0.7727 -0.4271 0.5906, -0.7274 -0.415 0.5906, -0.916 0.7115 0.5906, 0.916 0.7115 0.5906, -0.682 -0.4271 0.5906, -0.6488 -0.4603 0.5906, 0.916 -0.7115 0.5906, -0.6367 -0.5056 0.5906, -0.6488 -0.551 0.5906, -0.682 -0.5842 0.5906, -0.7274 -0.5963 0.5906, -0.916 -0.7115 0.5906, -0.7727 -0.5842 0.5906, -0.8059 -0.551 0.5906, -0.818 -0.5056 0.5906, -0.8059 -0.4603 0.5906, -0.6713 -0.7677 0.3051, -0.8287 -0.7677 0.3051, -0.9646 -0.7677 0.3051, 0.3287 -0.7677 0.3051, 0.6713 -0.7677 0.3051, 0.8287 -0.7677 0.3051, 0.9646 -0.7677 0.3051, -0.3287 -0.7677 0.3051, -0.1713 -0.7677 0.3051, 0.1713 -0.7677 0.3051, 0.6713 0.7677 0.3051, 0.8287 0.7677 0.3051, 0.9646 0.7677 0.3051, 0.3287 0.7677 0.3051, 0.1713 0.7677 0.3051, -0.1713 0.7677 0.3051, -0.3287 0.7677 0.3051, -0.6713 0.7677 0.3051, -0.8287 0.7677 0.3051, -0.9646 0.7677 0.3051, -0.1713 -0.7522 0.2264, -0.3287 -0.7522 0.2264, 0.1713 -0.7522 0.2264, 0.8287 -0.7522 0.2264, 0.6713 -0.7522 0.2264, 0.3287 -0.7522 0.2264, -0.8287 -0.7522 0.2264, -0.6713 -0.7522 0.2264, -0.1713 0.7522 0.2264, -0.8287 0.7522 0.2264, -0.6713 0.7522 0.2264, 0.3287 0.7522 0.2264, 0.6713 0.7522 0.2264, 0.1713 0.7522 0.2264, -0.3287 0.7522 0.2264, 0.8287 0.7522 0.2264
            ]
        }
        coordIndex [
            0,1,2,-1,3,4,5,-1,5,4,6,-1,5,6,7,-1,8,9,10,-1,6,11,7,-1,7,11,12,-1,7,12,13,-1,14,3,15,-1,15,3,5,-1,15,5,16,-1,16,5,10,-1,16,10,17,-1,17,10,9,-1,13,18,7,-1,7,18,19,-1,7,19,20,-1,20,19,21,-1,20,21,22,-1,22,0,20,-1,20,0,2,-1,20,2,10,-1,10,2,23,-1,10,23,8,-1,24,25,26,-1,26,25,27,-1,25,28,27,-1,27,28,29,-1,27,29,30,-1,30,29,31,-1,30,31,32,-1,32,33,30,-1,30,33,34,-1,30,34,35,-1,35,34,36,-1,36,37,35,-1,35,37,38,-1,35,38,26,-1,26,38,39,-1,26,39,24,-1,40,35,41,-1,41,35,42,-1,43,44,30,-1,30,44,45,-1,30,45,46,-1,40,47,35,-1,35,47,48,-1,35,48,30,-1,30,48,49,-1,30,49,43,-1,50,27,51,-1,51,27,52,-1,50,53,27,-1,27,53,54,-1,27,54,26,-1,26,54,55,-1,26,55,56,-1,56,57,26,-1,26,57,58,-1,26,58,59,-1,60,61,10,-1,5,46,45,-1,62,49,48,-1,45,63,5,-1,5,63,64,-1,5,64,10,-1,48,60,62,-1,62,60,10,-1,62,10,65,-1,65,10,64,-1,65,64,43,-1,43,64,44,-1,41,42,66,-1,66,42,10,-1,66,10,67,-1,67,10,61,-1,67,61,40,-1,40,61,47,-1,68,55,54,-1,59,58,20,-1,20,58,69,-1,20,69,70,-1,53,50,71,-1,71,50,72,-1,54,73,68,-1,68,73,20,-1,68,20,74,-1,74,20,70,-1,74,70,56,-1,56,70,57,-1,51,52,75,-1,75,52,7,-1,75,7,72,-1,72,7,20,-1,72,20,71,-1,71,20,73,-1,
        ]
    }
}
Shape{
    appearance Appearance {
        material  Material 	{
            diffuseColor 0.796078431372549 0.8235294117647058 0.9372549019607843
            specularColor 0.396078431372549 0.4117647058823529 0.4666666666666667
            ambientIntensity 0.8283
            transparency 0.0
            shininess 0.5
        }
    }
    geometry IndexedFaceSet {
        ccw TRUE
        solid FALSE
        coord DEF co Coordinate {
            point [
                -0.8287 0.856 0.3051, -0.8287 0.7677 0.3051, -0.6713 0.856 0.3051, -0.6713 0.7677 0.3051, -0.6713 0.9011 0.2942, -0.8287 0.9011 0.2942, -0.6713 0.9362 0.2638, -0.8287 0.9362 0.2638, -0.6713 0.9534 0.2207, -0.8287 0.9534 0.2207, -0.8287 0.9713 0.0956, -0.6713 0.9713 0.0956, -0.8287 0.9748 0.087, -0.6713 0.9748 0.087, -0.8287 0.9818 0.0809, -0.6713 0.9818 0.0809, -0.8287 0.9908 0.0787, -0.6713 0.9908 0.0787, -0.8287 1.1811 0.0787, -0.6713 1.1811 0.0787, -0.8287 1.1811 0.0, -0.6713 1.1811 0.0, -0.8287 0.9908 0.0, -0.6713 0.9908 0.0, -0.6713 0.9457 0.0109, -0.8287 0.9457 0.0109, -0.6713 0.9106 0.0414, -0.8287 0.9106 0.0414, -0.6713 0.8934 0.0844, -0.8287 0.8934 0.0844, -0.8287 0.8755 0.2095, -0.6713 0.8755 0.2095, -0.8287 0.872 0.2181, -0.6713 0.872 0.2181, -0.8287 0.865 0.2242, -0.6713 0.865 0.2242, -0.8287 0.856 0.2264, -0.6713 0.856 0.2264, -0.8287 0.7522 0.2264, -0.6713 0.7522 0.2264, -0.8287 -0.8934 0.0844, -0.6713 -0.8934 0.0844, -0.6713 -0.9106 0.0414, -0.8287 -0.9106 0.0414, -0.6713 -0.9457 0.0109, -0.8287 -0.9457 0.0109, -0.6713 -0.9908 0.0, -0.8287 -0.9908 0.0, -0.8287 -1.1811 0.0, -0.6713 -1.1811 0.0, -0.8287 -1.1811 0.0787, -0.6713 -1.1811 0.0787, -0.8287 -0.9908 0.0787, -0.6713 -0.9908 0.0787, -0.8287 -0.9818 0.0809, -0.6713 -0.9818 0.0809, -0.8287 -0.9748 0.087, -0.6713 -0.9748 0.087, -0.8287 -0.9713 0.0956, -0.6713 -0.9713 0.0956, -0.8287 -0.9534 0.2207, -0.6713 -0.9534 0.2207, -0.6713 -0.9362 0.2638, -0.8287 -0.9362 0.2638, -0.6713 -0.9011 0.2942, -0.8287 -0.9011 0.2942, -0.6713 -0.856 0.3051, -0.8287 -0.856 0.3051, -0.8287 -0.7677 0.3051, -0.6713 -0.7677 0.3051, -0.8287 -0.856 0.2264, -0.8287 -0.7522 0.2264, -0.6713 -0.856 0.2264, -0.6713 -0.7522 0.2264, -0.8287 -0.865 0.2242, -0.6713 -0.865 0.2242, -0.8287 -0.872 0.2181, -0.6713 -0.872 0.2181, -0.8287 -0.8755 0.2095, -0.6713 -0.8755 0.2095, -0.3287 0.856 0.3051, -0.3287 0.7677 0.3051, -0.1713 0.856 0.3051, -0.1713 0.7677 0.3051, -0.1713 0.9011 0.2942, -0.3287 0.9011 0.2942, -0.1713 0.9362 0.2638, -0.3287 0.9362 0.2638, -0.1713 0.9534 0.2207, -0.3287 0.9534 0.2207, -0.3287 0.9713 0.0956, -0.1713 0.9713 0.0956, -0.3287 0.9748 0.087, -0.1713 0.9748 0.087, -0.3287 0.9818 0.0809, -0.1713 0.9818 0.0809, -0.3287 0.9908 0.0787, -0.1713 0.9908 0.0787, -0.3287 1.1811 0.0787, -0.1713 1.1811 0.0787, -0.3287 1.1811 0.0, -0.1713 1.1811 0.0, -0.3287 0.9908 0.0, -0.1713 0.9908 0.0, -0.1713 0.9457 0.0109, -0.3287 0.9457 0.0109, -0.1713 0.9106 0.0414, -0.3287 0.9106 0.0414, -0.1713 0.8934 0.0844, -0.3287 0.8934 0.0844, -0.3287 0.8755 0.2095, -0.1713 0.8755 0.2095, -0.3287 0.872 0.2181, -0.1713 0.872 0.2181, -0.3287 0.865 0.2242, -0.1713 0.865 0.2242, -0.3287 0.856 0.2264, -0.1713 0.856 0.2264, -0.3287 0.7522 0.2264, -0.1713 0.7522 0.2264, -0.3287 -0.8934 0.0844, -0.1713 -0.8934 0.0844, -0.1713 -0.9106 0.0414, -0.3287 -0.9106 0.0414, -0.1713 -0.9457 0.0109, -0.3287 -0.9457 0.0109, -0.1713 -0.9908 0.0, -0.3287 -0.9908 0.0, -0.3287 -1.1811 0.0, -0.1713 -1.1811 0.0, -0.3287 -1.1811 0.0787, -0.1713 -1.1811 0.0787, -0.3287 -0.9908 0.0787, -0.1713 -0.9908 0.0787, -0.3287 -0.9818 0.0809, -0.1713 -0.9818 0.0809, -0.3287 -0.9748 0.087, -0.1713 -0.9748 0.087, -0.3287 -0.9713 0.0956, -0.1713 -0.9713 0.0956, -0.3287 -0.9534 0.2207, -0.1713 -0.9534 0.2207, -0.1713 -0.9362 0.2638, -0.3287 -0.9362 0.2638, -0.1713 -0.9011 0.2942, -0.3287 -0.9011 0.2942, -0.1713 -0.856 0.3051, -0.3287 -0.856 0.3051, -0.3287 -0.7677 0.3051, -0.1713 -0.7677 0.3051, -0.3287 -0.856 0.2264, -0.3287 -0.7522 0.2264, -0.1713 -0.856 0.2264, -0.1713 -0.7522 0.2264, -0.3287 -0.865 0.2242, -0.1713 -0.865 0.2242, -0.3287 -0.872 0.2181, -0.1713 -0.872 0.2181, -0.3287 -0.8755 0.2095, -0.1713 -0.8755 0.2095, 0.1713 0.856 0.3051, 0.1713 0.7677 0.3051, 0.3287 0.856 0.3051, 0.3287 0.7677 0.3051, 0.3287 0.9011 0.2942, 0.1713 0.9011 0.2942, 0.3287 0.9362 0.2638, 0.1713 0.9362 0.2638, 0.3287 0.9534 0.2207, 0.1713 0.9534 0.2207, 0.1713 0.9713 0.0956, 0.3287 0.9713 0.0956, 0.1713 0.9748 0.087, 0.3287 0.9748 0.087, 0.1713 0.9818 0.0809, 0.3287 0.9818 0.0809, 0.1713 0.9908 0.0787, 0.3287 0.9908 0.0787, 0.1713 1.1811 0.0787, 0.3287 1.1811 0.0787, 0.1713 1.1811 0.0, 0.3287 1.1811 0.0, 0.1713 0.9908 0.0, 0.3287 0.9908 0.0, 0.3287 0.9457 0.0109, 0.1713 0.9457 0.0109, 0.3287 0.9106 0.0414, 0.1713 0.9106 0.0414, 0.3287 0.8934 0.0844, 0.1713 0.8934 0.0844, 0.1713 0.8755 0.2095, 0.3287 0.8755 0.2095, 0.1713 0.872 0.2181, 0.3287 0.872 0.2181, 0.1713 0.865 0.2242, 0.3287 0.865 0.2242, 0.1713 0.856 0.2264, 0.3287 0.856 0.2264, 0.1713 0.7522 0.2264, 0.3287 0.7522 0.2264, 0.1713 -0.8934 0.0844, 0.3287 -0.8934 0.0844, 0.3287 -0.9106 0.0414, 0.1713 -0.9106 0.0414, 0.3287 -0.9457 0.0109, 0.1713 -0.9457 0.0109, 0.3287 -0.9908 0.0, 0.1713 -0.9908 0.0, 0.1713 -1.1811 0.0, 0.3287 -1.1811 0.0, 0.1713 -1.1811 0.0787, 0.3287 -1.1811 0.0787, 0.1713 -0.9908 0.0787, 0.3287 -0.9908 0.0787, 0.1713 -0.9818 0.0809, 0.3287 -0.9818 0.0809, 0.1713 -0.9748 0.087, 0.3287 -0.9748 0.087, 0.1713 -0.9713 0.0956, 0.3287 -0.9713 0.0956, 0.1713 -0.9534 0.2207, 0.3287 -0.9534 0.2207, 0.3287 -0.9362 0.2638, 0.1713 -0.9362 0.2638, 0.3287 -0.9011 0.2942, 0.1713 -0.9011 0.2942, 0.3287 -0.856 0.3051, 0.1713 -0.856 0.3051, 0.1713 -0.7677 0.3051, 0.3287 -0.7677 0.3051, 0.1713 -0.856 0.2264, 0.1713 -0.7522 0.2264, 0.3287 -0.856 0.2264, 0.3287 -0.7522 0.2264, 0.1713 -0.865 0.2242, 0.3287 -0.865 0.2242, 0.1713 -0.872 0.2181, 0.3287 -0.872 0.2181, 0.1713 -0.8755 0.2095, 0.3287 -0.8755 0.2095, 0.6713 0.856 0.3051, 0.6713 0.7677 0.3051, 0.8287 0.856 0.3051, 0.8287 0.7677 0.3051, 0.8287 0.9011 0.2942, 0.6713 0.9011 0.2942, 0.8287 0.9362 0.2638, 0.6713 0.9362 0.2638, 0.8287 0.9534 0.2207, 0.6713 0.9534 0.2207, 0.6713 0.9713 0.0956, 0.8287 0.9713 0.0956, 0.6713 0.9748 0.087, 0.8287 0.9748 0.087, 0.6713 0.9818 0.0809, 0.8287 0.9818 0.0809, 0.6713 0.9908 0.0787, 0.8287 0.9908 0.0787, 0.6713 1.1811 0.0787, 0.8287 1.1811 0.0787, 0.6713 1.1811 0.0, 0.8287 1.1811 0.0, 0.6713 0.9908 0.0, 0.8287 0.9908 0.0, 0.8287 0.9457 0.0109, 0.6713 0.9457 0.0109, 0.8287 0.9106 0.0414, 0.6713 0.9106 0.0414, 0.8287 0.8934 0.0844, 0.6713 0.8934 0.0844, 0.6713 0.8755 0.2095, 0.8287 0.8755 0.2095, 0.6713 0.872 0.2181, 0.8287 0.872 0.2181, 0.6713 0.865 0.2242, 0.8287 0.865 0.2242, 0.6713 0.856 0.2264, 0.8287 0.856 0.2264, 0.6713 0.7522 0.2264, 0.8287 0.7522 0.2264, 0.6713 -0.8934 0.0844, 0.8287 -0.8934 0.0844, 0.8287 -0.9106 0.0414, 0.6713 -0.9106 0.0414, 0.8287 -0.9457 0.0109, 0.6713 -0.9457 0.0109, 0.8287 -0.9908 0.0, 0.6713 -0.9908 0.0, 0.6713 -1.1811 0.0, 0.8287 -1.1811 0.0, 0.6713 -1.1811 0.0787, 0.8287 -1.1811 0.0787, 0.6713 -0.9908 0.0787, 0.8287 -0.9908 0.0787, 0.6713 -0.9818 0.0809, 0.8287 -0.9818 0.0809, 0.6713 -0.9748 0.087, 0.8287 -0.9748 0.087, 0.6713 -0.9713 0.0956, 0.8287 -0.9713 0.0956, 0.6713 -0.9534 0.2207, 0.8287 -0.9534 0.2207, 0.8287 -0.9362 0.2638, 0.6713 -0.9362 0.2638, 0.8287 -0.9011 0.2942, 0.6713 -0.9011 0.2942, 0.8287 -0.856 0.3051, 0.6713 -0.856 0.3051, 0.6713 -0.7677 0.3051, 0.8287 -0.7677 0.3051, 0.6713 -0.856 0.2264, 0.6713 -0.7522 0.2264, 0.8287 -0.856 0.2264, 0.8287 -0.7522 0.2264, 0.6713 -0.865 0.2242, 0.8287 -0.865 0.2242, 0.6713 -0.872 0.2181, 0.8287 -0.872 0.2181, 0.6713 -0.8755 0.2095, 0.8287 -0.8755 0.2095
            ]
        }
        coordIndex [
            0,1,2,-1,2,1,3,-1,0,2,4,-1,0,4,5,-1,5,4,6,-1,5,6,7,-1,7,6,8,-1,7,8,9,-1,10,9,11,-1,11,9,8,-1,10,11,12,-1,12,11,13,-1,12,13,14,-1,14,13,15,-1,14,15,16,-1,16,15,17,-1,18,16,19,-1,19,16,17,-1,20,18,21,-1,21,18,19,-1,22,20,23,-1,23,20,21,-1,22,23,24,-1,22,24,25,-1,25,24,26,-1,25,26,27,-1,27,26,28,-1,27,28,29,-1,30,29,31,-1,31,29,28,-1,30,31,32,-1,32,31,33,-1,32,33,34,-1,34,33,35,-1,34,35,36,-1,36,35,37,-1,38,36,39,-1,39,36,37,-1,38,1,36,-1,36,1,0,-1,36,0,34,-1,34,0,5,-1,34,5,32,-1,32,5,7,-1,32,7,30,-1,30,7,9,-1,30,9,29,-1,29,9,10,-1,29,10,27,-1,27,10,12,-1,27,12,25,-1,25,12,14,-1,25,14,22,-1,22,14,16,-1,22,16,20,-1,20,16,18,-1,21,19,23,-1,23,19,17,-1,23,17,24,-1,24,17,15,-1,24,15,26,-1,26,15,13,-1,26,13,28,-1,28,13,11,-1,28,11,31,-1,31,11,8,-1,31,8,33,-1,33,8,6,-1,33,6,35,-1,35,6,4,-1,35,4,37,-1,37,4,2,-1,37,2,39,-1,39,2,3,-1,40,41,42,-1,40,42,43,-1,43,42,44,-1,43,44,45,-1,45,44,46,-1,45,46,47,-1,48,47,49,-1,49,47,46,-1,50,48,51,-1,51,48,49,-1,52,50,53,-1,53,50,51,-1,52,53,54,-1,54,53,55,-1,54,55,56,-1,56,55,57,-1,56,57,58,-1,58,57,59,-1,60,58,61,-1,61,58,59,-1,60,61,62,-1,60,62,63,-1,63,62,64,-1,63,64,65,-1,65,64,66,-1,65,66,67,-1,68,67,69,-1,69,67,66,-1,70,71,72,-1,72,71,73,-1,70,72,74,-1,74,72,75,-1,74,75,76,-1,76,75,77,-1,76,77,78,-1,78,77,79,-1,40,78,41,-1,41,78,79,-1,48,50,47,-1,47,50,52,-1,47,52,45,-1,45,52,54,-1,45,54,43,-1,43,54,56,-1,43,56,40,-1,40,56,58,-1,40,58,78,-1,78,58,60,-1,78,60,76,-1,76,60,63,-1,76,63,74,-1,74,63,65,-1,74,65,70,-1,70,65,67,-1,70,67,71,-1,71,67,68,-1,51,49,53,-1,53,49,46,-1,53,46,55,-1,55,46,44,-1,55,44,57,-1,57,44,42,-1,57,42,59,-1,59,42,41,-1,59,41,61,-1,61,41,79,-1,61,79,62,-1,62,79,77,-1,62,77,64,-1,64,77,75,-1,64,75,66,-1,66,75,72,-1,66,72,69,-1,69,72,73,-1,80,81,82,-1,82,81,83,-1,80,82,84,-1,80,84,85,-1,85,84,86,-1,85,86,87,-1,87,86,88,-1,87,88,89,-1,90,89,91,-1,91,89,88,-1,90,91,92,-1,92,91,93,-1,92,93,94,-1,94,93,95,-1,94,95,96,-1,96,95,97,-1,98,96,99,-1,99,96,97,-1,100,98,101,-1,101,98,99,-1,102,100,103,-1,103,100,101,-1,102,103,104,-1,102,104,105,-1,105,104,106,-1,105,106,107,-1,107,106,108,-1,107,108,109,-1,110,109,111,-1,111,109,108,-1,110,111,112,-1,112,111,113,-1,112,113,114,-1,114,113,115,-1,114,115,116,-1,116,115,117,-1,118,116,119,-1,119,116,117,-1,118,81,116,-1,116,81,80,-1,116,80,114,-1,114,80,85,-1,114,85,112,-1,112,85,87,-1,112,87,110,-1,110,87,89,-1,110,89,109,-1,109,89,90,-1,109,90,107,-1,107,90,92,-1,107,92,105,-1,105,92,94,-1,105,94,102,-1,102,94,96,-1,102,96,100,-1,100,96,98,-1,101,99,103,-1,103,99,97,-1,103,97,104,-1,104,97,95,-1,104,95,106,-1,106,95,93,-1,106,93,108,-1,108,93,91,-1,108,91,111,-1,111,91,88,-1,111,88,113,-1,113,88,86,-1,113,86,115,-1,115,86,84,-1,115,84,117,-1,117,84,82,-1,117,82,119,-1,119,82,83,-1,120,121,122,-1,120,122,123,-1,123,122,124,-1,123,124,125,-1,125,124,126,-1,125,126,127,-1,128,127,129,-1,129,127,126,-1,130,128,131,-1,131,128,129,-1,132,130,133,-1,133,130,131,-1,132,133,134,-1,134,133,135,-1,134,135,136,-1,136,135,137,-1,136,137,138,-1,138,137,139,-1,140,138,141,-1,141,138,139,-1,140,141,142,-1,140,142,143,-1,143,142,144,-1,143,144,145,-1,145,144,146,-1,145,146,147,-1,148,147,149,-1,149,147,146,-1,150,151,152,-1,152,151,153,-1,150,152,154,-1,154,152,155,-1,154,155,156,-1,156,155,157,-1,156,157,158,-1,158,157,159,-1,120,158,121,-1,121,158,159,-1,128,130,127,-1,127,130,132,-1,127,132,125,-1,125,132,134,-1,125,134,123,-1,123,134,136,-1,123,136,120,-1,120,136,138,-1,120,138,158,-1,158,138,140,-1,158,140,156,-1,156,140,143,-1,156,143,154,-1,154,143,145,-1,154,145,150,-1,150,145,147,-1,150,147,151,-1,151,147,148,-1,131,129,133,-1,133,129,126,-1,133,126,135,-1,135,126,124,-1,135,124,137,-1,137,124,122,-1,137,122,139,-1,139,122,121,-1,139,121,141,-1,141,121,159,-1,141,159,142,-1,142,159,157,-1,142,157,144,-1,144,157,155,-1,144,155,146,-1,146,155,152,-1,146,152,149,-1,149,152,153,-1,160,161,162,-1,162,161,163,-1,160,162,164,-1,160,164,165,-1,165,164,166,-1,165,166,167,-1,167,166,168,-1,167,168,169,-1,170,169,171,-1,171,169,168,-1,170,171,172,-1,172,171,173,-1,172,173,174,-1,174,173,175,-1,174,175,176,-1,176,175,177,-1,178,176,179,-1,179,176,177,-1,180,178,181,-1,181,178,179,-1,182,180,183,-1,183,180,181,-1,182,183,184,-1,182,184,185,-1,185,184,186,-1,185,186,187,-1,187,186,188,-1,187,188,189,-1,190,189,191,-1,191,189,188,-1,190,191,192,-1,192,191,193,-1,192,193,194,-1,194,193,195,-1,194,195,196,-1,196,195,197,-1,198,196,199,-1,199,196,197,-1,198,161,196,-1,196,161,160,-1,196,160,194,-1,194,160,165,-1,194,165,192,-1,192,165,167,-1,192,167,190,-1,190,167,169,-1,190,169,189,-1,189,169,170,-1,189,170,187,-1,187,170,172,-1,187,172,185,-1,185,172,174,-1,185,174,182,-1,182,174,176,-1,182,176,180,-1,180,176,178,-1,181,179,183,-1,183,179,177,-1,183,177,184,-1,184,177,175,-1,184,175,186,-1,186,175,173,-1,186,173,188,-1,188,173,171,-1,188,171,191,-1,191,171,168,-1,191,168,193,-1,193,168,166,-1,193,166,195,-1,195,166,164,-1,195,164,197,-1,197,164,162,-1,197,162,199,-1,199,162,163,-1,200,201,202,-1,200,202,203,-1,203,202,204,-1,203,204,205,-1,205,204,206,-1,205,206,207,-1,208,207,209,-1,209,207,206,-1,210,208,211,-1,211,208,209,-1,212,210,213,-1,213,210,211,-1,212,213,214,-1,214,213,215,-1,214,215,216,-1,216,215,217,-1,216,217,218,-1,218,217,219,-1,220,218,221,-1,221,218,219,-1,220,221,222,-1,220,222,223,-1,223,222,224,-1,223,224,225,-1,225,224,226,-1,225,226,227,-1,228,227,229,-1,229,227,226,-1,230,231,232,-1,232,231,233,-1,230,232,234,-1,234,232,235,-1,234,235,236,-1,236,235,237,-1,236,237,238,-1,238,237,239,-1,200,238,201,-1,201,238,239,-1,208,210,207,-1,207,210,212,-1,207,212,205,-1,205,212,214,-1,205,214,203,-1,203,214,216,-1,203,216,200,-1,200,216,218,-1,200,218,238,-1,238,218,220,-1,238,220,236,-1,236,220,223,-1,236,223,234,-1,234,223,225,-1,234,225,230,-1,230,225,227,-1,230,227,231,-1,231,227,228,-1,211,209,213,-1,213,209,206,-1,213,206,215,-1,215,206,204,-1,215,204,217,-1,217,204,202,-1,217,202,219,-1,219,202,201,-1,219,201,221,-1,221,201,239,-1,221,239,222,-1,222,239,237,-1,222,237,224,-1,224,237,235,-1,224,235,226,-1,226,235,232,-1,226,232,229,-1,229,232,233,-1,240,241,242,-1,242,241,243,-1,240,242,244,-1,240,244,245,-1,245,244,246,-1,245,246,247,-1,247,246,248,-1,247,248,249,-1,250,249,251,-1,251,249,248,-1,250,251,252,-1,252,251,253,-1,252,253,254,-1,254,253,255,-1,254,255,256,-1,256,255,257,-1,258,256,259,-1,259,256,257,-1,260,258,261,-1,261,258,259,-1,262,260,263,-1,263,260,261,-1,262,263,264,-1,262,264,265,-1,265,264,266,-1,265,266,267,-1,267,266,268,-1,267,268,269,-1,270,269,271,-1,271,269,268,-1,270,271,272,-1,272,271,273,-1,272,273,274,-1,274,273,275,-1,274,275,276,-1,276,275,277,-1,278,276,279,-1,279,276,277,-1,278,241,276,-1,276,241,240,-1,276,240,274,-1,274,240,245,-1,274,245,272,-1,272,245,247,-1,272,247,270,-1,270,247,249,-1,270,249,269,-1,269,249,250,-1,269,250,267,-1,267,250,252,-1,267,252,265,-1,265,252,254,-1,265,254,262,-1,262,254,256,-1,262,256,260,-1,260,256,258,-1,261,259,263,-1,263,259,257,-1,263,257,264,-1,264,257,255,-1,264,255,266,-1,266,255,253,-1,266,253,268,-1,268,253,251,-1,268,251,271,-1,271,251,248,-1,271,248,273,-1,273,248,246,-1,273,246,275,-1,275,246,244,-1,275,244,277,-1,277,244,242,-1,277,242,279,-1,279,242,243,-1,280,281,282,-1,280,282,283,-1,283,282,284,-1,283,284,285,-1,285,284,286,-1,285,286,287,-1,288,287,289,-1,289,287,286,-1,290,288,291,-1,291,288,289,-1,292,290,293,-1,293,290,291,-1,292,293,294,-1,294,293,295,-1,294,295,296,-1,296,295,297,-1,296,297,298,-1,298,297,299,-1,300,298,301,-1,301,298,299,-1,300,301,302,-1,300,302,303,-1,303,302,304,-1,303,304,305,-1,305,304,306,-1,305,306,307,-1,308,307,309,-1,309,307,306,-1,310,311,312,-1,312,311,313,-1,310,312,314,-1,314,312,315,-1,314,315,316,-1,316,315,317,-1,316,317,318,-1,318,317,319,-1,280,318,281,-1,281,318,319,-1,288,290,287,-1,287,290,292,-1,287,292,285,-1,285,292,294,-1,285,294,283,-1,283,294,296,-1,283,296,280,-1,280,296,298,-1,280,298,318,-1,318,298,300,-1,318,300,316,-1,316,300,303,-1,316,303,314,-1,314,303,305,-1,314,305,310,-1,310,305,307,-1,310,307,311,-1,311,307,308,-1,291,289,293,-1,293,289,286,-1,293,286,295,-1,295,286,284,-1,295,284,297,-1,297,284,282,-1,297,282,299,-1,299,282,281,-1,299,281,301,-1,301,281,319,-1,301,319,302,-1,302,319,317,-1,302,317,304,-1,304,317,315,-1,304,315,306,-1,306,315,312,-1,306,312,309,-1,309,312,313,-1,
        ]
    }
}
Shape{
    appearance Appearance {
        material  Material 	{
            diffuseColor 0.19607843137254902 0.19607843137254902 0.19607843137254902
            specularColor 0.09803921568627451 0.09803921568627451 0.09803921568627451
            ambientIntensity 0.1961
            transparency 0.0
            shininess 0.5
        }
    }
    geometry IndexedFaceSet {
        ccw TRUE
        solid FALSE
        coord DEF co Coordinate {
            point [
                0.9646 0.7677 0.3051, 0.9646 -0.7677 0.3051, 0.916 0.7115 0.0197, 0.916 -0.7115 0.0197, -0.9646 0.7677 0.3051, -0.916 0.7115 0.0197, -0.9646 -0.7677 0.3051, -0.916 -0.7115 0.0197, -0.916 0.7115 0.5906, -0.916 -0.7115 0.5906, 0.916 0.7115 0.5906, 0.916 -0.7115 0.5906
            ]
        }
        coordIndex [
            0,1,2,-1,2,1,3,-1,4,5,6,-1,6,5,7,-1,8,4,9,-1,9,4,6,-1,10,11,0,-1,0,11,1,-1,
        ]
    }
}
Shape{
    appearance Appearance {
        material  Material 	{
            diffuseColor 0.7529411764705882 0.7529411764705882 0.7529411764705882
            specularColor 0.3764705882352941 0.3764705882352941 0.3764705882352941
            ambientIntensity 0.7529
            transparency 0.0
            shininess 0.5
        }
    }
    geometry IndexedFaceSet {
        ccw TRUE
        solid FALSE
        coord DEF co Coordinate {
            point [
                -0.6367 -0.5056 0.5827, -0.6367 -0.5056 0.5906, -0.6488 -0.4603 0.5827, -0.6488 -0.4603 0.5906, -0.682 -0.4271 0.5827, -0.682 -0.4271 0.5906, -0.7274 -0.415 0.5827, -0.7274 -0.415 0.5906, -0.7727 -0.4271 0.5827, -0.7727 -0.4271 0.5906, -0.8059 -0.4603 0.5827, -0.8059 -0.4603 0.5906, -0.818 -0.5056 0.5827, -0.818 -0.5056 0.5906, -0.8059 -0.551 0.5827, -0.8059 -0.551 0.5906, -0.7727 -0.5842 0.5827, -0.7727 -0.5842 0.5906, -0.7274 -0.5963 0.5827, -0.7274 -0.5963 0.5906, -0.682 -0.5842 0.5827, -0.682 -0.5842 0.5906, -0.6488 -0.551 0.5827, -0.6488 -0.551 0.5906, -0.7274 -0.5056 0.5827
            ]
        }
        coordIndex [
            0,1,2,-1,2,1,3,-1,2,3,4,-1,4,3,5,-1,4,5,6,-1,6,5,7,-1,6,7,8,-1,8,7,9,-1,8,9,10,-1,10,9,11,-1,10,11,12,-1,12,11,13,-1,12,13,14,-1,14,13,15,-1,14,15,16,-1,16,15,17,-1,16,17,18,-1,18,17,19,-1,18,19,20,-1,20,19,21,-1,20,21,22,-1,22,21,23,-1,22,23,0,-1,0,23,1,-1,20,22,24,-1,24,22,0,-1,24,0,2,-1,14,16,24,-1,24,16,18,-1,24,18,20,-1,8,10,24,-1,24,10,12,-1,24,12,14,-1,2,4,24,-1,24,4,6,-1,24,6,8,-1,
        ]
    }
}
Shape{
    appearance Appearance {
        material  Material 	{
            diffuseColor 0.796078431372549 0.8235294117647058 0.9372549019607843
            specularColor 0.396078431372549 0.4117647058823529 0.4666666666666667
            ambientIntensity 0.8283
            transparency 0.0
            shininess 0.5
        }
    }
    geometry IndexedFaceSet {
        ccw TRUE
        solid FALSE
        coord DEF co Coordinate {
            point [
                0.6201 -0.4449 0.0118, 0.6201 -0.063 0.0118, 0.6201 -0.4449 0.0197, 0.6201 -0.063 0.0197, -0.6201 -0.4449 0.0118, -0.6201 -0.4449 0.0197, -0.6201 -0.063 0.0118, -0.6201 -0.063 0.0197, -0.6463 -0.063 0.0118, -0.6463 -0.063 0.0197, -0.6463 -0.0423 0.0118, -0.6463 -0.0423 0.0197, -0.6945 -0.0423 0.0118, -0.6945 -0.0423 0.0197, -0.6945 0.0423 0.0118, -0.6945 0.0423 0.0197, -0.6463 0.0423 0.0118, -0.6463 0.0423 0.0197, -0.6463 0.063 0.0118, -0.6463 0.063 0.0197, -0.6201 0.063 0.0118, -0.6201 0.063 0.0197, -0.6201 0.4449 0.0118, -0.6201 0.4449 0.0197, 0.6201 0.4449 0.0118, 0.6201 0.4449 0.0197, 0.6201 0.063 0.0118, 0.6201 0.063 0.0197, 0.6463 0.063 0.0118, 0.6463 0.063 0.0197, 0.6463 0.0423 0.0118, 0.6463 0.0423 0.0197, 0.6945 0.0423 0.0118, 0.6945 0.0423 0.0197, 0.6945 -0.0423 0.0118, 0.6945 -0.0423 0.0197, 0.6463 -0.0423 0.0118, 0.6463 -0.0423 0.0197, 0.6463 -0.063 0.0118, 0.6463 -0.063 0.0197
            ]
        }
        coordIndex [
            0,1,2,-1,2,1,3,-1,4,0,5,-1,5,0,2,-1,6,4,7,-1,7,4,5,-1,8,6,9,-1,9,6,7,-1,10,8,11,-1,11,8,9,-1,12,10,13,-1,13,10,11,-1,14,12,15,-1,15,12,13,-1,16,14,17,-1,17,14,15,-1,18,16,19,-1,19,16,17,-1,20,18,21,-1,21,18,19,-1,22,20,23,-1,23,20,21,-1,24,22,25,-1,25,22,23,-1,26,24,27,-1,27,24,25,-1,28,26,29,-1,29,26,27,-1,30,28,31,-1,31,28,29,-1,32,30,33,-1,33,30,31,-1,34,32,35,-1,35,32,33,-1,36,34,37,-1,37,34,35,-1,38,36,39,-1,39,36,37,-1,1,38,3,-1,3,38,39,-1,
        ]
    }
}
Shape{
    appearance Appearance {
        material  Material 	{
            diffuseColor 0.7529411764705882 0.7529411764705882 0.7529411764705882
            specularColor 0.3764705882352941 0.3764705882352941 0.3764705882352941
            ambientIntensity 0.7529
            transparency 0.0
            shininess 0.5
        }
    }
    geometry IndexedFaceSet {
        ccw TRUE
        solid FALSE
        coord DEF co Coordinate {
            point [
                -0.5015 0.05 0.0197, -0.536 0.0 0.0197, -0.4815 0.1181 0.0197, -0.48 0.1181 0.0197, -0.4593 0.05 0.0197, -0.4807 0.0951 0.0197, -0.424 0.0 0.0197, -0.4356 0.0 0.0197, -0.4535 0.0379 0.0197, -0.5245 0.0 0.0197, -0.5071 0.0379 0.0197, -0.4815 0.1181 0.0118, -0.48 0.1181 0.0118, -0.424 0.0 0.0118, -0.4356 0.0 0.0118, -0.4535 0.0379 0.0118, -0.5071 0.0379 0.0118, -0.5245 0.0 0.0118, -0.536 0.0 0.0118, -0.4807 0.0951 0.0118, -0.5015 0.05 0.0118, -0.4593 0.05 0.0118, -0.3491 0.1054 0.0197, -0.3671 0.1027 0.0197, -0.3733 0.1139 0.0197, -0.3724 0.1008 0.0197, -0.3852 0.1078 0.0197, -0.3813 0.0956 0.0197, -0.3938 0.1003 0.0197, -0.3881 0.0889 0.0197, -0.4014 0.0897 0.0197, -0.3935 0.0803 0.0197, -0.4063 0.0773 0.0197, -0.397 0.0701 0.0197, -0.4087 0.063 0.0197, -0.3982 0.0576 0.0197, -0.4088 0.0576 0.0197, -0.3982 0.0543 0.0197, -0.4072 0.0418 0.0197, -0.3961 0.0418 0.0197, -0.4026 0.0286 0.0197, -0.3922 0.0329 0.0197, -0.3945 0.0165 0.0197, -0.3863 0.0251 0.0197, -0.3857 0.0087 0.0197, -0.3793 0.0195 0.0197, -0.3768 0.0041 0.0197, -0.3699 0.0151 0.0197, -0.3624 0.0008 0.0197, -0.3531 0.0126 0.0197, -0.3485 0.0 0.0197, -0.3361 0.0121 0.0197, -0.3119 0.0 0.0197, -0.3225 0.0121 0.0197, -0.3119 0.1181 0.0197, -0.3225 0.106 0.0197, -0.3358 0.1181 0.0197, -0.3308 0.106 0.0197, -0.3547 0.1174 0.0197, -0.3119 0.0 0.0118, -0.3485 0.0 0.0118, -0.4088 0.0576 0.0118, -0.4072 0.0418 0.0118, -0.4026 0.0286 0.0118, -0.3945 0.0165 0.0118, -0.3857 0.0087 0.0118, -0.3768 0.0041 0.0118, -0.3624 0.0008 0.0118, -0.3733 0.1139 0.0118, -0.3852 0.1078 0.0118, -0.3938 0.1003 0.0118, -0.4014 0.0897 0.0118, -0.4063 0.0773 0.0118, -0.4087 0.063 0.0118, -0.3358 0.1181 0.0118, -0.3547 0.1174 0.0118, -0.3119 0.1181 0.0118, -0.3225 0.0121 0.0118, -0.3225 0.106 0.0118, -0.3361 0.0121 0.0118, -0.3531 0.0126 0.0118, -0.3699 0.0151 0.0118, -0.3793 0.0195 0.0118, -0.3863 0.0251 0.0118, -0.3922 0.0329 0.0118, -0.3961 0.0418 0.0118, -0.3982 0.0543 0.0118, -0.3982 0.0576 0.0118, -0.397 0.0701 0.0118, -0.3935 0.0803 0.0118, -0.3881 0.0889 0.0118, -0.3813 0.0956 0.0118, -0.3724 0.1008 0.0118, -0.3671 0.1027 0.0118, -0.3491 0.1054 0.0118, -0.3308 0.106 0.0118, -0.2241 0.1181 0.0118, -0.2241 0.0 0.0118, -0.2241 0.1181 0.0197, -0.2241 0.0 0.0197, -0.2907 0.0 0.0118, -0.2907 0.0 0.0197, -0.2907 0.0121 0.0118, -0.2907 0.0121 0.0197, -0.2347 0.0121 0.0118, -0.2347 0.0121 0.0197, -0.2347 0.0575 0.0118, -0.2347 0.0575 0.0197, -0.2907 0.0575 0.0118, -0.2907 0.0575 0.0197, -0.2907 0.0697 0.0118, -0.2907 0.0697 0.0197, -0.2347 0.0697 0.0118, -0.2347 0.0697 0.0197, -0.2347 0.106 0.0118, -0.2347 0.106 0.0197, -0.2907 0.106 0.0118, -0.2907 0.106 0.0197, -0.2907 0.1181 0.0118, -0.2907 0.1181 0.0197, -0.1483 0.1211 0.0118, -0.1483 0.1211 0.0197, -0.1655 0.1192 0.0197, -0.1655 0.1192 0.0118, -0.1763 0.1155 0.0197, -0.1763 0.1155 0.0118, -0.1892 0.1077 0.0197, -0.1892 0.1077 0.0118, -0.1964 0.1008 0.0197, -0.1964 0.1008 0.0118, -0.1999 0.0964 0.0197, -0.1999 0.0964 0.0118, -0.0848 0.0597 0.0118, -0.0848 0.0597 0.0197, -0.0867 0.0759 0.0197, -0.0867 0.0759 0.0118, -0.0916 0.0884 0.0197, -0.0916 0.0884 0.0118, -0.0997 0.1 0.0197, -0.0997 0.1 0.0118, -0.112 0.1108 0.0197, -0.112 0.1108 0.0118, -0.1245 0.1172 0.0197, -0.1245 0.1172 0.0118, -0.1389 0.1206 0.0197, -0.1389 0.1206 0.0118, -0.0998 0.0176 0.0118, -0.0998 0.0176 0.0197, -0.0912 0.0306 0.0197, -0.0912 0.0306 0.0118, -0.0865 0.0442 0.0197, -0.0865 0.0442 0.0118, -0.1485 -0.003 0.0118, -0.1485 -0.003 0.0197, -0.1353 -0.0015 0.0118, -0.1301 -0.0009 0.0197, -0.1301 -0.0009 0.0118, -0.1159 0.0045 0.0197, -0.1159 0.0045 0.0118, -0.1045 0.0127 0.0197, -0.1045 0.0127 0.0118, -0.1999 0.0217 0.0118, -0.1999 0.0217 0.0197, -0.1895 0.0108 0.0197, -0.1895 0.0108 0.0118, -0.1772 0.0031 0.0197, -0.1772 0.0031 0.0118, -0.1638 -0.0015 0.0197, -0.1638 -0.0015 0.0118, -0.1634 -0.0015 0.0118, -0.1544 -0.0028 0.0197, -0.1544 -0.0028 0.0118, -0.1906 0.0288 0.0118, -0.1906 0.0288 0.0197, -0.1484 0.0091 0.0118, -0.1484 0.0091 0.0197, -0.1623 0.0107 0.0197, -0.1623 0.0107 0.0118, -0.1736 0.015 0.0197, -0.1736 0.015 0.0118, -0.1841 0.0222 0.0197, -0.1841 0.0222 0.0118, -0.0954 0.0589 0.0118, -0.0954 0.0589 0.0197, -0.097 0.0459 0.0197, -0.097 0.0459 0.0118, -0.1007 0.0361 0.0197, -0.1007 0.0361 0.0118, -0.1071 0.0269 0.0197, -0.1071 0.0269 0.0118, -0.1156 0.0191 0.0197, -0.1156 0.0191 0.0118, -0.127 0.0128 0.0197, -0.127 0.0128 0.0118, -0.139 0.0097 0.0197, -0.139 0.0097 0.0118, -0.1477 0.109 0.0118, -0.1477 0.109 0.0197, -0.1337 0.1073 0.0197, -0.1337 0.1073 0.0118, -0.1217 0.1026 0.0197, -0.1217 0.1026 0.0118, -0.1108 0.095 0.0197, -0.1108 0.095 0.0118, -0.1035 0.0864 0.0197, -0.1035 0.0864 0.0118, -0.0982 0.076 0.0197, -0.0982 0.076 0.0118, -0.0957 0.0645 0.0197, -0.0957 0.0645 0.0118, -0.1906 0.0893 0.0118, -0.1906 0.0893 0.0197, -0.1811 0.0985 0.0197, -0.1811 0.0985 0.0118, -0.17 0.1048 0.0197, -0.17 0.1048 0.0118, -0.1648 0.1066 0.0197, -0.1648 0.1066 0.0118, -0.1518 0.1089 0.0197, -0.1518 0.1089 0.0118, -0.0151 0.1181 0.0118, -0.0151 0.0 0.0118, -0.0151 0.1181 0.0197, -0.0151 0.0 0.0197, -0.0712 0.0 0.0118, -0.0712 0.0 0.0197, -0.0712 0.0121 0.0118, -0.0712 0.0121 0.0197, -0.0257 0.0121 0.0118, -0.0257 0.0121 0.0197, -0.0257 0.1181 0.0118, -0.0257 0.1181 0.0197
            ]
        }
        coordIndex [
            0,1,2,-1,3,4,2,-1,2,4,5,-1,2,5,0,-1,6,7,8,-1,9,1,10,-1,10,1,0,-1,10,0,8,-1,8,0,4,-1,8,4,6,-1,6,4,3,-1,11,12,2,-1,2,12,3,-1,12,13,3,-1,3,13,6,-1,13,14,6,-1,6,14,7,-1,14,15,7,-1,7,15,8,-1,15,16,8,-1,8,16,10,-1,16,17,10,-1,10,17,9,-1,17,18,9,-1,9,18,1,-1,18,11,1,-1,1,11,2,-1,19,20,5,-1,5,20,0,-1,21,19,4,-1,4,19,5,-1,20,21,0,-1,0,21,4,-1,22,23,24,-1,24,23,25,-1,24,25,26,-1,26,25,27,-1,26,27,28,-1,28,27,29,-1,28,29,30,-1,30,29,31,-1,30,31,32,-1,32,31,33,-1,32,33,34,-1,34,33,35,-1,34,35,36,-1,36,35,37,-1,36,37,38,-1,38,37,39,-1,38,39,40,-1,40,39,41,-1,40,41,42,-1,42,41,43,-1,42,43,44,-1,44,43,45,-1,44,45,46,-1,46,45,47,-1,46,47,48,-1,48,47,49,-1,48,49,50,-1,50,49,51,-1,50,51,52,-1,52,51,53,-1,52,53,54,-1,54,53,55,-1,54,55,56,-1,56,55,57,-1,56,57,58,-1,58,57,22,-1,58,22,24,-1,59,60,52,-1,52,60,50,-1,61,36,38,-1,61,38,62,-1,62,38,40,-1,62,40,63,-1,63,40,42,-1,63,42,64,-1,64,42,44,-1,64,44,65,-1,65,44,46,-1,65,46,66,-1,66,46,48,-1,66,48,67,-1,67,48,50,-1,67,50,60,-1,68,24,26,-1,68,26,69,-1,69,26,28,-1,69,28,70,-1,70,28,30,-1,70,30,71,-1,71,30,32,-1,71,32,72,-1,72,32,34,-1,72,34,73,-1,73,34,36,-1,73,36,61,-1,74,56,58,-1,74,58,75,-1,75,58,24,-1,75,24,68,-1,74,76,56,-1,56,76,54,-1,76,59,54,-1,54,59,52,-1,77,78,53,-1,53,78,55,-1,79,77,51,-1,51,77,53,-1,79,51,49,-1,79,49,80,-1,80,49,47,-1,80,47,81,-1,81,47,45,-1,81,45,82,-1,82,45,43,-1,82,43,83,-1,83,43,41,-1,83,41,84,-1,84,41,39,-1,84,39,85,-1,85,39,37,-1,85,37,86,-1,86,37,35,-1,86,35,87,-1,87,35,33,-1,87,33,88,-1,88,33,31,-1,88,31,89,-1,89,31,29,-1,89,29,90,-1,90,29,27,-1,90,27,91,-1,91,27,25,-1,91,25,92,-1,92,25,23,-1,92,23,93,-1,93,23,22,-1,93,22,94,-1,94,22,57,-1,94,57,95,-1,78,95,55,-1,55,95,57,-1,96,97,98,-1,98,97,99,-1,97,100,99,-1,99,100,101,-1,100,102,101,-1,101,102,103,-1,102,104,103,-1,103,104,105,-1,104,106,105,-1,105,106,107,-1,106,108,107,-1,107,108,109,-1,108,110,109,-1,109,110,111,-1,110,112,111,-1,111,112,113,-1,112,114,113,-1,113,114,115,-1,114,116,115,-1,115,116,117,-1,116,118,117,-1,117,118,119,-1,118,96,119,-1,119,96,98,-1,99,101,103,-1,103,105,99,-1,99,105,107,-1,99,107,98,-1,117,119,115,-1,115,119,98,-1,115,98,113,-1,113,98,107,-1,113,107,111,-1,111,107,109,-1,120,121,122,-1,120,122,123,-1,123,122,124,-1,123,124,125,-1,125,124,126,-1,125,126,127,-1,127,126,128,-1,127,128,129,-1,129,128,130,-1,129,130,131,-1,132,133,134,-1,132,134,135,-1,135,134,136,-1,135,136,137,-1,137,136,138,-1,137,138,139,-1,139,138,140,-1,139,140,141,-1,141,140,142,-1,141,142,143,-1,143,142,144,-1,143,144,145,-1,145,144,121,-1,145,121,120,-1,146,147,148,-1,146,148,149,-1,149,148,150,-1,149,150,151,-1,151,150,133,-1,151,133,132,-1,152,153,154,-1,154,153,155,-1,154,155,156,-1,156,155,157,-1,156,157,158,-1,158,157,159,-1,158,159,160,-1,160,159,147,-1,160,147,146,-1,161,162,163,-1,161,163,164,-1,164,163,165,-1,164,165,166,-1,166,165,167,-1,166,167,168,-1,168,167,169,-1,169,167,170,-1,169,170,171,-1,171,170,153,-1,171,153,152,-1,161,172,162,-1,162,172,173,-1,174,175,176,-1,174,176,177,-1,177,176,178,-1,177,178,179,-1,179,178,180,-1,179,180,181,-1,181,180,173,-1,181,173,172,-1,182,183,184,-1,182,184,185,-1,185,184,186,-1,185,186,187,-1,187,186,188,-1,187,188,189,-1,189,188,190,-1,189,190,191,-1,191,190,192,-1,191,192,193,-1,193,192,194,-1,193,194,195,-1,195,194,175,-1,195,175,174,-1,196,197,198,-1,196,198,199,-1,199,198,200,-1,199,200,201,-1,201,200,202,-1,201,202,203,-1,203,202,204,-1,203,204,205,-1,205,204,206,-1,205,206,207,-1,207,206,208,-1,207,208,209,-1,209,208,183,-1,209,183,182,-1,210,211,212,-1,210,212,213,-1,213,212,214,-1,213,214,215,-1,215,214,216,-1,215,216,217,-1,217,216,218,-1,217,218,219,-1,219,218,197,-1,219,197,196,-1,210,131,211,-1,211,131,130,-1,211,130,128,-1,162,173,163,-1,163,173,180,-1,163,180,165,-1,165,180,178,-1,165,178,167,-1,167,178,176,-1,167,176,170,-1,170,176,175,-1,211,128,212,-1,212,128,126,-1,212,126,214,-1,214,126,124,-1,214,124,216,-1,216,124,122,-1,216,122,218,-1,218,122,121,-1,218,121,197,-1,197,121,144,-1,197,144,198,-1,198,144,142,-1,198,142,200,-1,200,142,140,-1,200,140,202,-1,202,140,138,-1,202,138,204,-1,204,138,136,-1,204,136,206,-1,206,136,134,-1,206,134,208,-1,208,134,133,-1,208,133,183,-1,183,133,184,-1,184,133,150,-1,184,150,186,-1,186,150,148,-1,186,148,188,-1,188,148,147,-1,188,147,190,-1,190,147,159,-1,190,159,192,-1,192,159,157,-1,192,157,194,-1,194,157,155,-1,194,155,175,-1,175,155,153,-1,175,153,170,-1,220,221,222,-1,222,221,223,-1,221,224,223,-1,223,224,225,-1,224,226,225,-1,225,226,227,-1,226,228,227,-1,227,228,229,-1,228,230,229,-1,229,230,231,-1,230,220,231,-1,231,220,222,-1,231,222,229,-1,229,222,223,-1,229,223,227,-1,227,223,225,-1,
        ]
    }
}
Shape{
    appearance Appearance {
        material  Material 	{
            diffuseColor 0.796078431372549 0.8235294117647058 0.9372549019607843
            specularColor 0.396078431372549 0.4117647058823529 0.4666666666666667
            ambientIntensity 0.8283
            transparency 0.0
            shininess 0.5
        }
    }
    geometry IndexedFaceSet {
        ccw TRUE
        solid FALSE
        coord DEF co Coordinate {
            point [
                -0.5015 0.05 0.0118, -0.4807 0.0951 0.0118, -0.4593 0.05 0.0118, -0.3225 0.106 0.0118, -0.3225 0.0121 0.0118, -0.3308 0.106 0.0118, -0.3361 0.0121 0.0118, -0.3491 0.1054 0.0118, -0.3531 0.0126 0.0118, -0.3671 0.1027 0.0118, -0.3922 0.0329 0.0118, -0.3961 0.0418 0.0118, -0.3982 0.0543 0.0118, -0.3982 0.0576 0.0118, -0.3699 0.0151 0.0118, -0.3793 0.0195 0.0118, -0.3863 0.0251 0.0118, -0.397 0.0701 0.0118, -0.3935 0.0803 0.0118, -0.3881 0.0889 0.0118, -0.3813 0.0956 0.0118, -0.3724 0.1008 0.0118
            ]
        }
        coordIndex [
            0,1,2,-1,3,4,5,-1,5,4,6,-1,5,6,7,-1,7,6,8,-1,7,8,9,-1,10,11,8,-1,8,11,12,-1,8,12,13,-1,14,15,8,-1,8,15,16,-1,8,16,10,-1,13,17,8,-1,8,17,18,-1,8,18,19,-1,19,20,8,-1,8,20,21,-1,8,21,9,-1,
        ]
    }
}