#VRML V2.0 utf8
# 3D model generated by easyeda2kicad.py (https://github.com/uPesy/easyeda2kicad.py)

Shape{
    appearance Appearance {
        material  Material 	{
            diffuseColor 0.7529411764705882 0.7529411764705882 0.7529411764705882
            specularColor 0.3764705882352941 0.3764705882352941 0.3764705882352941
            ambientIntensity 0.7529
            transparency 0.0
            shininess 0.5
        }
    }
    geometry IndexedFaceSet {
        ccw TRUE
        solid FALSE
        coord DEF co Coordinate {
            point [
                -0.7461 0.0452 0.267, -0.7461 0.0452 0.2723, -0.7461 0.0455 0.2733, -0.7461 0.0602 0.2733, -0.7461 0.0602 0.2179, -0.7461 0.0455 0.2179, -0.7461 0.2008 0.2179, -0.7461 0.2008 0.1969, -0.7461 0.0602 0.1969, -0.7461 0.0453 0.3708, -0.7461 0.0455 0.3724, -0.7461 0.0455 0.3631, -0.7461 0.0081 0.3315, -0.7461 0.0081 0.3198, -0.7461 -0.0025 0.3198, -0.7461 0.0004 0.6326, -0.7461 -0.0025 0.632, -0.7461 -0.0025 0.7087, -0.7461 -0.0549 0.5166, -0.7461 -0.051 0.5109, -0.7461 -0.051 0.4493, -0.7461 -0.0218 0.4815, -0.7461 -0.0157 0.4743, -0.7461 -0.0133 0.4493, -0.7461 -0.047 0.5048, -0.7461 -0.0458 0.5036, -0.7461 -0.0356 0.4953, -0.7461 -0.0261 0.4906, -0.7461 -0.0257 0.4893, -0.7461 -0.0543 0.5659, -0.7461 -0.059 0.5538, -0.7461 -0.2008 0.7087, -0.7461 -0.2008 0.4493, -0.7461 -0.0607 0.5407, -0.7461 -0.0595 0.5298, -0.7461 -0.0267 0.6203, -0.7461 -0.0287 0.6181, -0.7461 -0.051 0.7087, -0.7461 -0.051 0.5713, -0.7461 -0.0504 0.5723, -0.7461 -0.0345 0.6096, -0.7461 -0.0382 0.5998, -0.7461 -0.0393 0.59, -0.7461 -0.0451 0.5785, -0.7461 -0.0391 0.5869, -0.7461 -0.0388 0.5839, -0.7461 -0.0133 0.7087, -0.7461 -0.0095 0.6307, -0.7461 -0.0133 0.6289, -0.7461 -0.0189 0.6264, -0.7461 0.0448 0.6005, -0.7461 0.0435 0.6045, -0.7461 0.0455 0.7087, -0.7461 0.0387 0.6139, -0.7461 0.0321 0.6216, -0.7461 0.023 0.6279, -0.7461 0.0132 0.6315, -0.7461 0.0034 0.6327, -0.7461 0.0591 0.5888, -0.7461 0.0553 0.594, -0.7461 0.0602 0.7087, -0.7461 0.0504 0.5979, -0.7461 0.0455 0.6002, -0.7461 0.2008 0.4493, -0.7461 0.0602 0.4493, -0.7461 0.0602 0.5646, -0.7461 0.2008 0.7087, -0.7461 0.0617 0.5827, -0.7461 0.0602 0.5864, -0.7461 0.0619 0.5691, -0.7461 0.0627 0.5755, -0.7461 0.0627 0.5765, -0.7461 0.0455 0.4493, -0.7461 0.0455 0.5508, -0.7461 0.0456 0.5508, -0.7461 0.0514 0.5539, -0.7461 0.056 0.558, -0.7461 0.0596 0.5632, -0.7461 -0.0002 0.4657, -0.7461 0.0084 0.4645, -0.7461 -0.0025 0.4493, -0.7461 0.0299 0.5171, -0.7461 0.0292 0.5153, -0.7461 0.0142 0.5122, -0.7461 0.0334 0.4743, -0.7461 0.0395 0.4814, -0.7461 0.0187 0.5557, -0.7461 0.0002 0.5204, -0.7461 0.0145 0.5603, -0.7461 0.0115 0.5659, -0.7461 0.0311 0.5187, -0.7461 0.0262 0.469, -0.7461 0.0064 0.481, -0.7461 0.0013 0.4822, -0.7461 -0.0025 0.4842, -0.7461 -0.0025 0.6154, -0.7461 0.0178 0.4657, -0.7461 0.029 0.5133, -0.7461 0.029 0.513, -0.7461 0.0291 0.5122, -0.7461 0.0134 0.6139, -0.7461 0.0187 0.6107, -0.7461 0.0214 0.5973, -0.7461 0.0236 0.606, -0.7461 0.0271 0.6002, -0.7461 0.0127 0.5876, -0.7461 0.0165 0.593, -0.7461 0.0029 0.6161, -0.7461 0.0069 0.6157, -0.7461 0.0105 0.5818, -0.7461 0.0097 0.5755, -0.7461 0.0099 0.5723, -0.7461 0.0371 0.5214, -0.7461 0.0361 0.5214, -0.7461 0.0337 0.5491, -0.7461 0.0341 0.5208, -0.7461 0.0323 0.5198, -0.7461 0.0226 0.4862, -0.7461 0.0185 0.4833, -0.7461 0.0138 0.4815, -0.7461 0.0087 0.4809, -0.7461 0.0451 0.5153, -0.7461 0.0444 0.517, -0.7461 0.0432 0.5187, -0.7461 0.0425 0.5193, -0.7461 0.0409 0.5205, -0.7461 0.0391 0.5212, -0.7461 0.039 0.5493, -0.7461 0.0363 0.5491, -0.7461 0.0434 0.4895, -0.7461 0.0453 0.4982, -0.7461 0.0453 0.5138, -0.7461 0.0292 0.5117, -0.7461 0.0292 0.4998, -0.7461 0.0283 0.4951, -0.7461 0.0262 0.4905, -0.7461 0.023 0.4866, -0.7461 -0.0119 0.5035, -0.7461 -0.0094 0.613, -0.7461 -0.0035 0.6153, -0.7461 -0.0119 0.5014, -0.7461 -0.0032 0.4847, -0.7461 -0.0067 0.4877, -0.7461 -0.0095 0.4918, -0.7461 -0.0113 0.4964, -0.7461 -0.0277 0.5092, -0.7461 -0.0348 0.5151, -0.7461 -0.0195 0.5757, -0.7461 -0.0354 0.5158, -0.7461 -0.0406 0.5232, -0.7461 -0.0279 0.5717, -0.7461 -0.0133 0.6103, -0.7461 -0.0206 0.5776, -0.7461 -0.0133 0.5038, -0.7461 -0.0192 0.5051, -0.7461 -0.0227 0.5836, -0.7461 -0.0235 0.5897, -0.7461 -0.0234 0.5924, -0.7461 -0.0349 0.5658, -0.7461 -0.0437 0.5315, -0.7461 -0.0401 0.5587, -0.7461 -0.0448 0.5404, -0.7461 -0.0436 0.5501, -0.7461 -0.0218 0.5989, -0.7461 -0.0187 0.6048, -0.7461 -0.0146 0.6094, -0.7461 -0.0133 0.4726, -0.7461 -0.0082 0.4689, -0.7461 -0.0025 0.4666, -0.7461 0.0242 0.3135, -0.7461 0.0285 0.3135, -0.7461 0.0455 0.3081, -0.7461 -0.0025 0.3081, -0.7461 0.0081 0.3124, -0.7461 0.0124 0.3124, -0.7461 0.0285 0.3267, -0.7461 0.0409 0.3267, -0.7461 0.0285 0.3198, -0.7461 0.0409 0.3198, -0.7461 0.0409 0.3116, -0.7461 0.0452 0.3116, -0.7461 0.0455 0.3198, -0.7461 0.0452 0.3198, -0.7461 0.0452 0.3315, -0.7461 0.0386 0.3498, -0.7461 0.0408 0.3492, -0.7461 0.0408 0.3491, -0.7461 0.0187 0.3365, -0.7461 -0.0025 0.3545, -0.7461 0.0187 0.3413, -0.7461 0.0251 0.3545, -0.7461 0.0386 0.3485, -0.7461 0.0399 0.3489, -0.7461 0.0258 0.3822, -0.7461 0.0242 0.382, -0.7461 -0.0025 0.3869, -0.7461 0.0291 0.3815, -0.7461 0.0276 0.382, -0.7461 0.0394 0.3822, -0.7461 0.0407 0.3802, -0.7461 0.0407 0.3801, -0.7461 0.0308 0.3801, -0.7461 0.03 0.3809, -0.7461 0.0308 0.3801, -0.7461 0.0455 0.378, -0.7461 0.0454 0.3789, -0.7461 0.0455 0.3801, -0.7461 0.045 0.3801, -0.7461 0.0455 0.3869, -0.7461 0.0442 0.3822, -0.7461 0.0193 0.3656, -0.7461 0.0238 0.3656, -0.7461 0.0202 0.3792, -0.7461 0.0195 0.3781, -0.7461 -0.0025 0.3801, -0.7461 0.0227 0.3814, -0.7461 0.0214 0.3806, -0.7461 0.021 0.3801, -0.7461 0.0398 0.3645, -0.7461 0.0413 0.3651, -0.7461 0.0425 0.366, -0.7461 0.0185 0.3756, -0.7461 0.0181 0.3719, -0.7461 -0.0025 0.3631, -0.7461 0.0184 0.3686, -0.7461 0.0336 0.3659, -0.7461 0.0349 0.365, -0.7461 0.0362 0.3645, -0.7461 0.038 0.3643, -0.7461 0.0437 0.3673, -0.7461 0.0444 0.3684, -0.7461 0.0219 0.3723, -0.7461 0.022 0.3737, -0.7461 0.0254 0.3774, -0.7461 0.0223 0.3749, -0.7461 0.0228 0.376, -0.7461 0.026 0.3774, -0.7461 0.0268 0.3772, -0.7461 0.0274 0.3768, -0.7461 0.0279 0.3764, -0.7461 0.0289 0.3747, -0.7461 0.0221 0.3696, -0.7461 0.0302 0.3719, -0.7461 0.023 0.3669, -0.7461 0.0309 0.3701, -0.7461 0.0326 0.367, -0.7461 0.0235 0.3767, -0.7461 0.0241 0.3771, -0.7461 0.0247 0.3773, -0.7461 0.0417 0.3772, -0.7461 0.0335 0.3751, -0.7461 0.0323 0.3779, -0.7461 0.042 0.3746, -0.7461 0.042 0.3744, -0.7461 0.0348 0.3721, -0.7461 0.0417 0.372, -0.7461 0.0384 0.3691, -0.7461 0.0378 0.3691, -0.7461 0.0413 0.3708, -0.7461 0.041 0.3704, -0.7461 0.0406 0.3698, -0.7461 0.04 0.3694, -0.7461 0.0393 0.3692, -0.7461 0.0371 0.3693, -0.7461 0.0365 0.3697, -0.7461 0.0359 0.3703, -0.7461 -0.0133 0.2733, -0.7461 -0.0136 0.2854, -0.7461 -0.0136 0.2907, -0.7461 -0.0238 0.2945, -0.7461 -0.0238 0.3081, -0.7461 -0.0133 0.3081, -0.7461 -0.0507 0.2995, -0.7461 -0.051 0.2733, -0.7461 -0.051 0.3081, -0.7461 -0.0238 0.3099, -0.7461 -0.0136 0.3135, -0.7461 -0.0133 0.3198, -0.7461 -0.0136 0.3187, -0.7461 -0.051 0.3198, -0.7461 -0.0417 0.3081, -0.7461 -0.0507 0.3046, -0.7461 -0.051 0.3631, -0.7461 -0.0507 0.3588, -0.7461 -0.051 0.3545, -0.7461 -0.0464 0.3588, -0.7461 -0.0179 0.358, -0.7461 -0.0303 0.3599, -0.7461 -0.0179 0.3631, -0.7461 -0.0303 0.3631, -0.7461 -0.0179 0.3731, -0.7461 -0.0303 0.3731, -0.7461 -0.0464 0.3731, -0.7461 -0.0346 0.3731, -0.7461 -0.0464 0.3631, -0.7461 -0.0346 0.3631, -0.7461 -0.0346 0.3599, -0.7461 -0.0136 0.3779, -0.7461 -0.0133 0.3801, -0.7461 -0.0133 0.3631, -0.7461 -0.051 0.3801, -0.7461 -0.0507 0.3779, -0.7461 -0.0507 0.3631, -0.7461 -0.0133 0.3545, -0.7461 -0.0136 0.358, -0.7461 -0.0136 0.3631, -0.7461 -0.0173 0.3932, -0.7461 -0.0181 0.389, -0.7461 -0.0455 0.3869, -0.7461 -0.0191 0.3869, -0.7461 -0.045 0.3857, -0.7461 -0.0198 0.3853, -0.7461 -0.0448 0.3853, -0.7461 -0.047 0.3941, -0.7461 -0.0318 0.4081, -0.7461 -0.0465 0.3895, -0.7461 -0.0469 0.396, -0.7461 -0.0462 0.3992, -0.7461 -0.0447 0.4021, -0.7461 -0.0298 0.408, -0.7461 -0.0262 0.4073, -0.7461 -0.0233 0.406, -0.7461 -0.0429 0.4042, -0.7461 -0.0401 0.4062, -0.7461 -0.0369 0.4074, -0.7461 -0.0212 0.4044, -0.7461 -0.0205 0.4037, -0.7461 -0.0187 0.4013, -0.7461 -0.0177 0.3986, -0.7461 -0.0173 0.3949, -0.7461 -0.051 0.3902, -0.7461 -0.051 0.3892, -0.7461 -0.051 0.3869, -0.7461 -0.0503 0.3869, -0.7461 -0.0498 0.3853, -0.7461 -0.0513 0.3941, -0.7461 -0.2008 0.3869, -0.7461 -0.0513 0.3941, -0.7461 -0.2008 0.4114, -0.7461 -0.051 0.3967, -0.7461 -0.051 0.4114, -0.7461 -0.0424 0.4104, -0.7461 -0.0459 0.4077, -0.7461 -0.0467 0.4068, -0.7461 -0.0492 0.4034, -0.7461 -0.0507 0.3995, -0.7461 -0.051 0.4137, -0.7461 -0.0382 0.4122, -0.7461 -0.04 0.4114, -0.7461 -0.0231 0.4114, -0.7461 -0.0254 0.4124, -0.7461 -0.0133 0.4137, -0.7461 -0.0315 0.4131, -0.7461 -0.0334 0.413, -0.7461 -0.0139 0.4019, -0.7461 -0.0156 0.4054, -0.7461 -0.0133 0.4114, -0.7461 -0.0181 0.4083, -0.7461 -0.0216 0.4108, -0.7461 -0.0133 0.3988, -0.7461 -0.0025 0.4114, -0.7461 -0.0131 0.3978, -0.7461 -0.013 0.3956, -0.7461 -0.0133 0.3923, -0.7461 -0.0152 0.3853, -0.7461 -0.0149 0.386, -0.7461 -0.0133 0.3869, -0.7461 -0.0145 0.3869, -0.7461 -0.0136 0.3899, -0.7461 0.0327 0.408, -0.7461 0.0251 0.4072, -0.7461 0.0342 0.409, -0.7461 0.0359 0.4096, -0.7461 0.0452 0.3885, -0.7461 0.0452 0.3931, -0.7461 0.022 0.3969, -0.7461 0.0219 0.3985, -0.7461 0.0294 0.401, -0.7461 0.0315 0.4067, -0.7461 0.0304 0.4048, -0.7461 0.023 0.404, -0.7461 0.0221 0.4011, -0.7461 0.0242 0.389, -0.7461 0.0281 0.3885, -0.7461 0.0411 0.3931, -0.7461 0.0411 0.3933, -0.7461 0.0424 0.3941, -0.7461 0.0439 0.3956, -0.7461 0.0455 0.4114, -0.7461 0.0448 0.4059, -0.7461 0.0437 0.4075, -0.7461 0.0205 0.4072, -0.7461 0.0381 0.4098, -0.7461 0.0404 0.4095, -0.7461 0.0283 0.3931, -0.7461 0.0263 0.3933, -0.7461 0.0246 0.3938, -0.7461 0.0237 0.3943, -0.7461 0.0433 0.4079, -0.7461 0.0419 0.4089, -0.7461 0.02 0.4062, -0.7461 0.0187 0.4028, -0.7461 0.0181 0.3981, -0.7461 0.0184 0.3949, -0.7461 0.0191 0.393, -0.7461 0.02 0.3915, -0.7461 0.0229 0.395, -0.7461 0.0224 0.3959, -0.7461 0.0208 0.3907, -0.7461 0.0222 0.3897, -0.7461 0.0455 0.3988, -0.7461 0.0455 0.3989, -0.7461 0.0602 0.3869, -0.7461 0.0602 0.4114, -0.7461 0.0458 0.4014, -0.7461 0.0455 0.4041, -0.7461 0.0455 0.4042, -0.7461 0.0455 0.3545, -0.7461 0.0376 0.3545, -0.7461 0.0187 0.3619, -0.7461 0.0187 0.3567, -0.7461 0.0451 0.3515, -0.7461 0.0455 0.3517, -0.7461 0.0499 0.3536, -0.7461 0.0602 0.3631, -0.7461 0.0573 0.361, -0.7461 0.0531 0.361, -0.7461 0.0526 0.3554, -0.7461 0.0516 0.3545, -0.7461 0.0516 0.3545, -0.7461 0.0458 0.375, -0.7461 0.0602 0.3801, -0.7461 0.0534 0.36, -0.7461 0.0537 0.3583, -0.7461 0.0568 0.3545, -0.7461 0.0574 0.3561, -0.7461 0.0602 0.3545, -0.7461 0.0576 0.358, -0.7461 0.0576 0.359, -0.7461 0.0535 0.3571, -0.7461 0.0531 0.3561, -0.7461 0.0492 0.3485, -0.7461 0.0533 0.3506, -0.7461 0.0602 0.3198, -0.7461 0.0455 0.3471, -0.7461 0.0553 0.3523, -0.7461 0.0556 0.3526, -0.7461 0.0567 0.3543, -0.7461 0.2008 0.4114, -0.7461 0.2008 0.3869, -0.7461 0.2008 0.3801, -0.7461 0.2008 0.3631, -0.7461 0.2008 0.3545, -0.7461 0.2008 0.2733, -0.7461 0.2008 0.3081, -0.7461 0.0448 0.397, -0.7461 0.0081 0.4342, -0.7461 0.0452 0.4342, -0.7461 0.0455 0.4137, -0.7461 0.0602 0.4137, -0.7461 0.2008 0.4137, -0.7461 0.0081 0.4151, -0.7461 -0.0025 0.4137, -0.7461 0.0124 0.4151, -0.7461 0.0285 0.4294, -0.7461 0.0409 0.4294, -0.7461 0.0285 0.4161, -0.7461 0.0409 0.4142, -0.7461 0.0242 0.4161, -0.7461 0.0124 0.4294, -0.7461 0.0242 0.4294, -0.7461 0.0452 0.4142, -0.7461 0.0452 0.2944, -0.7461 0.0452 0.3046, -0.7461 0.0242 0.3198, -0.7461 0.0124 0.3198, -0.7461 0.0242 0.3267, -0.7461 0.0124 0.3267, -0.7461 0.0329 0.2754, -0.7461 0.0367 0.2772, -0.7461 0.04 0.28, -0.7461 0.0427 0.2838, -0.7461 0.0444 0.288, -0.7461 0.0602 0.3081, -0.7461 0.2008 0.3198, -0.7461 0.0081 0.3046, -0.7461 0.0081 0.294, -0.7461 -0.0025 0.2733, -0.7461 0.0087 0.2883, -0.7461 0.0104 0.2838, -0.7461 0.013 0.28, -0.7461 0.0143 0.2787, -0.7461 0.0175 0.2764, -0.7461 0.021 0.275, -0.7461 0.0262 0.2744, -0.7461 0.0285 0.2745, -0.7461 0.0081 0.2582, -0.7461 0.0081 0.2531, -0.7461 0.0452 0.239, -0.7461 0.0452 0.2443, -0.7461 0.035 0.248, -0.7461 0.035 0.2635, -0.7461 -0.0507 0.4294, -0.7461 -0.0179 0.4294, -0.7461 -0.0179 0.4146, -0.7461 -0.0136 0.4342, -0.7461 -0.0507 0.4342, -0.7461 -0.0136 0.4146, -0.7461 -0.026 0.3218, -0.7461 -0.0221 0.3236, -0.7461 -0.0188 0.3264, -0.7461 -0.0161 0.3302, -0.7461 -0.0507 0.3404, -0.7461 -0.0501 0.3347, -0.7461 -0.0485 0.3303, -0.7461 -0.0144 0.3345, -0.7461 -0.0136 0.3408, -0.7461 -0.0136 0.351, -0.7461 -0.0507 0.351, -0.7461 -0.0458 0.3264, -0.7461 -0.0445 0.3251, -0.7461 -0.0413 0.3228, -0.7461 -0.0378 0.3214, -0.7461 -0.0326 0.3208, -0.7461 -0.0303 0.3209, -0.7461 -0.0025 0.2179, -0.7461 -0.0133 0.2179, -0.7461 -0.051 0.2179, -0.7461 0.0455 0.1969, -0.7461 -0.0025 0.1969, -0.7461 -0.0133 0.1969, -0.7461 -0.051 0.1969, -0.7461 -0.2008 0.4137, -0.7461 -0.2008 0.1969, -0.7461 -0.2008 0.2179, -0.7461 -0.2008 0.2733, -0.7461 -0.2008 0.3081, -0.7461 -0.2008 0.3198, -0.7461 -0.2008 0.3545, -0.7461 -0.2008 0.3631, -0.7461 -0.2008 0.3801, 0.4744 -0.2008 0.1575, 0.4744 -0.2008 0.0, 0.5531 -0.2008 0.1575, 0.5531 -0.2008 0.0, 0.5633 -0.2008 0.1588, 0.5916 -0.2008 0.0038, 0.6285 -0.2008 0.015, 0.5728 -0.2008 0.1628, 0.6625 -0.2008 0.0332, 0.581 -0.2008 0.169, 0.6923 -0.2008 0.0577, 0.5872 -0.2008 0.1772, -0.4705 -0.2008 0.0, -0.4705 -0.2008 0.1575, -0.5492 -0.2008 0.0, -0.5492 -0.2008 0.1575, -0.5876 -0.2008 0.0038, -0.5594 -0.2008 0.1588, -0.6245 -0.2008 0.015, -0.5689 -0.2008 0.1628, -0.5594 -0.2008 0.7467, -0.6245 -0.2008 0.8905, -0.5689 -0.2008 0.7428, -0.6586 -0.2008 0.8723, -0.5771 -0.2008 0.7365, -0.6884 -0.2008 0.8479, -0.5833 -0.2008 0.7283, 0.5912 -0.2008 0.7189, 0.735 -0.2008 0.784, 0.5872 -0.2008 0.7283, 0.7168 -0.2008 0.818, 0.581 -0.2008 0.7365, 0.6923 -0.2008 0.8479, 0.5728 -0.2008 0.7428, 0.7168 -0.2008 0.0875, 0.735 -0.2008 0.1215, 0.5912 -0.2008 0.1867, 0.7462 -0.2008 0.1584, 0.5925 -0.2008 0.1969, 0.75 -0.2008 0.1969, 0.5925 -0.2008 0.7087, 0.75 -0.2008 0.7087, 0.7462 -0.2008 0.7471, -0.5872 -0.2008 0.1867, -0.7311 -0.2008 0.1215, -0.5833 -0.2008 0.1772, -0.7129 -0.2008 0.0875, -0.5771 -0.2008 0.169, -0.6884 -0.2008 0.0577, -0.6586 -0.2008 0.0332, 0.6625 -0.2008 0.8723, 0.6285 -0.2008 0.8905, 0.5633 -0.2008 0.7467, 0.5916 -0.2008 0.9017, 0.5531 -0.2008 0.748, 0.5531 -0.2008 0.9055, -0.5492 -0.2008 0.748, -0.5492 -0.2008 0.9055, -0.5876 -0.2008 0.9017, -0.7129 -0.2008 0.818, -0.7311 -0.2008 0.784, -0.5872 -0.2008 0.7189, -0.7423 -0.2008 0.7471, -0.5886 -0.2008 0.7087, -0.5886 -0.2008 0.1969, -0.7423 -0.2008 0.1584, 0.5912 0.2008 0.1867, 0.735 0.2008 0.1215, 0.5872 0.2008 0.1772, 0.7168 0.2008 0.0875, 0.581 0.2008 0.169, 0.6923 0.2008 0.0577, 0.5728 0.2008 0.1628, 0.5872 0.2008 0.7283, 0.735 0.2008 0.784, 0.5912 0.2008 0.7189, 0.7462 0.2008 0.7471, 0.5925 0.2008 0.7087, 0.75 0.2008 0.7087, 0.5925 0.2008 0.1969, 0.75 0.2008 0.1969, 0.7462 0.2008 0.1584, -0.4705 0.2008 0.1575, -0.4705 0.2008 0.0, -0.5492 0.2008 0.1575, -0.5492 0.2008 0.0, -0.5594 0.2008 0.1588, -0.5876 0.2008 0.0038, -0.6245 0.2008 0.015, -0.5689 0.2008 0.1628, -0.6586 0.2008 0.0332, -0.5771 0.2008 0.169, -0.6884 0.2008 0.0577, -0.5833 0.2008 0.1772, 0.4744 0.2008 0.0, 0.4744 0.2008 0.1575, 0.5531 0.2008 0.0, 0.5531 0.2008 0.1575, 0.5916 0.2008 0.0038, 0.5633 0.2008 0.1588, 0.6285 0.2008 0.015, 0.6625 0.2008 0.0332, 0.5633 0.2008 0.7467, 0.6285 0.2008 0.8905, 0.5728 0.2008 0.7428, 0.6625 0.2008 0.8723, 0.581 0.2008 0.7365, 0.6923 0.2008 0.8479, 0.7168 0.2008 0.818, -0.5689 0.2008 0.7428, -0.6245 0.2008 0.8905, -0.5594 0.2008 0.7467, -0.5876 0.2008 0.9017, -0.5492 0.2008 0.748, -0.5492 0.2008 0.9055, 0.5531 0.2008 0.748, 0.5531 0.2008 0.9055, 0.5916 0.2008 0.9017, -0.5872 0.2008 0.7189, -0.7311 0.2008 0.784, -0.5833 0.2008 0.7283, -0.7129 0.2008 0.818, -0.5771 0.2008 0.7365, -0.6884 0.2008 0.8479, -0.6586 0.2008 0.8723, -0.7129 0.2008 0.0875, -0.7311 0.2008 0.1215, -0.5872 0.2008 0.1867, -0.7423 0.2008 0.1584, -0.5886 0.2008 0.1969, -0.5886 0.2008 0.7087, -0.7423 0.2008 0.7471, 0.4547 0.2205 0.0, 0.4554 0.2154 0.0, 0.0217 0.3799 0.0, 0.0217 -0.3799 0.0, 0.0413 -0.3996 0.0, 0.0362 -0.3989 0.0, 0.4646 0.2034 0.0, 0.0315 -0.397 0.0, 0.0274 -0.3938 0.0, 0.4693 -0.2015 0.0, 0.4646 -0.2034 0.0, 0.4605 -0.2066 0.0, 0.4574 -0.2106 0.0, 0.4554 -0.2154 0.0, 0.0315 0.397 0.0, 0.0223 0.385 0.0, 0.0274 0.3938 0.0, 0.0243 0.3898 0.0, 0.0362 0.3989 0.0, 0.0413 0.3996 0.0, 0.4547 0.3799 0.0, 0.4574 0.2106 0.0, 0.4605 0.2066 0.0, 0.0223 -0.385 0.0, 0.0243 -0.3898 0.0, 0.4693 0.2015 0.0, 0.449 0.3938 0.0, 0.4521 0.3898 0.0, 0.4541 0.385 0.0, 0.4547 -0.2205 0.0, 0.4547 -0.3799 0.0, 0.435 -0.3996 0.0, 0.4541 -0.385 0.0, 0.4521 -0.3898 0.0, 0.449 -0.3938 0.0, 0.4449 -0.397 0.0, 0.4401 -0.3989 0.0, 0.435 0.3996 0.0, 0.4401 0.3989 0.0, 0.4449 0.397 0.0, 0.4646 0.2034 0.1575, 0.4646 -0.2034 0.1575, 0.4693 -0.2015 0.1575, 0.0243 -0.3898 0.1575, 0.0274 -0.3938 0.1575, 0.4554 0.2154 0.1575, 0.4547 0.2205 0.1575, 0.0217 0.3799 0.1575, 0.4547 0.3799 0.1575, 0.4574 0.2106 0.1575, 0.0217 -0.3799 0.1575, 0.4605 0.2066 0.1575, 0.4547 -0.2205 0.1575, 0.0413 -0.3996 0.1575, 0.4547 -0.3799 0.1575, 0.435 -0.3996 0.1575, 0.4541 -0.385 0.1575, 0.4554 -0.2154 0.1575, 0.4574 -0.2106 0.1575, 0.4605 -0.2066 0.1575, 0.0315 -0.397 0.1575, 0.0362 -0.3989 0.1575, 0.4449 -0.397 0.1575, 0.449 -0.3938 0.1575, 0.4521 -0.3898 0.1575, 0.4693 0.2015 0.1575, 0.0223 -0.385 0.1575, 0.0243 0.3898 0.1575, 0.0223 0.385 0.1575, 0.0274 0.3938 0.1575, 0.0315 0.397 0.1575, 0.4401 -0.3989 0.1575, 0.4541 0.385 0.1575, 0.4521 0.3898 0.1575, 0.449 0.3938 0.1575, 0.4449 0.397 0.1575, 0.4401 0.3989 0.1575, 0.435 0.3996 0.1575, 0.0413 0.3996 0.1575, 0.0362 0.3989 0.1575, -0.4508 -0.2205 0.0, -0.4515 -0.2154 0.0, -0.0177 -0.3799 0.0, -0.0177 0.3799 0.0, -0.4508 0.2205 0.0, -0.4508 0.3799 0.0, -0.4534 -0.2106 0.0, -0.4566 -0.2066 0.0, -0.4654 0.2015 0.0, -0.4606 -0.2034 0.0, -0.4606 0.2034 0.0, -0.4566 0.2066 0.0, -0.4534 0.2106 0.0, -0.4515 0.2154 0.0, -0.0276 -0.397 0.0, -0.0184 -0.385 0.0, -0.0235 -0.3938 0.0, -0.0204 -0.3898 0.0, -0.0323 -0.3989 0.0, -0.0374 -0.3996 0.0, -0.4508 -0.3799 0.0, -0.4311 -0.3996 0.0, -0.4481 0.3898 0.0, -0.445 0.3938 0.0, -0.4409 0.397 0.0, -0.4362 0.3989 0.0, -0.4311 0.3996 0.0, -0.4501 0.385 0.0, -0.4409 -0.397 0.0, -0.445 -0.3938 0.0, -0.4362 -0.3989 0.0, -0.4481 -0.3898 0.0, -0.4501 -0.385 0.0, -0.4654 -0.2015 0.0, -0.0323 0.3989 0.0, -0.0276 0.397 0.0, -0.0235 0.3938 0.0, -0.0204 0.3898 0.0, -0.0184 0.385 0.0, -0.0374 0.3996 0.0, -0.4508 0.2205 0.1575, -0.4515 0.2154 0.1575, -0.0177 0.3799 0.1575, -0.4508 0.3799 0.1575, -0.4311 0.3996 0.1575, -0.0177 -0.3799 0.1575, -0.4654 0.2015 0.1575, -0.4311 -0.3996 0.1575, -0.4606 0.2034 0.1575, -0.0374 -0.3996 0.1575, -0.4606 -0.2034 0.1575, -0.4566 -0.2066 0.1575, -0.4534 -0.2106 0.1575, -0.4515 -0.2154 0.1575, -0.4508 -0.2205 0.1575, -0.4508 -0.3799 0.1575, -0.0374 0.3996 0.1575, -0.0323 0.3989 0.1575, -0.0184 0.385 0.1575, -0.0204 0.3898 0.1575, -0.0235 0.3938 0.1575, -0.4409 0.397 0.1575, -0.445 0.3938 0.1575, -0.4481 0.3898 0.1575, -0.0323 -0.3989 0.1575, -0.0276 -0.397 0.1575, -0.0235 -0.3938 0.1575, -0.0276 0.397 0.1575, -0.4362 0.3989 0.1575, -0.4501 0.385 0.1575, -0.4534 0.2106 0.1575, -0.4566 0.2066 0.1575, -0.0184 -0.385 0.1575, -0.0204 -0.3898 0.1575, -0.4501 -0.385 0.1575, -0.4481 -0.3898 0.1575, -0.4362 -0.3989 0.1575, -0.445 -0.3938 0.1575, -0.4409 -0.397 0.1575, -0.4654 -0.2015 0.1575
            ]
        }
        coordIndex [
            0,1,2,-1,3,4,5,-1,6,7,8,-1,9,10,11,-1,12,13,14,-1,15,16,17,-1,18,19,20,-1,21,22,20,-1,20,22,23,-1,19,24,20,-1,20,24,25,-1,20,25,26,-1,26,27,20,-1,20,27,28,-1,20,28,21,-1,29,30,31,-1,31,30,32,-1,32,30,33,-1,32,33,34,-1,35,36,37,-1,29,31,38,-1,38,31,37,-1,38,37,39,-1,36,40,37,-1,37,40,41,-1,37,41,39,-1,39,41,42,-1,39,42,43,-1,43,42,44,-1,43,44,45,-1,17,16,46,-1,16,47,46,-1,46,47,48,-1,46,48,37,-1,37,48,49,-1,37,49,35,-1,50,51,52,-1,52,51,53,-1,52,53,54,-1,54,55,52,-1,52,55,56,-1,52,56,17,-1,17,56,57,-1,17,57,15,-1,58,59,60,-1,60,59,61,-1,60,61,52,-1,52,61,62,-1,52,62,50,-1,63,64,65,-1,66,67,60,-1,60,67,68,-1,60,68,58,-1,65,69,63,-1,63,69,70,-1,63,70,66,-1,66,70,71,-1,66,71,67,-1,72,73,64,-1,64,73,74,-1,64,74,75,-1,75,76,64,-1,64,76,77,-1,64,77,65,-1,78,79,80,-1,81,82,83,-1,84,85,72,-1,86,87,88,-1,88,87,89,-1,81,83,90,-1,84,72,91,-1,92,93,87,-1,87,93,94,-1,87,94,95,-1,80,79,72,-1,72,79,96,-1,72,96,91,-1,82,97,83,-1,83,97,98,-1,83,98,99,-1,100,101,102,-1,102,101,103,-1,102,103,104,-1,105,95,106,-1,106,95,107,-1,106,107,102,-1,102,107,108,-1,102,108,100,-1,105,109,95,-1,95,109,110,-1,95,110,87,-1,87,110,111,-1,87,111,89,-1,112,113,114,-1,114,113,115,-1,114,115,83,-1,83,115,116,-1,83,116,90,-1,117,118,83,-1,83,118,119,-1,83,119,87,-1,87,119,120,-1,87,120,92,-1,121,122,73,-1,73,122,123,-1,73,123,124,-1,124,125,73,-1,73,125,126,-1,73,126,127,-1,127,126,112,-1,127,112,128,-1,128,112,114,-1,85,129,72,-1,72,129,130,-1,72,130,73,-1,73,130,131,-1,73,131,121,-1,99,132,83,-1,83,132,133,-1,83,133,134,-1,134,135,83,-1,83,135,136,-1,83,136,117,-1,137,138,139,-1,139,95,137,-1,137,95,94,-1,137,94,140,-1,140,94,141,-1,141,142,140,-1,140,142,143,-1,140,143,144,-1,145,146,147,-1,146,148,147,-1,147,148,149,-1,147,149,150,-1,151,147,152,-1,138,137,151,-1,151,137,153,-1,151,153,147,-1,147,153,154,-1,147,154,145,-1,152,155,151,-1,151,155,156,-1,151,156,157,-1,150,149,158,-1,158,149,159,-1,158,159,160,-1,160,159,161,-1,160,161,162,-1,163,164,157,-1,157,164,165,-1,157,165,151,-1,22,166,23,-1,23,166,167,-1,23,167,80,-1,80,167,168,-1,80,168,78,-1,169,170,171,-1,14,13,172,-1,172,13,173,-1,172,173,174,-1,175,176,177,-1,177,176,178,-1,177,178,170,-1,170,178,179,-1,170,179,171,-1,171,179,180,-1,171,180,181,-1,181,180,182,-1,181,182,183,-1,184,185,186,-1,187,188,189,-1,189,188,190,-1,189,190,191,-1,191,190,184,-1,191,184,192,-1,192,184,186,-1,193,194,195,-1,196,197,198,-1,199,200,201,-1,196,198,202,-1,199,201,198,-1,198,201,203,-1,198,203,202,-1,204,205,206,-1,206,205,207,-1,206,207,208,-1,208,207,209,-1,208,209,198,-1,210,211,11,-1,212,213,214,-1,194,215,195,-1,195,215,216,-1,195,216,214,-1,214,216,217,-1,214,217,212,-1,218,219,11,-1,11,219,220,-1,213,221,214,-1,214,221,222,-1,214,222,223,-1,223,222,224,-1,223,224,210,-1,225,226,211,-1,211,226,227,-1,211,227,11,-1,11,227,228,-1,11,228,218,-1,220,229,11,-1,11,229,230,-1,11,230,9,-1,231,232,233,-1,233,232,234,-1,233,234,235,-1,233,236,231,-1,231,236,237,-1,231,237,238,-1,238,239,231,-1,231,239,240,-1,231,240,241,-1,241,240,242,-1,241,242,243,-1,243,242,244,-1,243,244,211,-1,211,244,245,-1,211,245,225,-1,246,247,235,-1,235,247,248,-1,235,248,233,-1,249,250,200,-1,200,250,251,-1,200,251,201,-1,249,252,250,-1,250,252,253,-1,250,253,254,-1,254,253,255,-1,254,256,257,-1,255,258,254,-1,254,258,259,-1,254,259,260,-1,260,261,254,-1,254,261,262,-1,254,262,256,-1,257,263,254,-1,254,263,264,-1,254,264,265,-1,266,267,268,-1,269,270,268,-1,268,270,271,-1,268,271,266,-1,267,266,272,-1,272,266,273,-1,272,273,274,-1,270,275,271,-1,271,275,276,-1,271,276,277,-1,277,276,278,-1,277,278,279,-1,279,278,280,-1,279,280,274,-1,274,280,281,-1,274,281,272,-1,282,283,284,-1,284,283,285,-1,286,287,288,-1,288,287,289,-1,288,289,290,-1,290,289,291,-1,292,293,294,-1,294,293,295,-1,294,295,285,-1,285,295,296,-1,285,296,284,-1,297,298,299,-1,300,301,282,-1,282,301,302,-1,282,302,283,-1,296,287,284,-1,284,287,286,-1,284,286,303,-1,303,286,304,-1,303,304,299,-1,299,304,305,-1,299,305,297,-1,306,307,308,-1,308,307,309,-1,308,309,310,-1,310,309,311,-1,310,311,312,-1,312,311,298,-1,312,298,300,-1,300,298,297,-1,300,297,301,-1,313,314,315,-1,315,314,308,-1,313,316,314,-1,314,316,317,-1,314,317,318,-1,314,319,308,-1,308,319,320,-1,308,320,321,-1,318,322,314,-1,314,322,323,-1,314,323,324,-1,321,325,308,-1,308,325,326,-1,308,326,327,-1,327,328,308,-1,308,328,329,-1,308,329,306,-1,330,331,332,-1,332,331,333,-1,332,333,300,-1,300,333,334,-1,300,334,312,-1,335,336,337,-1,337,336,338,-1,337,338,339,-1,340,341,342,-1,342,343,340,-1,340,343,344,-1,340,344,345,-1,346,347,340,-1,340,347,348,-1,340,348,341,-1,349,350,351,-1,351,350,352,-1,351,352,346,-1,346,352,353,-1,346,353,347,-1,354,355,356,-1,355,357,356,-1,356,357,358,-1,356,358,349,-1,354,356,359,-1,359,356,360,-1,359,360,361,-1,361,360,362,-1,362,360,195,-1,362,195,363,-1,311,364,298,-1,298,364,365,-1,298,365,366,-1,366,365,367,-1,366,367,368,-1,369,370,371,-1,371,370,372,-1,208,373,374,-1,375,376,377,-1,369,378,370,-1,370,378,379,-1,370,379,380,-1,380,379,377,-1,380,377,381,-1,381,377,376,-1,195,382,383,-1,384,385,374,-1,374,385,386,-1,374,386,387,-1,197,193,198,-1,198,193,195,-1,198,195,208,-1,208,195,383,-1,208,383,373,-1,388,389,390,-1,370,391,372,-1,372,391,360,-1,372,360,392,-1,392,360,388,-1,392,388,393,-1,394,395,377,-1,377,395,396,-1,377,396,397,-1,390,398,388,-1,388,398,399,-1,388,399,393,-1,391,400,360,-1,360,400,401,-1,360,401,195,-1,195,401,402,-1,402,403,195,-1,195,403,404,-1,195,404,405,-1,397,406,377,-1,377,406,407,-1,377,407,375,-1,405,408,195,-1,195,408,409,-1,195,409,382,-1,410,411,412,-1,412,411,413,-1,411,414,413,-1,413,414,415,-1,413,415,388,-1,388,415,416,-1,388,416,389,-1,417,418,11,-1,11,418,419,-1,210,11,223,-1,223,11,419,-1,223,419,188,-1,188,419,420,-1,188,420,190,-1,421,418,422,-1,422,418,417,-1,422,417,423,-1,424,425,426,-1,427,428,417,-1,417,428,429,-1,417,429,423,-1,430,431,10,-1,10,431,424,-1,10,424,11,-1,11,424,426,-1,11,426,417,-1,417,426,432,-1,417,432,433,-1,434,435,436,-1,436,435,437,-1,436,437,424,-1,424,437,438,-1,424,438,425,-1,433,439,417,-1,417,439,440,-1,417,440,427,-1,441,442,443,-1,441,443,444,-1,442,445,443,-1,443,445,446,-1,443,446,436,-1,436,446,447,-1,436,447,434,-1,413,448,412,-1,412,448,449,-1,412,449,431,-1,431,449,450,-1,431,450,424,-1,424,450,451,-1,424,451,436,-1,436,451,452,-1,436,452,443,-1,6,4,453,-1,453,4,3,-1,453,3,454,-1,430,204,431,-1,431,204,206,-1,431,206,412,-1,412,206,208,-1,412,208,410,-1,410,208,374,-1,410,374,455,-1,455,374,387,-1,14,188,12,-1,12,188,187,-1,12,187,183,-1,183,187,444,-1,183,444,181,-1,181,444,443,-1,181,443,171,-1,456,80,457,-1,457,80,72,-1,457,72,458,-1,458,72,64,-1,458,64,459,-1,459,64,63,-1,459,63,460,-1,456,461,462,-1,462,461,463,-1,464,465,466,-1,466,465,467,-1,466,467,468,-1,469,470,463,-1,463,470,468,-1,463,468,462,-1,462,468,467,-1,462,467,458,-1,458,467,471,-1,458,471,457,-1,472,473,171,-1,171,473,172,-1,171,172,169,-1,169,172,174,-1,169,174,474,-1,474,174,475,-1,474,475,476,-1,476,475,477,-1,478,479,2,-1,479,480,2,-1,2,480,481,-1,2,481,482,-1,482,472,2,-1,2,472,171,-1,2,171,483,-1,483,171,443,-1,483,443,484,-1,484,443,452,-1,473,485,172,-1,172,485,486,-1,172,486,487,-1,487,486,488,-1,487,488,489,-1,489,490,487,-1,487,490,491,-1,487,491,492,-1,492,493,487,-1,487,493,494,-1,487,494,2,-1,2,494,495,-1,2,495,478,-1,2,1,487,-1,487,1,496,-1,487,496,497,-1,5,498,499,-1,500,501,499,-1,499,501,0,-1,499,0,5,-1,5,0,2,-1,5,2,3,-1,3,2,483,-1,3,483,454,-1,454,483,484,-1,349,351,356,-1,356,351,462,-1,356,462,360,-1,360,462,458,-1,360,458,388,-1,388,458,459,-1,388,459,413,-1,413,459,460,-1,413,460,448,-1,487,266,172,-1,172,266,271,-1,172,271,14,-1,14,271,277,-1,14,277,188,-1,188,277,303,-1,188,303,223,-1,223,303,299,-1,223,299,214,-1,214,299,298,-1,214,298,195,-1,195,298,366,-1,195,366,363,-1,363,366,368,-1,502,503,504,-1,456,462,80,-1,80,462,351,-1,80,351,23,-1,23,351,505,-1,23,505,20,-1,505,506,20,-1,20,506,502,-1,20,502,346,-1,346,502,504,-1,346,504,351,-1,351,504,507,-1,351,507,505,-1,508,509,277,-1,277,509,510,-1,277,510,511,-1,284,512,279,-1,279,512,513,-1,279,513,514,-1,511,515,277,-1,277,515,516,-1,277,516,303,-1,303,516,517,-1,303,517,284,-1,284,517,518,-1,284,518,512,-1,514,519,279,-1,279,519,520,-1,279,520,521,-1,521,522,279,-1,279,522,523,-1,279,523,277,-1,277,523,524,-1,277,524,508,-1,498,5,497,-1,497,5,525,-1,497,525,487,-1,487,525,526,-1,487,526,266,-1,266,526,527,-1,266,527,273,-1,6,8,4,-1,4,8,528,-1,4,528,5,-1,5,528,529,-1,5,529,525,-1,525,529,530,-1,525,530,526,-1,526,530,531,-1,526,531,527,-1,345,339,340,-1,340,339,338,-1,340,338,346,-1,346,338,532,-1,346,532,20,-1,20,532,32,-1,20,32,18,-1,18,32,34,-1,531,533,527,-1,527,533,534,-1,527,534,273,-1,273,534,535,-1,273,535,274,-1,274,535,536,-1,274,536,279,-1,279,536,537,-1,279,537,284,-1,284,537,538,-1,284,538,282,-1,282,538,539,-1,282,539,300,-1,300,539,540,-1,300,540,332,-1,332,540,336,-1,332,336,330,-1,330,336,335,-1,541,542,543,-1,543,542,544,-1,543,544,545,-1,544,546,545,-1,545,546,547,-1,545,547,548,-1,548,547,549,-1,548,549,550,-1,550,549,551,-1,550,551,552,-1,553,554,555,-1,555,554,556,-1,555,556,557,-1,557,556,558,-1,557,558,559,-1,559,558,560,-1,561,562,563,-1,563,562,564,-1,563,564,565,-1,565,564,566,-1,565,566,567,-1,568,569,570,-1,570,569,571,-1,570,571,572,-1,572,571,573,-1,572,573,574,-1,551,575,552,-1,552,575,576,-1,552,576,577,-1,577,576,578,-1,577,578,579,-1,579,578,580,-1,579,580,581,-1,581,580,582,-1,581,582,568,-1,568,582,583,-1,568,583,569,-1,584,585,586,-1,586,585,587,-1,586,587,588,-1,588,587,589,-1,588,589,560,-1,560,589,590,-1,560,590,559,-1,573,591,574,-1,574,591,592,-1,574,592,593,-1,593,592,594,-1,593,594,595,-1,595,594,596,-1,595,596,597,-1,597,596,598,-1,597,598,561,-1,561,598,599,-1,561,599,562,-1,566,600,567,-1,567,600,601,-1,567,601,602,-1,602,601,603,-1,602,603,604,-1,604,603,31,-1,604,31,605,-1,605,31,32,-1,32,532,605,-1,605,532,338,-1,605,338,336,-1,336,540,605,-1,605,540,539,-1,605,539,538,-1,538,537,605,-1,605,537,536,-1,605,536,535,-1,535,534,605,-1,605,534,533,-1,605,533,584,-1,584,533,606,-1,584,606,585,-1,607,608,609,-1,609,608,610,-1,609,610,611,-1,611,610,612,-1,611,612,613,-1,614,615,616,-1,616,615,617,-1,616,617,618,-1,618,617,619,-1,618,619,620,-1,620,619,621,-1,620,621,607,-1,607,621,622,-1,607,622,608,-1,623,624,625,-1,625,624,626,-1,625,626,627,-1,626,628,627,-1,627,628,629,-1,627,629,630,-1,630,629,631,-1,630,631,632,-1,632,631,633,-1,632,633,634,-1,635,636,637,-1,637,636,638,-1,637,638,639,-1,639,638,640,-1,639,640,641,-1,641,640,613,-1,641,613,642,-1,642,613,612,-1,643,644,645,-1,645,644,646,-1,645,646,647,-1,647,646,648,-1,647,648,614,-1,614,648,649,-1,614,649,615,-1,650,651,652,-1,652,651,653,-1,652,653,654,-1,654,653,655,-1,654,655,656,-1,656,655,657,-1,656,657,643,-1,643,657,658,-1,643,658,644,-1,659,660,661,-1,661,660,662,-1,661,662,663,-1,663,662,664,-1,663,664,650,-1,650,664,665,-1,650,665,651,-1,633,666,634,-1,634,666,667,-1,634,667,668,-1,668,667,669,-1,668,669,670,-1,670,669,7,-1,670,7,6,-1,6,453,670,-1,670,453,454,-1,670,454,484,-1,484,452,670,-1,670,452,451,-1,670,451,450,-1,450,449,670,-1,670,449,448,-1,670,448,671,-1,671,448,460,-1,460,63,671,-1,671,63,66,-1,671,66,659,-1,659,66,672,-1,659,672,660,-1,673,674,675,-1,675,674,676,-1,677,678,679,-1,679,678,680,-1,679,680,681,-1,635,637,544,-1,682,683,679,-1,679,683,684,-1,679,684,677,-1,677,684,685,-1,677,685,686,-1,687,688,689,-1,689,688,690,-1,687,691,688,-1,688,691,692,-1,688,692,675,-1,675,692,693,-1,675,693,673,-1,674,694,676,-1,676,694,695,-1,676,695,696,-1,696,695,679,-1,696,679,697,-1,697,679,681,-1,679,698,682,-1,682,698,635,-1,682,635,542,-1,542,635,544,-1,699,700,701,-1,686,702,677,-1,677,702,703,-1,677,703,704,-1,704,703,705,-1,704,705,706,-1,707,708,706,-1,706,708,709,-1,706,709,704,-1,692,710,693,-1,693,710,711,-1,693,711,701,-1,701,711,712,-1,701,712,699,-1,713,714,715,-1,716,717,713,-1,718,719,720,-1,720,719,721,-1,718,720,722,-1,722,720,723,-1,722,723,724,-1,725,726,727,-1,727,726,728,-1,727,728,729,-1,725,730,726,-1,726,730,731,-1,726,731,713,-1,713,731,732,-1,713,732,714,-1,717,733,713,-1,713,733,734,-1,713,734,726,-1,735,736,737,-1,543,638,541,-1,541,638,636,-1,541,636,715,-1,715,636,738,-1,715,738,713,-1,724,723,713,-1,713,723,739,-1,713,739,716,-1,740,741,742,-1,742,741,743,-1,729,728,737,-1,737,728,744,-1,737,744,735,-1,745,746,747,-1,747,748,745,-1,745,748,749,-1,745,749,721,-1,721,749,750,-1,721,750,720,-1,720,750,751,-1,720,751,741,-1,741,751,752,-1,741,752,743,-1,533,531,606,-1,606,531,530,-1,606,530,529,-1,529,528,669,-1,669,528,8,-1,669,8,7,-1,529,669,606,-1,606,669,667,-1,606,667,585,-1,585,667,666,-1,585,666,587,-1,587,666,633,-1,587,633,589,-1,589,633,631,-1,589,631,590,-1,590,631,629,-1,590,629,559,-1,559,629,628,-1,559,628,557,-1,557,628,626,-1,557,626,555,-1,753,754,755,-1,756,757,758,-1,759,760,761,-1,761,760,762,-1,763,755,761,-1,761,755,754,-1,761,754,759,-1,763,764,755,-1,755,764,765,-1,755,765,756,-1,756,765,766,-1,756,766,757,-1,767,768,769,-1,769,768,770,-1,767,771,768,-1,768,771,772,-1,768,772,755,-1,753,755,773,-1,773,755,772,-1,773,772,774,-1,775,776,777,-1,553,555,626,-1,777,778,775,-1,775,778,779,-1,775,779,780,-1,781,782,783,-1,783,782,784,-1,783,784,774,-1,774,784,785,-1,774,785,773,-1,762,786,761,-1,761,786,553,-1,761,553,624,-1,624,553,626,-1,787,788,789,-1,789,790,787,-1,787,790,791,-1,787,791,792,-1,792,791,756,-1,792,756,779,-1,779,756,758,-1,779,758,780,-1,544,637,639,-1,544,639,546,-1,546,639,641,-1,546,641,547,-1,547,641,642,-1,547,642,549,-1,549,642,612,-1,549,612,551,-1,551,612,610,-1,551,610,575,-1,575,610,608,-1,575,608,576,-1,576,608,622,-1,576,622,578,-1,578,622,621,-1,578,621,580,-1,582,580,619,-1,619,580,621,-1,582,619,617,-1,582,617,583,-1,583,617,615,-1,583,615,569,-1,569,615,649,-1,569,649,571,-1,571,649,648,-1,571,648,573,-1,573,648,646,-1,573,646,591,-1,591,646,644,-1,591,644,592,-1,592,644,658,-1,592,658,594,-1,594,658,657,-1,594,657,596,-1,598,596,655,-1,655,596,657,-1,37,31,603,-1,598,655,653,-1,66,60,672,-1,672,60,52,-1,672,52,17,-1,37,603,46,-1,598,653,599,-1,599,653,651,-1,599,651,562,-1,562,651,665,-1,562,665,564,-1,564,665,664,-1,564,664,566,-1,566,664,662,-1,566,662,600,-1,600,662,660,-1,600,660,601,-1,601,660,672,-1,601,672,603,-1,603,672,17,-1,603,17,46,-1,556,625,558,-1,558,625,627,-1,558,627,560,-1,560,627,630,-1,560,630,588,-1,588,630,632,-1,588,632,586,-1,586,632,634,-1,586,634,584,-1,584,634,668,-1,584,668,605,-1,605,668,670,-1,793,794,795,-1,796,793,797,-1,795,794,798,-1,799,800,801,-1,801,800,802,-1,803,804,799,-1,799,804,805,-1,805,806,799,-1,799,806,807,-1,799,807,800,-1,800,807,808,-1,797,793,809,-1,809,793,795,-1,809,795,810,-1,811,812,813,-1,814,815,816,-1,802,817,801,-1,801,817,818,-1,801,818,819,-1,811,813,795,-1,795,813,820,-1,795,820,810,-1,797,821,796,-1,796,821,814,-1,796,814,822,-1,822,814,816,-1,794,823,798,-1,798,823,824,-1,798,824,825,-1,825,824,801,-1,825,801,826,-1,826,801,819,-1,808,827,800,-1,800,827,828,-1,800,828,829,-1,829,828,830,-1,829,830,831,-1,625,556,623,-1,623,556,554,-1,623,554,799,-1,799,554,832,-1,799,832,803,-1,579,620,577,-1,577,620,607,-1,577,607,552,-1,552,607,609,-1,552,609,550,-1,550,609,611,-1,550,611,548,-1,548,611,613,-1,548,613,545,-1,545,613,640,-1,545,640,543,-1,543,640,638,-1,579,581,620,-1,620,581,618,-1,595,656,593,-1,593,656,643,-1,593,643,574,-1,574,643,645,-1,574,645,572,-1,572,645,647,-1,572,647,570,-1,570,647,614,-1,570,614,568,-1,568,614,616,-1,568,616,581,-1,581,616,618,-1,595,597,656,-1,656,597,654,-1,604,671,602,-1,602,671,659,-1,602,659,567,-1,567,659,661,-1,567,661,565,-1,565,661,663,-1,565,663,563,-1,563,663,650,-1,563,650,561,-1,561,650,652,-1,561,652,597,-1,597,652,654,-1,604,605,671,-1,671,605,670,-1,795,798,756,-1,756,798,755,-1,675,676,720,-1,720,676,723,-1,797,809,779,-1,779,809,792,-1,793,796,757,-1,757,796,758,-1,753,773,807,-1,807,773,808,-1,802,800,772,-1,772,800,774,-1,751,750,692,-1,692,750,710,-1,673,693,719,-1,719,693,721,-1,728,726,704,-1,704,726,677,-1,725,727,702,-1,702,727,703,-1,725,702,730,-1,730,702,686,-1,730,686,731,-1,731,686,685,-1,731,685,732,-1,732,685,684,-1,732,684,714,-1,714,684,683,-1,714,683,715,-1,715,683,682,-1,715,682,541,-1,541,682,542,-1,753,807,754,-1,754,807,806,-1,754,806,759,-1,759,806,805,-1,759,805,760,-1,760,805,804,-1,760,804,762,-1,762,804,803,-1,762,803,786,-1,786,803,832,-1,786,832,553,-1,553,832,554,-1,673,719,674,-1,674,719,718,-1,674,718,694,-1,694,718,722,-1,694,722,695,-1,695,722,724,-1,695,724,679,-1,679,724,713,-1,679,713,698,-1,698,713,738,-1,698,738,635,-1,635,738,636,-1,793,757,794,-1,794,757,766,-1,794,766,823,-1,823,766,765,-1,823,765,824,-1,824,765,764,-1,824,764,801,-1,801,764,763,-1,801,763,799,-1,799,763,761,-1,799,761,623,-1,623,761,624,-1,797,779,778,-1,797,778,821,-1,821,778,777,-1,821,777,814,-1,814,777,776,-1,814,776,815,-1,815,776,775,-1,815,775,816,-1,816,775,780,-1,816,780,822,-1,822,780,758,-1,822,758,796,-1,792,809,810,-1,792,810,787,-1,787,810,820,-1,787,820,788,-1,788,820,813,-1,788,813,789,-1,789,813,812,-1,789,812,790,-1,790,812,811,-1,790,811,791,-1,791,811,795,-1,791,795,756,-1,751,692,691,-1,751,691,752,-1,752,691,687,-1,752,687,743,-1,743,687,689,-1,743,689,742,-1,742,689,690,-1,742,690,740,-1,740,690,688,-1,740,688,741,-1,741,688,675,-1,741,675,720,-1,721,693,701,-1,721,701,745,-1,745,701,700,-1,745,700,746,-1,746,700,699,-1,746,699,747,-1,747,699,712,-1,747,712,748,-1,748,712,711,-1,748,711,749,-1,749,711,710,-1,749,710,750,-1,728,704,709,-1,728,709,744,-1,744,709,708,-1,744,708,735,-1,735,708,707,-1,735,707,736,-1,736,707,706,-1,736,706,737,-1,737,706,705,-1,737,705,729,-1,729,705,703,-1,729,703,727,-1,723,676,696,-1,723,696,739,-1,739,696,697,-1,739,697,716,-1,716,697,681,-1,716,681,717,-1,717,681,680,-1,717,680,733,-1,733,680,678,-1,733,678,734,-1,734,678,677,-1,734,677,726,-1,755,798,825,-1,755,825,768,-1,768,825,826,-1,768,826,770,-1,770,826,819,-1,770,819,769,-1,769,819,818,-1,769,818,767,-1,767,818,817,-1,767,817,771,-1,771,817,802,-1,771,802,772,-1,808,773,785,-1,808,785,827,-1,827,785,784,-1,827,784,828,-1,828,784,782,-1,828,782,830,-1,830,782,781,-1,830,781,831,-1,831,781,783,-1,831,783,829,-1,829,783,774,-1,829,774,800,-1,
        ]
    }
}
Shape{
    appearance Appearance {
        material  Material 	{
            diffuseColor 0.0 0.0 0.0
            specularColor 0.0 0.0 0.0
            ambientIntensity 0.0
            transparency 0.0
            shininess 0.5
        }
    }
    geometry IndexedFaceSet {
        ccw TRUE
        solid FALSE
        coord DEF co Coordinate {
            point [
                -0.75 -0.0179 0.4146, -0.75 -0.0136 0.4146, -0.7461 -0.0179 0.4146, -0.7461 -0.0136 0.4146, -0.75 -0.0179 0.4294, -0.7461 -0.0179 0.4294, -0.75 -0.0507 0.4294, -0.7461 -0.0507 0.4294, -0.75 -0.0507 0.4342, -0.7461 -0.0507 0.4342, -0.75 -0.0136 0.4342, -0.7461 -0.0136 0.4342, -0.7461 -0.0152 0.3853, -0.75 -0.0152 0.3853, -0.75 -0.0149 0.386, -0.75 -0.013 0.3956, -0.7461 -0.013 0.3956, -0.75 -0.0136 0.3899, -0.7461 -0.0133 0.3923, -0.7461 -0.0136 0.3899, -0.7461 -0.0145 0.3869, -0.7461 -0.0149 0.386, -0.75 -0.0198 0.3853, -0.7461 -0.0198 0.3853, -0.7461 -0.0191 0.3869, -0.75 -0.0181 0.389, -0.7461 -0.0181 0.389, -0.7461 -0.0173 0.3932, -0.75 -0.0173 0.3932, -0.7461 -0.0173 0.3949, -0.75 -0.0173 0.3949, -0.7461 -0.0177 0.3986, -0.75 -0.0177 0.3986, -0.7461 -0.0187 0.4013, -0.75 -0.0187 0.4013, -0.7461 -0.0205 0.4037, -0.75 -0.0205 0.4037, -0.7461 -0.0212 0.4044, -0.75 -0.0212 0.4044, -0.7461 -0.0233 0.406, -0.75 -0.0233 0.406, -0.7461 -0.0262 0.4073, -0.75 -0.0262 0.4073, -0.7461 -0.0298 0.408, -0.75 -0.0298 0.408, -0.7461 -0.0318 0.4081, -0.75 -0.0318 0.4081, -0.7461 -0.0369 0.4074, -0.75 -0.0369 0.4074, -0.7461 -0.0401 0.4062, -0.75 -0.0401 0.4062, -0.7461 -0.0429 0.4042, -0.75 -0.0429 0.4042, -0.7461 -0.0447 0.4021, -0.75 -0.0447 0.4021, -0.7461 -0.0462 0.3992, -0.75 -0.0462 0.3992, -0.7461 -0.0469 0.396, -0.75 -0.0469 0.396, -0.7461 -0.047 0.3941, -0.75 -0.047 0.3941, -0.7461 -0.0448 0.3853, -0.75 -0.0448 0.3853, -0.75 -0.045 0.3857, -0.7461 -0.0465 0.3895, -0.75 -0.0465 0.3895, -0.7461 -0.0455 0.3869, -0.7461 -0.045 0.3857, -0.75 -0.0498 0.3853, -0.7461 -0.0498 0.3853, -0.7461 -0.0513 0.3941, -0.75 -0.0513 0.3941, -0.75 -0.0513 0.3941, -0.7461 -0.0503 0.3869, -0.75 -0.051 0.3892, -0.7461 -0.051 0.3892, -0.7461 -0.051 0.3902, -0.7461 -0.0513 0.3941, -0.7461 -0.051 0.3967, -0.75 -0.0507 0.3995, -0.7461 -0.0507 0.3995, -0.7461 -0.0492 0.4034, -0.75 -0.0492 0.4034, -0.7461 -0.0467 0.4068, -0.75 -0.0467 0.4068, -0.7461 -0.0459 0.4077, -0.75 -0.0459 0.4077, -0.7461 -0.0424 0.4104, -0.75 -0.0424 0.4104, -0.7461 -0.04 0.4114, -0.75 -0.0382 0.4122, -0.7461 -0.0382 0.4122, -0.7461 -0.0334 0.413, -0.75 -0.0334 0.413, -0.7461 -0.0315 0.4131, -0.75 -0.0315 0.4131, -0.7461 -0.0181 0.4083, -0.75 -0.0181 0.4083, -0.75 -0.0216 0.4108, -0.7461 -0.0254 0.4124, -0.75 -0.0254 0.4124, -0.7461 -0.0231 0.4114, -0.7461 -0.0216 0.4108, -0.75 -0.0131 0.3978, -0.7461 -0.0156 0.4054, -0.75 -0.0156 0.4054, -0.7461 -0.0139 0.4019, -0.75 -0.0139 0.4019, -0.7461 -0.0133 0.3988, -0.7461 -0.0131 0.3978, -0.75 -0.0179 0.358, -0.75 -0.0136 0.358, -0.7461 -0.0179 0.358, -0.7461 -0.0136 0.358, -0.7461 -0.0179 0.3731, -0.75 -0.0179 0.3731, -0.7461 -0.0179 0.3631, -0.75 -0.0303 0.3731, -0.7461 -0.0303 0.3731, -0.75 -0.0303 0.3599, -0.7461 -0.0303 0.3631, -0.7461 -0.0303 0.3599, -0.75 -0.0346 0.3599, -0.7461 -0.0346 0.3599, -0.7461 -0.0346 0.3731, -0.75 -0.0346 0.3731, -0.7461 -0.0346 0.3631, -0.75 -0.0464 0.3731, -0.7461 -0.0464 0.3731, -0.75 -0.0464 0.3588, -0.7461 -0.0464 0.3631, -0.7461 -0.0464 0.3588, -0.75 -0.0507 0.3588, -0.7461 -0.0507 0.3588, -0.7461 -0.0507 0.3779, -0.75 -0.0507 0.3779, -0.7461 -0.0507 0.3631, -0.75 -0.0136 0.3779, -0.7461 -0.0136 0.3779, -0.7461 -0.0136 0.3631, -0.75 -0.0237 0.3281, -0.75 -0.0217 0.3298, -0.75 -0.0188 0.3264, -0.75 -0.0213 0.3302, -0.75 -0.0161 0.3302, -0.75 -0.0197 0.3326, -0.75 -0.0144 0.3345, -0.75 -0.0185 0.3356, -0.75 -0.0136 0.3408, -0.75 -0.0179 0.3408, -0.75 -0.0136 0.351, -0.75 -0.0179 0.3462, -0.75 -0.0507 0.351, -0.75 -0.0464 0.3462, -0.75 -0.0507 0.3404, -0.75 -0.0464 0.3406, -0.75 -0.0501 0.3347, -0.75 -0.0459 0.3358, -0.75 -0.0485 0.3303, -0.75 -0.0448 0.3326, -0.75 -0.0458 0.3264, -0.75 -0.043 0.3299, -0.75 -0.0445 0.3251, -0.75 -0.042 0.3289, -0.75 -0.0413 0.3228, -0.75 -0.0399 0.3274, -0.75 -0.0378 0.3214, -0.75 -0.0372 0.3264, -0.75 -0.0326 0.3208, -0.75 -0.0325 0.3258, -0.75 -0.0303 0.3209, -0.75 -0.0297 0.326, -0.75 -0.026 0.3218, -0.75 -0.0264 0.3268, -0.75 -0.0221 0.3236, -0.7461 -0.0136 0.3408, -0.7461 -0.0136 0.351, -0.7461 -0.0144 0.3345, -0.7461 -0.0161 0.3302, -0.7461 -0.0188 0.3264, -0.7461 -0.0221 0.3236, -0.7461 -0.026 0.3218, -0.7461 -0.0303 0.3209, -0.7461 -0.0326 0.3208, -0.7461 -0.0378 0.3214, -0.7461 -0.0413 0.3228, -0.7461 -0.0445 0.3251, -0.7461 -0.0458 0.3264, -0.7461 -0.0485 0.3303, -0.7461 -0.0501 0.3347, -0.7461 -0.0507 0.3404, -0.7461 -0.0507 0.351, -0.7461 -0.0464 0.3406, -0.7461 -0.0464 0.3462, -0.7461 -0.0179 0.3462, -0.7461 -0.0179 0.3408, -0.7461 -0.0217 0.3298, -0.7461 -0.0213 0.3302, -0.7461 -0.0197 0.3326, -0.7461 -0.0185 0.3356, -0.7461 -0.0325 0.3258, -0.7461 -0.0297 0.326, -0.7461 -0.0264 0.3268, -0.7461 -0.0237 0.3281, -0.7461 -0.043 0.3299, -0.7461 -0.042 0.3289, -0.7461 -0.0399 0.3274, -0.7461 -0.0372 0.3264, -0.7461 -0.0459 0.3358, -0.7461 -0.0448 0.3326
            ]
        }
        coordIndex [
            0,1,2,-1,2,1,3,-1,4,0,5,-1,5,0,2,-1,6,4,7,-1,7,4,5,-1,8,6,9,-1,9,6,7,-1,10,8,11,-1,11,8,9,-1,1,10,3,-1,3,10,11,-1,6,8,4,-1,4,8,10,-1,4,10,0,-1,0,10,1,-1,12,13,14,-1,15,16,17,-1,17,16,18,-1,18,19,17,-1,17,19,20,-1,17,20,14,-1,14,20,21,-1,14,21,12,-1,22,13,23,-1,23,13,12,-1,22,23,24,-1,22,24,25,-1,24,26,25,-1,25,26,27,-1,25,27,28,-1,28,27,29,-1,28,29,30,-1,30,29,31,-1,30,31,32,-1,32,31,33,-1,32,33,34,-1,34,33,35,-1,34,35,36,-1,36,35,37,-1,36,37,38,-1,38,37,39,-1,38,39,40,-1,40,39,41,-1,40,41,42,-1,42,41,43,-1,42,43,44,-1,44,43,45,-1,44,45,46,-1,46,45,47,-1,46,47,48,-1,48,47,49,-1,48,49,50,-1,50,49,51,-1,50,51,52,-1,52,51,53,-1,52,53,54,-1,54,53,55,-1,54,55,56,-1,56,55,57,-1,56,57,58,-1,58,57,59,-1,58,59,60,-1,61,62,63,-1,60,59,64,-1,60,64,65,-1,65,64,66,-1,65,66,63,-1,63,66,67,-1,63,67,61,-1,68,62,69,-1,69,62,61,-1,70,71,72,-1,68,69,73,-1,68,73,74,-1,73,75,74,-1,74,75,76,-1,74,76,72,-1,72,76,77,-1,72,77,70,-1,71,70,78,-1,71,78,79,-1,78,80,79,-1,79,80,81,-1,79,81,82,-1,82,81,83,-1,82,83,84,-1,84,83,85,-1,84,85,86,-1,86,85,87,-1,86,87,88,-1,88,87,89,-1,88,89,90,-1,89,91,90,-1,90,91,92,-1,90,92,93,-1,93,92,94,-1,93,94,95,-1,96,97,98,-1,95,94,99,-1,95,99,100,-1,100,99,101,-1,100,101,98,-1,98,101,102,-1,98,102,96,-1,16,15,103,-1,97,96,104,-1,97,104,105,-1,105,104,106,-1,105,106,107,-1,107,106,108,-1,107,108,103,-1,103,108,109,-1,103,109,16,-1,63,62,68,-1,54,84,52,-1,52,84,86,-1,52,86,50,-1,50,86,88,-1,50,88,48,-1,95,46,93,-1,93,46,48,-1,93,48,90,-1,90,48,88,-1,63,68,65,-1,65,68,74,-1,65,74,60,-1,60,74,72,-1,60,72,58,-1,58,72,71,-1,58,71,56,-1,56,71,79,-1,56,79,54,-1,54,79,82,-1,54,82,84,-1,13,22,14,-1,14,22,25,-1,14,25,17,-1,17,25,28,-1,17,28,15,-1,15,28,30,-1,15,30,103,-1,103,30,32,-1,103,32,107,-1,107,32,34,-1,107,34,105,-1,105,34,36,-1,105,36,97,-1,97,36,38,-1,97,38,98,-1,98,38,40,-1,98,40,100,-1,100,40,42,-1,100,42,95,-1,95,42,44,-1,95,44,46,-1,110,111,112,-1,112,111,113,-1,114,115,116,-1,116,115,110,-1,116,110,112,-1,117,115,118,-1,118,115,114,-1,117,118,119,-1,119,118,120,-1,119,120,121,-1,122,119,123,-1,123,119,121,-1,124,125,126,-1,126,125,122,-1,126,122,123,-1,127,125,128,-1,128,125,124,-1,127,128,129,-1,129,128,130,-1,129,130,131,-1,132,129,133,-1,133,129,131,-1,134,135,136,-1,136,135,132,-1,136,132,133,-1,137,135,138,-1,138,135,134,-1,137,138,111,-1,111,138,139,-1,111,139,113,-1,137,111,110,-1,110,115,137,-1,137,115,117,-1,137,117,135,-1,129,132,127,-1,127,132,135,-1,127,135,125,-1,125,135,117,-1,125,117,122,-1,122,117,119,-1,140,141,142,-1,142,141,143,-1,142,143,144,-1,144,143,145,-1,144,145,146,-1,146,145,147,-1,146,147,148,-1,148,147,149,-1,148,149,150,-1,150,149,151,-1,150,151,152,-1,152,151,153,-1,152,153,154,-1,154,153,155,-1,154,155,156,-1,156,155,157,-1,156,157,158,-1,158,157,159,-1,158,159,160,-1,160,159,161,-1,160,161,162,-1,162,161,163,-1,162,163,164,-1,164,163,165,-1,164,165,166,-1,166,165,167,-1,166,167,168,-1,168,167,169,-1,168,169,170,-1,170,169,171,-1,170,171,172,-1,172,171,173,-1,172,173,174,-1,174,173,140,-1,174,140,142,-1,148,150,175,-1,175,150,176,-1,148,175,177,-1,148,177,146,-1,146,177,178,-1,146,178,144,-1,144,178,179,-1,144,179,142,-1,142,179,180,-1,142,180,174,-1,174,180,181,-1,174,181,172,-1,172,181,182,-1,172,182,170,-1,170,182,183,-1,170,183,168,-1,168,183,184,-1,168,184,166,-1,166,184,185,-1,166,185,164,-1,164,185,186,-1,164,186,162,-1,162,186,187,-1,162,187,160,-1,160,187,188,-1,160,188,158,-1,158,188,189,-1,158,189,156,-1,156,189,190,-1,156,190,154,-1,152,154,191,-1,191,154,190,-1,150,152,176,-1,176,152,191,-1,155,153,192,-1,192,153,193,-1,153,151,193,-1,193,151,194,-1,151,149,194,-1,194,149,195,-1,141,196,197,-1,141,197,143,-1,143,197,198,-1,143,198,145,-1,145,198,199,-1,145,199,147,-1,147,199,195,-1,147,195,149,-1,169,200,201,-1,169,201,171,-1,171,201,202,-1,171,202,173,-1,173,202,203,-1,173,203,140,-1,140,203,196,-1,140,196,141,-1,161,204,205,-1,161,205,163,-1,163,205,206,-1,163,206,165,-1,165,206,207,-1,165,207,167,-1,167,207,200,-1,167,200,169,-1,155,192,208,-1,155,208,157,-1,157,208,209,-1,157,209,159,-1,159,209,204,-1,159,204,161,-1,
        ]
    }
}
Shape{
    appearance Appearance {
        material  Material 	{
            diffuseColor 0.7529411764705882 0.7529411764705882 0.7529411764705882
            specularColor 0.3764705882352941 0.3764705882352941 0.3764705882352941
            ambientIntensity 0.7529
            transparency 0.0
            shininess 0.5
        }
    }
    geometry IndexedFaceSet {
        ccw TRUE
        solid FALSE
        coord DEF co Coordinate {
            point [
                -0.7461 -0.0213 0.3302, -0.7461 -0.0217 0.3298, -0.7461 -0.0464 0.3406, -0.7461 -0.0464 0.3462, -0.7461 -0.0179 0.3462, -0.7461 -0.0179 0.3408, -0.7461 -0.0185 0.3356, -0.7461 -0.0197 0.3326, -0.7461 -0.0237 0.3281, -0.7461 -0.0264 0.3268, -0.7461 -0.0297 0.326, -0.7461 -0.0325 0.3258, -0.7461 -0.0372 0.3264, -0.7461 -0.0399 0.3274, -0.7461 -0.042 0.3289, -0.7461 -0.043 0.3299, -0.7461 -0.0459 0.3358, -0.7461 -0.0448 0.3326
            ]
        }
        coordIndex [
            0,1,2,-1,3,4,2,-1,2,4,5,-1,5,6,2,-1,2,6,7,-1,2,7,0,-1,1,8,2,-1,2,8,9,-1,2,9,10,-1,10,11,2,-1,2,11,12,-1,2,12,13,-1,13,14,2,-1,2,14,15,-1,2,15,16,-1,16,15,17,-1,
        ]
    }
}
Shape{
    appearance Appearance {
        material  Material 	{
            diffuseColor 0.0 0.0 0.0
            specularColor 0.0 0.0 0.0
            ambientIntensity 0.0
            transparency 0.0
            shininess 0.5
        }
    }
    geometry IndexedFaceSet {
        ccw TRUE
        solid FALSE
        coord DEF co Coordinate {
            point [
                -0.75 -0.028 0.3084, -0.75 -0.0238 0.3099, -0.75 -0.028 0.2959, -0.75 -0.0238 0.2945, -0.75 -0.0434 0.3028, -0.75 -0.0507 0.3046, -0.75 -0.0136 0.3187, -0.75 -0.0136 0.3135, -0.75 -0.0445 0.3025, -0.75 -0.046 0.3022, -0.75 -0.0507 0.2995, -0.75 -0.046 0.3021, -0.75 -0.0444 0.3018, -0.75 -0.0434 0.3015, -0.75 -0.0136 0.2854, -0.75 -0.0136 0.2907, -0.7461 -0.0507 0.2995, -0.7461 -0.0136 0.2854, -0.7461 -0.0507 0.3046, -0.7461 -0.0136 0.3187, -0.7461 -0.0417 0.3081, -0.7461 -0.0136 0.3135, -0.7461 -0.0238 0.3099, -0.7461 -0.0238 0.2945, -0.7461 -0.0238 0.3081, -0.7461 -0.0136 0.2907, -0.7461 -0.028 0.3084, -0.7461 -0.028 0.2959, -0.7461 -0.0434 0.3015, -0.7461 -0.046 0.3021, -0.7461 -0.0444 0.3018, -0.7461 -0.046 0.3022, -0.7461 -0.0434 0.3028, -0.7461 -0.0445 0.3025
            ]
        }
        coordIndex [
            0,1,2,-1,2,1,3,-1,4,5,0,-1,0,5,6,-1,0,6,1,-1,1,6,7,-1,4,8,5,-1,5,8,9,-1,5,9,10,-1,10,9,11,-1,10,11,12,-1,12,13,10,-1,10,13,2,-1,10,2,14,-1,14,2,3,-1,14,3,15,-1,10,14,16,-1,16,14,17,-1,5,10,18,-1,18,10,16,-1,19,6,20,-1,20,6,5,-1,20,5,18,-1,7,6,21,-1,21,6,19,-1,1,7,22,-1,22,7,21,-1,23,3,24,-1,24,3,1,-1,24,1,22,-1,15,3,25,-1,25,3,23,-1,14,15,17,-1,17,15,25,-1,0,2,26,-1,26,2,27,-1,2,13,27,-1,27,13,28,-1,11,29,30,-1,11,30,12,-1,12,30,28,-1,12,28,13,-1,11,9,29,-1,29,9,31,-1,4,32,33,-1,4,33,8,-1,8,33,31,-1,8,31,9,-1,4,0,32,-1,32,0,26,-1,
        ]
    }
}
Shape{
    appearance Appearance {
        material  Material 	{
            diffuseColor 0.7529411764705882 0.7529411764705882 0.7529411764705882
            specularColor 0.3764705882352941 0.3764705882352941 0.3764705882352941
            ambientIntensity 0.7529
            transparency 0.0
            shininess 0.5
        }
    }
    geometry IndexedFaceSet {
        ccw TRUE
        solid FALSE
        coord DEF co Coordinate {
            point [
                -0.7461 -0.046 0.3021, -0.7461 -0.046 0.3022, -0.7461 -0.0444 0.3018, -0.7461 -0.0445 0.3025, -0.7461 -0.0434 0.3015, -0.7461 -0.0434 0.3028, -0.7461 -0.028 0.2959, -0.7461 -0.028 0.3084
            ]
        }
        coordIndex [
            0,1,2,-1,2,1,3,-1,2,3,4,-1,4,3,5,-1,4,5,6,-1,6,5,7,-1,
        ]
    }
}
Shape{
    appearance Appearance {
        material  Material 	{
            diffuseColor 0.0 0.0 0.0
            specularColor 0.0 0.0 0.0
            ambientIntensity 0.0
            transparency 0.0
            shininess 0.5
        }
    }
    geometry IndexedFaceSet {
        ccw TRUE
        solid FALSE
        coord DEF co Coordinate {
            point [
                -0.75 0.0409 0.4142, -0.75 0.0452 0.4142, -0.7461 0.0409 0.4142, -0.7461 0.0452 0.4142, -0.75 0.0409 0.4294, -0.7461 0.0409 0.4294, -0.75 0.0285 0.4294, -0.7461 0.0285 0.4294, -0.75 0.0285 0.4161, -0.7461 0.0285 0.4161, -0.75 0.0242 0.4161, -0.7461 0.0242 0.4161, -0.75 0.0242 0.4294, -0.7461 0.0242 0.4294, -0.75 0.0124 0.4294, -0.7461 0.0124 0.4294, -0.75 0.0124 0.4151, -0.7461 0.0124 0.4151, -0.75 0.0081 0.4151, -0.7461 0.0081 0.4151, -0.75 0.0081 0.4342, -0.7461 0.0081 0.4342, -0.75 0.0452 0.4342, -0.7461 0.0452 0.4342, -0.75 0.034 0.4033, -0.75 0.0334 0.4023, -0.75 0.0304 0.4048, -0.75 0.0411 0.3933, -0.75 0.0411 0.3931, -0.75 0.0368 0.3934, -0.75 0.0294 0.401, -0.75 0.0327 0.3993, -0.75 0.0283 0.3931, -0.75 0.0347 0.3931, -0.75 0.0281 0.3885, -0.75 0.0344 0.3931, -0.75 0.0319 0.3931, -0.75 0.0452 0.3931, -0.75 0.0452 0.3885, -0.75 0.0184 0.3949, -0.75 0.0224 0.3959, -0.75 0.0191 0.393, -0.75 0.0229 0.395, -0.75 0.0343 0.4038, -0.75 0.0315 0.4067, -0.75 0.035 0.4044, -0.75 0.0327 0.408, -0.75 0.0359 0.4048, -0.75 0.0342 0.409, -0.75 0.037 0.405, -0.75 0.0359 0.4096, -0.75 0.0377 0.4051, -0.75 0.0381 0.4098, -0.75 0.0388 0.4049, -0.75 0.0404 0.4095, -0.75 0.0396 0.4046, -0.75 0.0419 0.4089, -0.75 0.0404 0.4041, -0.75 0.0263 0.3933, -0.75 0.0242 0.389, -0.75 0.0246 0.3938, -0.75 0.0222 0.3897, -0.75 0.0237 0.3943, -0.75 0.0208 0.3907, -0.75 0.02 0.3915, -0.75 0.0205 0.4072, -0.75 0.0251 0.4072, -0.75 0.02 0.4062, -0.75 0.023 0.404, -0.75 0.0187 0.4028, -0.75 0.0221 0.4011, -0.75 0.0181 0.3981, -0.75 0.0219 0.3985, -0.75 0.022 0.3969, -0.75 0.0385 0.3941, -0.75 0.0398 0.3951, -0.75 0.0424 0.3941, -0.75 0.0404 0.3957, -0.75 0.0439 0.3956, -0.75 0.0413 0.397, -0.75 0.0448 0.397, -0.75 0.0418 0.3984, -0.75 0.0455 0.3989, -0.75 0.042 0.4002, -0.75 0.0458 0.4014, -0.75 0.0418 0.4017, -0.75 0.0455 0.4042, -0.75 0.0414 0.4028, -0.75 0.0448 0.4059, -0.75 0.0408 0.4037, -0.75 0.0437 0.4075, -0.75 0.0433 0.4079, -0.7461 0.0181 0.3981, -0.7461 0.0187 0.4028, -0.7461 0.02 0.4062, -0.7461 0.0205 0.4072, -0.7461 0.0251 0.4072, -0.7461 0.023 0.404, -0.7461 0.0221 0.4011, -0.7461 0.0219 0.3985, -0.7461 0.022 0.3969, -0.7461 0.0224 0.3959, -0.7461 0.0229 0.395, -0.7461 0.0237 0.3943, -0.7461 0.0246 0.3938, -0.7461 0.0263 0.3933, -0.7461 0.0283 0.3931, -0.7461 0.0294 0.401, -0.7461 0.0304 0.4048, -0.7461 0.0315 0.4067, -0.7461 0.0327 0.408, -0.7461 0.0342 0.409, -0.7461 0.0359 0.4096, -0.7461 0.0381 0.4098, -0.7461 0.0404 0.4095, -0.7461 0.0419 0.4089, -0.7461 0.0433 0.4079, -0.7461 0.0437 0.4075, -0.7461 0.0458 0.4014, -0.7461 0.0455 0.4041, -0.7461 0.0455 0.4042, -0.7461 0.0448 0.4059, -0.7461 0.0455 0.3989, -0.7461 0.0455 0.3988, -0.7461 0.0448 0.397, -0.7461 0.0439 0.3956, -0.7461 0.0424 0.3941, -0.7461 0.0411 0.3933, -0.7461 0.0411 0.3931, -0.7461 0.0452 0.3931, -0.7461 0.0452 0.3885, -0.7461 0.0281 0.3885, -0.7461 0.0242 0.389, -0.7461 0.0222 0.3897, -0.7461 0.0208 0.3907, -0.7461 0.02 0.3915, -0.7461 0.0191 0.393, -0.7461 0.0184 0.3949, -0.7461 0.0343 0.4038, -0.7461 0.034 0.4033, -0.7461 0.0334 0.4023, -0.7461 0.0327 0.3993, -0.7461 0.0377 0.4051, -0.7461 0.037 0.405, -0.7461 0.0359 0.4048, -0.7461 0.035 0.4044, -0.7461 0.0408 0.4037, -0.7461 0.0404 0.4041, -0.7461 0.0396 0.4046, -0.7461 0.0388 0.4049, -0.7461 0.042 0.4002, -0.7461 0.0418 0.4017, -0.7461 0.0414 0.4028, -0.7461 0.0398 0.3951, -0.7461 0.0404 0.3957, -0.7461 0.0413 0.397, -0.7461 0.0418 0.3984, -0.7461 0.0344 0.3931, -0.7461 0.0347 0.3931, -0.7461 0.0368 0.3934, -0.7461 0.0385 0.3941, -0.7461 0.0319 0.3931
            ]
        }
        coordIndex [
            0,1,2,-1,2,1,3,-1,4,0,5,-1,5,0,2,-1,6,4,7,-1,7,4,5,-1,8,6,9,-1,9,6,7,-1,10,8,11,-1,11,8,9,-1,12,10,13,-1,13,10,11,-1,14,12,15,-1,15,12,13,-1,16,14,17,-1,17,14,15,-1,18,16,19,-1,19,16,17,-1,20,18,21,-1,21,18,19,-1,22,20,23,-1,23,20,21,-1,1,22,3,-1,3,22,23,-1,22,1,0,-1,0,4,22,-1,22,4,6,-1,22,6,20,-1,16,18,14,-1,14,18,20,-1,14,20,12,-1,12,20,6,-1,12,6,10,-1,10,6,8,-1,24,25,26,-1,27,28,29,-1,26,25,30,-1,30,25,31,-1,30,31,32,-1,33,34,35,-1,35,34,36,-1,37,38,28,-1,28,38,34,-1,28,34,29,-1,29,34,33,-1,39,40,41,-1,41,40,42,-1,24,26,43,-1,43,26,44,-1,43,44,45,-1,45,44,46,-1,45,46,47,-1,47,46,48,-1,47,48,49,-1,49,48,50,-1,49,50,51,-1,51,50,52,-1,51,52,53,-1,53,52,54,-1,53,54,55,-1,55,54,56,-1,55,56,57,-1,31,36,32,-1,32,36,34,-1,32,34,58,-1,58,34,59,-1,58,59,60,-1,60,59,61,-1,60,61,62,-1,62,61,63,-1,62,63,42,-1,42,63,64,-1,42,64,41,-1,65,66,67,-1,67,66,68,-1,67,68,69,-1,69,68,70,-1,69,70,71,-1,71,70,72,-1,71,72,39,-1,39,72,73,-1,39,73,40,-1,29,74,27,-1,27,74,75,-1,27,75,76,-1,76,75,77,-1,76,77,78,-1,78,77,79,-1,78,79,80,-1,80,79,81,-1,80,81,82,-1,82,81,83,-1,82,83,84,-1,84,83,85,-1,84,85,86,-1,86,85,87,-1,86,87,88,-1,88,87,89,-1,88,89,90,-1,90,89,57,-1,90,57,91,-1,91,57,56,-1,71,92,93,-1,71,93,69,-1,69,93,94,-1,69,94,67,-1,67,94,95,-1,67,95,65,-1,66,65,96,-1,96,65,95,-1,66,96,97,-1,66,97,68,-1,68,97,98,-1,68,98,70,-1,70,98,99,-1,70,99,72,-1,72,99,100,-1,72,100,73,-1,73,100,101,-1,73,101,40,-1,40,101,102,-1,40,102,42,-1,42,102,103,-1,42,103,62,-1,62,103,104,-1,62,104,60,-1,60,104,105,-1,60,105,58,-1,58,105,106,-1,58,106,32,-1,30,32,107,-1,107,32,106,-1,30,107,108,-1,30,108,26,-1,26,108,109,-1,26,109,44,-1,44,109,110,-1,44,110,46,-1,46,110,111,-1,46,111,48,-1,48,111,112,-1,48,112,50,-1,50,112,113,-1,50,113,52,-1,52,113,114,-1,52,114,54,-1,54,114,115,-1,54,115,56,-1,56,115,116,-1,56,116,91,-1,91,116,117,-1,91,117,90,-1,118,84,119,-1,119,84,86,-1,119,86,120,-1,120,86,88,-1,120,88,121,-1,121,88,90,-1,121,90,117,-1,84,118,122,-1,84,122,82,-1,82,122,123,-1,82,123,80,-1,123,124,80,-1,80,124,125,-1,80,125,78,-1,78,125,126,-1,78,126,76,-1,76,126,127,-1,76,127,27,-1,28,27,128,-1,128,27,127,-1,37,28,129,-1,129,28,128,-1,38,37,130,-1,130,37,129,-1,34,38,131,-1,131,38,130,-1,34,131,132,-1,34,132,59,-1,59,132,133,-1,59,133,61,-1,61,133,134,-1,61,134,63,-1,63,134,135,-1,63,135,64,-1,64,135,136,-1,64,136,41,-1,41,136,137,-1,41,137,39,-1,39,137,92,-1,39,92,71,-1,43,138,139,-1,43,139,24,-1,24,139,140,-1,24,140,25,-1,25,140,141,-1,25,141,31,-1,51,142,143,-1,51,143,49,-1,49,143,144,-1,49,144,47,-1,47,144,145,-1,47,145,45,-1,45,145,138,-1,45,138,43,-1,89,146,147,-1,89,147,57,-1,57,147,148,-1,57,148,55,-1,55,148,149,-1,55,149,53,-1,53,149,142,-1,53,142,51,-1,83,150,151,-1,83,151,85,-1,85,151,152,-1,85,152,87,-1,87,152,146,-1,87,146,89,-1,75,153,154,-1,75,154,77,-1,77,154,155,-1,77,155,79,-1,79,155,156,-1,79,156,81,-1,81,156,150,-1,81,150,83,-1,35,157,158,-1,35,158,33,-1,33,158,159,-1,33,159,29,-1,29,159,160,-1,29,160,74,-1,74,160,153,-1,74,153,75,-1,35,36,157,-1,157,36,161,-1,36,31,161,-1,161,31,141,-1,
        ]
    }
}
Shape{
    appearance Appearance {
        material  Material 	{
            diffuseColor 0.7529411764705882 0.7529411764705882 0.7529411764705882
            specularColor 0.3764705882352941 0.3764705882352941 0.3764705882352941
            ambientIntensity 0.7529
            transparency 0.0
            shininess 0.5
        }
    }
    geometry IndexedFaceSet {
        ccw TRUE
        solid FALSE
        coord DEF co Coordinate {
            point [
                -0.7461 0.0347 0.3931, -0.7461 0.0344 0.3931, -0.7461 0.0343 0.4038, -0.7461 0.0319 0.3931, -0.7461 0.0327 0.3993, -0.7461 0.0334 0.4023, -0.7461 0.034 0.4033, -0.7461 0.0368 0.3934, -0.7461 0.035 0.4044, -0.7461 0.0385 0.3941, -0.7461 0.0404 0.4041, -0.7461 0.0408 0.4037, -0.7461 0.0404 0.3957, -0.7461 0.0396 0.4046, -0.7461 0.0413 0.397, -0.7461 0.0418 0.3984, -0.7461 0.042 0.4002, -0.7461 0.0359 0.4048, -0.7461 0.037 0.405, -0.7461 0.0398 0.3951, -0.7461 0.0377 0.4051, -0.7461 0.0388 0.4049, -0.7461 0.0414 0.4028, -0.7461 0.0418 0.4017
            ]
        }
        coordIndex [
            0,1,2,-1,1,3,4,-1,4,5,1,-1,1,5,6,-1,1,6,2,-1,0,2,7,-1,7,2,8,-1,7,8,9,-1,10,11,12,-1,10,12,13,-1,14,12,15,-1,15,12,16,-1,8,17,9,-1,9,17,18,-1,9,18,19,-1,19,18,20,-1,19,20,12,-1,12,20,21,-1,12,21,13,-1,11,22,12,-1,12,22,23,-1,12,23,16,-1,
        ]
    }
}
Shape{
    appearance Appearance {
        material  Material 	{
            diffuseColor 0.0 0.0 0.0
            specularColor 0.0 0.0 0.0
            ambientIntensity 0.0
            transparency 0.0
            shininess 0.5
        }
    }
    geometry IndexedFaceSet {
        ccw TRUE
        solid FALSE
        coord DEF co Coordinate {
            point [
                -0.7461 0.0394 0.3822, -0.75 0.0394 0.3822, -0.75 0.0407 0.3802, -0.75 0.042 0.3746, -0.7461 0.042 0.3746, -0.7461 0.0417 0.3772, -0.75 0.0417 0.3772, -0.7461 0.0407 0.3801, -0.7461 0.0407 0.3802, -0.75 0.0442 0.3822, -0.7461 0.0442 0.3822, -0.7461 0.045 0.3801, -0.75 0.0454 0.3789, -0.7461 0.0458 0.375, -0.75 0.0458 0.375, -0.7461 0.0455 0.378, -0.7461 0.0454 0.3789, -0.7461 0.0455 0.3724, -0.75 0.0453 0.3708, -0.7461 0.0453 0.3708, -0.7461 0.0444 0.3684, -0.75 0.0444 0.3684, -0.7461 0.0437 0.3673, -0.75 0.0437 0.3673, -0.7461 0.0425 0.366, -0.75 0.0425 0.366, -0.7461 0.0413 0.3651, -0.75 0.0413 0.3651, -0.7461 0.0398 0.3645, -0.75 0.0398 0.3645, -0.7461 0.038 0.3643, -0.75 0.038 0.3643, -0.7461 0.0362 0.3645, -0.75 0.0362 0.3645, -0.7461 0.0349 0.365, -0.75 0.0349 0.365, -0.7461 0.0336 0.3659, -0.75 0.0336 0.3659, -0.7461 0.0326 0.367, -0.75 0.0326 0.367, -0.7461 0.0309 0.3701, -0.75 0.0309 0.3701, -0.7461 0.0302 0.3719, -0.75 0.0302 0.3719, -0.7461 0.0289 0.3747, -0.75 0.0289 0.3747, -0.7461 0.0279 0.3764, -0.75 0.0279 0.3764, -0.7461 0.0274 0.3768, -0.75 0.0274 0.3768, -0.7461 0.0268 0.3772, -0.75 0.0268 0.3772, -0.7461 0.026 0.3774, -0.75 0.026 0.3774, -0.7461 0.0254 0.3774, -0.75 0.0254 0.3774, -0.7461 0.0247 0.3773, -0.75 0.0247 0.3773, -0.7461 0.0241 0.3771, -0.75 0.0241 0.3771, -0.7461 0.0235 0.3767, -0.75 0.0235 0.3767, -0.7461 0.0228 0.376, -0.75 0.0228 0.376, -0.7461 0.0223 0.3749, -0.75 0.0223 0.3749, -0.7461 0.022 0.3737, -0.75 0.022 0.3737, -0.7461 0.0219 0.3723, -0.75 0.0219 0.3723, -0.7461 0.0221 0.3696, -0.75 0.0221 0.3696, -0.7461 0.023 0.3669, -0.75 0.023 0.3669, -0.7461 0.0238 0.3656, -0.75 0.0238 0.3656, -0.75 0.0193 0.3656, -0.7461 0.0193 0.3656, -0.7461 0.0184 0.3686, -0.75 0.0184 0.3686, -0.7461 0.0181 0.3719, -0.75 0.0181 0.3719, -0.7461 0.0185 0.3756, -0.75 0.0185 0.3756, -0.7461 0.0195 0.3781, -0.75 0.0195 0.3781, -0.7461 0.0202 0.3792, -0.75 0.0202 0.3792, -0.7461 0.021 0.3801, -0.75 0.0214 0.3806, -0.7461 0.0214 0.3806, -0.7461 0.0227 0.3814, -0.75 0.0227 0.3814, -0.7461 0.0242 0.382, -0.75 0.0242 0.382, -0.7461 0.0258 0.3822, -0.75 0.0258 0.3822, -0.7461 0.0276 0.382, -0.75 0.0276 0.382, -0.7461 0.0291 0.3815, -0.75 0.0291 0.3815, -0.7461 0.03 0.3809, -0.75 0.03 0.3809, -0.7461 0.0335 0.3751, -0.75 0.0335 0.3751, -0.75 0.0323 0.3779, -0.7461 0.0308 0.3801, -0.75 0.0308 0.3801, -0.7461 0.0308 0.3801, -0.7461 0.0323 0.3779, -0.7461 0.0348 0.3721, -0.75 0.0348 0.3721, -0.7461 0.0359 0.3703, -0.75 0.0359 0.3703, -0.7461 0.0365 0.3697, -0.75 0.0365 0.3697, -0.7461 0.0371 0.3693, -0.75 0.0371 0.3693, -0.7461 0.0378 0.3691, -0.75 0.0378 0.3691, -0.7461 0.0384 0.3691, -0.75 0.0384 0.3691, -0.7461 0.0393 0.3692, -0.75 0.0393 0.3692, -0.7461 0.04 0.3694, -0.75 0.04 0.3694, -0.7461 0.0406 0.3698, -0.75 0.0406 0.3698, -0.7461 0.041 0.3704, -0.75 0.041 0.3704, -0.7461 0.0413 0.3708, -0.75 0.0413 0.3708, -0.7461 0.0417 0.372, -0.75 0.0417 0.372, -0.7461 0.042 0.3744, -0.75 0.042 0.3744, -0.75 0.0187 0.3413, -0.75 0.0187 0.3365, -0.7461 0.0187 0.3413, -0.7461 0.0187 0.3365, -0.75 0.0386 0.3485, -0.7461 0.0386 0.3485, -0.7461 0.0399 0.3489, -0.75 0.0399 0.3489, -0.7461 0.0408 0.3491, -0.75 0.0408 0.3491, -0.75 0.0408 0.3492, -0.7461 0.0408 0.3492, -0.75 0.0386 0.3498, -0.7461 0.0386 0.3498, -0.75 0.0187 0.3567, -0.7461 0.0251 0.3545, -0.7461 0.0187 0.3567, -0.75 0.0187 0.3619, -0.7461 0.0187 0.3619, -0.75 0.0451 0.3515, -0.7461 0.0376 0.3545, -0.7461 0.0451 0.3515, -0.7461 0.0499 0.3536, -0.75 0.0499 0.3536, -0.7461 0.0455 0.3517, -0.7461 0.0516 0.3545, -0.75 0.0516 0.3545, -0.7461 0.0516 0.3545, -0.7461 0.0526 0.3554, -0.75 0.0526 0.3554, -0.7461 0.0531 0.3561, -0.75 0.0531 0.3561, -0.7461 0.0535 0.3571, -0.75 0.0535 0.3571, -0.7461 0.0537 0.3583, -0.75 0.0537 0.3583, -0.7461 0.0534 0.36, -0.75 0.0534 0.36, -0.7461 0.0531 0.361, -0.75 0.0531 0.361, -0.75 0.0573 0.361, -0.7461 0.0573 0.361, -0.7461 0.0576 0.359, -0.75 0.0576 0.359, -0.7461 0.0576 0.358, -0.75 0.0576 0.358, -0.7461 0.0574 0.3561, -0.75 0.0574 0.3561, -0.7461 0.0568 0.3545, -0.75 0.0567 0.3543, -0.7461 0.0567 0.3543, -0.7461 0.0556 0.3526, -0.75 0.0556 0.3526, -0.7461 0.0553 0.3523, -0.75 0.0553 0.3523, -0.7461 0.0533 0.3506, -0.75 0.0533 0.3506, -0.7461 0.0492 0.3485, -0.75 0.0492 0.3485, -0.7461 0.0455 0.3471, -0.75 0.0409 0.3116, -0.75 0.0452 0.3116, -0.7461 0.0409 0.3116, -0.7461 0.0452 0.3116, -0.75 0.0409 0.3267, -0.7461 0.0409 0.3198, -0.7461 0.0409 0.3267, -0.75 0.0285 0.3267, -0.7461 0.0285 0.3267, -0.75 0.0285 0.3135, -0.7461 0.0285 0.3198, -0.7461 0.0285 0.3135, -0.75 0.0242 0.3135, -0.7461 0.0242 0.3135, -0.7461 0.0242 0.3267, -0.75 0.0242 0.3267, -0.7461 0.0242 0.3198, -0.75 0.0124 0.3267, -0.7461 0.0124 0.3267, -0.7461 0.0124 0.3124, -0.75 0.0124 0.3124, -0.7461 0.0124 0.3198, -0.75 0.0081 0.3124, -0.7461 0.0081 0.3124, -0.7461 0.0081 0.3315, -0.75 0.0081 0.3315, -0.7461 0.0081 0.3198, -0.75 0.0452 0.3315, -0.7461 0.0452 0.3315, -0.7461 0.0452 0.3198, -0.75 0.0351 0.2817, -0.75 0.0371 0.2834, -0.75 0.04 0.28, -0.75 0.0375 0.2838, -0.75 0.0427 0.2838, -0.75 0.0391 0.2862, -0.75 0.0444 0.288, -0.75 0.0403 0.2892, -0.75 0.0452 0.2944, -0.75 0.0409 0.2944, -0.75 0.0452 0.3046, -0.75 0.0409 0.2998, -0.75 0.0081 0.3046, -0.75 0.0124 0.2998, -0.75 0.0081 0.294, -0.75 0.0124 0.2942, -0.75 0.0087 0.2883, -0.75 0.0129 0.2894, -0.75 0.0104 0.2838, -0.75 0.014 0.2862, -0.75 0.013 0.28, -0.75 0.0158 0.2835, -0.75 0.0143 0.2787, -0.75 0.0168 0.2825, -0.75 0.0175 0.2764, -0.75 0.0189 0.281, -0.75 0.021 0.275, -0.75 0.0216 0.28, -0.75 0.0262 0.2744, -0.75 0.0263 0.2794, -0.75 0.0285 0.2745, -0.75 0.0291 0.2796, -0.75 0.0329 0.2754, -0.75 0.0324 0.2804, -0.75 0.0367 0.2772, -0.7461 0.0452 0.2944, -0.7461 0.0452 0.3046, -0.7461 0.0444 0.288, -0.7461 0.0427 0.2838, -0.7461 0.04 0.28, -0.7461 0.0367 0.2772, -0.7461 0.0329 0.2754, -0.7461 0.0285 0.2745, -0.7461 0.0262 0.2744, -0.7461 0.021 0.275, -0.7461 0.0175 0.2764, -0.7461 0.0143 0.2787, -0.7461 0.013 0.28, -0.7461 0.0104 0.2838, -0.7461 0.0087 0.2883, -0.7461 0.0081 0.294, -0.7461 0.0081 0.3046, -0.7461 0.0124 0.2942, -0.7461 0.0124 0.2998, -0.7461 0.0409 0.2998, -0.7461 0.0409 0.2944, -0.7461 0.0371 0.2834, -0.7461 0.0375 0.2838, -0.7461 0.0391 0.2862, -0.7461 0.0403 0.2892, -0.7461 0.0263 0.2794, -0.7461 0.0291 0.2796, -0.7461 0.0324 0.2804, -0.7461 0.0351 0.2817, -0.7461 0.0158 0.2835, -0.7461 0.0168 0.2825, -0.7461 0.0189 0.281, -0.7461 0.0216 0.28, -0.7461 0.0129 0.2894, -0.7461 0.014 0.2862
            ]
        }
        coordIndex [
            0,1,2,-1,3,4,5,-1,3,5,6,-1,6,5,7,-1,6,7,2,-1,2,7,8,-1,2,8,0,-1,9,1,10,-1,10,1,0,-1,10,11,9,-1,9,11,12,-1,13,14,15,-1,15,14,12,-1,15,12,16,-1,16,12,11,-1,13,17,14,-1,14,17,18,-1,17,19,18,-1,18,19,20,-1,18,20,21,-1,21,20,22,-1,21,22,23,-1,23,22,24,-1,23,24,25,-1,25,24,26,-1,25,26,27,-1,27,26,28,-1,27,28,29,-1,29,28,30,-1,29,30,31,-1,31,30,32,-1,31,32,33,-1,33,32,34,-1,33,34,35,-1,35,34,36,-1,35,36,37,-1,37,36,38,-1,37,38,39,-1,39,38,40,-1,39,40,41,-1,41,40,42,-1,41,42,43,-1,43,42,44,-1,43,44,45,-1,45,44,46,-1,45,46,47,-1,47,46,48,-1,47,48,49,-1,49,48,50,-1,49,50,51,-1,51,50,52,-1,51,52,53,-1,53,52,54,-1,53,54,55,-1,55,54,56,-1,55,56,57,-1,57,56,58,-1,57,58,59,-1,59,58,60,-1,59,60,61,-1,61,60,62,-1,61,62,63,-1,63,62,64,-1,63,64,65,-1,65,64,66,-1,65,66,67,-1,67,66,68,-1,67,68,69,-1,69,68,70,-1,69,70,71,-1,71,70,72,-1,71,72,73,-1,73,72,74,-1,73,74,75,-1,76,75,77,-1,77,75,74,-1,76,77,78,-1,76,78,79,-1,79,78,80,-1,79,80,81,-1,81,80,82,-1,81,82,83,-1,83,82,84,-1,83,84,85,-1,85,84,86,-1,85,86,87,-1,86,88,87,-1,87,88,89,-1,88,90,89,-1,89,90,91,-1,89,91,92,-1,92,91,93,-1,92,93,94,-1,94,93,95,-1,94,95,96,-1,96,95,97,-1,96,97,98,-1,98,97,99,-1,98,99,100,-1,100,99,101,-1,100,101,102,-1,103,104,105,-1,102,101,106,-1,102,106,107,-1,107,106,108,-1,107,108,105,-1,105,108,109,-1,105,109,103,-1,104,103,110,-1,104,110,111,-1,111,110,112,-1,111,112,113,-1,113,112,114,-1,113,114,115,-1,115,114,116,-1,115,116,117,-1,117,116,118,-1,117,118,119,-1,119,118,120,-1,119,120,121,-1,121,120,122,-1,121,122,123,-1,123,122,124,-1,123,124,125,-1,125,124,126,-1,125,126,127,-1,127,126,128,-1,127,128,129,-1,129,128,130,-1,129,130,131,-1,131,130,132,-1,131,132,133,-1,133,132,134,-1,133,134,135,-1,135,134,4,-1,135,4,3,-1,61,63,85,-1,85,63,83,-1,111,43,104,-1,104,43,45,-1,21,23,127,-1,127,23,25,-1,127,25,125,-1,125,25,27,-1,125,27,123,-1,123,27,29,-1,123,29,121,-1,121,29,31,-1,121,31,119,-1,119,31,33,-1,119,33,117,-1,117,33,35,-1,117,35,115,-1,115,35,37,-1,115,37,113,-1,113,37,39,-1,113,39,111,-1,111,39,41,-1,111,41,43,-1,14,3,12,-1,12,3,6,-1,12,6,9,-1,9,6,2,-1,9,2,1,-1,63,65,83,-1,83,65,67,-1,83,67,81,-1,81,67,69,-1,81,69,79,-1,79,69,71,-1,79,71,76,-1,76,71,73,-1,76,73,75,-1,127,129,21,-1,21,129,131,-1,21,131,18,-1,18,131,133,-1,18,133,14,-1,14,133,135,-1,14,135,3,-1,85,87,61,-1,61,87,89,-1,61,89,59,-1,59,89,92,-1,59,92,57,-1,57,92,94,-1,57,94,55,-1,55,94,96,-1,55,96,53,-1,53,96,98,-1,53,98,51,-1,51,98,100,-1,51,100,49,-1,49,100,102,-1,49,102,47,-1,47,102,107,-1,47,107,45,-1,45,107,105,-1,45,105,104,-1,136,137,138,-1,138,137,139,-1,140,136,141,-1,141,136,138,-1,140,141,142,-1,140,142,143,-1,143,142,144,-1,143,144,145,-1,146,145,147,-1,147,145,144,-1,148,146,149,-1,149,146,147,-1,148,149,150,-1,150,149,151,-1,150,151,152,-1,153,150,154,-1,154,150,152,-1,153,154,155,-1,155,154,156,-1,155,156,157,-1,158,159,160,-1,160,159,155,-1,160,155,157,-1,158,161,159,-1,159,161,162,-1,161,163,162,-1,162,163,164,-1,162,164,165,-1,165,164,166,-1,165,166,167,-1,167,166,168,-1,167,168,169,-1,169,168,170,-1,169,170,171,-1,171,170,172,-1,171,172,173,-1,173,172,174,-1,173,174,175,-1,176,175,177,-1,177,175,174,-1,176,177,178,-1,176,178,179,-1,179,178,180,-1,179,180,181,-1,181,180,182,-1,181,182,183,-1,183,182,184,-1,183,184,185,-1,184,186,185,-1,185,186,187,-1,185,187,188,-1,188,187,189,-1,188,189,190,-1,190,189,191,-1,190,191,192,-1,192,191,193,-1,192,193,194,-1,139,137,195,-1,195,137,194,-1,195,194,193,-1,143,145,194,-1,137,136,194,-1,194,136,140,-1,194,140,143,-1,150,153,148,-1,148,153,155,-1,148,155,146,-1,175,176,173,-1,173,176,179,-1,173,179,171,-1,171,179,181,-1,171,181,169,-1,169,181,183,-1,169,183,167,-1,167,183,185,-1,167,185,165,-1,145,146,194,-1,194,146,155,-1,194,155,192,-1,155,159,192,-1,192,159,162,-1,192,162,190,-1,190,162,165,-1,190,165,188,-1,188,165,185,-1,196,197,198,-1,198,197,199,-1,196,198,200,-1,200,198,201,-1,200,201,202,-1,203,200,204,-1,204,200,202,-1,203,204,205,-1,205,204,206,-1,205,206,207,-1,208,205,209,-1,209,205,207,-1,210,211,212,-1,212,211,208,-1,212,208,209,-1,213,211,214,-1,214,211,210,-1,215,216,217,-1,217,216,213,-1,217,213,214,-1,218,216,219,-1,219,216,215,-1,220,221,222,-1,222,221,218,-1,222,218,219,-1,223,221,224,-1,224,221,220,-1,223,224,197,-1,197,224,225,-1,197,225,199,-1,223,197,196,-1,196,200,223,-1,223,200,203,-1,223,203,221,-1,216,218,213,-1,213,218,221,-1,213,221,211,-1,211,221,203,-1,211,203,208,-1,208,203,205,-1,226,227,228,-1,228,227,229,-1,228,229,230,-1,230,229,231,-1,230,231,232,-1,232,231,233,-1,232,233,234,-1,234,233,235,-1,234,235,236,-1,236,235,237,-1,236,237,238,-1,238,237,239,-1,238,239,240,-1,240,239,241,-1,240,241,242,-1,242,241,243,-1,242,243,244,-1,244,243,245,-1,244,245,246,-1,246,245,247,-1,246,247,248,-1,248,247,249,-1,248,249,250,-1,250,249,251,-1,250,251,252,-1,252,251,253,-1,252,253,254,-1,254,253,255,-1,254,255,256,-1,256,255,257,-1,256,257,258,-1,258,257,259,-1,258,259,260,-1,260,259,226,-1,260,226,228,-1,234,236,261,-1,261,236,262,-1,234,261,263,-1,234,263,232,-1,232,263,264,-1,232,264,230,-1,230,264,265,-1,230,265,228,-1,228,265,266,-1,228,266,260,-1,260,266,267,-1,260,267,258,-1,258,267,268,-1,258,268,256,-1,256,268,269,-1,256,269,254,-1,254,269,270,-1,254,270,252,-1,252,270,271,-1,252,271,250,-1,250,271,272,-1,250,272,248,-1,248,272,273,-1,248,273,246,-1,246,273,274,-1,246,274,244,-1,244,274,275,-1,244,275,242,-1,242,275,276,-1,242,276,240,-1,238,240,277,-1,277,240,276,-1,236,238,262,-1,262,238,277,-1,241,239,278,-1,278,239,279,-1,239,237,279,-1,279,237,280,-1,237,235,280,-1,280,235,281,-1,227,282,283,-1,227,283,229,-1,229,283,284,-1,229,284,231,-1,231,284,285,-1,231,285,233,-1,233,285,281,-1,233,281,235,-1,255,286,287,-1,255,287,257,-1,257,287,288,-1,257,288,259,-1,259,288,289,-1,259,289,226,-1,226,289,282,-1,226,282,227,-1,247,290,291,-1,247,291,249,-1,249,291,292,-1,249,292,251,-1,251,292,293,-1,251,293,253,-1,253,293,286,-1,253,286,255,-1,241,278,294,-1,241,294,243,-1,243,294,295,-1,243,295,245,-1,245,295,290,-1,245,290,247,-1,
        ]
    }
}
Shape{
    appearance Appearance {
        material  Material 	{
            diffuseColor 0.7529411764705882 0.7529411764705882 0.7529411764705882
            specularColor 0.3764705882352941 0.3764705882352941 0.3764705882352941
            ambientIntensity 0.7529
            transparency 0.0
            shininess 0.5
        }
    }
    geometry IndexedFaceSet {
        ccw TRUE
        solid FALSE
        coord DEF co Coordinate {
            point [
                -0.7461 0.0375 0.2838, -0.7461 0.0371 0.2834, -0.7461 0.0124 0.2942, -0.7461 0.0124 0.2998, -0.7461 0.0409 0.2998, -0.7461 0.0409 0.2944, -0.7461 0.0403 0.2892, -0.7461 0.0391 0.2862, -0.7461 0.0351 0.2817, -0.7461 0.0324 0.2804, -0.7461 0.0291 0.2796, -0.7461 0.0263 0.2794, -0.7461 0.0216 0.28, -0.7461 0.0189 0.281, -0.7461 0.0168 0.2825, -0.7461 0.0158 0.2835, -0.7461 0.0129 0.2894, -0.7461 0.014 0.2862
            ]
        }
        coordIndex [
            0,1,2,-1,3,4,2,-1,2,4,5,-1,5,6,2,-1,2,6,7,-1,2,7,0,-1,1,8,2,-1,2,8,9,-1,2,9,10,-1,10,11,2,-1,2,11,12,-1,2,12,13,-1,13,14,2,-1,2,14,15,-1,2,15,16,-1,16,15,17,-1,
        ]
    }
}
Shape{
    appearance Appearance {
        material  Material 	{
            diffuseColor 0.0 0.0 0.0
            specularColor 0.0 0.0 0.0
            ambientIntensity 0.0
            transparency 0.0
            shininess 0.5
        }
    }
    geometry IndexedFaceSet {
        ccw TRUE
        solid FALSE
        coord DEF co Coordinate {
            point [
                -0.75 0.0308 0.262, -0.75 0.035 0.2635, -0.75 0.0308 0.2495, -0.75 0.035 0.248, -0.75 0.0154 0.2564, -0.75 0.0081 0.2582, -0.75 0.0452 0.2723, -0.75 0.0452 0.267, -0.75 0.0143 0.2561, -0.75 0.0128 0.2558, -0.75 0.0081 0.2531, -0.75 0.0128 0.2557, -0.75 0.0144 0.2554, -0.75 0.0154 0.2551, -0.75 0.0452 0.239, -0.75 0.0452 0.2443, -0.7461 0.0081 0.2531, -0.7461 0.0452 0.239, -0.7461 0.0081 0.2582, -0.7461 0.0452 0.2723, -0.7461 0.0452 0.267, -0.7461 0.035 0.2635, -0.7461 0.035 0.248, -0.7461 0.0452 0.2443, -0.7461 0.0308 0.262, -0.7461 0.0308 0.2495, -0.7461 0.0154 0.2551, -0.7461 0.0128 0.2557, -0.7461 0.0144 0.2554, -0.7461 0.0128 0.2558, -0.7461 0.0154 0.2564, -0.7461 0.0143 0.2561
            ]
        }
        coordIndex [
            0,1,2,-1,2,1,3,-1,4,5,0,-1,0,5,6,-1,0,6,1,-1,1,6,7,-1,4,8,5,-1,5,8,9,-1,5,9,10,-1,10,9,11,-1,10,11,12,-1,12,13,10,-1,10,13,2,-1,10,2,14,-1,14,2,3,-1,14,3,15,-1,10,14,16,-1,16,14,17,-1,5,10,18,-1,18,10,16,-1,6,5,19,-1,19,5,18,-1,7,6,20,-1,20,6,19,-1,1,7,21,-1,21,7,20,-1,3,1,22,-1,22,1,21,-1,15,3,23,-1,23,3,22,-1,14,15,17,-1,17,15,23,-1,0,2,24,-1,24,2,25,-1,2,13,25,-1,25,13,26,-1,11,27,28,-1,11,28,12,-1,12,28,26,-1,12,26,13,-1,11,9,27,-1,27,9,29,-1,4,30,31,-1,4,31,8,-1,8,31,29,-1,8,29,9,-1,4,0,30,-1,30,0,24,-1,
        ]
    }
}
Shape{
    appearance Appearance {
        material  Material 	{
            diffuseColor 0.7529411764705882 0.7529411764705882 0.7529411764705882
            specularColor 0.3764705882352941 0.3764705882352941 0.3764705882352941
            ambientIntensity 0.7529
            transparency 0.0
            shininess 0.5
        }
    }
    geometry IndexedFaceSet {
        ccw TRUE
        solid FALSE
        coord DEF co Coordinate {
            point [
                -0.7461 0.0128 0.2557, -0.7461 0.0128 0.2558, -0.7461 0.0144 0.2554, -0.7461 0.0143 0.2561, -0.7461 0.0154 0.2551, -0.7461 0.0154 0.2564, -0.7461 0.0308 0.2495, -0.7461 0.0308 0.262
            ]
        }
        coordIndex [
            0,1,2,-1,2,1,3,-1,2,3,4,-1,4,3,5,-1,4,5,6,-1,6,5,7,-1,
        ]
    }
}
Shape{
    appearance Appearance {
        material  Material 	{
            diffuseColor 0.0 0.0 0.0
            specularColor 0.0 0.0 0.0
            ambientIntensity 0.0
            transparency 0.0
            shininess 0.5
        }
    }
    geometry IndexedFaceSet {
        ccw TRUE
        solid FALSE
        coord DEF co Coordinate {
            point [
                -0.75 -0.0192 0.5051, -0.75 -0.0119 0.5035, -0.75 -0.0261 0.4906, -0.75 -0.0187 0.6048, -0.75 -0.0218 0.5989, -0.75 -0.0382 0.5998, -0.75 0.0514 0.5539, -0.75 0.0456 0.5508, -0.75 0.039 0.5493, -0.75 0.0467 0.5776, -0.75 0.0459 0.5801, -0.75 0.0448 0.6005, -0.75 0.0445 0.5823, -0.75 -0.0393 0.59, -0.75 0.0142 0.5122, -0.75 0.0002 0.5204, -0.75 0.0337 0.5491, -0.75 0.0187 0.5557, -0.75 0.0363 0.5491, -0.75 0.0596 0.5632, -0.75 0.056 0.558, -0.75 -0.0234 0.5924, -0.75 -0.0235 0.5897, -0.75 -0.0391 0.5869, -0.75 -0.0227 0.5836, -0.75 -0.0388 0.5839, -0.75 -0.0206 0.5776, -0.75 -0.0119 0.5014, -0.75 -0.0113 0.4964, -0.75 -0.0257 0.4893, -0.75 -0.0095 0.4918, -0.75 -0.0218 0.4815, -0.75 -0.0157 0.4743, -0.75 -0.0195 0.5757, -0.75 -0.0279 0.5717, -0.75 -0.0451 0.5785, -0.75 -0.0349 0.5658, -0.75 -0.0504 0.5723, -0.75 -0.0401 0.5587, -0.75 0.0271 0.6002, -0.75 0.0236 0.606, -0.75 0.0321 0.6216, -0.75 0.0187 0.6107, -0.75 0.023 0.6279, -0.75 0.0134 0.6139, -0.75 0.0132 0.6315, -0.75 0.0069 0.6157, -0.75 0.0034 0.6327, -0.75 0.0029 0.6161, -0.75 0.0004 0.6326, -0.75 -0.0035 0.6153, -0.75 0.0427 0.584, -0.75 0.0406 0.5852, -0.75 0.0435 0.6045, -0.75 0.0382 0.5859, -0.75 0.0309 0.5672, -0.75 0.033 0.5661, -0.75 0.0334 0.4743, -0.75 0.023 0.4866, -0.75 0.0395 0.4814, -0.75 0.0262 0.4905, -0.75 0.0434 0.4895, -0.75 0.0283 0.4951, -0.75 0.0453 0.4982, -0.75 0.0292 0.4998, -0.75 0.0453 0.5138, -0.75 0.0292 0.5117, -0.75 0.0451 0.5153, -0.75 -0.0345 0.6096, -0.75 -0.0287 0.6181, -0.75 -0.0146 0.6094, -0.75 -0.0267 0.6203, -0.75 -0.0094 0.613, -0.75 -0.0189 0.6264, -0.75 -0.0095 0.6307, -0.75 -0.0067 0.4877, -0.75 -0.0032 0.4847, -0.75 -0.0082 0.4689, -0.75 0.0013 0.4822, -0.75 -0.0002 0.4657, -0.75 0.0064 0.481, -0.75 0.0084 0.4645, -0.75 0.0087 0.4809, -0.75 0.0178 0.4657, -0.75 0.0138 0.4815, -0.75 0.0262 0.469, -0.75 0.0185 0.4833, -0.75 0.0226 0.4862, -0.75 0.0355 0.5655, -0.75 0.0377 0.5655, -0.75 0.0402 0.5661, -0.75 0.0425 0.5673, -0.75 0.0444 0.569, -0.75 0.0458 0.5711, -0.75 0.0619 0.5691, -0.75 0.0466 0.5734, -0.75 0.0627 0.5755, -0.75 0.0469 0.5757, -0.75 0.0627 0.5765, -0.75 -0.0277 0.5092, -0.75 -0.0356 0.4953, -0.75 -0.0348 0.5151, -0.75 -0.0458 0.5036, -0.75 -0.0354 0.5158, -0.75 -0.047 0.5048, -0.75 -0.0406 0.5232, -0.75 -0.0549 0.5166, -0.75 -0.0437 0.5315, -0.75 -0.0595 0.5298, -0.75 -0.0448 0.5404, -0.75 -0.0607 0.5407, -0.75 -0.0436 0.5501, -0.75 -0.059 0.5538, -0.75 -0.0543 0.5659, -0.75 0.029 0.513, -0.75 0.0425 0.5193, -0.75 0.0432 0.5187, -0.75 0.0289 0.5689, -0.75 0.0145 0.5603, -0.75 0.0275 0.571, -0.75 0.0115 0.5659, -0.75 0.0266 0.5734, -0.75 0.0099 0.5723, -0.75 0.0263 0.5757, -0.75 0.0097 0.5755, -0.75 0.0266 0.5781, -0.75 0.0105 0.5818, -0.75 0.0274 0.5804, -0.75 0.0127 0.5876, -0.75 0.0288 0.5825, -0.75 0.0165 0.593, -0.75 0.0307 0.5842, -0.75 0.0214 0.5973, -0.75 0.033 0.5854, -0.75 0.0356 0.586, -0.75 0.0387 0.6139, -0.75 0.0291 0.5122, -0.75 0.0444 0.517, -0.75 0.0504 0.5979, -0.75 0.0553 0.594, -0.75 0.0371 0.5214, -0.75 0.0391 0.5212, -0.75 0.0409 0.5205, -0.75 0.0591 0.5888, -0.75 0.0617 0.5827, -0.75 0.0292 0.5153, -0.75 0.0299 0.5171, -0.75 0.0361 0.5214, -0.75 0.0311 0.5187, -0.75 0.0323 0.5198, -0.75 0.0341 0.5208, -0.75 0.029 0.5133, -0.7461 -0.0133 0.4726, -0.7461 -0.0082 0.4689, -0.7461 -0.0025 0.4666, -0.7461 -0.0002 0.4657, -0.7461 0.0084 0.4645, -0.7461 -0.0157 0.4743, -0.7461 -0.0218 0.4815, -0.7461 -0.0257 0.4893, -0.7461 -0.0261 0.4906, -0.7461 -0.0356 0.4953, -0.7461 -0.0458 0.5036, -0.7461 -0.047 0.5048, -0.7461 -0.051 0.5109, -0.7461 -0.0549 0.5166, -0.7461 -0.0595 0.5298, -0.7461 -0.0607 0.5407, -0.7461 -0.0504 0.5723, -0.7461 -0.051 0.5713, -0.7461 -0.0543 0.5659, -0.7461 -0.059 0.5538, -0.7461 -0.0451 0.5785, -0.7461 -0.0388 0.5839, -0.7461 -0.0391 0.5869, -0.7461 -0.0393 0.59, -0.7461 -0.0382 0.5998, -0.7461 -0.0345 0.6096, -0.7461 -0.0287 0.6181, -0.7461 -0.0267 0.6203, -0.7461 -0.0189 0.6264, -0.7461 -0.0133 0.6289, -0.7461 -0.0095 0.6307, -0.7461 -0.0025 0.632, -0.7461 0.0004 0.6326, -0.7461 0.0034 0.6327, -0.7461 0.0132 0.6315, -0.7461 0.023 0.6279, -0.7461 0.0321 0.6216, -0.7461 0.0387 0.6139, -0.7461 0.0435 0.6045, -0.7461 0.0448 0.6005, -0.7461 0.0455 0.6002, -0.7461 0.0504 0.5979, -0.7461 0.0553 0.594, -0.7461 0.0591 0.5888, -0.7461 0.0602 0.5864, -0.7461 0.0617 0.5827, -0.7461 0.0627 0.5765, -0.7461 0.0627 0.5755, -0.7461 0.0363 0.5491, -0.7461 0.0619 0.5691, -0.7461 0.0602 0.5646, -0.7461 0.0596 0.5632, -0.7461 0.056 0.558, -0.7461 0.0514 0.5539, -0.7461 0.0456 0.5508, -0.7461 0.0455 0.5508, -0.7461 0.039 0.5493, -0.7461 0.0337 0.5491, -0.7461 0.0142 0.5122, -0.7461 0.0002 0.5204, -0.7461 0.0187 0.5557, -0.7461 0.0145 0.5603, -0.7461 0.0115 0.5659, -0.7461 0.0099 0.5723, -0.7461 0.0097 0.5755, -0.7461 0.0105 0.5818, -0.7461 0.0127 0.5876, -0.7461 0.0165 0.593, -0.7461 0.0214 0.5973, -0.7461 0.0271 0.6002, -0.7461 0.0236 0.606, -0.7461 0.0187 0.6107, -0.7461 0.0134 0.6139, -0.7461 0.0069 0.6157, -0.7461 0.0029 0.6161, -0.7461 -0.0025 0.6154, -0.7461 -0.0035 0.6153, -0.7461 -0.0094 0.613, -0.7461 -0.0133 0.6103, -0.7461 -0.0146 0.6094, -0.7461 -0.0187 0.6048, -0.7461 -0.0218 0.5989, -0.7461 -0.0234 0.5924, -0.7461 -0.0235 0.5897, -0.7461 -0.0227 0.5836, -0.7461 -0.0206 0.5776, -0.7461 -0.0195 0.5757, -0.7461 -0.0279 0.5717, -0.7461 -0.0349 0.5658, -0.7461 -0.0401 0.5587, -0.7461 -0.0436 0.5501, -0.7461 -0.0448 0.5404, -0.7461 -0.0119 0.5035, -0.7461 -0.0133 0.5038, -0.7461 -0.0192 0.5051, -0.7461 -0.0277 0.5092, -0.7461 -0.0348 0.5151, -0.7461 -0.0354 0.5158, -0.7461 -0.0406 0.5232, -0.7461 -0.0437 0.5315, -0.7461 -0.0119 0.5014, -0.7461 -0.0113 0.4964, -0.7461 -0.0095 0.4918, -0.7461 -0.0067 0.4877, -0.7461 -0.0032 0.4847, -0.7461 -0.0025 0.4842, -0.7461 0.0013 0.4822, -0.7461 0.0064 0.481, -0.7461 0.0087 0.4809, -0.7461 0.0138 0.4815, -0.7461 0.0185 0.4833, -0.7461 0.0226 0.4862, -0.7461 0.023 0.4866, -0.7461 0.0262 0.4905, -0.7461 0.0283 0.4951, -0.7461 0.0292 0.4998, -0.7461 0.0292 0.5117, -0.7461 0.0291 0.5122, -0.7461 0.029 0.513, -0.7461 0.029 0.5133, -0.7461 0.0292 0.5153, -0.7461 0.0299 0.5171, -0.7461 0.0311 0.5187, -0.7461 0.0323 0.5198, -0.7461 0.0341 0.5208, -0.7461 0.0361 0.5214, -0.7461 0.0371 0.5214, -0.7461 0.0391 0.5212, -0.7461 0.0409 0.5205, -0.7461 0.0425 0.5193, -0.7461 0.0432 0.5187, -0.7461 0.0444 0.517, -0.7461 0.0451 0.5153, -0.7461 0.0453 0.5138, -0.7461 0.0453 0.4982, -0.7461 0.0434 0.4895, -0.7461 0.0395 0.4814, -0.7461 0.0334 0.4743, -0.7461 0.0262 0.469, -0.7461 0.0178 0.4657, -0.7461 0.0263 0.5757, -0.7461 0.0266 0.5734, -0.7461 0.0275 0.571, -0.7461 0.0289 0.5689, -0.7461 0.0309 0.5672, -0.7461 0.033 0.5661, -0.7461 0.0355 0.5655, -0.7461 0.0377 0.5655, -0.7461 0.0402 0.5661, -0.7461 0.0425 0.5673, -0.7461 0.0444 0.569, -0.7461 0.0458 0.5711, -0.7461 0.0466 0.5734, -0.7461 0.0469 0.5757, -0.7461 0.0467 0.5776, -0.7461 0.0459 0.5801, -0.7461 0.0445 0.5823, -0.7461 0.0427 0.584, -0.7461 0.0406 0.5852, -0.7461 0.0382 0.5859, -0.7461 0.0356 0.586, -0.7461 0.033 0.5854, -0.7461 0.0307 0.5842, -0.7461 0.0288 0.5825, -0.7461 0.0274 0.5804, -0.7461 0.0266 0.5781
            ]
        }
        coordIndex [
            0,1,2,-1,3,4,5,-1,6,7,8,-1,9,10,11,-1,11,10,12,-1,5,4,13,-1,14,15,16,-1,16,15,17,-1,16,17,18,-1,18,17,19,-1,18,19,8,-1,8,19,20,-1,8,20,6,-1,4,21,13,-1,13,21,22,-1,13,22,23,-1,23,22,24,-1,23,24,25,-1,25,24,26,-1,1,27,2,-1,2,27,28,-1,2,28,29,-1,29,28,30,-1,29,30,31,-1,31,30,32,-1,26,33,25,-1,25,33,34,-1,25,34,35,-1,35,34,36,-1,35,36,37,-1,37,36,38,-1,39,40,41,-1,41,40,42,-1,41,42,43,-1,43,42,44,-1,43,44,45,-1,45,44,46,-1,45,46,47,-1,47,46,48,-1,47,48,49,-1,49,48,50,-1,12,51,11,-1,11,51,52,-1,11,52,53,-1,53,52,54,-1,55,56,17,-1,57,58,59,-1,59,58,60,-1,59,60,61,-1,61,60,62,-1,61,62,63,-1,63,62,64,-1,63,64,65,-1,65,64,66,-1,65,66,67,-1,5,68,3,-1,3,68,69,-1,3,69,70,-1,70,69,71,-1,70,71,72,-1,72,71,73,-1,72,73,50,-1,50,73,74,-1,50,74,49,-1,30,75,32,-1,32,75,76,-1,32,76,77,-1,77,76,78,-1,77,78,79,-1,79,78,80,-1,79,80,81,-1,81,80,82,-1,81,82,83,-1,83,82,84,-1,83,84,85,-1,85,84,86,-1,85,86,57,-1,57,86,87,-1,57,87,58,-1,56,88,17,-1,17,88,89,-1,17,89,19,-1,19,89,90,-1,19,90,91,-1,91,92,19,-1,19,92,93,-1,19,93,94,-1,94,93,95,-1,94,95,96,-1,96,95,97,-1,96,97,98,-1,0,2,99,-1,99,2,100,-1,99,100,101,-1,101,100,102,-1,101,102,103,-1,103,102,104,-1,103,104,105,-1,105,104,106,-1,105,106,107,-1,107,106,108,-1,107,108,109,-1,109,108,110,-1,109,110,111,-1,111,110,112,-1,111,112,38,-1,38,112,113,-1,38,113,37,-1,114,115,116,-1,55,17,117,-1,117,17,118,-1,117,118,119,-1,119,118,120,-1,119,120,121,-1,121,120,122,-1,121,122,123,-1,123,122,124,-1,123,124,125,-1,125,124,126,-1,125,126,127,-1,127,126,128,-1,127,128,129,-1,129,128,130,-1,129,130,131,-1,131,130,132,-1,131,132,133,-1,133,132,39,-1,133,39,134,-1,134,39,41,-1,134,41,54,-1,54,41,135,-1,54,135,53,-1,66,136,67,-1,67,136,114,-1,67,114,137,-1,137,114,116,-1,9,11,97,-1,97,11,138,-1,97,138,139,-1,140,141,114,-1,114,141,142,-1,114,142,115,-1,139,143,97,-1,97,143,144,-1,97,144,98,-1,145,146,147,-1,146,148,147,-1,147,148,149,-1,147,149,150,-1,140,114,147,-1,147,114,151,-1,147,151,145,-1,152,32,153,-1,153,32,77,-1,153,77,154,-1,154,77,79,-1,154,79,155,-1,155,79,81,-1,155,81,156,-1,152,157,32,-1,32,157,158,-1,32,158,31,-1,31,158,159,-1,31,159,29,-1,29,159,160,-1,29,160,2,-1,2,160,161,-1,2,161,100,-1,100,161,162,-1,100,162,102,-1,102,162,163,-1,102,163,104,-1,104,163,106,-1,106,163,164,-1,164,165,106,-1,106,165,166,-1,106,166,108,-1,108,166,167,-1,108,167,110,-1,168,37,169,-1,169,37,113,-1,169,113,170,-1,170,113,112,-1,170,112,171,-1,171,112,110,-1,171,110,167,-1,37,168,172,-1,37,172,35,-1,35,172,173,-1,35,173,25,-1,25,173,174,-1,25,174,23,-1,23,174,175,-1,23,175,13,-1,13,175,176,-1,13,176,5,-1,5,176,177,-1,5,177,68,-1,68,177,178,-1,68,178,69,-1,69,178,179,-1,69,179,71,-1,74,73,180,-1,180,73,71,-1,180,71,179,-1,180,181,74,-1,74,181,182,-1,74,182,49,-1,49,182,183,-1,183,184,49,-1,49,184,185,-1,49,185,47,-1,47,185,186,-1,47,186,45,-1,45,186,187,-1,45,187,43,-1,43,187,188,-1,43,188,41,-1,41,188,189,-1,41,189,135,-1,135,189,190,-1,135,190,53,-1,53,190,191,-1,53,191,11,-1,11,191,192,-1,11,192,138,-1,192,193,138,-1,138,193,194,-1,138,194,139,-1,139,194,195,-1,139,195,143,-1,143,195,196,-1,143,196,144,-1,196,197,144,-1,144,197,198,-1,144,198,98,-1,98,198,199,-1,98,199,96,-1,200,18,8,-1,96,199,201,-1,96,201,94,-1,94,201,202,-1,94,202,19,-1,202,203,19,-1,19,203,204,-1,19,204,20,-1,20,204,205,-1,20,205,6,-1,6,205,206,-1,6,206,7,-1,7,206,207,-1,7,207,8,-1,8,207,208,-1,8,208,200,-1,16,18,209,-1,209,18,200,-1,14,16,210,-1,210,16,209,-1,15,14,211,-1,211,14,210,-1,17,15,212,-1,212,15,211,-1,17,212,213,-1,17,213,118,-1,118,213,214,-1,118,214,120,-1,120,214,215,-1,120,215,122,-1,122,215,216,-1,122,216,124,-1,124,216,217,-1,124,217,126,-1,126,217,218,-1,126,218,128,-1,128,218,219,-1,128,219,130,-1,130,219,220,-1,130,220,132,-1,132,220,221,-1,132,221,39,-1,39,221,222,-1,39,222,40,-1,40,222,223,-1,40,223,42,-1,42,223,224,-1,42,224,44,-1,44,224,225,-1,44,225,46,-1,46,225,226,-1,46,226,48,-1,226,227,48,-1,48,227,50,-1,227,228,50,-1,50,228,229,-1,50,229,72,-1,72,229,230,-1,72,230,70,-1,230,231,70,-1,70,231,232,-1,70,232,3,-1,3,232,233,-1,3,233,4,-1,4,233,234,-1,4,234,21,-1,21,234,235,-1,21,235,22,-1,22,235,236,-1,22,236,24,-1,24,236,237,-1,24,237,26,-1,26,237,238,-1,26,238,33,-1,33,238,239,-1,33,239,34,-1,34,239,240,-1,34,240,36,-1,36,240,241,-1,36,241,38,-1,38,241,242,-1,38,242,111,-1,111,242,243,-1,111,243,109,-1,244,1,245,-1,245,1,0,-1,245,0,246,-1,246,0,99,-1,246,99,247,-1,247,99,101,-1,247,101,248,-1,248,101,103,-1,248,103,249,-1,249,103,105,-1,249,105,250,-1,250,105,107,-1,250,107,251,-1,251,107,109,-1,251,109,243,-1,27,1,252,-1,252,1,244,-1,27,252,253,-1,27,253,28,-1,28,253,254,-1,28,254,30,-1,30,254,255,-1,30,255,75,-1,75,255,256,-1,75,256,76,-1,76,256,257,-1,76,257,78,-1,257,258,78,-1,78,258,259,-1,78,259,80,-1,80,259,260,-1,80,260,82,-1,82,260,261,-1,82,261,84,-1,84,261,262,-1,84,262,86,-1,86,262,263,-1,86,263,87,-1,87,263,264,-1,87,264,58,-1,58,264,265,-1,58,265,60,-1,60,265,266,-1,60,266,62,-1,62,266,267,-1,62,267,64,-1,66,64,268,-1,268,64,267,-1,66,268,269,-1,66,269,136,-1,136,269,270,-1,136,270,114,-1,114,270,271,-1,114,271,151,-1,151,271,272,-1,151,272,145,-1,145,272,273,-1,145,273,146,-1,146,273,274,-1,146,274,148,-1,148,274,275,-1,148,275,149,-1,149,275,276,-1,149,276,150,-1,150,276,277,-1,150,277,147,-1,147,277,278,-1,147,278,140,-1,140,278,279,-1,140,279,141,-1,141,279,280,-1,141,280,142,-1,142,280,281,-1,142,281,115,-1,115,281,282,-1,115,282,116,-1,116,282,283,-1,116,283,137,-1,137,283,284,-1,137,284,67,-1,67,284,285,-1,67,285,65,-1,63,65,286,-1,286,65,285,-1,63,286,287,-1,63,287,61,-1,61,287,288,-1,61,288,59,-1,59,288,289,-1,59,289,57,-1,57,289,290,-1,57,290,85,-1,85,290,291,-1,85,291,83,-1,83,291,156,-1,83,156,81,-1,123,292,293,-1,123,293,121,-1,121,293,294,-1,121,294,119,-1,119,294,295,-1,119,295,117,-1,117,295,296,-1,117,296,55,-1,55,296,297,-1,55,297,56,-1,56,297,298,-1,56,298,88,-1,88,298,299,-1,88,299,89,-1,89,299,300,-1,89,300,90,-1,90,300,301,-1,90,301,91,-1,91,301,302,-1,91,302,92,-1,92,302,303,-1,92,303,93,-1,93,303,304,-1,93,304,95,-1,95,304,305,-1,95,305,97,-1,97,305,306,-1,97,306,9,-1,9,306,307,-1,9,307,10,-1,10,307,308,-1,10,308,12,-1,12,308,309,-1,12,309,51,-1,51,309,310,-1,51,310,52,-1,52,310,311,-1,52,311,54,-1,54,311,312,-1,54,312,134,-1,134,312,313,-1,134,313,133,-1,133,313,314,-1,133,314,131,-1,131,314,315,-1,131,315,129,-1,129,315,316,-1,129,316,127,-1,127,316,317,-1,127,317,125,-1,125,317,292,-1,125,292,123,-1,
        ]
    }
}
Shape{
    appearance Appearance {
        material  Material 	{
            diffuseColor 0.7529411764705882 0.7529411764705882 0.7529411764705882
            specularColor 0.3764705882352941 0.3764705882352941 0.3764705882352941
            ambientIntensity 0.7529
            transparency 0.0
            shininess 0.5
        }
    }
    geometry IndexedFaceSet {
        ccw TRUE
        solid FALSE
        coord DEF co Coordinate {
            point [
                -0.7461 0.0467 0.5776, -0.7461 0.0469 0.5757, -0.7461 0.0263 0.5757, -0.7461 0.0355 0.5655, -0.7461 0.0377 0.5655, -0.7461 0.0466 0.5734, -0.7461 0.0458 0.5711, -0.7461 0.033 0.5661, -0.7461 0.0309 0.5672, -0.7461 0.0289 0.5689, -0.7461 0.0274 0.5804, -0.7461 0.0427 0.584, -0.7461 0.0445 0.5823, -0.7461 0.0275 0.571, -0.7461 0.0266 0.5734, -0.7461 0.0406 0.5852, -0.7461 0.0288 0.5825, -0.7461 0.0382 0.5859, -0.7461 0.0266 0.5781, -0.7461 0.0459 0.5801, -0.7461 0.0444 0.569, -0.7461 0.0425 0.5673, -0.7461 0.0402 0.5661, -0.7461 0.0356 0.586, -0.7461 0.0307 0.5842, -0.7461 0.033 0.5854
            ]
        }
        coordIndex [
            0,1,2,-1,3,1,4,-1,4,1,5,-1,4,5,6,-1,3,7,1,-1,1,7,8,-1,1,8,9,-1,10,11,12,-1,9,13,1,-1,1,13,14,-1,1,14,2,-1,11,10,15,-1,15,10,16,-1,15,16,17,-1,2,18,0,-1,0,18,10,-1,0,10,19,-1,19,10,12,-1,6,20,4,-1,4,20,21,-1,4,21,22,-1,17,16,23,-1,23,16,24,-1,23,24,25,-1,
        ]
    }
}